<?xml version="1.0" standalone="no"?>
 <!DOCTYPE svg PUBLIC "-//W3C//DTD SVG 1.1//EN" 
 "http://www.w3.org/Graphics/SVG/1.1/DTD/svg11.dtd"> 
<svg xmlns="http://www.w3.org/2000/svg" version="1.1" 
    width="29.7002cm" height="21.0007cm" viewBox="0 0 116930 82680 ">
<title>SVG Picture created as Raspberry-I2C-LCD-and-Keypad.svg date 2019/08/25 19:57:41 </title>
  <desc>Picture generated by Eeschema-SVG </desc>
<g style="fill:#000000; fill-opacity:1;stroke:#000000; stroke-opacity:1;
stroke-linecap:round; stroke-linejoin:round; "
 transform="translate(0 0) scale(1 1)">
</g>
<g style="fill:#000000; fill-opacity:0.0; 
stroke:#000000; stroke-width:-10; stroke-opacity:1; 
stroke-linecap:round; stroke-linejoin:round;">
</g>
<g style="fill:#840000; fill-opacity:0.0; 
stroke:#840000; stroke-width:-10; stroke-opacity:1; 
stroke-linecap:round; stroke-linejoin:round;">
</g>
<g style="fill:#840000; fill-opacity:0.0; 
stroke:#840000; stroke-width:100; stroke-opacity:1; 
stroke-linecap:round; stroke-linejoin:round;">
</g>
<g style="fill:#840000; fill-opacity:0.0; 
stroke:#840000; stroke-width:60; stroke-opacity:1; 
stroke-linecap:round; stroke-linejoin:round;">
<rect x="69690" y="65360" width="42520" height="12600" rx="0" />
</g>
<g style="fill:#840000; fill-opacity:0.0; 
stroke:#840000; stroke-width:100; stroke-opacity:1; 
stroke-linecap:round; stroke-linejoin:round;">
</g>
<g style="fill:#840000; fill-opacity:0.0; 
stroke:#840000; stroke-width:60; stroke-opacity:1; 
stroke-linecap:round; stroke-linejoin:round;">
<rect x="3940" y="3940" width="109050" height="74800" rx="0" />
</g>
<g style="fill:#840000; fill-opacity:0.0; 
stroke:#840000; stroke-width:100; stroke-opacity:1; 
stroke-linecap:round; stroke-linejoin:round;">
</g>
<g style="fill:#840000; fill-opacity:0.0; 
stroke:#840000; stroke-width:60; stroke-opacity:1; 
stroke-linecap:round; stroke-linejoin:round;">
<rect x="4720" y="4720" width="107490" height="73240" rx="0" />
</g>
<g style="fill:#840000; fill-opacity:0.0; 
stroke:#840000; stroke-width:100; stroke-opacity:1; 
stroke-linecap:round; stroke-linejoin:round;">
</g>
<g style="fill:#840000; fill-opacity:0.0; 
stroke:#840000; stroke-width:60; stroke-opacity:1; 
stroke-linecap:round; stroke-linejoin:round;">
<path d="M23620 4720
L23620 3940
" />
</g>
<g style="fill:#840000; fill-opacity:0.0; 
stroke:#840000; stroke-width:100; stroke-opacity:1; 
stroke-linecap:round; stroke-linejoin:round;">
</g>
<g style="fill:#840000; fill-opacity:0.0; 
stroke:#840000; stroke-width:60; stroke-opacity:1; 
stroke-linecap:round; stroke-linejoin:round;">
<path d="M43310 4720
L43310 3940
" />
</g>
<g style="fill:#840000; fill-opacity:0.0; 
stroke:#840000; stroke-width:100; stroke-opacity:1; 
stroke-linecap:round; stroke-linejoin:round;">
</g>
<g style="fill:#840000; fill-opacity:0.0; 
stroke:#840000; stroke-width:60; stroke-opacity:1; 
stroke-linecap:round; stroke-linejoin:round;">
<path d="M62990 4720
L62990 3940
" />
</g>
<g style="fill:#840000; fill-opacity:0.0; 
stroke:#840000; stroke-width:100; stroke-opacity:1; 
stroke-linecap:round; stroke-linejoin:round;">
</g>
<g style="fill:#840000; fill-opacity:0.0; 
stroke:#840000; stroke-width:60; stroke-opacity:1; 
stroke-linecap:round; stroke-linejoin:round;">
<path d="M82680 4720
L82680 3940
" />
</g>
<g style="fill:#840000; fill-opacity:0.0; 
stroke:#840000; stroke-width:100; stroke-opacity:1; 
stroke-linecap:round; stroke-linejoin:round;">
</g>
<g style="fill:#840000; fill-opacity:0.0; 
stroke:#840000; stroke-width:60; stroke-opacity:1; 
stroke-linecap:round; stroke-linejoin:round;">
<path d="M102360 4720
L102360 3940
" />
</g>
<g style="fill:#840000; fill-opacity:0.0; 
stroke:#840000; stroke-width:100; stroke-opacity:1; 
stroke-linecap:round; stroke-linejoin:round;">
</g>
<g style="fill:#840000; fill-opacity:0.0; 
stroke:#840000; stroke-width:60; stroke-opacity:1; 
stroke-linecap:round; stroke-linejoin:round;">
<path d="M14190 4560
L13900 4560
" />
<path d="M14050 4560
L14050 4050
L14000 4120
L13950 4170
L13900 4190
" />
</g>
<g style="fill:#840000; fill-opacity:0.0; 
stroke:#840000; stroke-width:100; stroke-opacity:1; 
stroke-linecap:round; stroke-linejoin:round;">
</g>
<g style="fill:#840000; fill-opacity:0.0; 
stroke:#840000; stroke-width:60; stroke-opacity:1; 
stroke-linecap:round; stroke-linejoin:round;">
<path d="M33580 4090
L33610 4070
L33660 4050
L33780 4050
L33830 4070
L33850 4090
L33870 4140
L33870 4190
L33850 4260
L33560 4560
L33870 4560
" />
</g>
<g style="fill:#840000; fill-opacity:0.0; 
stroke:#840000; stroke-width:100; stroke-opacity:1; 
stroke-linecap:round; stroke-linejoin:round;">
</g>
<g style="fill:#840000; fill-opacity:0.0; 
stroke:#840000; stroke-width:60; stroke-opacity:1; 
stroke-linecap:round; stroke-linejoin:round;">
<path d="M53250 4050
L53560 4050
L53390 4240
L53470 4240
L53520 4260
L53540 4290
L53560 4340
L53560 4460
L53540 4510
L53520 4530
L53470 4560
L53320 4560
L53270 4530
L53250 4510
" />
</g>
<g style="fill:#840000; fill-opacity:0.0; 
stroke:#840000; stroke-width:100; stroke-opacity:1; 
stroke-linecap:round; stroke-linejoin:round;">
</g>
<g style="fill:#840000; fill-opacity:0.0; 
stroke:#840000; stroke-width:60; stroke-opacity:1; 
stroke-linecap:round; stroke-linejoin:round;">
<path d="M73200 4220
L73200 4560
" />
<path d="M73070 4020
L72950 4390
L73270 4390
" />
</g>
<g style="fill:#840000; fill-opacity:0.0; 
stroke:#840000; stroke-width:100; stroke-opacity:1; 
stroke-linecap:round; stroke-linejoin:round;">
</g>
<g style="fill:#840000; fill-opacity:0.0; 
stroke:#840000; stroke-width:60; stroke-opacity:1; 
stroke-linecap:round; stroke-linejoin:round;">
<path d="M92910 4050
L92670 4050
L92640 4290
L92670 4260
L92720 4240
L92840 4240
L92890 4260
L92910 4290
L92930 4340
L92930 4460
L92910 4510
L92890 4530
L92840 4560
L92720 4560
L92670 4530
L92640 4510
" />
</g>
<g style="fill:#840000; fill-opacity:0.0; 
stroke:#840000; stroke-width:100; stroke-opacity:1; 
stroke-linecap:round; stroke-linejoin:round;">
</g>
<g style="fill:#840000; fill-opacity:0.0; 
stroke:#840000; stroke-width:60; stroke-opacity:1; 
stroke-linecap:round; stroke-linejoin:round;">
<path d="M112570 4050
L112470 4050
L112420 4070
L112400 4090
L112350 4170
L112320 4260
L112320 4460
L112350 4510
L112370 4530
L112420 4560
L112520 4560
L112570 4530
L112590 4510
L112610 4460
L112610 4340
L112590 4290
L112570 4260
L112520 4240
L112420 4240
L112370 4260
L112350 4290
L112320 4340
" />
</g>
<g style="fill:#840000; fill-opacity:0.0; 
stroke:#840000; stroke-width:100; stroke-opacity:1; 
stroke-linecap:round; stroke-linejoin:round;">
</g>
<g style="fill:#840000; fill-opacity:0.0; 
stroke:#840000; stroke-width:60; stroke-opacity:1; 
stroke-linecap:round; stroke-linejoin:round;">
<path d="M23620 77960
L23620 78740
" />
</g>
<g style="fill:#840000; fill-opacity:0.0; 
stroke:#840000; stroke-width:100; stroke-opacity:1; 
stroke-linecap:round; stroke-linejoin:round;">
</g>
<g style="fill:#840000; fill-opacity:0.0; 
stroke:#840000; stroke-width:60; stroke-opacity:1; 
stroke-linecap:round; stroke-linejoin:round;">
<path d="M43310 77960
L43310 78740
" />
</g>
<g style="fill:#840000; fill-opacity:0.0; 
stroke:#840000; stroke-width:100; stroke-opacity:1; 
stroke-linecap:round; stroke-linejoin:round;">
</g>
<g style="fill:#840000; fill-opacity:0.0; 
stroke:#840000; stroke-width:60; stroke-opacity:1; 
stroke-linecap:round; stroke-linejoin:round;">
<path d="M62990 77960
L62990 78740
" />
</g>
<g style="fill:#840000; fill-opacity:0.0; 
stroke:#840000; stroke-width:100; stroke-opacity:1; 
stroke-linecap:round; stroke-linejoin:round;">
</g>
<g style="fill:#840000; fill-opacity:0.0; 
stroke:#840000; stroke-width:60; stroke-opacity:1; 
stroke-linecap:round; stroke-linejoin:round;">
<path d="M82680 77960
L82680 78740
" />
</g>
<g style="fill:#840000; fill-opacity:0.0; 
stroke:#840000; stroke-width:100; stroke-opacity:1; 
stroke-linecap:round; stroke-linejoin:round;">
</g>
<g style="fill:#840000; fill-opacity:0.0; 
stroke:#840000; stroke-width:60; stroke-opacity:1; 
stroke-linecap:round; stroke-linejoin:round;">
<path d="M102360 77960
L102360 78740
" />
</g>
<g style="fill:#840000; fill-opacity:0.0; 
stroke:#840000; stroke-width:100; stroke-opacity:1; 
stroke-linecap:round; stroke-linejoin:round;">
</g>
<g style="fill:#840000; fill-opacity:0.0; 
stroke:#840000; stroke-width:60; stroke-opacity:1; 
stroke-linecap:round; stroke-linejoin:round;">
<path d="M14190 78580
L13900 78580
" />
<path d="M14050 78580
L14050 78070
L14000 78140
L13950 78190
L13900 78210
" />
</g>
<g style="fill:#840000; fill-opacity:0.0; 
stroke:#840000; stroke-width:100; stroke-opacity:1; 
stroke-linecap:round; stroke-linejoin:round;">
</g>
<g style="fill:#840000; fill-opacity:0.0; 
stroke:#840000; stroke-width:60; stroke-opacity:1; 
stroke-linecap:round; stroke-linejoin:round;">
<path d="M33580 78110
L33610 78090
L33660 78070
L33780 78070
L33830 78090
L33850 78110
L33870 78160
L33870 78210
L33850 78280
L33560 78580
L33870 78580
" />
</g>
<g style="fill:#840000; fill-opacity:0.0; 
stroke:#840000; stroke-width:100; stroke-opacity:1; 
stroke-linecap:round; stroke-linejoin:round;">
</g>
<g style="fill:#840000; fill-opacity:0.0; 
stroke:#840000; stroke-width:60; stroke-opacity:1; 
stroke-linecap:round; stroke-linejoin:round;">
<path d="M53250 78070
L53560 78070
L53390 78260
L53470 78260
L53520 78280
L53540 78310
L53560 78360
L53560 78480
L53540 78530
L53520 78550
L53470 78580
L53320 78580
L53270 78550
L53250 78530
" />
</g>
<g style="fill:#840000; fill-opacity:0.0; 
stroke:#840000; stroke-width:100; stroke-opacity:1; 
stroke-linecap:round; stroke-linejoin:round;">
</g>
<g style="fill:#840000; fill-opacity:0.0; 
stroke:#840000; stroke-width:60; stroke-opacity:1; 
stroke-linecap:round; stroke-linejoin:round;">
<path d="M73200 78240
L73200 78580
" />
<path d="M73070 78040
L72950 78410
L73270 78410
" />
</g>
<g style="fill:#840000; fill-opacity:0.0; 
stroke:#840000; stroke-width:100; stroke-opacity:1; 
stroke-linecap:round; stroke-linejoin:round;">
</g>
<g style="fill:#840000; fill-opacity:0.0; 
stroke:#840000; stroke-width:60; stroke-opacity:1; 
stroke-linecap:round; stroke-linejoin:round;">
<path d="M92910 78070
L92670 78070
L92640 78310
L92670 78280
L92720 78260
L92840 78260
L92890 78280
L92910 78310
L92930 78360
L92930 78480
L92910 78530
L92890 78550
L92840 78580
L92720 78580
L92670 78550
L92640 78530
" />
</g>
<g style="fill:#840000; fill-opacity:0.0; 
stroke:#840000; stroke-width:100; stroke-opacity:1; 
stroke-linecap:round; stroke-linejoin:round;">
</g>
<g style="fill:#840000; fill-opacity:0.0; 
stroke:#840000; stroke-width:60; stroke-opacity:1; 
stroke-linecap:round; stroke-linejoin:round;">
<path d="M112570 78070
L112470 78070
L112420 78090
L112400 78110
L112350 78190
L112320 78280
L112320 78480
L112350 78530
L112370 78550
L112420 78580
L112520 78580
L112570 78550
L112590 78530
L112610 78480
L112610 78360
L112590 78310
L112570 78280
L112520 78260
L112420 78260
L112370 78280
L112350 78310
L112320 78360
" />
</g>
<g style="fill:#840000; fill-opacity:0.0; 
stroke:#840000; stroke-width:100; stroke-opacity:1; 
stroke-linecap:round; stroke-linejoin:round;">
</g>
<g style="fill:#840000; fill-opacity:0.0; 
stroke:#840000; stroke-width:60; stroke-opacity:1; 
stroke-linecap:round; stroke-linejoin:round;">
<path d="M3940 23620
L4720 23620
" />
</g>
<g style="fill:#840000; fill-opacity:0.0; 
stroke:#840000; stroke-width:100; stroke-opacity:1; 
stroke-linecap:round; stroke-linejoin:round;">
</g>
<g style="fill:#840000; fill-opacity:0.0; 
stroke:#840000; stroke-width:60; stroke-opacity:1; 
stroke-linecap:round; stroke-linejoin:round;">
<path d="M3940 43310
L4720 43310
" />
</g>
<g style="fill:#840000; fill-opacity:0.0; 
stroke:#840000; stroke-width:100; stroke-opacity:1; 
stroke-linecap:round; stroke-linejoin:round;">
</g>
<g style="fill:#840000; fill-opacity:0.0; 
stroke:#840000; stroke-width:60; stroke-opacity:1; 
stroke-linecap:round; stroke-linejoin:round;">
<path d="M3940 62990
L4720 62990
" />
</g>
<g style="fill:#840000; fill-opacity:0.0; 
stroke:#840000; stroke-width:100; stroke-opacity:1; 
stroke-linecap:round; stroke-linejoin:round;">
</g>
<g style="fill:#840000; fill-opacity:0.0; 
stroke:#840000; stroke-width:60; stroke-opacity:1; 
stroke-linecap:round; stroke-linejoin:round;">
<path d="M4200 13860
L4450 13860
" />
<path d="M4160 14010
L4330 13500
L4500 14010
" />
</g>
<g style="fill:#840000; fill-opacity:0.0; 
stroke:#840000; stroke-width:100; stroke-opacity:1; 
stroke-linecap:round; stroke-linejoin:round;">
</g>
<g style="fill:#840000; fill-opacity:0.0; 
stroke:#840000; stroke-width:60; stroke-opacity:1; 
stroke-linecap:round; stroke-linejoin:round;">
<path d="M4360 33420
L4430 33440
L4460 33470
L4480 33520
L4480 33590
L4460 33640
L4430 33660
L4390 33690
L4190 33690
L4190 33180
L4360 33180
L4410 33200
L4430 33220
L4460 33270
L4460 33320
L4430 33370
L4410 33390
L4360 33420
L4190 33420
" />
</g>
<g style="fill:#840000; fill-opacity:0.0; 
stroke:#840000; stroke-width:100; stroke-opacity:1; 
stroke-linecap:round; stroke-linejoin:round;">
</g>
<g style="fill:#840000; fill-opacity:0.0; 
stroke:#840000; stroke-width:60; stroke-opacity:1; 
stroke-linecap:round; stroke-linejoin:round;">
<path d="M4480 53330
L4460 53350
L4390 53380
L4340 53380
L4260 53350
L4220 53300
L4190 53250
L4170 53160
L4170 53080
L4190 52990
L4220 52940
L4260 52890
L4340 52870
L4390 52870
L4460 52890
L4480 52910
" />
</g>
<g style="fill:#840000; fill-opacity:0.0; 
stroke:#840000; stroke-width:100; stroke-opacity:1; 
stroke-linecap:round; stroke-linejoin:round;">
</g>
<g style="fill:#840000; fill-opacity:0.0; 
stroke:#840000; stroke-width:60; stroke-opacity:1; 
stroke-linecap:round; stroke-linejoin:round;">
<path d="M4190 73060
L4190 72550
L4310 72550
L4390 72570
L4430 72620
L4460 72670
L4480 72760
L4480 72840
L4460 72930
L4430 72980
L4390 73030
L4310 73060
L4190 73060
" />
</g>
<g style="fill:#840000; fill-opacity:0.0; 
stroke:#840000; stroke-width:100; stroke-opacity:1; 
stroke-linecap:round; stroke-linejoin:round;">
</g>
<g style="fill:#840000; fill-opacity:0.0; 
stroke:#840000; stroke-width:60; stroke-opacity:1; 
stroke-linecap:round; stroke-linejoin:round;">
<path d="M112990 23620
L112210 23620
" />
</g>
<g style="fill:#840000; fill-opacity:0.0; 
stroke:#840000; stroke-width:100; stroke-opacity:1; 
stroke-linecap:round; stroke-linejoin:round;">
</g>
<g style="fill:#840000; fill-opacity:0.0; 
stroke:#840000; stroke-width:60; stroke-opacity:1; 
stroke-linecap:round; stroke-linejoin:round;">
<path d="M112990 43310
L112210 43310
" />
</g>
<g style="fill:#840000; fill-opacity:0.0; 
stroke:#840000; stroke-width:100; stroke-opacity:1; 
stroke-linecap:round; stroke-linejoin:round;">
</g>
<g style="fill:#840000; fill-opacity:0.0; 
stroke:#840000; stroke-width:60; stroke-opacity:1; 
stroke-linecap:round; stroke-linejoin:round;">
<path d="M112990 62990
L112210 62990
" />
</g>
<g style="fill:#840000; fill-opacity:0.0; 
stroke:#840000; stroke-width:100; stroke-opacity:1; 
stroke-linecap:round; stroke-linejoin:round;">
</g>
<g style="fill:#840000; fill-opacity:0.0; 
stroke:#840000; stroke-width:60; stroke-opacity:1; 
stroke-linecap:round; stroke-linejoin:round;">
<path d="M112470 13860
L112720 13860
" />
<path d="M112430 14010
L112600 13500
L112770 14010
" />
</g>
<g style="fill:#840000; fill-opacity:0.0; 
stroke:#840000; stroke-width:100; stroke-opacity:1; 
stroke-linecap:round; stroke-linejoin:round;">
</g>
<g style="fill:#840000; fill-opacity:0.0; 
stroke:#840000; stroke-width:60; stroke-opacity:1; 
stroke-linecap:round; stroke-linejoin:round;">
<path d="M112630 33420
L112700 33440
L112730 33470
L112750 33520
L112750 33590
L112730 33640
L112700 33660
L112660 33690
L112460 33690
L112460 33180
L112630 33180
L112680 33200
L112700 33220
L112730 33270
L112730 33320
L112700 33370
L112680 33390
L112630 33420
L112460 33420
" />
</g>
<g style="fill:#840000; fill-opacity:0.0; 
stroke:#840000; stroke-width:100; stroke-opacity:1; 
stroke-linecap:round; stroke-linejoin:round;">
</g>
<g style="fill:#840000; fill-opacity:0.0; 
stroke:#840000; stroke-width:60; stroke-opacity:1; 
stroke-linecap:round; stroke-linejoin:round;">
<path d="M112750 53330
L112730 53350
L112660 53380
L112610 53380
L112530 53350
L112490 53300
L112460 53250
L112440 53160
L112440 53080
L112460 52990
L112490 52940
L112530 52890
L112610 52870
L112660 52870
L112730 52890
L112750 52910
" />
</g>
<g style="fill:#840000; fill-opacity:0.0; 
stroke:#840000; stroke-width:100; stroke-opacity:1; 
stroke-linecap:round; stroke-linejoin:round;">
</g>
<g style="fill:#840000; fill-opacity:0.0; 
stroke:#840000; stroke-width:60; stroke-opacity:1; 
stroke-linecap:round; stroke-linejoin:round;">
<path d="M112460 73060
L112460 72550
L112580 72550
L112660 72570
L112700 72620
L112730 72670
L112750 72760
L112750 72840
L112730 72930
L112700 72980
L112660 73030
L112580 73060
L112460 73060
" />
</g>
<g style="fill:#840000; fill-opacity:0.0; 
stroke:#840000; stroke-width:100; stroke-opacity:1; 
stroke-linecap:round; stroke-linejoin:round;">
</g>
<g style="fill:#840000; fill-opacity:0.0; 
stroke:#840000; stroke-width:60; stroke-opacity:1; 
stroke-linecap:round; stroke-linejoin:round;">
<path d="M78910 76290
L78910 75700
L79050 75700
L79130 75730
L79190 75790
L79210 75840
L79240 75950
L79240 76040
L79210 76150
L79190 76210
L79130 76260
L79050 76290
L78910 76290
" />
<path d="M79750 76290
L79750 75980
L79720 75930
L79660 75900
L79550 75900
L79500 75930
" />
<path d="M79750 76260
L79690 76290
L79550 76290
L79500 76260
L79470 76210
L79470 76150
L79500 76100
L79550 76070
L79690 76070
L79750 76040
" />
<path d="M79950 75900
L80170 75900
" />
<path d="M80030 75700
L80030 76210
L80060 76260
L80110 76290
L80170 76290
" />
<path d="M80590 76260
L80540 76290
L80420 76290
L80370 76260
L80340 76210
L80340 75980
L80370 75930
L80420 75900
L80540 75900
L80590 75930
L80620 75980
L80620 76040
L80340 76100
" />
<path d="M80870 76240
L80900 76260
L80870 76290
L80840 76260
L80870 76240
L80870 76290
" />
<path d="M80870 75930
L80900 75950
L80870 75980
L80840 75950
L80870 75930
L80870 75980
" />
</g>
<g style="fill:#840000; fill-opacity:0.0; 
stroke:#840000; stroke-width:100; stroke-opacity:1; 
stroke-linecap:round; stroke-linejoin:round;">
</g>
<g style="fill:#840000; fill-opacity:0.0; 
stroke:#840000; stroke-width:60; stroke-opacity:1; 
stroke-linecap:round; stroke-linejoin:round;">
<path d="M69690 76580
L112210 76580
" />
</g>
<g style="fill:#840000; fill-opacity:0.0; 
stroke:#840000; stroke-width:100; stroke-opacity:1; 
stroke-linecap:round; stroke-linejoin:round;">
</g>
<g style="fill:#840000; fill-opacity:0.0; 
stroke:#840000; stroke-width:60; stroke-opacity:1; 
stroke-linecap:round; stroke-linejoin:round;">
<path d="M70250 77390
L70250 76800
" />
<path d="M70580 77390
L70330 77050
" />
<path d="M70580 76800
L70250 77140
" />
<path d="M70840 77390
L70840 77000
" />
<path d="M70840 76800
L70810 76830
L70840 76860
L70860 76830
L70840 76800
L70840 76860
" />
<path d="M71450 77340
L71430 77360
L71340 77390
L71290 77390
L71200 77360
L71140 77310
L71120 77250
L71090 77140
L71090 77050
L71120 76940
L71140 76890
L71200 76830
L71290 76800
L71340 76800
L71430 76830
L71450 76860
" />
<path d="M71960 77390
L71960 77080
L71930 77030
L71880 77000
L71760 77000
L71710 77030
" />
<path d="M71960 77360
L71900 77390
L71760 77390
L71710 77360
L71680 77310
L71680 77250
L71710 77200
L71760 77170
L71900 77170
L71960 77140
" />
<path d="M72490 77390
L72490 76800
" />
<path d="M72490 77360
L72440 77390
L72320 77390
L72270 77360
L72240 77340
L72210 77280
L72210 77110
L72240 77050
L72270 77030
L72320 77000
L72440 77000
L72490 77030
" />
<path d="M73220 77080
L73420 77080
" />
<path d="M73500 77390
L73220 77390
L73220 76800
L73500 76800
" />
<path d="M73760 77340
L73790 77360
L73760 77390
L73730 77360
L73760 77340
L73760 77390
" />
<path d="M74040 77390
L74040 76800
L74180 76800
L74260 76830
L74320 76890
L74350 76940
L74380 77050
L74380 77140
L74350 77250
L74320 77310
L74260 77360
L74180 77390
L74040 77390
" />
<path d="M74630 77340
L74660 77360
L74630 77390
L74600 77360
L74630 77340
L74630 77390
" />
<path d="M74880 77220
L75160 77220
" />
<path d="M74830 77390
L75020 76800
L75220 77390
" />
<path d="M75420 77340
L75440 77360
L75420 77390
L75390 77360
L75420 77340
L75420 77390
" />
<path d="M76600 77390
L76600 76800
" />
<path d="M76650 77170
L76820 77390
" />
<path d="M76820 77000
L76600 77220
" />
<path d="M77070 77390
L77070 77000
" />
<path d="M77070 76800
L77040 76830
L77070 76860
L77100 76830
L77070 76800
L77070 76860
" />
<path d="M77610 77360
L77550 77390
L77440 77390
L77380 77360
L77350 77340
L77330 77280
L77330 77110
L77350 77050
L77380 77030
L77440 77000
L77550 77000
L77610 77030
" />
<path d="M78110 77390
L78110 77080
L78080 77030
L78030 77000
L77920 77000
L77860 77030
" />
<path d="M78110 77360
L78060 77390
L77920 77390
L77860 77360
L77830 77310
L77830 77250
L77860 77200
L77920 77170
L78060 77170
L78110 77140
" />
<path d="M78650 77390
L78650 76800
" />
<path d="M78650 77360
L78590 77390
L78480 77390
L78420 77360
L78390 77340
L78370 77280
L78370 77110
L78390 77050
L78420 77030
L78480 77000
L78590 77000
L78650 77030
" />
<path d="M79660 76800
L79380 76800
L79350 77080
L79380 77050
L79430 77030
L79570 77030
L79630 77050
L79660 77080
L79690 77140
L79690 77280
L79660 77340
L79630 77360
L79570 77390
L79430 77390
L79380 77360
L79350 77340
" />
<path d="M79940 77340
L79970 77360
L79940 77390
L79910 77360
L79940 77340
L79940 77390
" />
<path d="M80530 77390
L80190 77390
" />
<path d="M80360 77390
L80360 76800
L80300 76890
L80250 76940
L80190 76970
" />
<path d="M80780 77340
L80810 77360
L80780 77390
L80750 77360
L80780 77340
L80780 77390
" />
<path d="M81320 77000
L81320 77390
" />
<path d="M81170 76770
L81030 77200
L81400 77200
" />
<path d="M81620 77170
L82070 77170
" />
<path d="M82580 77360
L82520 77390
L82410 77390
L82350 77360
L82330 77310
L82330 77080
L82350 77030
L82410 77000
L82520 77000
L82580 77030
L82610 77080
L82610 77140
L82330 77200
" />
<path d="M83110 76800
L83000 76800
L82940 76830
L82920 76860
L82860 76940
L82830 77050
L82830 77280
L82860 77340
L82890 77360
L82940 77390
L83060 77390
L83110 77360
L83140 77340
L83170 77280
L83170 77140
L83140 77080
L83110 77050
L83060 77030
L82940 77030
L82890 77050
L82860 77080
L82830 77140
" />
<path d="M83530 76800
L83590 76800
L83650 76830
L83680 76860
L83700 76910
L83730 77030
L83730 77170
L83700 77280
L83680 77340
L83650 77360
L83590 77390
L83530 77390
L83480 77360
L83450 77340
L83420 77280
L83390 77170
L83390 77030
L83420 76910
L83450 76860
L83480 76830
L83530 76800
" />
<path d="M83980 77390
L83980 76800
" />
<path d="M83980 77030
L84040 77000
L84150 77000
L84210 77030
L84240 77050
L84270 77110
L84270 77280
L84240 77340
L84210 77360
L84150 77390
L84040 77390
L83980 77360
" />
<path d="M84490 76860
L84520 76830
L84570 76800
L84710 76800
L84770 76830
L84800 76860
L84830 76910
L84830 76970
L84800 77050
L84460 77390
L84830 77390
" />
<path d="M85330 76800
L85220 76800
L85160 76830
L85140 76860
L85080 76940
L85050 77050
L85050 77280
L85080 77340
L85110 77360
L85160 77390
L85280 77390
L85330 77360
L85360 77340
L85390 77280
L85390 77140
L85360 77080
L85330 77050
L85280 77030
L85160 77030
L85110 77050
L85080 77080
L85050 77140
" />
<path d="M85890 76800
L85780 76800
L85730 76830
L85700 76860
L85640 76940
L85610 77050
L85610 77280
L85640 77340
L85670 77360
L85730 77390
L85840 77390
L85890 77360
L85920 77340
L85950 77280
L85950 77140
L85920 77080
L85890 77050
L85840 77030
L85730 77030
L85670 77050
L85640 77080
L85610 77140
" />
<path d="M86060 76640
L86630 76640
" />
<path d="M86290 77050
L86230 77030
L86200 77000
L86180 76940
L86180 76910
L86200 76860
L86230 76830
L86290 76800
L86400 76800
L86460 76830
L86480 76860
L86510 76910
L86510 76940
L86480 77000
L86460 77030
L86400 77050
L86290 77050
L86230 77080
L86200 77110
L86180 77170
L86180 77280
L86200 77340
L86230 77360
L86290 77390
L86400 77390
L86460 77360
L86480 77340
L86510 77280
L86510 77170
L86480 77110
L86460 77080
L86400 77050
" />
<path d="M86630 76640
L87190 76640
" />
<path d="M87020 77000
L87020 77390
" />
<path d="M86880 76770
L86740 77200
L87100 77200
" />
<path d="M87580 77000
L87580 77390
" />
<path d="M87330 77000
L87330 77310
L87360 77360
L87410 77390
L87500 77390
L87550 77360
L87580 77340
" />
<path d="M87860 77390
L87860 76800
" />
<path d="M87860 77030
L87920 77000
L88030 77000
L88090 77030
L88110 77050
L88140 77110
L88140 77280
L88110 77340
L88090 77360
L88030 77390
L87920 77390
L87860 77360
" />
<path d="M88650 77000
L88650 77390
" />
<path d="M88400 77000
L88400 77310
L88420 77360
L88480 77390
L88560 77390
L88620 77360
L88650 77340
" />
<path d="M88930 77000
L88930 77390
" />
<path d="M88930 77050
L88960 77030
L89010 77000
L89100 77000
L89150 77030
L89180 77080
L89180 77390
" />
<path d="M89380 77000
L89600 77000
" />
<path d="M89460 76800
L89460 77310
L89490 77360
L89550 77390
L89600 77390
" />
<path d="M90050 77000
L90050 77390
" />
<path d="M89800 77000
L89800 77310
L89830 77360
L89880 77390
L89970 77390
L90020 77360
L90050 77340
" />
<path d="M90640 77390
L90310 77390
" />
<path d="M90470 77390
L90470 76800
L90420 76890
L90360 76940
L90310 76970
" />
<path d="M91150 76800
L91040 76800
L90980 76830
L90950 76860
L90900 76940
L90870 77050
L90870 77280
L90900 77340
L90920 77360
L90980 77390
L91090 77390
L91150 77360
L91180 77340
L91200 77280
L91200 77140
L91180 77080
L91150 77050
L91090 77030
L90980 77030
L90920 77050
L90900 77080
L90870 77140
" />
<path d="M91460 77340
L91490 77360
L91460 77390
L91430 77360
L91460 77340
L91460 77390
" />
<path d="M91850 76800
L91910 76800
L91960 76830
L91990 76860
L92020 76910
L92050 77030
L92050 77170
L92020 77280
L91990 77340
L91960 77360
L91910 77390
L91850 77390
L91790 77360
L91770 77340
L91740 77280
L91710 77170
L91710 77030
L91740 76910
L91770 76860
L91790 76830
L91850 76800
" />
<path d="M92550 77000
L92550 77390
" />
<path d="M92410 76770
L92270 77200
L92640 77200
" />
<path d="M92860 77340
L92890 77360
L92860 77390
L92830 77360
L92860 77340
L92860 77390
" />
<path d="M93450 77390
L93120 77390
" />
<path d="M93280 77390
L93280 76800
L93230 76890
L93170 76940
L93120 76970
" />
</g>
<g style="fill:#840000; fill-opacity:0.0; 
stroke:#840000; stroke-width:100; stroke-opacity:1; 
stroke-linecap:round; stroke-linejoin:round;">
</g>
<g style="fill:#840000; fill-opacity:0.0; 
stroke:#840000; stroke-width:60; stroke-opacity:1; 
stroke-linecap:round; stroke-linejoin:round;">
<path d="M69690 75400
L112210 75400
" />
</g>
<g style="fill:#840000; fill-opacity:0.0; 
stroke:#840000; stroke-width:100; stroke-opacity:1; 
stroke-linecap:round; stroke-linejoin:round;">
</g>
<g style="fill:#840000; fill-opacity:0.0; 
stroke:#840000; stroke-width:120; stroke-opacity:1; 
stroke-linecap:round; stroke-linejoin:round;">
<path d="M104090 76290
L103890 76010
" />
<path d="M103750 76290
L103750 75700
L103980 75700
L104030 75730
L104060 75760
L104090 75810
L104090 75900
L104060 75950
L104030 75980
L103980 76010
L103750 76010
" />
<path d="M104570 76260
L104510 76290
L104400 76290
L104340 76260
L104320 76210
L104320 75980
L104340 75930
L104400 75900
L104510 75900
L104570 75930
L104600 75980
L104600 76040
L104320 76100
" />
<path d="M104790 75900
L104930 76290
L105070 75900
" />
<path d="M105300 76240
L105330 76260
L105300 76290
L105270 76260
L105300 76240
L105300 76290
" />
<path d="M105300 75930
L105330 75950
L105300 75980
L105270 75950
L105300 75930
L105300 75980
" />
</g>
<g style="fill:#840000; fill-opacity:0.0; 
stroke:#840000; stroke-width:100; stroke-opacity:1; 
stroke-linecap:round; stroke-linejoin:round;">
</g>
<g style="fill:#840000; fill-opacity:0.0; 
stroke:#840000; stroke-width:60; stroke-opacity:1; 
stroke-linecap:round; stroke-linejoin:round;">
<path d="M70220 76260
L70300 76290
L70440 76290
L70500 76260
L70530 76240
L70550 76180
L70550 76120
L70530 76070
L70500 76040
L70440 76010
L70330 75980
L70270 75950
L70250 75930
L70220 75870
L70220 75810
L70250 75760
L70270 75730
L70330 75700
L70470 75700
L70550 75730
" />
<path d="M70810 76290
L70810 75900
" />
<path d="M70810 75700
L70780 75730
L70810 75760
L70840 75730
L70810 75700
L70810 75760
" />
<path d="M71030 75900
L71340 75900
L71030 76290
L71340 76290
" />
<path d="M71790 76260
L71730 76290
L71620 76290
L71570 76260
L71540 76210
L71540 75980
L71570 75930
L71620 75900
L71730 75900
L71790 75930
L71820 75980
L71820 76040
L71540 76100
" />
<path d="M72070 76240
L72100 76260
L72070 76290
L72040 76260
L72070 76240
L72070 76290
" />
<path d="M72070 75930
L72100 75950
L72070 75980
L72040 75950
L72070 75930
L72070 75980
" />
<path d="M72770 76120
L73060 76120
" />
<path d="M72720 76290
L72910 75700
L73110 76290
" />
<path d="M73560 75900
L73560 76290
" />
<path d="M73420 75670
L73280 76100
L73650 76100
" />
</g>
<g style="fill:#840000; fill-opacity:0.0; 
stroke:#840000; stroke-width:100; stroke-opacity:1; 
stroke-linecap:round; stroke-linejoin:round;">
</g>
<g style="fill:#840000; fill-opacity:0.0; 
stroke:#840000; stroke-width:60; stroke-opacity:1; 
stroke-linecap:round; stroke-linejoin:round;">
<path d="M103710 77390
L103710 76800
" />
<path d="M104240 77390
L104240 76800
" />
<path d="M104240 77360
L104180 77390
L104070 77390
L104010 77360
L103990 77340
L103960 77280
L103960 77110
L103990 77050
L104010 77030
L104070 77000
L104180 77000
L104240 77030
" />
<path d="M104520 77340
L104550 77360
L104520 77390
L104490 77360
L104520 77340
L104520 77390
" />
<path d="M104520 77030
L104550 77050
L104520 77080
L104490 77050
L104520 77030
L104520 77080
" />
<path d="M105560 77390
L105220 77390
" />
<path d="M105390 77390
L105390 76800
L105340 76890
L105280 76940
L105220 76970
" />
<path d="M106230 76770
L105730 77530
" />
<path d="M106680 77000
L106680 77390
" />
<path d="M106540 76770
L106400 77200
L106770 77200
" />
</g>
<g style="fill:#840000; fill-opacity:0.0; 
stroke:#840000; stroke-width:100; stroke-opacity:1; 
stroke-linecap:round; stroke-linejoin:round;">
</g>
<g style="fill:#840000; fill-opacity:0.0; 
stroke:#840000; stroke-width:60; stroke-opacity:1; 
stroke-linecap:round; stroke-linejoin:round;">
<path d="M69690 73820
L112210 73820
" />
</g>
<g style="fill:#840000; fill-opacity:0.0; 
stroke:#840000; stroke-width:100; stroke-opacity:1; 
stroke-linecap:round; stroke-linejoin:round;">
</g>
<g style="fill:#840000; fill-opacity:0.0; 
stroke:#840000; stroke-width:160; stroke-opacity:1; 
stroke-linecap:round; stroke-linejoin:round;">
<path d="M70360 74090
L70810 74090
" />
<path d="M70480 74880
L70580 74090
" />
<path d="M70970 74880
L71040 74360
" />
<path d="M71070 74090
L71030 74130
L71060 74170
L71110 74130
L71070 74090
L71060 74170
" />
<path d="M71300 74360
L71600 74360
" />
<path d="M71450 74090
L71360 74770
L71390 74840
L71460 74880
L71540 74880
" />
<path d="M71910 74880
L71840 74840
L71820 74770
L71900 74090
" />
<path d="M72520 74840
L72440 74880
L72290 74880
L72220 74840
L72190 74770
L72230 74470
L72280 74390
L72360 74360
L72510 74360
L72580 74390
L72610 74470
L72600 74540
L72210 74620
" />
<path d="M72900 74810
L72930 74840
L72890 74880
L72860 74840
L72900 74810
L72890 74880
" />
<path d="M72950 74390
L72990 74430
L72940 74470
L72910 74430
L72950 74390
L72940 74470
" />
</g>
<g style="fill:#840000; fill-opacity:0.0; 
stroke:#840000; stroke-width:100; stroke-opacity:1; 
stroke-linecap:round; stroke-linejoin:round;">
</g>
<g style="fill:#840000; fill-opacity:0.0; 
stroke:#840000; stroke-width:60; stroke-opacity:1; 
stroke-linecap:round; stroke-linejoin:round;">
<path d="M70440 73060
L70250 73060
" />
<path d="M70250 73370
L70250 72780
L70530 72780
" />
<path d="M70750 73370
L70750 72980
" />
<path d="M70750 72780
L70720 72810
L70750 72840
L70780 72810
L70750 72780
L70750 72840
" />
<path d="M71120 73370
L71060 73340
L71030 73290
L71030 72780
" />
<path d="M71570 73340
L71510 73370
L71400 73370
L71340 73340
L71310 73290
L71310 73060
L71340 73010
L71400 72980
L71510 72980
L71570 73010
L71590 73060
L71590 73120
L71310 73180
" />
<path d="M71850 73320
L71880 73340
L71850 73370
L71820 73340
L71850 73320
L71850 73370
" />
<path d="M71850 73010
L71880 73030
L71850 73060
L71820 73030
L71850 73010
L71850 73060
" />
<path d="M72910 73370
L72720 73090
" />
<path d="M72580 73370
L72580 72780
L72800 72780
L72860 72810
L72890 72840
L72910 72890
L72910 72980
L72890 73030
L72860 73060
L72800 73090
L72580 73090
" />
<path d="M73420 73370
L73420 73060
L73390 73010
L73340 72980
L73220 72980
L73170 73010
" />
<path d="M73420 73340
L73360 73370
L73220 73370
L73170 73340
L73140 73290
L73140 73230
L73170 73180
L73220 73150
L73360 73150
L73420 73120
" />
<path d="M73670 73340
L73730 73370
L73840 73370
L73900 73340
L73930 73290
L73930 73260
L73900 73200
L73840 73180
L73760 73180
L73700 73150
L73670 73090
L73670 73060
L73700 73010
L73760 72980
L73840 72980
L73900 73010
" />
<path d="M74180 72980
L74180 73570
" />
<path d="M74180 73010
L74240 72980
L74350 72980
L74400 73010
L74430 73030
L74460 73090
L74460 73260
L74430 73320
L74400 73340
L74350 73370
L74240 73370
L74180 73340
" />
<path d="M74710 73370
L74710 72780
" />
<path d="M74710 73010
L74770 72980
L74880 72980
L74940 73010
L74970 73030
L74990 73090
L74990 73260
L74970 73320
L74940 73340
L74880 73370
L74770 73370
L74710 73340
" />
<path d="M75470 73340
L75420 73370
L75300 73370
L75250 73340
L75220 73290
L75220 73060
L75250 73010
L75300 72980
L75420 72980
L75470 73010
L75500 73060
L75500 73120
L75220 73180
" />
<path d="M75750 73370
L75750 72980
" />
<path d="M75750 73090
L75780 73030
L75810 73010
L75860 72980
L75920 72980
" />
<path d="M76120 73370
L76120 72980
" />
<path d="M76120 73090
L76150 73030
L76170 73010
L76230 72980
L76290 72980
" />
<path d="M76430 72980
L76570 73370
" />
<path d="M76710 72980
L76570 73370
L76510 73510
L76480 73540
L76430 73570
" />
<path d="M76930 73150
L77380 73150
" />
<path d="M77660 73370
L77660 72780
" />
<path d="M77920 72840
L77940 72810
L78000 72780
L78140 72780
L78200 72810
L78220 72840
L78250 72890
L78250 72950
L78220 73030
L77890 73370
L78250 73370
" />
<path d="M78840 73320
L78810 73340
L78730 73370
L78670 73370
L78590 73340
L78530 73290
L78510 73230
L78480 73120
L78480 73030
L78510 72920
L78530 72870
L78590 72810
L78670 72780
L78730 72780
L78810 72810
L78840 72840
" />
<path d="M79100 73150
L79550 73150
" />
<path d="M80110 73370
L79830 73370
L79830 72780
" />
<path d="M80640 73320
L80610 73340
L80530 73370
L80470 73370
L80390 73340
L80330 73290
L80300 73230
L80280 73120
L80280 73030
L80300 72920
L80330 72870
L80390 72810
L80470 72780
L80530 72780
L80610 72810
L80640 72840
" />
<path d="M80890 73370
L80890 72780
L81030 72780
L81120 72810
L81170 72870
L81200 72920
L81230 73030
L81230 73120
L81200 73230
L81170 73290
L81120 73340
L81030 73370
L80890 73370
" />
<path d="M81480 73150
L81930 73150
" />
<path d="M82470 73370
L82470 73060
L82440 73010
L82380 72980
L82270 72980
L82210 73010
" />
<path d="M82470 73340
L82410 73370
L82270 73370
L82210 73340
L82190 73290
L82190 73230
L82210 73180
L82270 73150
L82410 73150
L82470 73120
" />
<path d="M82750 72980
L82750 73370
" />
<path d="M82750 73030
L82780 73010
L82830 72980
L82920 72980
L82970 73010
L83000 73060
L83000 73370
" />
<path d="M83530 73370
L83530 72780
" />
<path d="M83530 73340
L83480 73370
L83370 73370
L83310 73340
L83280 73320
L83250 73260
L83250 73090
L83280 73030
L83310 73010
L83370 72980
L83480 72980
L83530 73010
" />
<path d="M83820 73150
L84270 73150
" />
<path d="M84550 73370
L84550 72780
" />
<path d="M84880 73370
L84630 73030
" />
<path d="M84880 72780
L84550 73120
" />
<path d="M85360 73340
L85300 73370
L85190 73370
L85140 73340
L85110 73290
L85110 73060
L85140 73010
L85190 72980
L85300 72980
L85360 73010
L85390 73060
L85390 73120
L85110 73180
" />
<path d="M85590 72980
L85730 73370
" />
<path d="M85870 72980
L85730 73370
L85670 73510
L85640 73540
L85590 73570
" />
<path d="M86090 72980
L86090 73570
" />
<path d="M86090 73010
L86150 72980
L86260 72980
L86320 73010
L86340 73030
L86370 73090
L86370 73260
L86340 73320
L86320 73340
L86260 73370
L86150 73370
L86090 73340
" />
<path d="M86880 73370
L86880 73060
L86850 73010
L86790 72980
L86680 72980
L86630 73010
" />
<path d="M86880 73340
L86820 73370
L86680 73370
L86630 73340
L86600 73290
L86600 73230
L86630 73180
L86680 73150
L86820 73150
L86880 73120
" />
<path d="M87410 73370
L87410 72780
" />
<path d="M87410 73340
L87360 73370
L87240 73370
L87190 73340
L87160 73320
L87130 73260
L87130 73090
L87160 73030
L87190 73010
L87240 72980
L87360 72980
L87410 73010
" />
<path d="M87690 73320
L87720 73340
L87690 73370
L87660 73340
L87690 73320
L87690 73370
" />
<path d="M87950 73340
L88000 73370
L88110 73370
L88170 73340
L88200 73290
L88200 73260
L88170 73200
L88110 73180
L88030 73180
L87970 73150
L87950 73090
L87950 73060
L87970 73010
L88030 72980
L88110 72980
L88170 73010
" />
<path d="M88700 73340
L88650 73370
L88540 73370
L88480 73340
L88450 73320
L88420 73260
L88420 73090
L88450 73030
L88480 73010
L88540 72980
L88650 72980
L88700 73010
" />
<path d="M88960 73370
L88960 72780
" />
<path d="M89210 73370
L89210 73060
L89180 73010
L89130 72980
L89040 72980
L88990 73010
L88960 73030
" />
</g>
<g style="fill:#840000; fill-opacity:0.0; 
stroke:#840000; stroke-width:100; stroke-opacity:1; 
stroke-linecap:round; stroke-linejoin:round;">
</g>
<g style="fill:#840000; fill-opacity:0.0; 
stroke:#840000; stroke-width:60; stroke-opacity:1; 
stroke-linecap:round; stroke-linejoin:round;">
<path d="M69690 71460
L112210 71460
" />
</g>
<g style="fill:#840000; fill-opacity:0.0; 
stroke:#840000; stroke-width:100; stroke-opacity:1; 
stroke-linecap:round; stroke-linejoin:round;">
</g>
<g style="fill:#840000; fill-opacity:0.0; 
stroke:#840000; stroke-width:60; stroke-opacity:1; 
stroke-linecap:round; stroke-linejoin:round;">
<path d="M70220 72280
L70300 72310
L70440 72310
L70500 72280
L70530 72260
L70550 72200
L70550 72140
L70530 72090
L70500 72060
L70440 72030
L70330 72000
L70270 71970
L70250 71950
L70220 71890
L70220 71830
L70250 71780
L70270 71750
L70330 71720
L70470 71720
L70550 71750
" />
<path d="M70810 72310
L70810 71720
" />
<path d="M71060 72310
L71060 72000
L71030 71950
L70980 71920
L70890 71920
L70840 71950
L70810 71970
" />
<path d="M71570 72280
L71510 72310
L71400 72310
L71340 72280
L71310 72230
L71310 72000
L71340 71950
L71400 71920
L71510 71920
L71570 71950
L71590 72000
L71590 72060
L71310 72120
" />
<path d="M72070 72280
L72020 72310
L71900 72310
L71850 72280
L71820 72230
L71820 72000
L71850 71950
L71900 71920
L72020 71920
L72070 71950
L72100 72000
L72100 72060
L71820 72120
" />
<path d="M72270 71920
L72490 71920
" />
<path d="M72350 71720
L72350 72230
L72380 72280
L72440 72310
L72490 72310
" />
<path d="M72690 72260
L72720 72280
L72690 72310
L72660 72280
L72690 72260
L72690 72310
" />
<path d="M72690 71950
L72720 71970
L72690 72000
L72660 71970
L72690 71950
L72690 72000
" />
<path d="M73840 71690
L73340 72450
" />
</g>
<g style="fill:#840000; fill-opacity:0.0; 
stroke:#840000; stroke-width:100; stroke-opacity:1; 
stroke-linecap:round; stroke-linejoin:round;">
</g>
<g style="fill:#840000; fill-opacity:0.0; 
stroke:#840000; stroke-width:60; stroke-opacity:1; 
stroke-linecap:round; stroke-linejoin:round;">
<path d="M77560 75400
L77560 76580
" />
</g>
<g style="fill:#840000; fill-opacity:0.0; 
stroke:#840000; stroke-width:100; stroke-opacity:1; 
stroke-linecap:round; stroke-linejoin:round;">
</g>
<g style="fill:#840000; fill-opacity:0.0; 
stroke:#840000; stroke-width:60; stroke-opacity:1; 
stroke-linecap:round; stroke-linejoin:round;">
<path d="M102760 75400
L102760 77960
" />
</g>
<g style="fill:#840084; fill-opacity:0.0; 
stroke:#840084; stroke-width:60; stroke-opacity:1; 
stroke-linecap:round; stroke-linejoin:round;">
<path d="M21000 25000
L35000 25000
L35000 49500
L21000 49500
L21000 25000
" />
</g>
<g style="fill:#008484; fill-opacity:0.0; 
stroke:#008484; stroke-width:60; stroke-opacity:1; 
stroke-linecap:round; stroke-linejoin:round;">
</g>
<g style="fill:#000000; fill-opacity:0.0; 
stroke:#000000; stroke-width:60; stroke-opacity:1; 
stroke-linecap:round; stroke-linejoin:round;">
<path d="M21120 24910
L21190 24930
L21310 24930
L21360 24910
L21380 24880
L21410 24840
L21410 24790
L21380 24740
L21360 24720
L21310 24690
L21220 24670
L21170 24650
L21140 24620
L21120 24570
L21120 24530
L21140 24480
L21170 24460
L21220 24430
L21330 24430
L21410 24460
" />
<path d="M21620 24930
L21620 24430
" />
<path d="M21830 24930
L21830 24670
L21810 24620
L21760 24600
L21690 24600
L21640 24620
L21620 24650
" />
<path d="M22260 24910
L22220 24930
L22120 24930
L22070 24910
L22050 24860
L22050 24670
L22070 24620
L22120 24600
L22220 24600
L22260 24620
L22290 24670
L22290 24720
L22050 24760
" />
<path d="M22690 24910
L22640 24930
L22550 24930
L22500 24910
L22480 24860
L22480 24670
L22500 24620
L22550 24600
L22640 24600
L22690 24620
L22720 24670
L22720 24720
L22480 24760
" />
<path d="M22860 24600
L23050 24600
" />
<path d="M22930 24430
L22930 24860
L22950 24910
L23000 24930
L23050 24930
" />
<path d="M23220 24880
L23240 24910
L23220 24930
L23190 24910
L23220 24880
L23220 24930
" />
<path d="M23220 24620
L23240 24650
L23220 24670
L23190 24650
L23220 24620
L23220 24670
" />
<path d="M24120 24930
L23950 24690
" />
<path d="M23830 24930
L23830 24430
L24030 24430
L24070 24460
L24100 24480
L24120 24530
L24120 24600
L24100 24650
L24070 24670
L24030 24690
L23830 24690
" />
<path d="M24550 24930
L24550 24670
L24530 24620
L24480 24600
L24380 24600
L24330 24620
" />
<path d="M24550 24910
L24500 24930
L24380 24930
L24330 24910
L24310 24860
L24310 24810
L24330 24760
L24380 24740
L24500 24740
L24550 24720
" />
<path d="M24760 24910
L24810 24930
L24910 24930
L24950 24910
L24980 24860
L24980 24840
L24950 24790
L24910 24760
L24830 24760
L24790 24740
L24760 24690
L24760 24670
L24790 24620
L24830 24600
L24910 24600
L24950 24620
" />
<path d="M25190 24930
L25190 24430
L25380 24430
L25430 24460
L25450 24480
L25480 24530
L25480 24600
L25450 24650
L25430 24670
L25380 24690
L25190 24690
" />
<path d="M25690 24930
L25690 24600
" />
<path d="M25690 24430
L25670 24460
L25690 24480
L25720 24460
L25690 24430
L25690 24480
" />
<path d="M25930 24930
L25930 24430
" />
<path d="M26170 24600
L26170 24930
" />
<path d="M26170 24650
L26190 24620
L26240 24600
L26310 24600
L26360 24620
L26380 24670
L26380 24930
" />
<path d="M26550 24600
L26740 24600
" />
<path d="M26620 24430
L26620 24860
L26640 24910
L26690 24930
L26740 24930
" />
<path d="M27100 24910
L27050 24930
L26950 24930
L26910 24910
L26880 24860
L26880 24670
L26910 24620
L26950 24600
L27050 24600
L27100 24620
L27120 24670
L27120 24720
L26880 24760
" />
<path d="M27330 24930
L27330 24600
" />
<path d="M27330 24690
L27360 24650
L27380 24620
L27430 24600
L27480 24600
" />
<path d="M27570 24600
L27760 24600
" />
<path d="M27640 24930
L27640 24500
L27670 24460
L27720 24430
L27760 24430
" />
<path d="M28140 24930
L28140 24670
L28120 24620
L28070 24600
L27980 24600
L27930 24620
" />
<path d="M28140 24910
L28100 24930
L27980 24930
L27930 24910
L27910 24860
L27910 24810
L27930 24760
L27980 24740
L28100 24740
L28140 24720
" />
<path d="M28600 24910
L28550 24930
L28450 24930
L28410 24910
L28380 24880
L28360 24840
L28360 24690
L28380 24650
L28410 24620
L28450 24600
L28550 24600
L28600 24620
" />
<path d="M29000 24910
L28950 24930
L28860 24930
L28810 24910
L28790 24860
L28790 24670
L28810 24620
L28860 24600
L28950 24600
L29000 24620
L29030 24670
L29030 24720
L28790 24760
" />
</g>
<g style="fill:#848400; fill-opacity:0.0; 
stroke:#848400; stroke-width:60; stroke-opacity:1; 
stroke-linecap:round; stroke-linejoin:round;">
</g>
<g style="fill:#000000; fill-opacity:0.0; 
stroke:#000000; stroke-width:60; stroke-opacity:1; 
stroke-linecap:round; stroke-linejoin:round;">
<path d="M21310 49750
L21140 49750
" />
<path d="M21140 50010
L21140 49510
L21380 49510
" />
<path d="M21570 50010
L21570 49680
" />
<path d="M21570 49510
L21550 49540
L21570 49560
L21600 49540
L21570 49510
L21570 49560
" />
<path d="M21880 50010
L21830 49990
L21810 49940
L21810 49510
" />
<path d="M22260 49990
L22220 50010
L22120 50010
L22070 49990
L22050 49940
L22050 49750
L22070 49700
L22120 49680
L22220 49680
L22260 49700
L22290 49750
L22290 49800
L22050 49840
" />
<path d="M22500 49960
L22530 49990
L22500 50010
L22480 49990
L22500 49960
L22500 50010
" />
<path d="M22500 49700
L22530 49730
L22500 49750
L22480 49730
L22500 49700
L22500 49750
" />
<path d="M23410 50010
L23240 49770
" />
<path d="M23120 50010
L23120 49510
L23310 49510
L23360 49540
L23380 49560
L23410 49610
L23410 49680
L23380 49730
L23360 49750
L23310 49770
L23120 49770
" />
<path d="M23830 50010
L23830 49750
L23810 49700
L23760 49680
L23670 49680
L23620 49700
" />
<path d="M23830 49990
L23790 50010
L23670 50010
L23620 49990
L23600 49940
L23600 49890
L23620 49840
L23670 49820
L23790 49820
L23830 49800
" />
<path d="M24050 49990
L24100 50010
L24190 50010
L24240 49990
L24260 49940
L24260 49920
L24240 49870
L24190 49840
L24120 49840
L24070 49820
L24050 49770
L24050 49750
L24070 49700
L24120 49680
L24190 49680
L24240 49700
" />
<path d="M24480 50010
L24480 49510
L24670 49510
L24720 49540
L24740 49560
L24760 49610
L24760 49680
L24740 49730
L24720 49750
L24670 49770
L24480 49770
" />
<path d="M24980 50010
L24980 49680
" />
<path d="M24980 49510
L24950 49540
L24980 49560
L25000 49540
L24980 49510
L24980 49560
" />
<path d="M25220 50010
L25220 49510
" />
<path d="M25450 49680
L25450 50010
" />
<path d="M25450 49730
L25480 49700
L25530 49680
L25600 49680
L25640 49700
L25670 49750
L25670 50010
" />
<path d="M25830 49680
L26030 49680
" />
<path d="M25910 49510
L25910 49940
L25930 49990
L25980 50010
L26030 50010
" />
<path d="M26380 49990
L26330 50010
L26240 50010
L26190 49990
L26170 49940
L26170 49750
L26190 49700
L26240 49680
L26330 49680
L26380 49700
L26410 49750
L26410 49800
L26170 49840
" />
<path d="M26620 50010
L26620 49680
" />
<path d="M26620 49770
L26640 49730
L26670 49700
L26720 49680
L26760 49680
" />
<path d="M26860 49680
L27050 49680
" />
<path d="M26930 50010
L26930 49580
L26950 49540
L27000 49510
L27050 49510
" />
<path d="M27430 50010
L27430 49750
L27410 49700
L27360 49680
L27260 49680
L27220 49700
" />
<path d="M27430 49990
L27380 50010
L27260 50010
L27220 49990
L27190 49940
L27190 49890
L27220 49840
L27260 49820
L27380 49820
L27430 49800
" />
<path d="M27880 49990
L27830 50010
L27740 50010
L27690 49990
L27670 49960
L27640 49920
L27640 49770
L27670 49730
L27690 49700
L27740 49680
L27830 49680
L27880 49700
" />
<path d="M28290 49990
L28240 50010
L28140 50010
L28100 49990
L28070 49940
L28070 49750
L28100 49700
L28140 49680
L28240 49680
L28290 49700
L28310 49750
L28310 49800
L28070 49840
" />
<path d="M28530 49960
L28550 49990
L28530 50010
L28500 49990
L28530 49960
L28530 50010
" />
<path d="M28740 49990
L28790 50010
L28880 50010
L28930 49990
L28950 49940
L28950 49920
L28930 49870
L28880 49840
L28810 49840
L28760 49820
L28740 49770
L28740 49750
L28760 49700
L28810 49680
L28880 49680
L28930 49700
" />
<path d="M29380 49990
L29330 50010
L29240 50010
L29190 49990
L29170 49960
L29140 49920
L29140 49770
L29170 49730
L29190 49700
L29240 49680
L29330 49680
L29380 49700
" />
<path d="M29600 50010
L29600 49510
" />
<path d="M29810 50010
L29810 49750
L29790 49700
L29740 49680
L29670 49680
L29620 49700
L29600 49730
" />
</g>
<g style="fill:#840084; fill-opacity:0.0; 
stroke:#840084; stroke-width:60; stroke-opacity:1; 
stroke-linecap:round; stroke-linejoin:round;">
</g>
<g style="fill:#848400; fill-opacity:0.0; 
stroke:#848400; stroke-width:60; stroke-opacity:1; 
stroke-linecap:round; stroke-linejoin:round;">
<path d="M33820 26720
L33580 26720
L33560 26960
L33580 26940
L33630 26910
L33750 26910
L33790 26940
L33820 26960
L33840 27010
L33840 27130
L33820 27170
L33790 27200
L33750 27220
L33630 27220
L33580 27200
L33560 27170
" />
<path d="M33980 26720
L34150 27220
L34320 26720
" />
</g>
<g style="fill:#848400; fill-opacity:0.0; 
stroke:#848400; stroke-width:100; stroke-opacity:1; 
stroke-linecap:round; stroke-linejoin:round;">
<path style="fill:#848400; fill-opacity:0.0; 
stroke:#848400; stroke-width:100; stroke-opacity:1; 
stroke-linecap:round; stroke-linejoin:round;fill:none"
d="M 34500,27000
34750,27250
35000,27250
35000,26750
34750,26750
34500,27000
Z" /> 
</g>
<g style="fill:#848400; fill-opacity:0.0; 
stroke:#848400; stroke-width:60; stroke-opacity:1; 
stroke-linecap:round; stroke-linejoin:round;">
<path d="M32820 28220
L33130 28220
L32960 28410
L33030 28410
L33080 28440
L33100 28460
L33130 28510
L33130 28630
L33100 28670
L33080 28700
L33030 28720
L32890 28720
L32840 28700
L32820 28670
" />
<path d="M33340 28670
L33370 28700
L33340 28720
L33320 28700
L33340 28670
L33340 28720
" />
<path d="M33530 28220
L33840 28220
L33670 28410
L33750 28410
L33790 28440
L33820 28460
L33840 28510
L33840 28630
L33820 28670
L33790 28700
L33750 28720
L33600 28720
L33560 28700
L33530 28670
" />
<path d="M33980 28220
L34150 28720
L34320 28220
" />
</g>
<g style="fill:#848400; fill-opacity:0.0; 
stroke:#848400; stroke-width:100; stroke-opacity:1; 
stroke-linecap:round; stroke-linejoin:round;">
<path style="fill:#848400; fill-opacity:0.0; 
stroke:#848400; stroke-width:100; stroke-opacity:1; 
stroke-linecap:round; stroke-linejoin:round;fill:none"
d="M 34500,28500
34750,28750
35000,28750
35000,28250
34750,28250
34500,28500
Z" /> 
</g>
<g style="fill:#848400; fill-opacity:0.0; 
stroke:#848400; stroke-width:60; stroke-opacity:1; 
stroke-linecap:round; stroke-linejoin:round;">
<path d="M33060 30700
L33130 30720
L33250 30720
L33290 30700
L33320 30670
L33340 30630
L33340 30580
L33320 30530
L33290 30510
L33250 30480
L33150 30460
L33100 30440
L33080 30410
L33060 30360
L33060 30320
L33080 30270
L33100 30250
L33150 30220
L33270 30220
L33340 30250
" />
<path d="M33560 30720
L33560 30220
L33670 30220
L33750 30250
L33790 30290
L33820 30340
L33840 30440
L33840 30510
L33820 30600
L33790 30650
L33750 30700
L33670 30720
L33560 30720
" />
<path d="M34030 30580
L34270 30580
" />
<path d="M33980 30720
L34150 30220
L34320 30720
" />
</g>
<g style="fill:#848400; fill-opacity:0.0; 
stroke:#848400; stroke-width:100; stroke-opacity:1; 
stroke-linecap:round; stroke-linejoin:round;">
<path style="fill:#848400; fill-opacity:0.0; 
stroke:#848400; stroke-width:100; stroke-opacity:1; 
stroke-linecap:round; stroke-linejoin:round;fill:none"
d="M 34500,30500
34750,30750
35000,30750
35000,30250
34750,30250
34500,30500
Z" /> 
</g>
<g style="fill:#848400; fill-opacity:0.0; 
stroke:#848400; stroke-width:60; stroke-opacity:1; 
stroke-linecap:round; stroke-linejoin:round;">
<path d="M33080 32700
L33150 32720
L33270 32720
L33320 32700
L33340 32670
L33370 32630
L33370 32580
L33340 32530
L33320 32510
L33270 32480
L33170 32460
L33130 32440
L33100 32410
L33080 32360
L33080 32320
L33100 32270
L33130 32250
L33170 32220
L33290 32220
L33370 32250
" />
<path d="M33870 32670
L33840 32700
L33770 32720
L33720 32720
L33650 32700
L33600 32650
L33580 32600
L33560 32510
L33560 32440
L33580 32340
L33600 32290
L33650 32250
L33720 32220
L33770 32220
L33840 32250
L33870 32270
" />
<path d="M34320 32720
L34080 32720
L34080 32220
" />
</g>
<g style="fill:#848400; fill-opacity:0.0; 
stroke:#848400; stroke-width:100; stroke-opacity:1; 
stroke-linecap:round; stroke-linejoin:round;">
<path style="fill:#848400; fill-opacity:0.0; 
stroke:#848400; stroke-width:100; stroke-opacity:1; 
stroke-linecap:round; stroke-linejoin:round;fill:none"
d="M 34500,32500
34750,32750
35000,32750
35000,32250
34750,32250
34500,32500
Z" /> 
</g>
<g style="fill:#848400; fill-opacity:0.0; 
stroke:#848400; stroke-width:60; stroke-opacity:1; 
stroke-linecap:round; stroke-linejoin:round;">
<path d="M33220 34080
L33460 34080
" />
<path d="M33340 34720
L33340 34390
" />
<path d="M33340 34220
L33320 34250
L33340 34270
L33370 34250
L33340 34220
L33340 34270
" />
<path d="M33460 34080
L33980 34080
" />
<path d="M33580 34720
L33580 34220
L33870 34720
L33870 34220
" />
<path d="M33980 34080
L34370 34080
" />
<path d="M34030 34220
L34320 34220
" />
<path d="M34170 34720
L34170 34220
" />
</g>
<g style="fill:#848400; fill-opacity:0.0; 
stroke:#848400; stroke-width:100; stroke-opacity:1; 
stroke-linecap:round; stroke-linejoin:round;">
<path style="fill:#848400; fill-opacity:0.0; 
stroke:#848400; stroke-width:100; stroke-opacity:1; 
stroke-linecap:round; stroke-linejoin:round;fill:none"
d="M 34500,34500
34750,34750
35000,34750
35000,34250
34750,34250
34500,34500
Z" /> 
</g>
<g style="fill:#848400; fill-opacity:0.0; 
stroke:#848400; stroke-width:60; stroke-opacity:1; 
stroke-linecap:round; stroke-linejoin:round;">
<path d="M33220 38250
L33170 38220
L33100 38220
L33030 38250
L32980 38290
L32960 38340
L32940 38440
L32940 38510
L32960 38600
L32980 38650
L33030 38700
L33100 38720
L33150 38720
L33220 38700
L33250 38670
L33250 38510
L33150 38510
" />
<path d="M33460 38720
L33460 38220
L33750 38720
L33750 38220
" />
<path d="M33980 38720
L33980 38220
L34100 38220
L34170 38250
L34220 38290
L34250 38340
L34270 38440
L34270 38510
L34250 38600
L34220 38650
L34170 38700
L34100 38720
L33980 38720
" />
</g>
<g style="fill:#848400; fill-opacity:0.0; 
stroke:#848400; stroke-width:100; stroke-opacity:1; 
stroke-linecap:round; stroke-linejoin:round;">
<path style="fill:#848400; fill-opacity:0.0; 
stroke:#848400; stroke-width:100; stroke-opacity:1; 
stroke-linecap:round; stroke-linejoin:round;fill:none"
d="M 34500,38500
34750,38750
35000,38750
35000,38250
34750,38250
34500,38500
Z" /> 
</g>
<g style="fill:#848400; fill-opacity:0.0; 
stroke:#848400; stroke-width:60; stroke-opacity:1; 
stroke-linecap:round; stroke-linejoin:round;">
<path d="M32980 31700
L33060 31720
L33170 31720
L33220 31700
L33250 31670
L33270 31630
L33270 31580
L33250 31530
L33220 31510
L33170 31480
L33080 31460
L33030 31440
L33010 31410
L32980 31360
L32980 31320
L33010 31270
L33030 31250
L33080 31220
L33200 31220
L33270 31250
" />
<path d="M33480 31720
L33480 31220
L33600 31220
L33670 31250
L33720 31290
L33750 31340
L33770 31440
L33770 31510
L33750 31600
L33720 31650
L33670 31700
L33600 31720
L33480 31720
" />
<path d="M34250 31250
L34200 31220
L34130 31220
L34060 31250
L34010 31290
L33980 31340
L33960 31440
L33960 31510
L33980 31600
L34010 31650
L34060 31700
L34130 31720
L34170 31720
L34250 31700
L34270 31670
L34270 31510
L34170 31510
" />
</g>
<g style="fill:#848400; fill-opacity:0.0; 
stroke:#848400; stroke-width:100; stroke-opacity:1; 
stroke-linecap:round; stroke-linejoin:round;">
<path style="fill:#848400; fill-opacity:0.0; 
stroke:#848400; stroke-width:100; stroke-opacity:1; 
stroke-linecap:round; stroke-linejoin:round;fill:none"
d="M 34500,31500
34750,31750
35000,31750
35000,31250
34750,31250
34500,31500
Z" /> 
</g>
<g style="fill:#848400; fill-opacity:0.0; 
stroke:#848400; stroke-width:60; stroke-opacity:1; 
stroke-linecap:round; stroke-linejoin:round;">
</g>
<g style="fill:#840084; fill-opacity:0.0; 
stroke:#840084; stroke-width:60; stroke-opacity:1; 
stroke-linecap:round; stroke-linejoin:round;">
<path d="M43000 25500
L68500 25500
L68500 50000
L43000 50000
L43000 25500
" />
</g>
<g style="fill:#008484; fill-opacity:0.0; 
stroke:#008484; stroke-width:60; stroke-opacity:1; 
stroke-linecap:round; stroke-linejoin:round;">
</g>
<g style="fill:#000000; fill-opacity:0.0; 
stroke:#000000; stroke-width:60; stroke-opacity:1; 
stroke-linecap:round; stroke-linejoin:round;">
<path d="M43120 25410
L43190 25430
L43310 25430
L43360 25410
L43380 25380
L43410 25340
L43410 25290
L43380 25240
L43360 25220
L43310 25190
L43220 25170
L43170 25150
L43140 25120
L43120 25070
L43120 25030
L43140 24980
L43170 24960
L43220 24930
L43330 24930
L43410 24960
" />
<path d="M43620 25430
L43620 24930
" />
<path d="M43830 25430
L43830 25170
L43810 25120
L43760 25100
L43690 25100
L43640 25120
L43620 25150
" />
<path d="M44260 25410
L44220 25430
L44120 25430
L44070 25410
L44050 25360
L44050 25170
L44070 25120
L44120 25100
L44220 25100
L44260 25120
L44290 25170
L44290 25220
L44050 25260
" />
<path d="M44690 25410
L44640 25430
L44550 25430
L44500 25410
L44480 25360
L44480 25170
L44500 25120
L44550 25100
L44640 25100
L44690 25120
L44720 25170
L44720 25220
L44480 25260
" />
<path d="M44860 25100
L45050 25100
" />
<path d="M44930 24930
L44930 25360
L44950 25410
L45000 25430
L45050 25430
" />
<path d="M45220 25380
L45240 25410
L45220 25430
L45190 25410
L45220 25380
L45220 25430
" />
<path d="M45220 25120
L45240 25150
L45220 25170
L45190 25150
L45220 25120
L45220 25170
" />
<path d="M45830 25430
L45830 24930
L45950 24930
L46030 24960
L46070 25000
L46100 25050
L46120 25150
L46120 25220
L46100 25310
L46070 25360
L46030 25410
L45950 25430
L45830 25430
" />
<path d="M46330 25430
L46330 25100
" />
<path d="M46330 24930
L46310 24960
L46330 24980
L46360 24960
L46330 24930
L46330 24980
" />
<path d="M46550 25410
L46600 25430
L46690 25430
L46740 25410
L46760 25360
L46760 25340
L46740 25290
L46690 25260
L46620 25260
L46570 25240
L46550 25190
L46550 25170
L46570 25120
L46620 25100
L46690 25100
L46740 25120
" />
<path d="M46980 25100
L46980 25600
" />
<path d="M46980 25120
L47030 25100
L47120 25100
L47170 25120
L47190 25150
L47220 25190
L47220 25340
L47190 25380
L47170 25410
L47120 25430
L47030 25430
L46980 25410
" />
<path d="M47500 25430
L47450 25410
L47430 25360
L47430 24930
" />
<path d="M47910 25430
L47910 25170
L47880 25120
L47830 25100
L47740 25100
L47690 25120
" />
<path d="M47910 25410
L47860 25430
L47740 25430
L47690 25410
L47670 25360
L47670 25310
L47690 25260
L47740 25240
L47860 25240
L47910 25220
" />
<path d="M48100 25100
L48220 25430
" />
<path d="M48330 25100
L48220 25430
L48170 25550
L48140 25570
L48100 25600
" />
<path d="M48810 25380
L48790 25410
L48720 25430
L48670 25430
L48600 25410
L48550 25360
L48530 25310
L48500 25220
L48500 25150
L48530 25050
L48550 25000
L48600 24960
L48670 24930
L48720 24930
L48790 24960
L48810 24980
" />
<path d="M49100 25430
L49050 25410
L49030 25380
L49000 25340
L49000 25190
L49030 25150
L49050 25120
L49100 25100
L49170 25100
L49220 25120
L49240 25150
L49260 25190
L49260 25340
L49240 25380
L49220 25410
L49170 25430
L49100 25430
" />
<path d="M49480 25100
L49480 25430
" />
<path d="M49480 25150
L49500 25120
L49550 25100
L49620 25100
L49670 25120
L49690 25170
L49690 25430
" />
<path d="M49860 25100
L50050 25100
" />
<path d="M49930 24930
L49930 25360
L49950 25410
L50000 25430
L50050 25430
" />
<path d="M50220 25430
L50220 25100
" />
<path d="M50220 25190
L50240 25150
L50260 25120
L50310 25100
L50360 25100
" />
<path d="M50600 25430
L50550 25410
L50530 25380
L50500 25340
L50500 25190
L50530 25150
L50550 25120
L50600 25100
L50670 25100
L50720 25120
L50740 25150
L50760 25190
L50760 25340
L50740 25380
L50720 25410
L50670 25430
L50600 25430
" />
<path d="M51050 25430
L51000 25410
L50980 25360
L50980 24930
" />
<path d="M51310 25430
L51260 25410
L51240 25360
L51240 24930
" />
<path d="M51690 25410
L51640 25430
L51550 25430
L51500 25410
L51480 25360
L51480 25170
L51500 25120
L51550 25100
L51640 25100
L51690 25120
L51720 25170
L51720 25220
L51480 25260
" />
<path d="M51930 25430
L51930 25100
" />
<path d="M51930 25190
L51950 25150
L51980 25120
L52030 25100
L52070 25100
" />
</g>
<g style="fill:#848400; fill-opacity:0.0; 
stroke:#848400; stroke-width:60; stroke-opacity:1; 
stroke-linecap:round; stroke-linejoin:round;">
</g>
<g style="fill:#000000; fill-opacity:0.0; 
stroke:#000000; stroke-width:60; stroke-opacity:1; 
stroke-linecap:round; stroke-linejoin:round;">
<path d="M43310 50250
L43140 50250
" />
<path d="M43140 50510
L43140 50010
L43380 50010
" />
<path d="M43570 50510
L43570 50180
" />
<path d="M43570 50010
L43550 50040
L43570 50060
L43600 50040
L43570 50010
L43570 50060
" />
<path d="M43880 50510
L43830 50490
L43810 50440
L43810 50010
" />
<path d="M44260 50490
L44220 50510
L44120 50510
L44070 50490
L44050 50440
L44050 50250
L44070 50200
L44120 50180
L44220 50180
L44260 50200
L44290 50250
L44290 50300
L44050 50340
" />
<path d="M44500 50460
L44530 50490
L44500 50510
L44480 50490
L44500 50460
L44500 50510
" />
<path d="M44500 50200
L44530 50230
L44500 50250
L44480 50230
L44500 50200
L44500 50250
" />
<path d="M45120 50510
L45120 50010
L45240 50010
L45310 50040
L45360 50080
L45380 50130
L45410 50230
L45410 50300
L45380 50390
L45360 50440
L45310 50490
L45240 50510
L45120 50510
" />
<path d="M45620 50510
L45620 50180
" />
<path d="M45620 50010
L45600 50040
L45620 50060
L45640 50040
L45620 50010
L45620 50060
" />
<path d="M45830 50490
L45880 50510
L45980 50510
L46030 50490
L46050 50440
L46050 50420
L46030 50370
L45980 50340
L45910 50340
L45860 50320
L45830 50270
L45830 50250
L45860 50200
L45910 50180
L45980 50180
L46030 50200
" />
<path d="M46260 50180
L46260 50680
" />
<path d="M46260 50200
L46310 50180
L46410 50180
L46450 50200
L46480 50230
L46500 50270
L46500 50420
L46480 50460
L46450 50490
L46410 50510
L46310 50510
L46260 50490
" />
<path d="M46790 50510
L46740 50490
L46720 50440
L46720 50010
" />
<path d="M47190 50510
L47190 50250
L47170 50200
L47120 50180
L47030 50180
L46980 50200
" />
<path d="M47190 50490
L47140 50510
L47030 50510
L46980 50490
L46950 50440
L46950 50390
L46980 50340
L47030 50320
L47140 50320
L47190 50300
" />
<path d="M47380 50180
L47500 50510
" />
<path d="M47620 50180
L47500 50510
L47450 50630
L47430 50650
L47380 50680
" />
<path d="M48100 50460
L48070 50490
L48000 50510
L47950 50510
L47880 50490
L47830 50440
L47810 50390
L47790 50300
L47790 50230
L47810 50130
L47830 50080
L47880 50040
L47950 50010
L48000 50010
L48070 50040
L48100 50060
" />
<path d="M48380 50510
L48330 50490
L48310 50460
L48290 50420
L48290 50270
L48310 50230
L48330 50200
L48380 50180
L48450 50180
L48500 50200
L48530 50230
L48550 50270
L48550 50420
L48530 50460
L48500 50490
L48450 50510
L48380 50510
" />
<path d="M48760 50180
L48760 50510
" />
<path d="M48760 50230
L48790 50200
L48830 50180
L48910 50180
L48950 50200
L48980 50250
L48980 50510
" />
<path d="M49140 50180
L49330 50180
" />
<path d="M49220 50010
L49220 50440
L49240 50490
L49290 50510
L49330 50510
" />
<path d="M49500 50510
L49500 50180
" />
<path d="M49500 50270
L49530 50230
L49550 50200
L49600 50180
L49640 50180
" />
<path d="M49880 50510
L49830 50490
L49810 50460
L49790 50420
L49790 50270
L49810 50230
L49830 50200
L49880 50180
L49950 50180
L50000 50200
L50030 50230
L50050 50270
L50050 50420
L50030 50460
L50000 50490
L49950 50510
L49880 50510
" />
<path d="M50330 50510
L50290 50490
L50260 50440
L50260 50010
" />
<path d="M50600 50510
L50550 50490
L50530 50440
L50530 50010
" />
<path d="M50980 50490
L50930 50510
L50830 50510
L50790 50490
L50760 50440
L50760 50250
L50790 50200
L50830 50180
L50930 50180
L50980 50200
L51000 50250
L51000 50300
L50760 50340
" />
<path d="M51220 50510
L51220 50180
" />
<path d="M51220 50270
L51240 50230
L51260 50200
L51310 50180
L51360 50180
" />
<path d="M51530 50460
L51550 50490
L51530 50510
L51500 50490
L51530 50460
L51530 50510
" />
<path d="M51740 50490
L51790 50510
L51880 50510
L51930 50490
L51950 50440
L51950 50420
L51930 50370
L51880 50340
L51810 50340
L51760 50320
L51740 50270
L51740 50250
L51760 50200
L51810 50180
L51880 50180
L51930 50200
" />
<path d="M52380 50490
L52330 50510
L52240 50510
L52190 50490
L52170 50460
L52140 50420
L52140 50270
L52170 50230
L52190 50200
L52240 50180
L52330 50180
L52380 50200
" />
<path d="M52600 50510
L52600 50010
" />
<path d="M52810 50510
L52810 50250
L52790 50200
L52740 50180
L52670 50180
L52620 50200
L52600 50230
" />
</g>
<g style="fill:#840084; fill-opacity:0.0; 
stroke:#840084; stroke-width:60; stroke-opacity:1; 
stroke-linecap:round; stroke-linejoin:round;">
</g>
<g style="fill:#848400; fill-opacity:0.0; 
stroke:#848400; stroke-width:60; stroke-opacity:1; 
stroke-linecap:round; stroke-linejoin:round;">
<path d="M43980 26720
L43740 26720
L43720 26960
L43740 26940
L43790 26910
L43910 26910
L43960 26940
L43980 26960
L44010 27010
L44010 27130
L43980 27170
L43960 27200
L43910 27220
L43790 27220
L43740 27200
L43720 27170
" />
<path d="M44150 26720
L44320 27220
L44480 26720
" />
</g>
<g style="fill:#848400; fill-opacity:0.0; 
stroke:#848400; stroke-width:100; stroke-opacity:1; 
stroke-linecap:round; stroke-linejoin:round;">
<path style="fill:#848400; fill-opacity:0.0; 
stroke:#848400; stroke-width:100; stroke-opacity:1; 
stroke-linecap:round; stroke-linejoin:round;fill:none"
d="M 43500,27000
43250,26750
43000,26750
43000,27250
43250,27250
43500,27000
Z" /> 
</g>
<g style="fill:#848400; fill-opacity:0.0; 
stroke:#848400; stroke-width:60; stroke-opacity:1; 
stroke-linecap:round; stroke-linejoin:round;">
<path d="M43700 28220
L44010 28220
L43840 28410
L43910 28410
L43960 28440
L43980 28460
L44010 28510
L44010 28630
L43980 28670
L43960 28700
L43910 28720
L43770 28720
L43720 28700
L43700 28670
" />
<path d="M44220 28670
L44240 28700
L44220 28720
L44200 28700
L44220 28670
L44220 28720
" />
<path d="M44410 28220
L44720 28220
L44550 28410
L44630 28410
L44670 28440
L44700 28460
L44720 28510
L44720 28630
L44700 28670
L44670 28700
L44630 28720
L44480 28720
L44430 28700
L44410 28670
" />
<path d="M44860 28220
L45030 28720
L45200 28220
" />
</g>
<g style="fill:#848400; fill-opacity:0.0; 
stroke:#848400; stroke-width:100; stroke-opacity:1; 
stroke-linecap:round; stroke-linejoin:round;">
<path style="fill:#848400; fill-opacity:0.0; 
stroke:#848400; stroke-width:100; stroke-opacity:1; 
stroke-linecap:round; stroke-linejoin:round;fill:none"
d="M 43500,28500
43250,28250
43000,28250
43000,28750
43250,28750
43500,28500
Z" /> 
</g>
<g style="fill:#848400; fill-opacity:0.0; 
stroke:#848400; stroke-width:60; stroke-opacity:1; 
stroke-linecap:round; stroke-linejoin:round;">
<path d="M44010 38250
L43960 38220
L43890 38220
L43820 38250
L43770 38290
L43740 38340
L43720 38440
L43720 38510
L43740 38600
L43770 38650
L43820 38700
L43890 38720
L43930 38720
L44010 38700
L44030 38670
L44030 38510
L43930 38510
" />
<path d="M44240 38720
L44240 38220
L44530 38720
L44530 38220
" />
<path d="M44770 38720
L44770 38220
L44890 38220
L44960 38250
L45010 38290
L45030 38340
L45050 38440
L45050 38510
L45030 38600
L45010 38650
L44960 38700
L44890 38720
L44770 38720
" />
</g>
<g style="fill:#848400; fill-opacity:0.0; 
stroke:#848400; stroke-width:100; stroke-opacity:1; 
stroke-linecap:round; stroke-linejoin:round;">
<path style="fill:#848400; fill-opacity:0.0; 
stroke:#848400; stroke-width:100; stroke-opacity:1; 
stroke-linecap:round; stroke-linejoin:round;fill:none"
d="M 43500,38500
43250,38250
43000,38250
43000,38750
43250,38750
43500,38500
Z" /> 
</g>
<g style="fill:#848400; fill-opacity:0.0; 
stroke:#848400; stroke-width:60; stroke-opacity:1; 
stroke-linecap:round; stroke-linejoin:round;">
<path d="M43720 30700
L43790 30720
L43910 30720
L43960 30700
L43980 30670
L44010 30630
L44010 30580
L43980 30530
L43960 30510
L43910 30480
L43820 30460
L43770 30440
L43740 30410
L43720 30360
L43720 30320
L43740 30270
L43770 30250
L43820 30220
L43930 30220
L44010 30250
" />
<path d="M44220 30720
L44220 30220
L44340 30220
L44410 30250
L44460 30290
L44480 30340
L44510 30440
L44510 30510
L44480 30600
L44460 30650
L44410 30700
L44340 30720
L44220 30720
" />
<path d="M44700 30580
L44930 30580
" />
<path d="M44650 30720
L44820 30220
L44980 30720
" />
</g>
<g style="fill:#848400; fill-opacity:0.0; 
stroke:#848400; stroke-width:100; stroke-opacity:1; 
stroke-linecap:round; stroke-linejoin:round;">
<path style="fill:#848400; fill-opacity:0.0; 
stroke:#848400; stroke-width:100; stroke-opacity:1; 
stroke-linecap:round; stroke-linejoin:round;fill:none"
d="M 43500,30500
43250,30250
43000,30250
43000,30750
43250,30750
43500,30500
Z" /> 
</g>
<g style="fill:#848400; fill-opacity:0.0; 
stroke:#848400; stroke-width:60; stroke-opacity:1; 
stroke-linecap:round; stroke-linejoin:round;">
<path d="M43720 32700
L43790 32720
L43910 32720
L43960 32700
L43980 32670
L44010 32630
L44010 32580
L43980 32530
L43960 32510
L43910 32480
L43820 32460
L43770 32440
L43740 32410
L43720 32360
L43720 32320
L43740 32270
L43770 32250
L43820 32220
L43930 32220
L44010 32250
" />
<path d="M44510 32670
L44480 32700
L44410 32720
L44360 32720
L44290 32700
L44240 32650
L44220 32600
L44200 32510
L44200 32440
L44220 32340
L44240 32290
L44290 32250
L44360 32220
L44410 32220
L44480 32250
L44510 32270
" />
<path d="M44960 32720
L44720 32720
L44720 32220
" />
</g>
<g style="fill:#848400; fill-opacity:0.0; 
stroke:#848400; stroke-width:100; stroke-opacity:1; 
stroke-linecap:round; stroke-linejoin:round;">
<path style="fill:#848400; fill-opacity:0.0; 
stroke:#848400; stroke-width:100; stroke-opacity:1; 
stroke-linecap:round; stroke-linejoin:round;fill:none"
d="M 43500,32500
43250,32250
43000,32250
43000,32750
43250,32750
43500,32500
Z" /> 
</g>
<g style="fill:#848400; fill-opacity:0.0; 
stroke:#848400; stroke-width:60; stroke-opacity:1; 
stroke-linecap:round; stroke-linejoin:round;">
<path d="M43720 31700
L43790 31720
L43910 31720
L43960 31700
L43980 31670
L44010 31630
L44010 31580
L43980 31530
L43960 31510
L43910 31480
L43820 31460
L43770 31440
L43740 31410
L43720 31360
L43720 31320
L43740 31270
L43770 31250
L43820 31220
L43930 31220
L44010 31250
" />
<path d="M44220 31720
L44220 31220
L44340 31220
L44410 31250
L44460 31290
L44480 31340
L44510 31440
L44510 31510
L44480 31600
L44460 31650
L44410 31700
L44340 31720
L44220 31720
" />
<path d="M44980 31250
L44930 31220
L44860 31220
L44790 31250
L44740 31290
L44720 31340
L44700 31440
L44700 31510
L44720 31600
L44740 31650
L44790 31700
L44860 31720
L44910 31720
L44980 31700
L45010 31670
L45010 31510
L44910 31510
" />
</g>
<g style="fill:#848400; fill-opacity:0.0; 
stroke:#848400; stroke-width:100; stroke-opacity:1; 
stroke-linecap:round; stroke-linejoin:round;">
<path style="fill:#848400; fill-opacity:0.0; 
stroke:#848400; stroke-width:100; stroke-opacity:1; 
stroke-linecap:round; stroke-linejoin:round;fill:none"
d="M 43500,31500
43250,31250
43000,31250
43000,31750
43250,31750
43500,31500
Z" /> 
</g>
<g style="fill:#848400; fill-opacity:0.0; 
stroke:#848400; stroke-width:60; stroke-opacity:1; 
stroke-linecap:round; stroke-linejoin:round;">
</g>
<g style="fill:#840084; fill-opacity:0.0; 
stroke:#840084; stroke-width:60; stroke-opacity:1; 
stroke-linecap:round; stroke-linejoin:round;">
<path d="M78500 26000
L102500 26000
L102500 50000
L78500 50000
L78500 26000
" />
</g>
<g style="fill:#008484; fill-opacity:0.0; 
stroke:#008484; stroke-width:60; stroke-opacity:1; 
stroke-linecap:round; stroke-linejoin:round;">
</g>
<g style="fill:#000000; fill-opacity:0.0; 
stroke:#000000; stroke-width:60; stroke-opacity:1; 
stroke-linecap:round; stroke-linejoin:round;">
<path d="M78620 25910
L78690 25930
L78810 25930
L78860 25910
L78880 25880
L78910 25840
L78910 25790
L78880 25740
L78860 25720
L78810 25690
L78720 25670
L78670 25650
L78640 25620
L78620 25570
L78620 25530
L78640 25480
L78670 25460
L78720 25430
L78830 25430
L78910 25460
" />
<path d="M79120 25930
L79120 25430
" />
<path d="M79330 25930
L79330 25670
L79310 25620
L79260 25600
L79190 25600
L79140 25620
L79120 25650
" />
<path d="M79760 25910
L79720 25930
L79620 25930
L79570 25910
L79550 25860
L79550 25670
L79570 25620
L79620 25600
L79720 25600
L79760 25620
L79790 25670
L79790 25720
L79550 25760
" />
<path d="M80190 25910
L80140 25930
L80050 25930
L80000 25910
L79980 25860
L79980 25670
L80000 25620
L80050 25600
L80140 25600
L80190 25620
L80220 25670
L80220 25720
L79980 25760
" />
<path d="M80360 25600
L80550 25600
" />
<path d="M80430 25430
L80430 25860
L80450 25910
L80500 25930
L80550 25930
" />
<path d="M80720 25880
L80740 25910
L80720 25930
L80690 25910
L80720 25880
L80720 25930
" />
<path d="M80720 25620
L80740 25650
L80720 25670
L80690 25650
L80720 25620
L80720 25670
" />
<path d="M81330 25930
L81330 25430
" />
<path d="M81620 25930
L81410 25650
" />
<path d="M81620 25430
L81330 25720
" />
<path d="M82030 25910
L81980 25930
L81880 25930
L81830 25910
L81810 25860
L81810 25670
L81830 25620
L81880 25600
L81980 25600
L82030 25620
L82050 25670
L82050 25720
L81810 25760
" />
<path d="M82220 25600
L82330 25930
" />
<path d="M82450 25600
L82330 25930
L82290 26050
L82260 26070
L82220 26100
" />
<path d="M82640 25600
L82640 26100
" />
<path d="M82640 25620
L82690 25600
L82790 25600
L82830 25620
L82860 25650
L82880 25690
L82880 25840
L82860 25880
L82830 25910
L82790 25930
L82690 25930
L82640 25910
" />
<path d="M83310 25930
L83310 25670
L83290 25620
L83240 25600
L83140 25600
L83100 25620
" />
<path d="M83310 25910
L83260 25930
L83140 25930
L83100 25910
L83070 25860
L83070 25810
L83100 25760
L83140 25740
L83260 25740
L83310 25720
" />
<path d="M83760 25930
L83760 25430
" />
<path d="M83760 25910
L83720 25930
L83620 25930
L83570 25910
L83550 25880
L83530 25840
L83530 25690
L83550 25650
L83570 25620
L83620 25600
L83720 25600
L83760 25620
" />
<path d="M84290 25880
L84260 25910
L84190 25930
L84140 25930
L84070 25910
L84030 25860
L84000 25810
L83980 25720
L83980 25650
L84000 25550
L84030 25500
L84070 25460
L84140 25430
L84190 25430
L84260 25460
L84290 25480
" />
<path d="M84570 25930
L84530 25910
L84500 25880
L84480 25840
L84480 25690
L84500 25650
L84530 25620
L84570 25600
L84640 25600
L84690 25620
L84720 25650
L84740 25690
L84740 25840
L84720 25880
L84690 25910
L84640 25930
L84570 25930
" />
<path d="M84950 25600
L84950 25930
" />
<path d="M84950 25650
L84980 25620
L85030 25600
L85100 25600
L85140 25620
L85170 25670
L85170 25930
" />
<path d="M85330 25600
L85530 25600
" />
<path d="M85410 25430
L85410 25860
L85430 25910
L85480 25930
L85530 25930
" />
<path d="M85690 25930
L85690 25600
" />
<path d="M85690 25690
L85720 25650
L85740 25620
L85790 25600
L85830 25600
" />
<path d="M86070 25930
L86030 25910
L86000 25880
L85980 25840
L85980 25690
L86000 25650
L86030 25620
L86070 25600
L86140 25600
L86190 25620
L86220 25650
L86240 25690
L86240 25840
L86220 25880
L86190 25910
L86140 25930
L86070 25930
" />
<path d="M86530 25930
L86480 25910
L86450 25860
L86450 25430
" />
<path d="M86790 25930
L86740 25910
L86720 25860
L86720 25430
" />
<path d="M87170 25910
L87120 25930
L87030 25930
L86980 25910
L86950 25860
L86950 25670
L86980 25620
L87030 25600
L87120 25600
L87170 25620
L87190 25670
L87190 25720
L86950 25760
" />
<path d="M87410 25930
L87410 25600
" />
<path d="M87410 25690
L87430 25650
L87450 25620
L87500 25600
L87550 25600
" />
</g>
<g style="fill:#848400; fill-opacity:0.0; 
stroke:#848400; stroke-width:60; stroke-opacity:1; 
stroke-linecap:round; stroke-linejoin:round;">
</g>
<g style="fill:#000000; fill-opacity:0.0; 
stroke:#000000; stroke-width:60; stroke-opacity:1; 
stroke-linecap:round; stroke-linejoin:round;">
<path d="M78810 50250
L78640 50250
" />
<path d="M78640 50510
L78640 50010
L78880 50010
" />
<path d="M79070 50510
L79070 50180
" />
<path d="M79070 50010
L79050 50040
L79070 50060
L79100 50040
L79070 50010
L79070 50060
" />
<path d="M79380 50510
L79330 50490
L79310 50440
L79310 50010
" />
<path d="M79760 50490
L79720 50510
L79620 50510
L79570 50490
L79550 50440
L79550 50250
L79570 50200
L79620 50180
L79720 50180
L79760 50200
L79790 50250
L79790 50300
L79550 50340
" />
<path d="M80000 50460
L80030 50490
L80000 50510
L79980 50490
L80000 50460
L80000 50510
" />
<path d="M80000 50200
L80030 50230
L80000 50250
L79980 50230
L80000 50200
L80000 50250
" />
<path d="M80620 50510
L80620 50010
" />
<path d="M80910 50510
L80690 50230
" />
<path d="M80910 50010
L80620 50300
" />
<path d="M81310 50490
L81260 50510
L81170 50510
L81120 50490
L81100 50440
L81100 50250
L81120 50200
L81170 50180
L81260 50180
L81310 50200
L81330 50250
L81330 50300
L81100 50340
" />
<path d="M81500 50180
L81620 50510
" />
<path d="M81740 50180
L81620 50510
L81570 50630
L81550 50650
L81500 50680
" />
<path d="M81930 50180
L81930 50680
" />
<path d="M81930 50200
L81980 50180
L82070 50180
L82120 50200
L82140 50230
L82170 50270
L82170 50420
L82140 50460
L82120 50490
L82070 50510
L81980 50510
L81930 50490
" />
<path d="M82600 50510
L82600 50250
L82570 50200
L82530 50180
L82430 50180
L82380 50200
" />
<path d="M82600 50490
L82550 50510
L82430 50510
L82380 50490
L82360 50440
L82360 50390
L82380 50340
L82430 50320
L82550 50320
L82600 50300
" />
<path d="M83050 50510
L83050 50010
" />
<path d="M83050 50490
L83000 50510
L82910 50510
L82860 50490
L82830 50460
L82810 50420
L82810 50270
L82830 50230
L82860 50200
L82910 50180
L83000 50180
L83050 50200
" />
<path d="M83570 50460
L83550 50490
L83480 50510
L83430 50510
L83360 50490
L83310 50440
L83290 50390
L83260 50300
L83260 50230
L83290 50130
L83310 50080
L83360 50040
L83430 50010
L83480 50010
L83550 50040
L83570 50060
" />
<path d="M83860 50510
L83810 50490
L83790 50460
L83760 50420
L83760 50270
L83790 50230
L83810 50200
L83860 50180
L83930 50180
L83980 50200
L84000 50230
L84030 50270
L84030 50420
L84000 50460
L83980 50490
L83930 50510
L83860 50510
" />
<path d="M84240 50180
L84240 50510
" />
<path d="M84240 50230
L84260 50200
L84310 50180
L84380 50180
L84430 50200
L84450 50250
L84450 50510
" />
<path d="M84620 50180
L84810 50180
" />
<path d="M84690 50010
L84690 50440
L84720 50490
L84760 50510
L84810 50510
" />
<path d="M84980 50510
L84980 50180
" />
<path d="M84980 50270
L85000 50230
L85030 50200
L85070 50180
L85120 50180
" />
<path d="M85360 50510
L85310 50490
L85290 50460
L85260 50420
L85260 50270
L85290 50230
L85310 50200
L85360 50180
L85430 50180
L85480 50200
L85500 50230
L85530 50270
L85530 50420
L85500 50460
L85480 50490
L85430 50510
L85360 50510
" />
<path d="M85810 50510
L85760 50490
L85740 50440
L85740 50010
" />
<path d="M86070 50510
L86030 50490
L86000 50440
L86000 50010
" />
<path d="M86450 50490
L86410 50510
L86310 50510
L86260 50490
L86240 50440
L86240 50250
L86260 50200
L86310 50180
L86410 50180
L86450 50200
L86480 50250
L86480 50300
L86240 50340
" />
<path d="M86690 50510
L86690 50180
" />
<path d="M86690 50270
L86720 50230
L86740 50200
L86790 50180
L86830 50180
" />
<path d="M87000 50460
L87030 50490
L87000 50510
L86980 50490
L87000 50460
L87000 50510
" />
<path d="M87220 50490
L87260 50510
L87360 50510
L87410 50490
L87430 50440
L87430 50420
L87410 50370
L87360 50340
L87290 50340
L87240 50320
L87220 50270
L87220 50250
L87240 50200
L87290 50180
L87360 50180
L87410 50200
" />
<path d="M87860 50490
L87810 50510
L87720 50510
L87670 50490
L87640 50460
L87620 50420
L87620 50270
L87640 50230
L87670 50200
L87720 50180
L87810 50180
L87860 50200
" />
<path d="M88070 50510
L88070 50010
" />
<path d="M88290 50510
L88290 50250
L88260 50200
L88220 50180
L88140 50180
L88100 50200
L88070 50230
" />
</g>
<g style="fill:#840084; fill-opacity:0.0; 
stroke:#840084; stroke-width:60; stroke-opacity:1; 
stroke-linecap:round; stroke-linejoin:round;">
</g>
<g style="fill:#848400; fill-opacity:0.0; 
stroke:#848400; stroke-width:60; stroke-opacity:1; 
stroke-linecap:round; stroke-linejoin:round;">
<path d="M79220 30700
L79290 30720
L79410 30720
L79460 30700
L79480 30670
L79510 30630
L79510 30580
L79480 30530
L79460 30510
L79410 30480
L79320 30460
L79270 30440
L79240 30410
L79220 30360
L79220 30320
L79240 30270
L79270 30250
L79320 30220
L79430 30220
L79510 30250
" />
<path d="M79720 30720
L79720 30220
L79840 30220
L79910 30250
L79960 30290
L79980 30340
L80010 30440
L80010 30510
L79980 30600
L79960 30650
L79910 30700
L79840 30720
L79720 30720
" />
<path d="M80200 30580
L80430 30580
" />
<path d="M80150 30720
L80320 30220
L80480 30720
" />
</g>
<g style="fill:#848400; fill-opacity:0.0; 
stroke:#848400; stroke-width:100; stroke-opacity:1; 
stroke-linecap:round; stroke-linejoin:round;">
<path style="fill:#848400; fill-opacity:0.0; 
stroke:#848400; stroke-width:100; stroke-opacity:1; 
stroke-linecap:round; stroke-linejoin:round;fill:none"
d="M 79000,30500
78750,30250
78500,30250
78500,30750
78750,30750
79000,30500
Z" /> 
</g>
<g style="fill:#848400; fill-opacity:0.0; 
stroke:#848400; stroke-width:60; stroke-opacity:1; 
stroke-linecap:round; stroke-linejoin:round;">
<path d="M79220 32700
L79290 32720
L79410 32720
L79460 32700
L79480 32670
L79510 32630
L79510 32580
L79480 32530
L79460 32510
L79410 32480
L79320 32460
L79270 32440
L79240 32410
L79220 32360
L79220 32320
L79240 32270
L79270 32250
L79320 32220
L79430 32220
L79510 32250
" />
<path d="M80010 32670
L79980 32700
L79910 32720
L79860 32720
L79790 32700
L79740 32650
L79720 32600
L79700 32510
L79700 32440
L79720 32340
L79740 32290
L79790 32250
L79860 32220
L79910 32220
L79980 32250
L80010 32270
" />
<path d="M80460 32720
L80220 32720
L80220 32220
" />
</g>
<g style="fill:#848400; fill-opacity:0.0; 
stroke:#848400; stroke-width:100; stroke-opacity:1; 
stroke-linecap:round; stroke-linejoin:round;">
<path style="fill:#848400; fill-opacity:0.0; 
stroke:#848400; stroke-width:100; stroke-opacity:1; 
stroke-linecap:round; stroke-linejoin:round;fill:none"
d="M 79000,32500
78750,32250
78500,32250
78500,32750
78750,32750
79000,32500
Z" /> 
</g>
<g style="fill:#848400; fill-opacity:0.0; 
stroke:#848400; stroke-width:60; stroke-opacity:1; 
stroke-linecap:round; stroke-linejoin:round;">
<path d="M79130 33080
L79360 33080
" />
<path d="M79240 33720
L79240 33220
" />
<path d="M79360 33080
L79890 33080
" />
<path d="M79480 33720
L79480 33220
L79770 33720
L79770 33220
" />
<path d="M79890 33080
L80270 33080
" />
<path d="M79930 33220
L80220 33220
" />
<path d="M80080 33720
L80080 33220
" />
</g>
<g style="fill:#848400; fill-opacity:0.0; 
stroke:#848400; stroke-width:100; stroke-opacity:1; 
stroke-linecap:round; stroke-linejoin:round;">
<path style="fill:#848400; fill-opacity:0.0; 
stroke:#848400; stroke-width:100; stroke-opacity:1; 
stroke-linecap:round; stroke-linejoin:round;fill:none"
d="M 79000,33500
78750,33250
78500,33250
78500,33750
78750,33750
79000,33500
Z" /> 
</g>
<g style="fill:#848400; fill-opacity:0.0; 
stroke:#848400; stroke-width:60; stroke-opacity:1; 
stroke-linecap:round; stroke-linejoin:round;">
<path d="M79200 28220
L79510 28220
L79340 28410
L79410 28410
L79460 28440
L79480 28460
L79510 28510
L79510 28630
L79480 28670
L79460 28700
L79410 28720
L79270 28720
L79220 28700
L79200 28670
" />
<path d="M79720 28670
L79740 28700
L79720 28720
L79700 28700
L79720 28670
L79720 28720
" />
<path d="M79910 28220
L80220 28220
L80050 28410
L80130 28410
L80170 28440
L80200 28460
L80220 28510
L80220 28630
L80200 28670
L80170 28700
L80130 28720
L79980 28720
L79930 28700
L79910 28670
" />
<path d="M80360 28220
L80530 28720
L80700 28220
" />
</g>
<g style="fill:#848400; fill-opacity:0.0; 
stroke:#848400; stroke-width:100; stroke-opacity:1; 
stroke-linecap:round; stroke-linejoin:round;">
<path style="fill:#848400; fill-opacity:0.0; 
stroke:#848400; stroke-width:100; stroke-opacity:1; 
stroke-linecap:round; stroke-linejoin:round;fill:none"
d="M 79000,28500
78750,28250
78500,28250
78500,28750
78750,28750
79000,28500
Z" /> 
</g>
<g style="fill:#848400; fill-opacity:0.0; 
stroke:#848400; stroke-width:60; stroke-opacity:1; 
stroke-linecap:round; stroke-linejoin:round;">
<path d="M79510 36250
L79460 36220
L79390 36220
L79320 36250
L79270 36290
L79240 36340
L79220 36440
L79220 36510
L79240 36600
L79270 36650
L79320 36700
L79390 36720
L79430 36720
L79510 36700
L79530 36670
L79530 36510
L79430 36510
" />
<path d="M79740 36720
L79740 36220
L80030 36720
L80030 36220
" />
<path d="M80270 36720
L80270 36220
L80390 36220
L80460 36250
L80510 36290
L80530 36340
L80550 36440
L80550 36510
L80530 36600
L80510 36650
L80460 36700
L80390 36720
L80270 36720
" />
</g>
<g style="fill:#848400; fill-opacity:0.0; 
stroke:#848400; stroke-width:100; stroke-opacity:1; 
stroke-linecap:round; stroke-linejoin:round;">
<path style="fill:#848400; fill-opacity:0.0; 
stroke:#848400; stroke-width:100; stroke-opacity:1; 
stroke-linecap:round; stroke-linejoin:round;fill:none"
d="M 79000,36500
78750,36250
78500,36250
78500,36750
78750,36750
79000,36500
Z" /> 
</g>
<g style="fill:#848400; fill-opacity:0.0; 
stroke:#848400; stroke-width:60; stroke-opacity:1; 
stroke-linecap:round; stroke-linejoin:round;">
<path d="M79220 31700
L79290 31720
L79410 31720
L79460 31700
L79480 31670
L79510 31630
L79510 31580
L79480 31530
L79460 31510
L79410 31480
L79320 31460
L79270 31440
L79240 31410
L79220 31360
L79220 31320
L79240 31270
L79270 31250
L79320 31220
L79430 31220
L79510 31250
" />
<path d="M79720 31720
L79720 31220
L79840 31220
L79910 31250
L79960 31290
L79980 31340
L80010 31440
L80010 31510
L79980 31600
L79960 31650
L79910 31700
L79840 31720
L79720 31720
" />
<path d="M80480 31250
L80430 31220
L80360 31220
L80290 31250
L80240 31290
L80220 31340
L80200 31440
L80200 31510
L80220 31600
L80240 31650
L80290 31700
L80360 31720
L80410 31720
L80480 31700
L80510 31670
L80510 31510
L80410 31510
" />
</g>
<g style="fill:#848400; fill-opacity:0.0; 
stroke:#848400; stroke-width:100; stroke-opacity:1; 
stroke-linecap:round; stroke-linejoin:round;">
<path style="fill:#848400; fill-opacity:0.0; 
stroke:#848400; stroke-width:100; stroke-opacity:1; 
stroke-linecap:round; stroke-linejoin:round;fill:none"
d="M 79000,31500
78750,31250
78500,31250
78500,31750
78750,31750
79000,31500
Z" /> 
</g>
<g style="fill:#848400; fill-opacity:0.0; 
stroke:#848400; stroke-width:60; stroke-opacity:1; 
stroke-linecap:round; stroke-linejoin:round;">
</g>
<g style="fill:#008400; fill-opacity:0.0; 
stroke:#008400; stroke-width:60; stroke-opacity:1; 
stroke-linecap:round; stroke-linejoin:round;">
<path d="M38500 21500
L38500 31500
" />
<path d="M74500 21500
L74500 31500
" />
<path d="M73500 22500
L73500 32500
" />
<path d="M72500 23500
L72500 33500
" />
<path d="M40500 23500
L72500 23500
" />
<path d="M39500 22500
L73500 22500
" />
<path d="M38500 21500
L74500 21500
" />
<path d="M35000 38500
L40500 38500
" />
<path d="M40500 38500
L40500 55000
" />
<path d="M40500 55000
L72500 55000
" />
<path d="M72500 55000
L72500 36500
" />
<path d="M72500 36500
L78500 36500
" />
<path d="M35000 27000
L43000 27000
" />
<path d="M43000 28500
L36500 28500
" />
<path d="M43000 38500
L40500 38500
" />
<path d="M43000 30500
L37500 30500
" />
<path d="M43000 32500
L39500 32500
" />
<path d="M43000 31500
L38500 31500
" />
<path d="M40500 23500
L40500 34500
" />
<path d="M78500 28500
L76500 28500
" />
<path d="M36500 28500
L35000 28500
" />
<path d="M36500 19500
L76500 19500
" />
<path d="M78500 30500
L75500 30500
" />
<path d="M75500 20500
L37500 20500
" />
<path d="M37500 30500
L35000 30500
" />
<path d="M73500 32500
L78500 32500
" />
<path d="M72500 33500
L78500 33500
" />
<path d="M78500 31500
L74500 31500
" />
<path d="M75500 20500
L75500 30500
" />
<path d="M76500 19500
L76500 28500
" />
<path d="M37500 20500
L37500 30500
" />
<path d="M36500 19500
L36500 28500
" />
<path d="M35000 34500
L40500 34500
" />
<path d="M35000 32500
L39500 32500
" />
<path d="M35000 31500
L38500 31500
" />
<path d="M39500 22500
L39500 32500
" />
</g>
<g style="fill:#008400; fill-opacity:0.0; 
stroke:#008400; stroke-width:0; stroke-opacity:1; 
stroke-linecap:round; stroke-linejoin:round;">
</g>
<g style="fill:#008400; fill-opacity:1.0; 
stroke:#008400; stroke-width:100; stroke-opacity:1; 
stroke-linecap:round; stroke-linejoin:round;">
<circle cx="36500" cy="28500" r="200" /> 
</g>
<g style="fill:#008400; fill-opacity:1.0; 
stroke:#008400; stroke-width:0; stroke-opacity:1; 
stroke-linecap:round; stroke-linejoin:round;">
</g>
<g style="fill:#008400; fill-opacity:1.0; 
stroke:#008400; stroke-width:100; stroke-opacity:1; 
stroke-linecap:round; stroke-linejoin:round;">
<circle cx="40500" cy="38500" r="200" /> 
</g>
<g style="fill:#008400; fill-opacity:1.0; 
stroke:#008400; stroke-width:0; stroke-opacity:1; 
stroke-linecap:round; stroke-linejoin:round;">
</g>
<g style="fill:#008400; fill-opacity:1.0; 
stroke:#008400; stroke-width:100; stroke-opacity:1; 
stroke-linecap:round; stroke-linejoin:round;">
<circle cx="37500" cy="30500" r="200" /> 
</g>
<g style="fill:#008400; fill-opacity:1.0; 
stroke:#008400; stroke-width:0; stroke-opacity:1; 
stroke-linecap:round; stroke-linejoin:round;">
</g>
<g style="fill:#008400; fill-opacity:1.0; 
stroke:#008400; stroke-width:100; stroke-opacity:1; 
stroke-linecap:round; stroke-linejoin:round;">
<circle cx="39500" cy="32500" r="200" /> 
</g>
<g style="fill:#008400; fill-opacity:1.0; 
stroke:#008400; stroke-width:0; stroke-opacity:1; 
stroke-linecap:round; stroke-linejoin:round;">
</g>
<g style="fill:#008400; fill-opacity:1.0; 
stroke:#008400; stroke-width:100; stroke-opacity:1; 
stroke-linecap:round; stroke-linejoin:round;">
<circle cx="38500" cy="31500" r="200" /> 
</g> 
</svg>
