<?xml version="1.0" standalone="no"?>
 <!DOCTYPE svg PUBLIC "-//W3C//DTD SVG 1.1//EN" 
 "http://www.w3.org/Graphics/SVG/1.1/DTD/svg11.dtd"> 
<svg xmlns="http://www.w3.org/2000/svg" version="1.1" 
    width="29.7002cm" height="21.0007cm" viewBox="0 0 116930 82680 ">
<title>SVG Picture created as RasPiInterface-RasPiInterface.svg date 2019/08/25 20:00:37 </title>
  <desc>Picture generated by Eeschema-SVG </desc>
<g style="fill:#000000; fill-opacity:1;stroke:#000000; stroke-opacity:1;
stroke-linecap:round; stroke-linejoin:round; "
 transform="translate(0 0) scale(1 1)">
</g>
<g style="fill:#000000; fill-opacity:0.0; 
stroke:#000000; stroke-width:-10; stroke-opacity:1; 
stroke-linecap:round; stroke-linejoin:round;">
</g>
<g style="fill:#840000; fill-opacity:0.0; 
stroke:#840000; stroke-width:-10; stroke-opacity:1; 
stroke-linecap:round; stroke-linejoin:round;">
</g>
<g style="fill:#840000; fill-opacity:0.0; 
stroke:#840000; stroke-width:100; stroke-opacity:1; 
stroke-linecap:round; stroke-linejoin:round;">
</g>
<g style="fill:#840000; fill-opacity:0.0; 
stroke:#840000; stroke-width:60; stroke-opacity:1; 
stroke-linecap:round; stroke-linejoin:round;">
<rect x="69690" y="65360" width="42520" height="12600" rx="0" />
</g>
<g style="fill:#840000; fill-opacity:0.0; 
stroke:#840000; stroke-width:100; stroke-opacity:1; 
stroke-linecap:round; stroke-linejoin:round;">
</g>
<g style="fill:#840000; fill-opacity:0.0; 
stroke:#840000; stroke-width:60; stroke-opacity:1; 
stroke-linecap:round; stroke-linejoin:round;">
<rect x="3940" y="3940" width="109050" height="74800" rx="0" />
</g>
<g style="fill:#840000; fill-opacity:0.0; 
stroke:#840000; stroke-width:100; stroke-opacity:1; 
stroke-linecap:round; stroke-linejoin:round;">
</g>
<g style="fill:#840000; fill-opacity:0.0; 
stroke:#840000; stroke-width:60; stroke-opacity:1; 
stroke-linecap:round; stroke-linejoin:round;">
<rect x="4720" y="4720" width="107490" height="73240" rx="0" />
</g>
<g style="fill:#840000; fill-opacity:0.0; 
stroke:#840000; stroke-width:100; stroke-opacity:1; 
stroke-linecap:round; stroke-linejoin:round;">
</g>
<g style="fill:#840000; fill-opacity:0.0; 
stroke:#840000; stroke-width:60; stroke-opacity:1; 
stroke-linecap:round; stroke-linejoin:round;">
<path d="M23620 4720
L23620 3940
" />
</g>
<g style="fill:#840000; fill-opacity:0.0; 
stroke:#840000; stroke-width:100; stroke-opacity:1; 
stroke-linecap:round; stroke-linejoin:round;">
</g>
<g style="fill:#840000; fill-opacity:0.0; 
stroke:#840000; stroke-width:60; stroke-opacity:1; 
stroke-linecap:round; stroke-linejoin:round;">
<path d="M43310 4720
L43310 3940
" />
</g>
<g style="fill:#840000; fill-opacity:0.0; 
stroke:#840000; stroke-width:100; stroke-opacity:1; 
stroke-linecap:round; stroke-linejoin:round;">
</g>
<g style="fill:#840000; fill-opacity:0.0; 
stroke:#840000; stroke-width:60; stroke-opacity:1; 
stroke-linecap:round; stroke-linejoin:round;">
<path d="M62990 4720
L62990 3940
" />
</g>
<g style="fill:#840000; fill-opacity:0.0; 
stroke:#840000; stroke-width:100; stroke-opacity:1; 
stroke-linecap:round; stroke-linejoin:round;">
</g>
<g style="fill:#840000; fill-opacity:0.0; 
stroke:#840000; stroke-width:60; stroke-opacity:1; 
stroke-linecap:round; stroke-linejoin:round;">
<path d="M82680 4720
L82680 3940
" />
</g>
<g style="fill:#840000; fill-opacity:0.0; 
stroke:#840000; stroke-width:100; stroke-opacity:1; 
stroke-linecap:round; stroke-linejoin:round;">
</g>
<g style="fill:#840000; fill-opacity:0.0; 
stroke:#840000; stroke-width:60; stroke-opacity:1; 
stroke-linecap:round; stroke-linejoin:round;">
<path d="M102360 4720
L102360 3940
" />
</g>
<g style="fill:#840000; fill-opacity:0.0; 
stroke:#840000; stroke-width:100; stroke-opacity:1; 
stroke-linecap:round; stroke-linejoin:round;">
</g>
<g style="fill:#840000; fill-opacity:0.0; 
stroke:#840000; stroke-width:60; stroke-opacity:1; 
stroke-linecap:round; stroke-linejoin:round;">
<path d="M14190 4560
L13900 4560
" />
<path d="M14050 4560
L14050 4050
L14000 4120
L13950 4170
L13900 4190
" />
</g>
<g style="fill:#840000; fill-opacity:0.0; 
stroke:#840000; stroke-width:100; stroke-opacity:1; 
stroke-linecap:round; stroke-linejoin:round;">
</g>
<g style="fill:#840000; fill-opacity:0.0; 
stroke:#840000; stroke-width:60; stroke-opacity:1; 
stroke-linecap:round; stroke-linejoin:round;">
<path d="M33580 4090
L33610 4070
L33660 4050
L33780 4050
L33830 4070
L33850 4090
L33870 4140
L33870 4190
L33850 4260
L33560 4560
L33870 4560
" />
</g>
<g style="fill:#840000; fill-opacity:0.0; 
stroke:#840000; stroke-width:100; stroke-opacity:1; 
stroke-linecap:round; stroke-linejoin:round;">
</g>
<g style="fill:#840000; fill-opacity:0.0; 
stroke:#840000; stroke-width:60; stroke-opacity:1; 
stroke-linecap:round; stroke-linejoin:round;">
<path d="M53250 4050
L53560 4050
L53390 4240
L53470 4240
L53520 4260
L53540 4290
L53560 4340
L53560 4460
L53540 4510
L53520 4530
L53470 4560
L53320 4560
L53270 4530
L53250 4510
" />
</g>
<g style="fill:#840000; fill-opacity:0.0; 
stroke:#840000; stroke-width:100; stroke-opacity:1; 
stroke-linecap:round; stroke-linejoin:round;">
</g>
<g style="fill:#840000; fill-opacity:0.0; 
stroke:#840000; stroke-width:60; stroke-opacity:1; 
stroke-linecap:round; stroke-linejoin:round;">
<path d="M73200 4220
L73200 4560
" />
<path d="M73070 4020
L72950 4390
L73270 4390
" />
</g>
<g style="fill:#840000; fill-opacity:0.0; 
stroke:#840000; stroke-width:100; stroke-opacity:1; 
stroke-linecap:round; stroke-linejoin:round;">
</g>
<g style="fill:#840000; fill-opacity:0.0; 
stroke:#840000; stroke-width:60; stroke-opacity:1; 
stroke-linecap:round; stroke-linejoin:round;">
<path d="M92910 4050
L92670 4050
L92640 4290
L92670 4260
L92720 4240
L92840 4240
L92890 4260
L92910 4290
L92930 4340
L92930 4460
L92910 4510
L92890 4530
L92840 4560
L92720 4560
L92670 4530
L92640 4510
" />
</g>
<g style="fill:#840000; fill-opacity:0.0; 
stroke:#840000; stroke-width:100; stroke-opacity:1; 
stroke-linecap:round; stroke-linejoin:round;">
</g>
<g style="fill:#840000; fill-opacity:0.0; 
stroke:#840000; stroke-width:60; stroke-opacity:1; 
stroke-linecap:round; stroke-linejoin:round;">
<path d="M112570 4050
L112470 4050
L112420 4070
L112400 4090
L112350 4170
L112320 4260
L112320 4460
L112350 4510
L112370 4530
L112420 4560
L112520 4560
L112570 4530
L112590 4510
L112610 4460
L112610 4340
L112590 4290
L112570 4260
L112520 4240
L112420 4240
L112370 4260
L112350 4290
L112320 4340
" />
</g>
<g style="fill:#840000; fill-opacity:0.0; 
stroke:#840000; stroke-width:100; stroke-opacity:1; 
stroke-linecap:round; stroke-linejoin:round;">
</g>
<g style="fill:#840000; fill-opacity:0.0; 
stroke:#840000; stroke-width:60; stroke-opacity:1; 
stroke-linecap:round; stroke-linejoin:round;">
<path d="M23620 77960
L23620 78740
" />
</g>
<g style="fill:#840000; fill-opacity:0.0; 
stroke:#840000; stroke-width:100; stroke-opacity:1; 
stroke-linecap:round; stroke-linejoin:round;">
</g>
<g style="fill:#840000; fill-opacity:0.0; 
stroke:#840000; stroke-width:60; stroke-opacity:1; 
stroke-linecap:round; stroke-linejoin:round;">
<path d="M43310 77960
L43310 78740
" />
</g>
<g style="fill:#840000; fill-opacity:0.0; 
stroke:#840000; stroke-width:100; stroke-opacity:1; 
stroke-linecap:round; stroke-linejoin:round;">
</g>
<g style="fill:#840000; fill-opacity:0.0; 
stroke:#840000; stroke-width:60; stroke-opacity:1; 
stroke-linecap:round; stroke-linejoin:round;">
<path d="M62990 77960
L62990 78740
" />
</g>
<g style="fill:#840000; fill-opacity:0.0; 
stroke:#840000; stroke-width:100; stroke-opacity:1; 
stroke-linecap:round; stroke-linejoin:round;">
</g>
<g style="fill:#840000; fill-opacity:0.0; 
stroke:#840000; stroke-width:60; stroke-opacity:1; 
stroke-linecap:round; stroke-linejoin:round;">
<path d="M82680 77960
L82680 78740
" />
</g>
<g style="fill:#840000; fill-opacity:0.0; 
stroke:#840000; stroke-width:100; stroke-opacity:1; 
stroke-linecap:round; stroke-linejoin:round;">
</g>
<g style="fill:#840000; fill-opacity:0.0; 
stroke:#840000; stroke-width:60; stroke-opacity:1; 
stroke-linecap:round; stroke-linejoin:round;">
<path d="M102360 77960
L102360 78740
" />
</g>
<g style="fill:#840000; fill-opacity:0.0; 
stroke:#840000; stroke-width:100; stroke-opacity:1; 
stroke-linecap:round; stroke-linejoin:round;">
</g>
<g style="fill:#840000; fill-opacity:0.0; 
stroke:#840000; stroke-width:60; stroke-opacity:1; 
stroke-linecap:round; stroke-linejoin:round;">
<path d="M14190 78580
L13900 78580
" />
<path d="M14050 78580
L14050 78070
L14000 78140
L13950 78190
L13900 78210
" />
</g>
<g style="fill:#840000; fill-opacity:0.0; 
stroke:#840000; stroke-width:100; stroke-opacity:1; 
stroke-linecap:round; stroke-linejoin:round;">
</g>
<g style="fill:#840000; fill-opacity:0.0; 
stroke:#840000; stroke-width:60; stroke-opacity:1; 
stroke-linecap:round; stroke-linejoin:round;">
<path d="M33580 78110
L33610 78090
L33660 78070
L33780 78070
L33830 78090
L33850 78110
L33870 78160
L33870 78210
L33850 78280
L33560 78580
L33870 78580
" />
</g>
<g style="fill:#840000; fill-opacity:0.0; 
stroke:#840000; stroke-width:100; stroke-opacity:1; 
stroke-linecap:round; stroke-linejoin:round;">
</g>
<g style="fill:#840000; fill-opacity:0.0; 
stroke:#840000; stroke-width:60; stroke-opacity:1; 
stroke-linecap:round; stroke-linejoin:round;">
<path d="M53250 78070
L53560 78070
L53390 78260
L53470 78260
L53520 78280
L53540 78310
L53560 78360
L53560 78480
L53540 78530
L53520 78550
L53470 78580
L53320 78580
L53270 78550
L53250 78530
" />
</g>
<g style="fill:#840000; fill-opacity:0.0; 
stroke:#840000; stroke-width:100; stroke-opacity:1; 
stroke-linecap:round; stroke-linejoin:round;">
</g>
<g style="fill:#840000; fill-opacity:0.0; 
stroke:#840000; stroke-width:60; stroke-opacity:1; 
stroke-linecap:round; stroke-linejoin:round;">
<path d="M73200 78240
L73200 78580
" />
<path d="M73070 78040
L72950 78410
L73270 78410
" />
</g>
<g style="fill:#840000; fill-opacity:0.0; 
stroke:#840000; stroke-width:100; stroke-opacity:1; 
stroke-linecap:round; stroke-linejoin:round;">
</g>
<g style="fill:#840000; fill-opacity:0.0; 
stroke:#840000; stroke-width:60; stroke-opacity:1; 
stroke-linecap:round; stroke-linejoin:round;">
<path d="M92910 78070
L92670 78070
L92640 78310
L92670 78280
L92720 78260
L92840 78260
L92890 78280
L92910 78310
L92930 78360
L92930 78480
L92910 78530
L92890 78550
L92840 78580
L92720 78580
L92670 78550
L92640 78530
" />
</g>
<g style="fill:#840000; fill-opacity:0.0; 
stroke:#840000; stroke-width:100; stroke-opacity:1; 
stroke-linecap:round; stroke-linejoin:round;">
</g>
<g style="fill:#840000; fill-opacity:0.0; 
stroke:#840000; stroke-width:60; stroke-opacity:1; 
stroke-linecap:round; stroke-linejoin:round;">
<path d="M112570 78070
L112470 78070
L112420 78090
L112400 78110
L112350 78190
L112320 78280
L112320 78480
L112350 78530
L112370 78550
L112420 78580
L112520 78580
L112570 78550
L112590 78530
L112610 78480
L112610 78360
L112590 78310
L112570 78280
L112520 78260
L112420 78260
L112370 78280
L112350 78310
L112320 78360
" />
</g>
<g style="fill:#840000; fill-opacity:0.0; 
stroke:#840000; stroke-width:100; stroke-opacity:1; 
stroke-linecap:round; stroke-linejoin:round;">
</g>
<g style="fill:#840000; fill-opacity:0.0; 
stroke:#840000; stroke-width:60; stroke-opacity:1; 
stroke-linecap:round; stroke-linejoin:round;">
<path d="M3940 23620
L4720 23620
" />
</g>
<g style="fill:#840000; fill-opacity:0.0; 
stroke:#840000; stroke-width:100; stroke-opacity:1; 
stroke-linecap:round; stroke-linejoin:round;">
</g>
<g style="fill:#840000; fill-opacity:0.0; 
stroke:#840000; stroke-width:60; stroke-opacity:1; 
stroke-linecap:round; stroke-linejoin:round;">
<path d="M3940 43310
L4720 43310
" />
</g>
<g style="fill:#840000; fill-opacity:0.0; 
stroke:#840000; stroke-width:100; stroke-opacity:1; 
stroke-linecap:round; stroke-linejoin:round;">
</g>
<g style="fill:#840000; fill-opacity:0.0; 
stroke:#840000; stroke-width:60; stroke-opacity:1; 
stroke-linecap:round; stroke-linejoin:round;">
<path d="M3940 62990
L4720 62990
" />
</g>
<g style="fill:#840000; fill-opacity:0.0; 
stroke:#840000; stroke-width:100; stroke-opacity:1; 
stroke-linecap:round; stroke-linejoin:round;">
</g>
<g style="fill:#840000; fill-opacity:0.0; 
stroke:#840000; stroke-width:60; stroke-opacity:1; 
stroke-linecap:round; stroke-linejoin:round;">
<path d="M4200 13860
L4450 13860
" />
<path d="M4160 14010
L4330 13500
L4500 14010
" />
</g>
<g style="fill:#840000; fill-opacity:0.0; 
stroke:#840000; stroke-width:100; stroke-opacity:1; 
stroke-linecap:round; stroke-linejoin:round;">
</g>
<g style="fill:#840000; fill-opacity:0.0; 
stroke:#840000; stroke-width:60; stroke-opacity:1; 
stroke-linecap:round; stroke-linejoin:round;">
<path d="M4360 33420
L4430 33440
L4460 33470
L4480 33520
L4480 33590
L4460 33640
L4430 33660
L4390 33690
L4190 33690
L4190 33180
L4360 33180
L4410 33200
L4430 33220
L4460 33270
L4460 33320
L4430 33370
L4410 33390
L4360 33420
L4190 33420
" />
</g>
<g style="fill:#840000; fill-opacity:0.0; 
stroke:#840000; stroke-width:100; stroke-opacity:1; 
stroke-linecap:round; stroke-linejoin:round;">
</g>
<g style="fill:#840000; fill-opacity:0.0; 
stroke:#840000; stroke-width:60; stroke-opacity:1; 
stroke-linecap:round; stroke-linejoin:round;">
<path d="M4480 53330
L4460 53350
L4390 53380
L4340 53380
L4260 53350
L4220 53300
L4190 53250
L4170 53160
L4170 53080
L4190 52990
L4220 52940
L4260 52890
L4340 52870
L4390 52870
L4460 52890
L4480 52910
" />
</g>
<g style="fill:#840000; fill-opacity:0.0; 
stroke:#840000; stroke-width:100; stroke-opacity:1; 
stroke-linecap:round; stroke-linejoin:round;">
</g>
<g style="fill:#840000; fill-opacity:0.0; 
stroke:#840000; stroke-width:60; stroke-opacity:1; 
stroke-linecap:round; stroke-linejoin:round;">
<path d="M4190 73060
L4190 72550
L4310 72550
L4390 72570
L4430 72620
L4460 72670
L4480 72760
L4480 72840
L4460 72930
L4430 72980
L4390 73030
L4310 73060
L4190 73060
" />
</g>
<g style="fill:#840000; fill-opacity:0.0; 
stroke:#840000; stroke-width:100; stroke-opacity:1; 
stroke-linecap:round; stroke-linejoin:round;">
</g>
<g style="fill:#840000; fill-opacity:0.0; 
stroke:#840000; stroke-width:60; stroke-opacity:1; 
stroke-linecap:round; stroke-linejoin:round;">
<path d="M112990 23620
L112210 23620
" />
</g>
<g style="fill:#840000; fill-opacity:0.0; 
stroke:#840000; stroke-width:100; stroke-opacity:1; 
stroke-linecap:round; stroke-linejoin:round;">
</g>
<g style="fill:#840000; fill-opacity:0.0; 
stroke:#840000; stroke-width:60; stroke-opacity:1; 
stroke-linecap:round; stroke-linejoin:round;">
<path d="M112990 43310
L112210 43310
" />
</g>
<g style="fill:#840000; fill-opacity:0.0; 
stroke:#840000; stroke-width:100; stroke-opacity:1; 
stroke-linecap:round; stroke-linejoin:round;">
</g>
<g style="fill:#840000; fill-opacity:0.0; 
stroke:#840000; stroke-width:60; stroke-opacity:1; 
stroke-linecap:round; stroke-linejoin:round;">
<path d="M112990 62990
L112210 62990
" />
</g>
<g style="fill:#840000; fill-opacity:0.0; 
stroke:#840000; stroke-width:100; stroke-opacity:1; 
stroke-linecap:round; stroke-linejoin:round;">
</g>
<g style="fill:#840000; fill-opacity:0.0; 
stroke:#840000; stroke-width:60; stroke-opacity:1; 
stroke-linecap:round; stroke-linejoin:round;">
<path d="M112470 13860
L112720 13860
" />
<path d="M112430 14010
L112600 13500
L112770 14010
" />
</g>
<g style="fill:#840000; fill-opacity:0.0; 
stroke:#840000; stroke-width:100; stroke-opacity:1; 
stroke-linecap:round; stroke-linejoin:round;">
</g>
<g style="fill:#840000; fill-opacity:0.0; 
stroke:#840000; stroke-width:60; stroke-opacity:1; 
stroke-linecap:round; stroke-linejoin:round;">
<path d="M112630 33420
L112700 33440
L112730 33470
L112750 33520
L112750 33590
L112730 33640
L112700 33660
L112660 33690
L112460 33690
L112460 33180
L112630 33180
L112680 33200
L112700 33220
L112730 33270
L112730 33320
L112700 33370
L112680 33390
L112630 33420
L112460 33420
" />
</g>
<g style="fill:#840000; fill-opacity:0.0; 
stroke:#840000; stroke-width:100; stroke-opacity:1; 
stroke-linecap:round; stroke-linejoin:round;">
</g>
<g style="fill:#840000; fill-opacity:0.0; 
stroke:#840000; stroke-width:60; stroke-opacity:1; 
stroke-linecap:round; stroke-linejoin:round;">
<path d="M112750 53330
L112730 53350
L112660 53380
L112610 53380
L112530 53350
L112490 53300
L112460 53250
L112440 53160
L112440 53080
L112460 52990
L112490 52940
L112530 52890
L112610 52870
L112660 52870
L112730 52890
L112750 52910
" />
</g>
<g style="fill:#840000; fill-opacity:0.0; 
stroke:#840000; stroke-width:100; stroke-opacity:1; 
stroke-linecap:round; stroke-linejoin:round;">
</g>
<g style="fill:#840000; fill-opacity:0.0; 
stroke:#840000; stroke-width:60; stroke-opacity:1; 
stroke-linecap:round; stroke-linejoin:round;">
<path d="M112460 73060
L112460 72550
L112580 72550
L112660 72570
L112700 72620
L112730 72670
L112750 72760
L112750 72840
L112730 72930
L112700 72980
L112660 73030
L112580 73060
L112460 73060
" />
</g>
<g style="fill:#840000; fill-opacity:0.0; 
stroke:#840000; stroke-width:100; stroke-opacity:1; 
stroke-linecap:round; stroke-linejoin:round;">
</g>
<g style="fill:#840000; fill-opacity:0.0; 
stroke:#840000; stroke-width:60; stroke-opacity:1; 
stroke-linecap:round; stroke-linejoin:round;">
<path d="M78910 76290
L78910 75700
L79050 75700
L79130 75730
L79190 75790
L79210 75840
L79240 75950
L79240 76040
L79210 76150
L79190 76210
L79130 76260
L79050 76290
L78910 76290
" />
<path d="M79750 76290
L79750 75980
L79720 75930
L79660 75900
L79550 75900
L79500 75930
" />
<path d="M79750 76260
L79690 76290
L79550 76290
L79500 76260
L79470 76210
L79470 76150
L79500 76100
L79550 76070
L79690 76070
L79750 76040
" />
<path d="M79950 75900
L80170 75900
" />
<path d="M80030 75700
L80030 76210
L80060 76260
L80110 76290
L80170 76290
" />
<path d="M80590 76260
L80540 76290
L80420 76290
L80370 76260
L80340 76210
L80340 75980
L80370 75930
L80420 75900
L80540 75900
L80590 75930
L80620 75980
L80620 76040
L80340 76100
" />
<path d="M80870 76240
L80900 76260
L80870 76290
L80840 76260
L80870 76240
L80870 76290
" />
<path d="M80870 75930
L80900 75950
L80870 75980
L80840 75950
L80870 75930
L80870 75980
" />
</g>
<g style="fill:#840000; fill-opacity:0.0; 
stroke:#840000; stroke-width:100; stroke-opacity:1; 
stroke-linecap:round; stroke-linejoin:round;">
</g>
<g style="fill:#840000; fill-opacity:0.0; 
stroke:#840000; stroke-width:60; stroke-opacity:1; 
stroke-linecap:round; stroke-linejoin:round;">
<path d="M69690 76580
L112210 76580
" />
</g>
<g style="fill:#840000; fill-opacity:0.0; 
stroke:#840000; stroke-width:100; stroke-opacity:1; 
stroke-linecap:round; stroke-linejoin:round;">
</g>
<g style="fill:#840000; fill-opacity:0.0; 
stroke:#840000; stroke-width:60; stroke-opacity:1; 
stroke-linecap:round; stroke-linejoin:round;">
<path d="M70250 77390
L70250 76800
" />
<path d="M70580 77390
L70330 77050
" />
<path d="M70580 76800
L70250 77140
" />
<path d="M70840 77390
L70840 77000
" />
<path d="M70840 76800
L70810 76830
L70840 76860
L70860 76830
L70840 76800
L70840 76860
" />
<path d="M71450 77340
L71430 77360
L71340 77390
L71290 77390
L71200 77360
L71140 77310
L71120 77250
L71090 77140
L71090 77050
L71120 76940
L71140 76890
L71200 76830
L71290 76800
L71340 76800
L71430 76830
L71450 76860
" />
<path d="M71960 77390
L71960 77080
L71930 77030
L71880 77000
L71760 77000
L71710 77030
" />
<path d="M71960 77360
L71900 77390
L71760 77390
L71710 77360
L71680 77310
L71680 77250
L71710 77200
L71760 77170
L71900 77170
L71960 77140
" />
<path d="M72490 77390
L72490 76800
" />
<path d="M72490 77360
L72440 77390
L72320 77390
L72270 77360
L72240 77340
L72210 77280
L72210 77110
L72240 77050
L72270 77030
L72320 77000
L72440 77000
L72490 77030
" />
<path d="M73220 77080
L73420 77080
" />
<path d="M73500 77390
L73220 77390
L73220 76800
L73500 76800
" />
<path d="M73760 77340
L73790 77360
L73760 77390
L73730 77360
L73760 77340
L73760 77390
" />
<path d="M74040 77390
L74040 76800
L74180 76800
L74260 76830
L74320 76890
L74350 76940
L74380 77050
L74380 77140
L74350 77250
L74320 77310
L74260 77360
L74180 77390
L74040 77390
" />
<path d="M74630 77340
L74660 77360
L74630 77390
L74600 77360
L74630 77340
L74630 77390
" />
<path d="M74880 77220
L75160 77220
" />
<path d="M74830 77390
L75020 76800
L75220 77390
" />
<path d="M75420 77340
L75440 77360
L75420 77390
L75390 77360
L75420 77340
L75420 77390
" />
<path d="M76600 77390
L76600 76800
" />
<path d="M76650 77170
L76820 77390
" />
<path d="M76820 77000
L76600 77220
" />
<path d="M77070 77390
L77070 77000
" />
<path d="M77070 76800
L77040 76830
L77070 76860
L77100 76830
L77070 76800
L77070 76860
" />
<path d="M77610 77360
L77550 77390
L77440 77390
L77380 77360
L77350 77340
L77330 77280
L77330 77110
L77350 77050
L77380 77030
L77440 77000
L77550 77000
L77610 77030
" />
<path d="M78110 77390
L78110 77080
L78080 77030
L78030 77000
L77920 77000
L77860 77030
" />
<path d="M78110 77360
L78060 77390
L77920 77390
L77860 77360
L77830 77310
L77830 77250
L77860 77200
L77920 77170
L78060 77170
L78110 77140
" />
<path d="M78650 77390
L78650 76800
" />
<path d="M78650 77360
L78590 77390
L78480 77390
L78420 77360
L78390 77340
L78370 77280
L78370 77110
L78390 77050
L78420 77030
L78480 77000
L78590 77000
L78650 77030
" />
<path d="M79660 76800
L79380 76800
L79350 77080
L79380 77050
L79430 77030
L79570 77030
L79630 77050
L79660 77080
L79690 77140
L79690 77280
L79660 77340
L79630 77360
L79570 77390
L79430 77390
L79380 77360
L79350 77340
" />
<path d="M79940 77340
L79970 77360
L79940 77390
L79910 77360
L79940 77340
L79940 77390
" />
<path d="M80530 77390
L80190 77390
" />
<path d="M80360 77390
L80360 76800
L80300 76890
L80250 76940
L80190 76970
" />
<path d="M80780 77340
L80810 77360
L80780 77390
L80750 77360
L80780 77340
L80780 77390
" />
<path d="M81320 77000
L81320 77390
" />
<path d="M81170 76770
L81030 77200
L81400 77200
" />
<path d="M81620 77170
L82070 77170
" />
<path d="M82580 77360
L82520 77390
L82410 77390
L82350 77360
L82330 77310
L82330 77080
L82350 77030
L82410 77000
L82520 77000
L82580 77030
L82610 77080
L82610 77140
L82330 77200
" />
<path d="M83110 76800
L83000 76800
L82940 76830
L82920 76860
L82860 76940
L82830 77050
L82830 77280
L82860 77340
L82890 77360
L82940 77390
L83060 77390
L83110 77360
L83140 77340
L83170 77280
L83170 77140
L83140 77080
L83110 77050
L83060 77030
L82940 77030
L82890 77050
L82860 77080
L82830 77140
" />
<path d="M83530 76800
L83590 76800
L83650 76830
L83680 76860
L83700 76910
L83730 77030
L83730 77170
L83700 77280
L83680 77340
L83650 77360
L83590 77390
L83530 77390
L83480 77360
L83450 77340
L83420 77280
L83390 77170
L83390 77030
L83420 76910
L83450 76860
L83480 76830
L83530 76800
" />
<path d="M83980 77390
L83980 76800
" />
<path d="M83980 77030
L84040 77000
L84150 77000
L84210 77030
L84240 77050
L84270 77110
L84270 77280
L84240 77340
L84210 77360
L84150 77390
L84040 77390
L83980 77360
" />
<path d="M84490 76860
L84520 76830
L84570 76800
L84710 76800
L84770 76830
L84800 76860
L84830 76910
L84830 76970
L84800 77050
L84460 77390
L84830 77390
" />
<path d="M85330 76800
L85220 76800
L85160 76830
L85140 76860
L85080 76940
L85050 77050
L85050 77280
L85080 77340
L85110 77360
L85160 77390
L85280 77390
L85330 77360
L85360 77340
L85390 77280
L85390 77140
L85360 77080
L85330 77050
L85280 77030
L85160 77030
L85110 77050
L85080 77080
L85050 77140
" />
<path d="M85890 76800
L85780 76800
L85730 76830
L85700 76860
L85640 76940
L85610 77050
L85610 77280
L85640 77340
L85670 77360
L85730 77390
L85840 77390
L85890 77360
L85920 77340
L85950 77280
L85950 77140
L85920 77080
L85890 77050
L85840 77030
L85730 77030
L85670 77050
L85640 77080
L85610 77140
" />
<path d="M86060 76640
L86630 76640
" />
<path d="M86290 77050
L86230 77030
L86200 77000
L86180 76940
L86180 76910
L86200 76860
L86230 76830
L86290 76800
L86400 76800
L86460 76830
L86480 76860
L86510 76910
L86510 76940
L86480 77000
L86460 77030
L86400 77050
L86290 77050
L86230 77080
L86200 77110
L86180 77170
L86180 77280
L86200 77340
L86230 77360
L86290 77390
L86400 77390
L86460 77360
L86480 77340
L86510 77280
L86510 77170
L86480 77110
L86460 77080
L86400 77050
" />
<path d="M86630 76640
L87190 76640
" />
<path d="M87020 77000
L87020 77390
" />
<path d="M86880 76770
L86740 77200
L87100 77200
" />
<path d="M87580 77000
L87580 77390
" />
<path d="M87330 77000
L87330 77310
L87360 77360
L87410 77390
L87500 77390
L87550 77360
L87580 77340
" />
<path d="M87860 77390
L87860 76800
" />
<path d="M87860 77030
L87920 77000
L88030 77000
L88090 77030
L88110 77050
L88140 77110
L88140 77280
L88110 77340
L88090 77360
L88030 77390
L87920 77390
L87860 77360
" />
<path d="M88650 77000
L88650 77390
" />
<path d="M88400 77000
L88400 77310
L88420 77360
L88480 77390
L88560 77390
L88620 77360
L88650 77340
" />
<path d="M88930 77000
L88930 77390
" />
<path d="M88930 77050
L88960 77030
L89010 77000
L89100 77000
L89150 77030
L89180 77080
L89180 77390
" />
<path d="M89380 77000
L89600 77000
" />
<path d="M89460 76800
L89460 77310
L89490 77360
L89550 77390
L89600 77390
" />
<path d="M90050 77000
L90050 77390
" />
<path d="M89800 77000
L89800 77310
L89830 77360
L89880 77390
L89970 77390
L90020 77360
L90050 77340
" />
<path d="M90640 77390
L90310 77390
" />
<path d="M90470 77390
L90470 76800
L90420 76890
L90360 76940
L90310 76970
" />
<path d="M91150 76800
L91040 76800
L90980 76830
L90950 76860
L90900 76940
L90870 77050
L90870 77280
L90900 77340
L90920 77360
L90980 77390
L91090 77390
L91150 77360
L91180 77340
L91200 77280
L91200 77140
L91180 77080
L91150 77050
L91090 77030
L90980 77030
L90920 77050
L90900 77080
L90870 77140
" />
<path d="M91460 77340
L91490 77360
L91460 77390
L91430 77360
L91460 77340
L91460 77390
" />
<path d="M91850 76800
L91910 76800
L91960 76830
L91990 76860
L92020 76910
L92050 77030
L92050 77170
L92020 77280
L91990 77340
L91960 77360
L91910 77390
L91850 77390
L91790 77360
L91770 77340
L91740 77280
L91710 77170
L91710 77030
L91740 76910
L91770 76860
L91790 76830
L91850 76800
" />
<path d="M92550 77000
L92550 77390
" />
<path d="M92410 76770
L92270 77200
L92640 77200
" />
<path d="M92860 77340
L92890 77360
L92860 77390
L92830 77360
L92860 77340
L92860 77390
" />
<path d="M93450 77390
L93120 77390
" />
<path d="M93280 77390
L93280 76800
L93230 76890
L93170 76940
L93120 76970
" />
</g>
<g style="fill:#840000; fill-opacity:0.0; 
stroke:#840000; stroke-width:100; stroke-opacity:1; 
stroke-linecap:round; stroke-linejoin:round;">
</g>
<g style="fill:#840000; fill-opacity:0.0; 
stroke:#840000; stroke-width:60; stroke-opacity:1; 
stroke-linecap:round; stroke-linejoin:round;">
<path d="M69690 75400
L112210 75400
" />
</g>
<g style="fill:#840000; fill-opacity:0.0; 
stroke:#840000; stroke-width:100; stroke-opacity:1; 
stroke-linecap:round; stroke-linejoin:round;">
</g>
<g style="fill:#840000; fill-opacity:0.0; 
stroke:#840000; stroke-width:120; stroke-opacity:1; 
stroke-linecap:round; stroke-linejoin:round;">
<path d="M104090 76290
L103890 76010
" />
<path d="M103750 76290
L103750 75700
L103980 75700
L104030 75730
L104060 75760
L104090 75810
L104090 75900
L104060 75950
L104030 75980
L103980 76010
L103750 76010
" />
<path d="M104570 76260
L104510 76290
L104400 76290
L104340 76260
L104320 76210
L104320 75980
L104340 75930
L104400 75900
L104510 75900
L104570 75930
L104600 75980
L104600 76040
L104320 76100
" />
<path d="M104790 75900
L104930 76290
L105070 75900
" />
<path d="M105300 76240
L105330 76260
L105300 76290
L105270 76260
L105300 76240
L105300 76290
" />
<path d="M105300 75930
L105330 75950
L105300 75980
L105270 75950
L105300 75930
L105300 75980
" />
</g>
<g style="fill:#840000; fill-opacity:0.0; 
stroke:#840000; stroke-width:100; stroke-opacity:1; 
stroke-linecap:round; stroke-linejoin:round;">
</g>
<g style="fill:#840000; fill-opacity:0.0; 
stroke:#840000; stroke-width:60; stroke-opacity:1; 
stroke-linecap:round; stroke-linejoin:round;">
<path d="M70220 76260
L70300 76290
L70440 76290
L70500 76260
L70530 76240
L70550 76180
L70550 76120
L70530 76070
L70500 76040
L70440 76010
L70330 75980
L70270 75950
L70250 75930
L70220 75870
L70220 75810
L70250 75760
L70270 75730
L70330 75700
L70470 75700
L70550 75730
" />
<path d="M70810 76290
L70810 75900
" />
<path d="M70810 75700
L70780 75730
L70810 75760
L70840 75730
L70810 75700
L70810 75760
" />
<path d="M71030 75900
L71340 75900
L71030 76290
L71340 76290
" />
<path d="M71790 76260
L71730 76290
L71620 76290
L71570 76260
L71540 76210
L71540 75980
L71570 75930
L71620 75900
L71730 75900
L71790 75930
L71820 75980
L71820 76040
L71540 76100
" />
<path d="M72070 76240
L72100 76260
L72070 76290
L72040 76260
L72070 76240
L72070 76290
" />
<path d="M72070 75930
L72100 75950
L72070 75980
L72040 75950
L72070 75930
L72070 75980
" />
<path d="M72770 76120
L73060 76120
" />
<path d="M72720 76290
L72910 75700
L73110 76290
" />
<path d="M73560 75900
L73560 76290
" />
<path d="M73420 75670
L73280 76100
L73650 76100
" />
</g>
<g style="fill:#840000; fill-opacity:0.0; 
stroke:#840000; stroke-width:100; stroke-opacity:1; 
stroke-linecap:round; stroke-linejoin:round;">
</g>
<g style="fill:#840000; fill-opacity:0.0; 
stroke:#840000; stroke-width:60; stroke-opacity:1; 
stroke-linecap:round; stroke-linejoin:round;">
<path d="M103710 77390
L103710 76800
" />
<path d="M104240 77390
L104240 76800
" />
<path d="M104240 77360
L104180 77390
L104070 77390
L104010 77360
L103990 77340
L103960 77280
L103960 77110
L103990 77050
L104010 77030
L104070 77000
L104180 77000
L104240 77030
" />
<path d="M104520 77340
L104550 77360
L104520 77390
L104490 77360
L104520 77340
L104520 77390
" />
<path d="M104520 77030
L104550 77050
L104520 77080
L104490 77050
L104520 77030
L104520 77080
" />
<path d="M105190 76800
L105560 76800
L105360 77030
L105450 77030
L105500 77050
L105530 77080
L105560 77140
L105560 77280
L105530 77340
L105500 77360
L105450 77390
L105280 77390
L105220 77360
L105190 77340
" />
<path d="M106230 76770
L105730 77530
" />
<path d="M106680 77000
L106680 77390
" />
<path d="M106540 76770
L106400 77200
L106770 77200
" />
</g>
<g style="fill:#840000; fill-opacity:0.0; 
stroke:#840000; stroke-width:100; stroke-opacity:1; 
stroke-linecap:round; stroke-linejoin:round;">
</g>
<g style="fill:#840000; fill-opacity:0.0; 
stroke:#840000; stroke-width:60; stroke-opacity:1; 
stroke-linecap:round; stroke-linejoin:round;">
<path d="M69690 73820
L112210 73820
" />
</g>
<g style="fill:#840000; fill-opacity:0.0; 
stroke:#840000; stroke-width:100; stroke-opacity:1; 
stroke-linecap:round; stroke-linejoin:round;">
</g>
<g style="fill:#840000; fill-opacity:0.0; 
stroke:#840000; stroke-width:160; stroke-opacity:1; 
stroke-linecap:round; stroke-linejoin:round;">
<path d="M70360 74090
L70810 74090
" />
<path d="M70480 74880
L70580 74090
" />
<path d="M70970 74880
L71040 74360
" />
<path d="M71070 74090
L71030 74130
L71060 74170
L71110 74130
L71070 74090
L71060 74170
" />
<path d="M71300 74360
L71600 74360
" />
<path d="M71450 74090
L71360 74770
L71390 74840
L71460 74880
L71540 74880
" />
<path d="M71910 74880
L71840 74840
L71820 74770
L71900 74090
" />
<path d="M72520 74840
L72440 74880
L72290 74880
L72220 74840
L72190 74770
L72230 74470
L72280 74390
L72360 74360
L72510 74360
L72580 74390
L72610 74470
L72600 74540
L72210 74620
" />
<path d="M72900 74810
L72930 74840
L72890 74880
L72860 74840
L72900 74810
L72890 74880
" />
<path d="M72950 74390
L72990 74430
L72940 74470
L72910 74430
L72950 74390
L72940 74470
" />
</g>
<g style="fill:#840000; fill-opacity:0.0; 
stroke:#840000; stroke-width:100; stroke-opacity:1; 
stroke-linecap:round; stroke-linejoin:round;">
</g>
<g style="fill:#840000; fill-opacity:0.0; 
stroke:#840000; stroke-width:60; stroke-opacity:1; 
stroke-linecap:round; stroke-linejoin:round;">
<path d="M70440 73060
L70250 73060
" />
<path d="M70250 73370
L70250 72780
L70530 72780
" />
<path d="M70750 73370
L70750 72980
" />
<path d="M70750 72780
L70720 72810
L70750 72840
L70780 72810
L70750 72780
L70750 72840
" />
<path d="M71120 73370
L71060 73340
L71030 73290
L71030 72780
" />
<path d="M71570 73340
L71510 73370
L71400 73370
L71340 73340
L71310 73290
L71310 73060
L71340 73010
L71400 72980
L71510 72980
L71570 73010
L71590 73060
L71590 73120
L71310 73180
" />
<path d="M71850 73320
L71880 73340
L71850 73370
L71820 73340
L71850 73320
L71850 73370
" />
<path d="M71850 73010
L71880 73030
L71850 73060
L71820 73030
L71850 73010
L71850 73060
" />
<path d="M72910 73370
L72720 73090
" />
<path d="M72580 73370
L72580 72780
L72800 72780
L72860 72810
L72890 72840
L72910 72890
L72910 72980
L72890 73030
L72860 73060
L72800 73090
L72580 73090
" />
<path d="M73420 73370
L73420 73060
L73390 73010
L73340 72980
L73220 72980
L73170 73010
" />
<path d="M73420 73340
L73360 73370
L73220 73370
L73170 73340
L73140 73290
L73140 73230
L73170 73180
L73220 73150
L73360 73150
L73420 73120
" />
<path d="M73670 73340
L73730 73370
L73840 73370
L73900 73340
L73930 73290
L73930 73260
L73900 73200
L73840 73180
L73760 73180
L73700 73150
L73670 73090
L73670 73060
L73700 73010
L73760 72980
L73840 72980
L73900 73010
" />
<path d="M74180 73370
L74180 72780
L74400 72780
L74460 72810
L74490 72840
L74520 72890
L74520 72980
L74490 73030
L74460 73060
L74400 73090
L74180 73090
" />
<path d="M74770 73370
L74770 72980
" />
<path d="M74770 72780
L74740 72810
L74770 72840
L74800 72810
L74770 72780
L74770 72840
" />
<path d="M75050 73370
L75050 72780
" />
<path d="M75330 72980
L75330 73370
" />
<path d="M75330 73030
L75360 73010
L75420 72980
L75500 72980
L75560 73010
L75580 73060
L75580 73370
" />
<path d="M75780 72980
L76010 72980
" />
<path d="M75860 72780
L75860 73290
L75890 73340
L75950 73370
L76010 73370
" />
<path d="M76430 73340
L76370 73370
L76260 73370
L76200 73340
L76170 73290
L76170 73060
L76200 73010
L76260 72980
L76370 72980
L76430 73010
L76450 73060
L76450 73120
L76170 73180
" />
<path d="M76710 73370
L76710 72980
" />
<path d="M76710 73090
L76740 73030
L76760 73010
L76820 72980
L76880 72980
" />
<path d="M76990 72980
L77210 72980
" />
<path d="M77070 73370
L77070 72870
L77100 72810
L77160 72780
L77210 72780
" />
<path d="M77660 73370
L77660 73060
L77630 73010
L77580 72980
L77470 72980
L77410 73010
" />
<path d="M77660 73340
L77610 73370
L77470 73370
L77410 73340
L77380 73290
L77380 73230
L77410 73180
L77470 73150
L77610 73150
L77660 73120
" />
<path d="M78200 73340
L78140 73370
L78030 73370
L77970 73340
L77940 73320
L77920 73260
L77920 73090
L77940 73030
L77970 73010
L78030 72980
L78140 72980
L78200 73010
" />
<path d="M78670 73340
L78620 73370
L78510 73370
L78450 73340
L78420 73290
L78420 73060
L78450 73010
L78510 72980
L78620 72980
L78670 73010
L78700 73060
L78700 73120
L78420 73180
" />
<path d="M78960 73320
L78980 73340
L78960 73370
L78930 73340
L78960 73320
L78960 73370
" />
<path d="M79210 73340
L79260 73370
L79380 73370
L79430 73340
L79460 73290
L79460 73260
L79430 73200
L79380 73180
L79290 73180
L79240 73150
L79210 73090
L79210 73060
L79240 73010
L79290 72980
L79380 72980
L79430 73010
" />
<path d="M79970 73340
L79910 73370
L79800 73370
L79740 73340
L79710 73320
L79690 73260
L79690 73090
L79710 73030
L79740 73010
L79800 72980
L79910 72980
L79970 73010
" />
<path d="M80220 73370
L80220 72780
" />
<path d="M80470 73370
L80470 73060
L80440 73010
L80390 72980
L80300 72980
L80250 73010
L80220 73030
" />
</g>
<g style="fill:#840000; fill-opacity:0.0; 
stroke:#840000; stroke-width:100; stroke-opacity:1; 
stroke-linecap:round; stroke-linejoin:round;">
</g>
<g style="fill:#840000; fill-opacity:0.0; 
stroke:#840000; stroke-width:60; stroke-opacity:1; 
stroke-linecap:round; stroke-linejoin:round;">
<path d="M69690 71460
L112210 71460
" />
</g>
<g style="fill:#840000; fill-opacity:0.0; 
stroke:#840000; stroke-width:100; stroke-opacity:1; 
stroke-linecap:round; stroke-linejoin:round;">
</g>
<g style="fill:#840000; fill-opacity:0.0; 
stroke:#840000; stroke-width:60; stroke-opacity:1; 
stroke-linecap:round; stroke-linejoin:round;">
<path d="M70220 72280
L70300 72310
L70440 72310
L70500 72280
L70530 72260
L70550 72200
L70550 72140
L70530 72090
L70500 72060
L70440 72030
L70330 72000
L70270 71970
L70250 71950
L70220 71890
L70220 71830
L70250 71780
L70270 71750
L70330 71720
L70470 71720
L70550 71750
" />
<path d="M70810 72310
L70810 71720
" />
<path d="M71060 72310
L71060 72000
L71030 71950
L70980 71920
L70890 71920
L70840 71950
L70810 71970
" />
<path d="M71570 72280
L71510 72310
L71400 72310
L71340 72280
L71310 72230
L71310 72000
L71340 71950
L71400 71920
L71510 71920
L71570 71950
L71590 72000
L71590 72060
L71310 72120
" />
<path d="M72070 72280
L72020 72310
L71900 72310
L71850 72280
L71820 72230
L71820 72000
L71850 71950
L71900 71920
L72020 71920
L72070 71950
L72100 72000
L72100 72060
L71820 72120
" />
<path d="M72270 71920
L72490 71920
" />
<path d="M72350 71720
L72350 72230
L72380 72280
L72440 72310
L72490 72310
" />
<path d="M72690 72260
L72720 72280
L72690 72310
L72660 72280
L72690 72260
L72690 72310
" />
<path d="M72690 71950
L72720 71970
L72690 72000
L72660 71970
L72690 71950
L72690 72000
" />
<path d="M73840 71690
L73340 72450
" />
<path d="M74380 72310
L74180 72030
" />
<path d="M74040 72310
L74040 71720
L74260 71720
L74320 71750
L74350 71780
L74380 71830
L74380 71920
L74350 71970
L74320 72000
L74260 72030
L74040 72030
" />
<path d="M74880 72310
L74880 72000
L74850 71950
L74800 71920
L74680 71920
L74630 71950
" />
<path d="M74880 72280
L74830 72310
L74680 72310
L74630 72280
L74600 72230
L74600 72170
L74630 72120
L74680 72090
L74830 72090
L74880 72060
" />
<path d="M75130 72280
L75190 72310
L75300 72310
L75360 72280
L75390 72230
L75390 72200
L75360 72140
L75300 72120
L75220 72120
L75160 72090
L75130 72030
L75130 72000
L75160 71950
L75220 71920
L75300 71920
L75360 71950
" />
<path d="M75640 72310
L75640 71720
L75860 71720
L75920 71750
L75950 71780
L75980 71830
L75980 71920
L75950 71970
L75920 72000
L75860 72030
L75640 72030
" />
<path d="M76230 72310
L76230 71920
" />
<path d="M76230 71720
L76200 71750
L76230 71780
L76260 71750
L76230 71720
L76230 71780
" />
<path d="M76510 72310
L76510 71720
" />
<path d="M76790 71920
L76790 72310
" />
<path d="M76790 71970
L76820 71950
L76880 71920
L76960 71920
L77020 71950
L77040 72000
L77040 72310
" />
<path d="M77240 71920
L77470 71920
" />
<path d="M77330 71720
L77330 72230
L77350 72280
L77410 72310
L77470 72310
" />
<path d="M77890 72280
L77830 72310
L77720 72310
L77660 72280
L77630 72230
L77630 72000
L77660 71950
L77720 71920
L77830 71920
L77890 71950
L77920 72000
L77920 72060
L77630 72120
" />
<path d="M78170 72310
L78170 71920
" />
<path d="M78170 72030
L78200 71970
L78220 71950
L78280 71920
L78340 71920
" />
<path d="M78450 71920
L78670 71920
" />
<path d="M78530 72310
L78530 71810
L78560 71750
L78620 71720
L78670 71720
" />
<path d="M79120 72310
L79120 72000
L79100 71950
L79040 71920
L78930 71920
L78870 71950
" />
<path d="M79120 72280
L79070 72310
L78930 72310
L78870 72280
L78840 72230
L78840 72170
L78870 72120
L78930 72090
L79070 72090
L79120 72060
" />
<path d="M79660 72280
L79600 72310
L79490 72310
L79430 72280
L79400 72260
L79380 72200
L79380 72030
L79400 71970
L79430 71950
L79490 71920
L79600 71920
L79660 71950
" />
<path d="M80140 72280
L80080 72310
L79970 72310
L79910 72280
L79880 72230
L79880 72000
L79910 71950
L79970 71920
L80080 71920
L80140 71950
L80160 72000
L80160 72060
L79880 72120
" />
<path d="M80840 71690
L80330 72450
" />
</g>
<g style="fill:#840000; fill-opacity:0.0; 
stroke:#840000; stroke-width:100; stroke-opacity:1; 
stroke-linecap:round; stroke-linejoin:round;">
</g>
<g style="fill:#840000; fill-opacity:0.0; 
stroke:#840000; stroke-width:60; stroke-opacity:1; 
stroke-linecap:round; stroke-linejoin:round;">
<path d="M77560 75400
L77560 76580
" />
</g>
<g style="fill:#840000; fill-opacity:0.0; 
stroke:#840000; stroke-width:100; stroke-opacity:1; 
stroke-linecap:round; stroke-linejoin:round;">
</g>
<g style="fill:#840000; fill-opacity:0.0; 
stroke:#840000; stroke-width:60; stroke-opacity:1; 
stroke-linecap:round; stroke-linejoin:round;">
<path d="M102760 75400
L102760 77960
" />
</g>
<g style="fill:#840000; fill-opacity:0.0; 
stroke:#840000; stroke-width:0; stroke-opacity:1; 
stroke-linecap:round; stroke-linejoin:round;">
<g >
</g>
<g style="fill:#840000; fill-opacity:0.0; 
stroke:#840000; stroke-width:200; stroke-opacity:1; 
stroke-linecap:round; stroke-linejoin:round;">
<path style="fill:#840000; fill-opacity:0.0; 
stroke:#840000; stroke-width:200; stroke-opacity:1; 
stroke-linecap:round; stroke-linejoin:round;fill:none"
d="M 51700,34300
53300,34300
Z" /> 
<path style="fill:#840000; fill-opacity:0.0; 
stroke:#840000; stroke-width:200; stroke-opacity:1; 
stroke-linecap:round; stroke-linejoin:round;fill:none"
d="M 51700,33700
53300,33700
Z" /> 
</g>
<g style="fill:#840000; fill-opacity:0.0; 
stroke:#840000; stroke-width:60; stroke-opacity:1; 
stroke-linecap:round; stroke-linejoin:round;">
<path d="M52500 33600
L52500 32500
" />
<path d="M52500 34400
L52500 35500
" />
</g>
<g style="fill:#008484; fill-opacity:0.0; 
stroke:#008484; stroke-width:60; stroke-opacity:1; 
stroke-linecap:round; stroke-linejoin:round;">
<path d="M54080 33730
L54060 33760
L53990 33780
L53940 33780
L53870 33760
L53820 33710
L53800 33660
L53770 33570
L53770 33500
L53800 33400
L53820 33350
L53870 33310
L53940 33280
L53990 33280
L54060 33310
L54080 33330
" />
<path d="M54250 33280
L54560 33280
L54390 33470
L54460 33470
L54510 33500
L54530 33520
L54560 33570
L54560 33690
L54530 33730
L54510 33760
L54460 33780
L54320 33780
L54270 33760
L54250 33730
" />
<path d="M54060 34690
L53770 34690
" />
<path d="M53910 34690
L53910 34190
L53870 34260
L53820 34310
L53770 34330
" />
<path d="M54370 34190
L54410 34190
L54460 34220
L54480 34240
L54510 34290
L54530 34380
L54530 34500
L54510 34600
L54480 34640
L54460 34670
L54410 34690
L54370 34690
L54320 34670
L54290 34640
L54270 34600
L54250 34500
L54250 34380
L54270 34290
L54290 34240
L54320 34220
L54370 34190
" />
<path d="M54840 34190
L54890 34190
L54940 34220
L54960 34240
L54980 34290
L55010 34380
L55010 34500
L54980 34600
L54960 34640
L54940 34670
L54890 34690
L54840 34690
L54790 34670
L54770 34640
L54750 34600
L54720 34500
L54720 34380
L54750 34290
L54770 34240
L54790 34220
L54840 34190
" />
<path d="M55220 34360
L55220 34690
" />
<path d="M55220 34410
L55250 34380
L55290 34360
L55370 34360
L55410 34380
L55440 34430
L55440 34690
" />
</g>
</g>
<g style="fill:#008484; fill-opacity:0.0; 
stroke:#008484; stroke-width:0; stroke-opacity:1; 
stroke-linecap:round; stroke-linejoin:round;">
<g >
</g>
<g style="fill:#840000; fill-opacity:0.0; 
stroke:#840000; stroke-width:0; stroke-opacity:1; 
stroke-linecap:round; stroke-linejoin:round;">
</g>
<g style="fill:#FFFFC2; fill-opacity:0.0; 
stroke:#FFFFC2; stroke-width:0; stroke-opacity:1; 
stroke-linecap:round; stroke-linejoin:round;">
</g>
<g style="fill:#FFFFC2; fill-opacity:0.6; 
stroke:#FFFFC2; stroke-width:0; stroke-opacity:1; 
stroke-linecap:round; stroke-linejoin:round;">
<rect x="56000" y="31250" width="4000" height="2750" rx="0" />
</g>
<g style="fill:#840000; fill-opacity:0.6; 
stroke:#840000; stroke-width:0; stroke-opacity:1; 
stroke-linecap:round; stroke-linejoin:round;">
</g>
<g style="fill:#840000; fill-opacity:0.0; 
stroke:#840000; stroke-width:100; stroke-opacity:1; 
stroke-linecap:round; stroke-linejoin:round;">
<rect x="56000" y="31250" width="4000" height="2750" rx="0" />
</g>
<g style="fill:#840000; fill-opacity:0.0; 
stroke:#840000; stroke-width:60; stroke-opacity:1; 
stroke-linecap:round; stroke-linejoin:round;">
<path d="M56000 32000
L55000 32000
" />
</g>
<g style="fill:#008484; fill-opacity:0.0; 
stroke:#008484; stroke-width:60; stroke-opacity:1; 
stroke-linecap:round; stroke-linejoin:round;">
<path d="M56170 31720
L56340 32220
L56510 31720
" />
<path d="M56670 32220
L56670 31720
" />
<path d="M56910 32220
L56910 31720
L57200 32220
L57200 31720
" />
</g>
<g style="fill:#840000; fill-opacity:0.0; 
stroke:#840000; stroke-width:60; stroke-opacity:1; 
stroke-linecap:round; stroke-linejoin:round;">
<path d="M55640 31870
L55350 31870
" />
<path d="M55500 31870
L55500 31370
L55450 31440
L55400 31490
L55350 31510
" />
<path d="M58000 34000
L58000 35000
" />
</g>
<g style="fill:#008484; fill-opacity:0.0; 
stroke:#008484; stroke-width:60; stroke-opacity:1; 
stroke-linecap:round; stroke-linejoin:round;">
<path d="M57750 33480
L57720 33530
L57720 33600
L57750 33670
L57790 33720
L57840 33750
L57940 33770
L58010 33770
L58100 33750
L58150 33720
L58200 33670
L58220 33600
L58220 33560
L58200 33480
L58170 33460
L58010 33460
L58010 33560
" />
<path d="M58220 33250
L57720 33250
L58220 32960
L57720 32960
" />
<path d="M58220 32720
L57720 32720
L57720 32600
L57750 32530
L57790 32480
L57840 32460
L57940 32440
L58010 32440
L58100 32460
L58150 32480
L58200 32530
L58220 32600
L58220 32720
" />
</g>
<g style="fill:#840000; fill-opacity:0.0; 
stroke:#840000; stroke-width:60; stroke-opacity:1; 
stroke-linecap:round; stroke-linejoin:round;">
<path d="M57420 34640
L57400 34610
L57370 34570
L57370 34450
L57400 34400
L57420 34380
L57470 34350
L57510 34350
L57590 34380
L57870 34660
L57870 34350
" />
<path d="M60000 32000
L61000 32000
" />
</g>
<g style="fill:#008484; fill-opacity:0.0; 
stroke:#008484; stroke-width:60; stroke-opacity:1; 
stroke-linecap:round; stroke-linejoin:round;">
<path d="M58060 31720
L58220 32220
L58390 31720
" />
<path d="M58650 31720
L58750 31720
L58790 31750
L58840 31790
L58870 31890
L58870 32050
L58840 32150
L58790 32200
L58750 32220
L58650 32220
L58600 32200
L58560 32150
L58530 32050
L58530 31890
L58560 31790
L58600 31750
L58650 31720
" />
<path d="M59080 31720
L59080 32130
L59100 32170
L59130 32200
L59170 32220
L59270 32220
L59320 32200
L59340 32170
L59370 32130
L59370 31720
" />
<path d="M59530 31720
L59820 31720
" />
<path d="M59670 32220
L59670 31720
" />
</g>
<g style="fill:#840000; fill-opacity:0.0; 
stroke:#840000; stroke-width:60; stroke-opacity:1; 
stroke-linecap:round; stroke-linejoin:round;">
<path d="M60330 31370
L60640 31370
L60470 31560
L60540 31560
L60590 31590
L60610 31610
L60640 31660
L60640 31780
L60610 31820
L60590 31850
L60540 31870
L60400 31870
L60350 31850
L60330 31820
" />
</g>
<g style="fill:#008484; fill-opacity:0.0; 
stroke:#008484; stroke-width:60; stroke-opacity:1; 
stroke-linecap:round; stroke-linejoin:round;">
<path d="M57610 29320
L57610 29730
L57640 29770
L57660 29800
L57710 29820
L57800 29820
L57850 29800
L57880 29770
L57900 29730
L57900 29320
" />
<path d="M58090 29320
L58400 29320
L58230 29510
L58300 29510
L58350 29540
L58380 29560
L58400 29610
L58400 29730
L58380 29770
L58350 29800
L58300 29820
L58160 29820
L58110 29800
L58090 29770
" />
<path d="M55520 30590
L55760 30590
" />
<path d="M55470 30730
L55640 30230
L55800 30730
" />
<path d="M55970 30730
L55970 30230
L56160 30230
L56210 30260
L56230 30280
L56260 30330
L56260 30400
L56230 30450
L56210 30470
L56160 30490
L55970 30490
" />
<path d="M56450 30280
L56470 30260
L56520 30230
L56640 30230
L56690 30260
L56710 30280
L56730 30330
L56730 30370
L56710 30450
L56420 30730
L56730 30730
" />
<path d="M56920 30280
L56950 30260
L57000 30230
L57110 30230
L57160 30260
L57190 30280
L57210 30330
L57210 30370
L57190 30450
L56900 30730
L57210 30730
" />
<path d="M57520 30230
L57570 30230
L57610 30260
L57640 30280
L57660 30330
L57690 30420
L57690 30540
L57660 30640
L57640 30680
L57610 30710
L57570 30730
L57520 30730
L57470 30710
L57450 30680
L57420 30640
L57400 30540
L57400 30420
L57420 30330
L57450 30280
L57470 30260
L57520 30230
" />
<path d="M58110 30400
L58110 30730
" />
<path d="M58000 30210
L57880 30560
L58190 30560
" />
<path d="M58660 30730
L58500 30490
" />
<path d="M58380 30730
L58380 30230
L58570 30230
L58610 30260
L58640 30280
L58660 30330
L58660 30400
L58640 30450
L58610 30470
L58570 30490
L58380 30490
" />
<path d="M58880 30540
L59260 30540
" />
<path d="M59450 30230
L59760 30230
L59590 30420
L59660 30420
L59710 30450
L59730 30470
L59760 30520
L59760 30640
L59730 30680
L59710 30710
L59660 30730
L59520 30730
L59470 30710
L59450 30680
" />
<path d="M59970 30680
L60000 30710
L59970 30730
L59950 30710
L59970 30680
L59970 30730
" />
<path d="M60160 30230
L60470 30230
L60300 30420
L60380 30420
L60420 30450
L60450 30470
L60470 30520
L60470 30640
L60450 30680
L60420 30710
L60380 30730
L60230 30730
L60190 30710
L60160 30680
" />
</g>
</g>
<g style="fill:#008484; fill-opacity:0.0; 
stroke:#008484; stroke-width:0; stroke-opacity:1; 
stroke-linecap:round; stroke-linejoin:round;">
<g >
</g>
<g style="fill:#840000; fill-opacity:0.0; 
stroke:#840000; stroke-width:0; stroke-opacity:1; 
stroke-linecap:round; stroke-linejoin:round;">
</g>
<g style="fill:#840000; fill-opacity:0.0; 
stroke:#840000; stroke-width:200; stroke-opacity:1; 
stroke-linecap:round; stroke-linejoin:round;">
<path style="fill:#840000; fill-opacity:0.0; 
stroke:#840000; stroke-width:200; stroke-opacity:1; 
stroke-linecap:round; stroke-linejoin:round;fill:none"
d="M 61700,34300
63300,34300
Z" /> 
<path style="fill:#840000; fill-opacity:0.0; 
stroke:#840000; stroke-width:200; stroke-opacity:1; 
stroke-linecap:round; stroke-linejoin:round;fill:none"
d="M 61700,33700
63300,33700
Z" /> 
</g>
<g style="fill:#840000; fill-opacity:0.0; 
stroke:#840000; stroke-width:60; stroke-opacity:1; 
stroke-linecap:round; stroke-linejoin:round;">
<path d="M62500 33600
L62500 32500
" />
<path d="M62500 34400
L62500 35500
" />
</g>
<g style="fill:#008484; fill-opacity:0.0; 
stroke:#008484; stroke-width:60; stroke-opacity:1; 
stroke-linecap:round; stroke-linejoin:round;">
<path d="M64430 33190
L64410 33220
L64340 33240
L64290 33240
L64220 33220
L64170 33170
L64150 33120
L64120 33030
L64120 32960
L64150 32860
L64170 32810
L64220 32770
L64290 32740
L64340 32740
L64410 32770
L64430 32790
" />
<path d="M64860 32910
L64860 33240
" />
<path d="M64740 32720
L64620 33070
L64930 33070
" />
<path d="M64410 34240
L64120 34240
" />
<path d="M64260 34240
L64260 33740
L64220 33810
L64170 33860
L64120 33880
" />
<path d="M64720 33740
L64760 33740
L64810 33770
L64830 33790
L64860 33840
L64880 33930
L64880 34050
L64860 34150
L64830 34190
L64810 34220
L64760 34240
L64720 34240
L64670 34220
L64640 34190
L64620 34150
L64600 34050
L64600 33930
L64620 33840
L64640 33790
L64670 33770
L64720 33740
" />
<path d="M65190 33740
L65240 33740
L65290 33770
L65310 33790
L65330 33840
L65360 33930
L65360 34050
L65330 34150
L65310 34190
L65290 34220
L65240 34240
L65190 34240
L65140 34220
L65120 34190
L65100 34150
L65070 34050
L65070 33930
L65100 33840
L65120 33790
L65140 33770
L65190 33740
" />
<path d="M65570 33910
L65570 34240
" />
<path d="M65570 33960
L65600 33930
L65640 33910
L65720 33910
L65760 33930
L65790 33980
L65790 34240
" />
</g>
</g>
<g style="fill:#008484; fill-opacity:0.0; 
stroke:#008484; stroke-width:0; stroke-opacity:1; 
stroke-linecap:round; stroke-linejoin:round;">
<g >
</g>
<g style="fill:#840000; fill-opacity:0.0; 
stroke:#840000; stroke-width:0; stroke-opacity:1; 
stroke-linecap:round; stroke-linejoin:round;">
</g>
<g style="fill:#FFFFC2; fill-opacity:0.0; 
stroke:#FFFFC2; stroke-width:0; stroke-opacity:1; 
stroke-linecap:round; stroke-linejoin:round;">
</g>
<g style="fill:#FFFFC2; fill-opacity:0.6; 
stroke:#FFFFC2; stroke-width:0; stroke-opacity:1; 
stroke-linecap:round; stroke-linejoin:round;">
<rect x="35500" y="32500" width="1000" height="6000" rx="0" />
</g>
<g style="fill:#840000; fill-opacity:0.6; 
stroke:#840000; stroke-width:0; stroke-opacity:1; 
stroke-linecap:round; stroke-linejoin:round;">
</g>
<g style="fill:#840000; fill-opacity:0.0; 
stroke:#840000; stroke-width:100; stroke-opacity:1; 
stroke-linecap:round; stroke-linejoin:round;">
<rect x="35500" y="32500" width="1000" height="6000" rx="0" />
</g>
<g style="fill:#840000; fill-opacity:0.0; 
stroke:#840000; stroke-width:60; stroke-opacity:1; 
stroke-linecap:round; stroke-linejoin:round;">
<rect x="36000" y="36950" width="500" height="100" rx="0" />
<rect x="36000" y="37950" width="500" height="100" rx="0" />
<rect x="36000" y="35950" width="500" height="100" rx="0" />
<rect x="36000" y="33950" width="500" height="100" rx="0" />
<rect x="36000" y="32950" width="500" height="100" rx="0" />
<rect x="36000" y="34950" width="500" height="100" rx="0" />
<path d="M36500 33000
L38000 33000
" />
<path d="M37390 32870
L37100 32870
" />
<path d="M37250 32870
L37250 32370
L37200 32440
L37150 32490
L37100 32510
" />
<path d="M36500 34000
L38000 34000
" />
<path d="M37100 33420
L37130 33400
L37170 33370
L37290 33370
L37340 33400
L37360 33420
L37390 33470
L37390 33510
L37360 33590
L37080 33870
L37390 33870
" />
<path d="M36500 35000
L38000 35000
" />
<path d="M37080 34370
L37390 34370
L37220 34560
L37290 34560
L37340 34590
L37360 34610
L37390 34660
L37390 34780
L37360 34820
L37340 34850
L37290 34870
L37150 34870
L37100 34850
L37080 34820
" />
<path d="M36500 36000
L38000 36000
" />
<path d="M37340 35540
L37340 35870
" />
<path d="M37220 35350
L37100 35700
L37410 35700
" />
<path d="M36500 37000
L38000 37000
" />
<path d="M37360 36370
L37130 36370
L37100 36610
L37130 36590
L37170 36560
L37290 36560
L37340 36590
L37360 36610
L37390 36660
L37390 36780
L37360 36820
L37340 36850
L37290 36870
L37170 36870
L37130 36850
L37100 36820
" />
<path d="M36500 38000
L38000 38000
" />
<path d="M37340 37370
L37250 37370
L37200 37400
L37170 37420
L37130 37490
L37100 37590
L37100 37780
L37130 37820
L37150 37850
L37200 37870
L37290 37870
L37340 37850
L37360 37820
L37390 37780
L37390 37660
L37360 37610
L37340 37590
L37290 37560
L37200 37560
L37150 37590
L37130 37610
L37100 37660
" />
</g>
<g style="fill:#008484; fill-opacity:0.0; 
stroke:#008484; stroke-width:60; stroke-opacity:1; 
stroke-linecap:round; stroke-linejoin:round;">
<path d="M36650 30570
L36650 30930
L36620 31000
L36580 31050
L36510 31070
L36460 31070
" />
<path d="M37150 31070
L36860 31070
" />
<path d="M37010 31070
L37010 30570
L36960 30640
L36910 30690
L36860 30710
" />
<path d="M34940 31930
L34910 31960
L34840 31980
L34790 31980
L34720 31960
L34670 31910
L34650 31860
L34630 31770
L34630 31700
L34650 31600
L34670 31550
L34720 31510
L34790 31480
L34840 31480
L34910 31510
L34940 31530
" />
<path d="M35220 31980
L35170 31960
L35150 31930
L35130 31890
L35130 31740
L35150 31700
L35170 31670
L35220 31650
L35290 31650
L35340 31670
L35360 31700
L35390 31740
L35390 31890
L35360 31930
L35340 31960
L35290 31980
L35220 31980
" />
<path d="M35600 31650
L35600 31980
" />
<path d="M35600 31700
L35630 31670
L35670 31650
L35750 31650
L35790 31670
L35820 31720
L35820 31980
" />
<path d="M36060 31650
L36060 31980
" />
<path d="M36060 31700
L36080 31670
L36130 31650
L36200 31650
L36250 31670
L36270 31720
L36270 31980
" />
<path d="M36390 32030
L36770 32030
" />
<path d="M36980 31480
L37030 31480
L37080 31510
L37100 31530
L37130 31580
L37150 31670
L37150 31790
L37130 31890
L37100 31930
L37080 31960
L37030 31980
L36980 31980
L36940 31960
L36910 31930
L36890 31890
L36860 31790
L36860 31670
L36890 31580
L36910 31530
L36940 31510
L36980 31480
" />
<path d="M37630 31980
L37340 31980
" />
<path d="M37480 31980
L37480 31480
L37440 31550
L37390 31600
L37340 31620
" />
<path d="M37790 31980
L38060 31650
" />
<path d="M37790 31650
L38060 31980
" />
<path d="M38340 31480
L38390 31480
L38440 31510
L38460 31530
L38480 31580
L38510 31670
L38510 31790
L38480 31890
L38460 31930
L38440 31960
L38390 31980
L38340 31980
L38290 31960
L38270 31930
L38250 31890
L38220 31790
L38220 31670
L38250 31580
L38270 31530
L38290 31510
L38340 31480
" />
<path d="M38940 31480
L38840 31480
L38790 31510
L38770 31530
L38720 31600
L38700 31700
L38700 31890
L38720 31930
L38750 31960
L38790 31980
L38890 31980
L38940 31960
L38960 31930
L38980 31890
L38980 31770
L38960 31720
L38940 31700
L38890 31670
L38790 31670
L38750 31700
L38720 31720
L38700 31770
" />
</g>
</g>
<g style="fill:#008484; fill-opacity:0.0; 
stroke:#008484; stroke-width:60; stroke-opacity:1; 
stroke-linecap:round; stroke-linejoin:round;">
</g>
<g style="fill:#008400; fill-opacity:0.0; 
stroke:#008400; stroke-width:60; stroke-opacity:1; 
stroke-linecap:round; stroke-linejoin:round;">
<path d="M48500 37500
L66500 37500
" />
<path d="M38000 35000
L48500 35000
" />
<path d="M46500 39500
L68500 39500
" />
<path d="M38000 37000
L46500 37000
" />
<path d="M62500 32500
L62500 32000
" />
<path d="M52500 32000
L50000 32000
" />
<path d="M70000 38500
L68500 38500
" />
<path d="M68500 38500
L68500 39500
" />
<path d="M67500 36500
L67500 38500
" />
<path d="M47500 38500
L67500 38500
" />
<path d="M66500 35500
L66500 37500
" />
<path d="M47500 36000
L38000 36000
" />
<path d="M66500 35500
L70000 35500
" />
<path d="M65500 34500
L65500 36500
" />
<path d="M65500 36500
L49500 36500
" />
<path d="M49500 34000
L49500 36500
" />
<path d="M65500 34500
L70000 34500
" />
<path d="M48500 35000
L48500 37500
" />
<path d="M47500 36000
L47500 38500
" />
<path d="M46500 37000
L46500 39500
" />
<path d="M52500 32500
L52500 32000
" />
<path d="M70000 36500
L67500 36500
" />
<path d="M58000 35000
L58000 35500
" />
<path d="M58000 35500
L62500 35500
" />
<path d="M58000 41000
L70000 41000
" />
<path d="M61000 32000
L62500 32000
" />
<path d="M58000 35500
L58000 41000
" />
<path d="M38000 38000
L44000 38000
" />
<path d="M44000 38000
L44000 41000
" />
<path d="M44000 41000
L58000 41000
" />
<path d="M52500 35500
L58000 35500
" />
<path d="M41000 29000
L41000 33000
" />
<path d="M41000 33000
L38000 33000
" />
<path d="M41000 29000
L50000 29000
" />
<path d="M55000 32000
L52500 32000
" />
<path d="M50000 32000
L50000 29000
" />
<path d="M62500 32000
L70000 32000
" />
<path d="M50000 29000
L70000 29000
" />
<path d="M38000 34000
L49500 34000
" />
</g>
<g style="fill:#848400; fill-opacity:0.0; 
stroke:#848400; stroke-width:60; stroke-opacity:1; 
stroke-linecap:round; stroke-linejoin:round;">
<path d="M70700 31720
L71010 31720
L70840 31910
L70910 31910
L70960 31940
L70980 31960
L71010 32010
L71010 32130
L70980 32170
L70960 32200
L70910 32220
L70770 32220
L70720 32200
L70700 32170
" />
<path d="M71220 32170
L71240 32200
L71220 32220
L71200 32200
L71220 32170
L71220 32220
" />
<path d="M71410 31720
L71720 31720
L71550 31910
L71630 31910
L71670 31940
L71700 31960
L71720 32010
L71720 32130
L71700 32170
L71670 32200
L71630 32220
L71480 32220
L71430 32200
L71410 32170
" />
<path d="M71860 31720
L72030 32220
L72200 31720
" />
</g>
<g style="fill:#848400; fill-opacity:0.0; 
stroke:#848400; stroke-width:100; stroke-opacity:1; 
stroke-linecap:round; stroke-linejoin:round;">
<path style="fill:#848400; fill-opacity:0.0; 
stroke:#848400; stroke-width:100; stroke-opacity:1; 
stroke-linecap:round; stroke-linejoin:round;fill:none"
d="M 70000,32000
70250,32250
70500,32250
70500,31750
70250,31750
70000,32000
Z" /> 
</g>
<g style="fill:#848400; fill-opacity:0.0; 
stroke:#848400; stroke-width:60; stroke-opacity:1; 
stroke-linecap:round; stroke-linejoin:round;">
<path d="M70630 38080
L70860 38080
" />
<path d="M70740 38720
L70740 38390
" />
<path d="M70740 38220
L70720 38250
L70740 38270
L70770 38250
L70740 38220
L70740 38270
" />
<path d="M70860 38080
L71390 38080
" />
<path d="M70980 38720
L70980 38220
L71270 38720
L71270 38220
" />
<path d="M71390 38080
L71770 38080
" />
<path d="M71430 38220
L71720 38220
" />
<path d="M71580 38720
L71580 38220
" />
</g>
<g style="fill:#848400; fill-opacity:0.0; 
stroke:#848400; stroke-width:100; stroke-opacity:1; 
stroke-linecap:round; stroke-linejoin:round;">
<path style="fill:#848400; fill-opacity:0.0; 
stroke:#848400; stroke-width:100; stroke-opacity:1; 
stroke-linecap:round; stroke-linejoin:round;fill:none"
d="M 70000,38500
70250,38750
70500,38750
70500,38250
70250,38250
70000,38500
Z" /> 
</g>
<g style="fill:#848400; fill-opacity:0.0; 
stroke:#848400; stroke-width:60; stroke-opacity:1; 
stroke-linecap:round; stroke-linejoin:round;">
<path d="M70720 34700
L70790 34720
L70910 34720
L70960 34700
L70980 34670
L71010 34630
L71010 34580
L70980 34530
L70960 34510
L70910 34480
L70820 34460
L70770 34440
L70740 34410
L70720 34360
L70720 34320
L70740 34270
L70770 34250
L70820 34220
L70930 34220
L71010 34250
" />
<path d="M71220 34720
L71220 34220
L71340 34220
L71410 34250
L71460 34290
L71480 34340
L71510 34440
L71510 34510
L71480 34600
L71460 34650
L71410 34700
L71340 34720
L71220 34720
" />
<path d="M71700 34580
L71930 34580
" />
<path d="M71650 34720
L71820 34220
L71980 34720
" />
</g>
<g style="fill:#848400; fill-opacity:0.0; 
stroke:#848400; stroke-width:100; stroke-opacity:1; 
stroke-linecap:round; stroke-linejoin:round;">
<path style="fill:#848400; fill-opacity:0.0; 
stroke:#848400; stroke-width:100; stroke-opacity:1; 
stroke-linecap:round; stroke-linejoin:round;fill:none"
d="M 70000,34500
70250,34750
70500,34750
70500,34250
70250,34250
70000,34500
Z" /> 
</g>
<g style="fill:#848400; fill-opacity:0.0; 
stroke:#848400; stroke-width:60; stroke-opacity:1; 
stroke-linecap:round; stroke-linejoin:round;">
<path d="M70980 28720
L70740 28720
L70720 28960
L70740 28940
L70790 28910
L70910 28910
L70960 28940
L70980 28960
L71010 29010
L71010 29130
L70980 29170
L70960 29200
L70910 29220
L70790 29220
L70740 29200
L70720 29170
" />
<path d="M71150 28720
L71320 29220
L71480 28720
" />
</g>
<g style="fill:#848400; fill-opacity:0.0; 
stroke:#848400; stroke-width:100; stroke-opacity:1; 
stroke-linecap:round; stroke-linejoin:round;">
<path style="fill:#848400; fill-opacity:0.0; 
stroke:#848400; stroke-width:100; stroke-opacity:1; 
stroke-linecap:round; stroke-linejoin:round;fill:none"
d="M 70000,29000
70250,29250
70500,29250
70500,28750
70250,28750
70000,29000
Z" /> 
</g>
<g style="fill:#848400; fill-opacity:0.0; 
stroke:#848400; stroke-width:60; stroke-opacity:1; 
stroke-linecap:round; stroke-linejoin:round;">
<path d="M70720 35700
L70790 35720
L70910 35720
L70960 35700
L70980 35670
L71010 35630
L71010 35580
L70980 35530
L70960 35510
L70910 35480
L70820 35460
L70770 35440
L70740 35410
L70720 35360
L70720 35320
L70740 35270
L70770 35250
L70820 35220
L70930 35220
L71010 35250
" />
<path d="M71220 35720
L71220 35220
L71340 35220
L71410 35250
L71460 35290
L71480 35340
L71510 35440
L71510 35510
L71480 35600
L71460 35650
L71410 35700
L71340 35720
L71220 35720
" />
<path d="M71980 35250
L71930 35220
L71860 35220
L71790 35250
L71740 35290
L71720 35340
L71700 35440
L71700 35510
L71720 35600
L71740 35650
L71790 35700
L71860 35720
L71910 35720
L71980 35700
L72010 35670
L72010 35510
L71910 35510
" />
</g>
<g style="fill:#848400; fill-opacity:0.0; 
stroke:#848400; stroke-width:100; stroke-opacity:1; 
stroke-linecap:round; stroke-linejoin:round;">
<path style="fill:#848400; fill-opacity:0.0; 
stroke:#848400; stroke-width:100; stroke-opacity:1; 
stroke-linecap:round; stroke-linejoin:round;fill:none"
d="M 70000,35500
70250,35750
70500,35750
70500,35250
70250,35250
70000,35500
Z" /> 
</g>
<g style="fill:#848400; fill-opacity:0.0; 
stroke:#848400; stroke-width:60; stroke-opacity:1; 
stroke-linecap:round; stroke-linejoin:round;">
<path d="M70720 36700
L70790 36720
L70910 36720
L70960 36700
L70980 36670
L71010 36630
L71010 36580
L70980 36530
L70960 36510
L70910 36480
L70820 36460
L70770 36440
L70740 36410
L70720 36360
L70720 36320
L70740 36270
L70770 36250
L70820 36220
L70930 36220
L71010 36250
" />
<path d="M71510 36670
L71480 36700
L71410 36720
L71360 36720
L71290 36700
L71240 36650
L71220 36600
L71200 36510
L71200 36440
L71220 36340
L71240 36290
L71290 36250
L71360 36220
L71410 36220
L71480 36250
L71510 36270
" />
<path d="M71960 36720
L71720 36720
L71720 36220
" />
</g>
<g style="fill:#848400; fill-opacity:0.0; 
stroke:#848400; stroke-width:100; stroke-opacity:1; 
stroke-linecap:round; stroke-linejoin:round;">
<path style="fill:#848400; fill-opacity:0.0; 
stroke:#848400; stroke-width:100; stroke-opacity:1; 
stroke-linecap:round; stroke-linejoin:round;fill:none"
d="M 70000,36500
70250,36750
70500,36750
70500,36250
70250,36250
70000,36500
Z" /> 
</g>
<g style="fill:#848400; fill-opacity:0.0; 
stroke:#848400; stroke-width:60; stroke-opacity:1; 
stroke-linecap:round; stroke-linejoin:round;">
<path d="M71010 40750
L70960 40720
L70890 40720
L70820 40750
L70770 40790
L70740 40840
L70720 40940
L70720 41010
L70740 41100
L70770 41150
L70820 41200
L70890 41220
L70930 41220
L71010 41200
L71030 41170
L71030 41010
L70930 41010
" />
<path d="M71240 41220
L71240 40720
L71530 41220
L71530 40720
" />
<path d="M71770 41220
L71770 40720
L71890 40720
L71960 40750
L72010 40790
L72030 40840
L72050 40940
L72050 41010
L72030 41100
L72010 41150
L71960 41200
L71890 41220
L71770 41220
" />
</g>
<g style="fill:#848400; fill-opacity:0.0; 
stroke:#848400; stroke-width:100; stroke-opacity:1; 
stroke-linecap:round; stroke-linejoin:round;">
<path style="fill:#848400; fill-opacity:0.0; 
stroke:#848400; stroke-width:100; stroke-opacity:1; 
stroke-linecap:round; stroke-linejoin:round;fill:none"
d="M 70000,41000
70250,41250
70500,41250
70500,40750
70250,40750
70000,41000
Z" /> 
</g>
<g style="fill:#848400; fill-opacity:0.0; 
stroke:#848400; stroke-width:60; stroke-opacity:1; 
stroke-linecap:round; stroke-linejoin:round;">
</g>
<g style="fill:#0000C2; fill-opacity:0.0; 
stroke:#0000C2; stroke-width:60; stroke-opacity:1; 
stroke-linecap:round; stroke-linejoin:round;">
<path d="M60120 44350
L60190 44370
L60310 44370
L60360 44350
L60380 44320
L60410 44280
L60410 44230
L60380 44180
L60360 44160
L60310 44130
L60220 44110
L60170 44090
L60140 44060
L60120 44010
L60120 43970
L60140 43920
L60170 43900
L60220 43870
L60330 43870
L60410 43900
" />
<path d="M60620 44370
L60620 43870
L60740 43870
L60810 43900
L60860 43940
L60880 43990
L60910 44090
L60910 44160
L60880 44250
L60860 44300
L60810 44350
L60740 44370
L60620 44370
" />
<path d="M61380 43900
L61330 43870
L61260 43870
L61190 43900
L61140 43940
L61120 43990
L61100 44090
L61100 44160
L61120 44250
L61140 44300
L61190 44350
L61260 44370
L61310 44370
L61380 44350
L61410 44320
L61410 44160
L61310 44160
" />
<path d="M62220 44370
L62220 43870
" />
<path d="M62220 44350
L62170 44370
L62070 44370
L62030 44350
L62000 44320
L61980 44280
L61980 44130
L62000 44090
L62030 44060
L62070 44040
L62170 44040
L62220 44060
" />
<path d="M62640 44350
L62600 44370
L62500 44370
L62450 44350
L62430 44300
L62430 44110
L62450 44060
L62500 44040
L62600 44040
L62640 44060
L62670 44110
L62670 44160
L62430 44200
" />
<path d="M62880 44040
L62880 44370
" />
<path d="M62880 44090
L62910 44060
L62950 44040
L63030 44040
L63070 44060
L63100 44110
L63100 44370
" />
<path d="M63410 44370
L63360 44350
L63330 44320
L63310 44280
L63310 44130
L63330 44090
L63360 44060
L63410 44040
L63480 44040
L63530 44060
L63550 44090
L63570 44130
L63570 44280
L63550 44320
L63530 44350
L63480 44370
L63410 44370
" />
<path d="M63720 44040
L63910 44040
" />
<path d="M63790 43870
L63790 44300
L63810 44350
L63860 44370
L63910 44370
" />
<path d="M64260 44350
L64220 44370
L64120 44370
L64070 44350
L64050 44300
L64050 44110
L64070 44060
L64120 44040
L64220 44040
L64260 44060
L64290 44110
L64290 44160
L64050 44200
" />
<path d="M64480 44350
L64530 44370
L64620 44370
L64670 44350
L64690 44300
L64690 44280
L64670 44230
L64620 44200
L64550 44200
L64500 44180
L64480 44130
L64480 44110
L64500 44060
L64550 44040
L64620 44040
L64670 44060
" />
<path d="M65260 44350
L65310 44370
L65410 44370
L65450 44350
L65480 44300
L65480 44280
L65450 44230
L65410 44200
L65330 44200
L65290 44180
L65260 44130
L65260 44110
L65290 44060
L65330 44040
L65410 44040
L65450 44060
" />
<path d="M65690 44370
L65690 43870
" />
<path d="M65910 44370
L65910 44110
L65880 44060
L65830 44040
L65760 44040
L65720 44060
L65690 44090
" />
<path d="M66140 44370
L66140 44040
" />
<path d="M66140 43870
L66120 43900
L66140 43920
L66170 43900
L66140 43870
L66140 43920
" />
<path d="M66570 44350
L66530 44370
L66430 44370
L66380 44350
L66360 44300
L66360 44110
L66380 44060
L66430 44040
L66530 44040
L66570 44060
L66600 44110
L66600 44160
L66360 44200
" />
<path d="M66880 44370
L66830 44350
L66810 44300
L66810 43870
" />
<path d="M67290 44370
L67290 43870
" />
<path d="M67290 44350
L67240 44370
L67140 44370
L67100 44350
L67070 44320
L67050 44280
L67050 44130
L67070 44090
L67100 44060
L67140 44040
L67240 44040
L67290 44060
" />
<path d="M67830 44040
L68030 44040
" />
<path d="M67910 44370
L67910 43940
L67930 43900
L67980 43870
L68030 43870
" />
<path d="M68260 44370
L68220 44350
L68190 44320
L68170 44280
L68170 44130
L68190 44090
L68220 44060
L68260 44040
L68330 44040
L68380 44060
L68410 44090
L68430 44130
L68430 44280
L68410 44320
L68380 44350
L68330 44370
L68260 44370
" />
<path d="M68640 44370
L68640 44040
" />
<path d="M68640 44130
L68670 44090
L68690 44060
L68740 44040
L68790 44040
" />
<path d="M69330 44370
L69330 44040
" />
<path d="M69330 43870
L69310 43900
L69330 43920
L69360 43900
L69330 43870
L69330 43920
" />
<path d="M69550 43920
L69570 43900
L69620 43870
L69740 43870
L69790 43900
L69810 43920
L69830 43970
L69830 44010
L69810 44090
L69530 44370
L69830 44370
" />
<path d="M70260 44350
L70220 44370
L70120 44370
L70070 44350
L70050 44320
L70030 44280
L70030 44130
L70050 44090
L70070 44060
L70120 44040
L70220 44040
L70260 44060
" />
<path d="M70860 44370
L70860 43870
" />
<path d="M70860 44060
L70910 44040
L71000 44040
L71050 44060
L71070 44090
L71100 44130
L71100 44280
L71070 44320
L71050 44350
L71000 44370
L70910 44370
L70860 44350
" />
<path d="M71530 44040
L71530 44370
" />
<path d="M71310 44040
L71310 44300
L71330 44350
L71380 44370
L71450 44370
L71500 44350
L71530 44320
" />
<path d="M71740 44350
L71790 44370
L71880 44370
L71930 44350
L71950 44300
L71950 44280
L71930 44230
L71880 44200
L71810 44200
L71760 44180
L71740 44130
L71740 44110
L71760 44060
L71810 44040
L71880 44040
L71930 44060
" />
</g>
<g style="fill:#0000C2; fill-opacity:0.0; 
stroke:#0000C2; stroke-width:0; stroke-opacity:1; 
stroke-linecap:round; stroke-linejoin:round;">
</g>
<g style="fill:#008400; fill-opacity:0.0; 
stroke:#008400; stroke-width:0; stroke-opacity:1; 
stroke-linecap:round; stroke-linejoin:round;">
</g>
<g style="fill:#008400; fill-opacity:1.0; 
stroke:#008400; stroke-width:100; stroke-opacity:1; 
stroke-linecap:round; stroke-linejoin:round;">
<circle cx="52500" cy="32000" r="200" /> 
</g>
<g style="fill:#008400; fill-opacity:1.0; 
stroke:#008400; stroke-width:0; stroke-opacity:1; 
stroke-linecap:round; stroke-linejoin:round;">
</g>
<g style="fill:#008400; fill-opacity:1.0; 
stroke:#008400; stroke-width:100; stroke-opacity:1; 
stroke-linecap:round; stroke-linejoin:round;">
<circle cx="62500" cy="32000" r="200" /> 
</g>
<g style="fill:#008400; fill-opacity:1.0; 
stroke:#008400; stroke-width:0; stroke-opacity:1; 
stroke-linecap:round; stroke-linejoin:round;">
</g>
<g style="fill:#008400; fill-opacity:1.0; 
stroke:#008400; stroke-width:100; stroke-opacity:1; 
stroke-linecap:round; stroke-linejoin:round;">
<circle cx="50000" cy="29000" r="200" /> 
</g>
<g style="fill:#008400; fill-opacity:1.0; 
stroke:#008400; stroke-width:0; stroke-opacity:1; 
stroke-linecap:round; stroke-linejoin:round;">
</g>
<g style="fill:#008400; fill-opacity:1.0; 
stroke:#008400; stroke-width:100; stroke-opacity:1; 
stroke-linecap:round; stroke-linejoin:round;">
<circle cx="58000" cy="35500" r="200" /> 
</g>
<g style="fill:#008400; fill-opacity:1.0; 
stroke:#008400; stroke-width:0; stroke-opacity:1; 
stroke-linecap:round; stroke-linejoin:round;">
</g>
<g style="fill:#008400; fill-opacity:1.0; 
stroke:#008400; stroke-width:100; stroke-opacity:1; 
stroke-linecap:round; stroke-linejoin:round;">
<circle cx="58000" cy="41000" r="200" /> 
</g> 
</svg>
