%TF.GenerationSoftware,KiCad,Pcbnew,5.1.3-ffb9f22~84~ubuntu16.04.1*%
%TF.CreationDate,2019-07-26T23:51:29+02:00*%
%TF.ProjectId,Raspberry-I2C-LCD-and-Keypad,52617370-6265-4727-9279-2d4932432d4c,rev?*%
%TF.SameCoordinates,Original*%
%TF.FileFunction,Legend,Top*%
%TF.FilePolarity,Positive*%
%FSLAX46Y46*%
G04 Gerber Fmt 4.6, Leading zero omitted, Abs format (unit mm)*
G04 Created by KiCad (PCBNEW 5.1.3-ffb9f22~84~ubuntu16.04.1) date 2019-07-26 23:51:29*
%MOMM*%
%LPD*%
G04 APERTURE LIST*
%ADD10C,0.050000*%
%ADD11C,0.120000*%
%ADD12C,0.150000*%
G04 APERTURE END LIST*
D10*
X191439800Y-69850000D02*
X91440000Y-69850000D01*
X191439800Y-132080000D02*
X191439800Y-69850000D01*
X91440000Y-132080000D02*
X191439800Y-132080000D01*
X91440000Y-69850000D02*
X91440000Y-132080000D01*
D11*
X149760000Y-83760000D02*
X152500000Y-83760000D01*
X149760000Y-89000000D02*
X152500000Y-89000000D01*
X152500000Y-89000000D02*
X152500000Y-83760000D01*
X149760000Y-89000000D02*
X149760000Y-83760000D01*
X176737712Y-80990000D02*
X176737712Y-81440000D01*
X176512712Y-81215000D02*
X176962712Y-81215000D01*
X176930260Y-83610000D02*
G75*
G03X176930259Y-81490000I2119740J1060000D01*
G01*
X115510000Y-86460000D02*
X115510000Y-83720000D01*
X120750000Y-86460000D02*
X120750000Y-83720000D01*
X120750000Y-83720000D02*
X115510000Y-83720000D01*
X120750000Y-86460000D02*
X115510000Y-86460000D01*
X114360000Y-83720000D02*
X114360000Y-86460000D01*
X109120000Y-83720000D02*
X109120000Y-86460000D01*
X109120000Y-86460000D02*
X114360000Y-86460000D01*
X109120000Y-83720000D02*
X114360000Y-83720000D01*
X137160000Y-90360000D02*
X137160000Y-90360000D01*
X137160000Y-87690000D02*
X137160000Y-90360000D01*
X137160000Y-87690000D02*
X137160000Y-87690000D01*
X137160000Y-90360000D02*
X137160000Y-87690000D01*
X139700000Y-90360000D02*
X139700000Y-90360000D01*
X139700000Y-87690000D02*
X139700000Y-90360000D01*
X139700000Y-87690000D02*
X139700000Y-87690000D01*
X139700000Y-90360000D02*
X139700000Y-87690000D01*
X136870000Y-87690000D02*
X136470000Y-87690000D01*
X136870000Y-86570000D02*
X136870000Y-87690000D01*
X136470000Y-86570000D02*
X136870000Y-86570000D01*
X136470000Y-87690000D02*
X136470000Y-86570000D01*
X139990000Y-87690000D02*
X136870000Y-87690000D01*
X136870000Y-87690000D02*
X136870000Y-83830000D01*
X139990000Y-87690000D02*
X139990000Y-83830000D01*
X136870000Y-83830000D02*
G75*
G02X139990000Y-83830000I1560000J0D01*
G01*
X94740000Y-101090000D02*
X93980000Y-101090000D01*
X94740000Y-100330000D02*
X94740000Y-101090000D01*
X88420000Y-93720000D02*
X92420000Y-93720000D01*
X88420000Y-94240000D02*
X88420000Y-93720000D01*
X92420000Y-94240000D02*
X88420000Y-94240000D01*
X93540000Y-94630323D02*
X93540000Y-94599677D01*
X93540000Y-94615000D02*
X92420000Y-94615000D01*
X88420000Y-94990000D02*
X92420000Y-94990000D01*
X88420000Y-95510000D02*
X88420000Y-94990000D01*
X92420000Y-95510000D02*
X88420000Y-95510000D01*
X93540000Y-95900323D02*
X93540000Y-95869677D01*
X93540000Y-95885000D02*
X92420000Y-95885000D01*
X88420000Y-96260000D02*
X92420000Y-96260000D01*
X88420000Y-96780000D02*
X88420000Y-96260000D01*
X92420000Y-96780000D02*
X88420000Y-96780000D01*
X93540000Y-97170323D02*
X93540000Y-97139677D01*
X93540000Y-97155000D02*
X92420000Y-97155000D01*
X88420000Y-97530000D02*
X92420000Y-97530000D01*
X88420000Y-98050000D02*
X88420000Y-97530000D01*
X92420000Y-98050000D02*
X88420000Y-98050000D01*
X93540000Y-98440323D02*
X93540000Y-98409677D01*
X93540000Y-98425000D02*
X92420000Y-98425000D01*
X88420000Y-98800000D02*
X92420000Y-98800000D01*
X88420000Y-99320000D02*
X88420000Y-98800000D01*
X92420000Y-99320000D02*
X88420000Y-99320000D01*
X93220000Y-99695000D02*
X92420000Y-99695000D01*
X92420000Y-100170000D02*
X88420000Y-100170000D01*
X92420000Y-100290000D02*
X88420000Y-100290000D01*
X92420000Y-100410000D02*
X88420000Y-100410000D01*
X92420000Y-100530000D02*
X88420000Y-100530000D01*
X88420000Y-100070000D02*
X92420000Y-100070000D01*
X88420000Y-100590000D02*
X88420000Y-100070000D01*
X92420000Y-100590000D02*
X88420000Y-100590000D01*
X93540000Y-93285000D02*
X93540000Y-93360323D01*
X92420000Y-93285000D02*
X93540000Y-93285000D01*
X92420000Y-101025000D02*
X92420000Y-93285000D01*
X93220000Y-101025000D02*
X92420000Y-101025000D01*
X132840000Y-128780000D02*
X132840000Y-129540000D01*
X132080000Y-128780000D02*
X132840000Y-128780000D01*
X122930000Y-135100000D02*
X122930000Y-131100000D01*
X123450000Y-135100000D02*
X122930000Y-135100000D01*
X123450000Y-131100000D02*
X123450000Y-135100000D01*
X123840323Y-129980000D02*
X123809677Y-129980000D01*
X123825000Y-129980000D02*
X123825000Y-131100000D01*
X124200000Y-135100000D02*
X124200000Y-131100000D01*
X124720000Y-135100000D02*
X124200000Y-135100000D01*
X124720000Y-131100000D02*
X124720000Y-135100000D01*
X125110323Y-129980000D02*
X125079677Y-129980000D01*
X125095000Y-129980000D02*
X125095000Y-131100000D01*
X125470000Y-135100000D02*
X125470000Y-131100000D01*
X125990000Y-135100000D02*
X125470000Y-135100000D01*
X125990000Y-131100000D02*
X125990000Y-135100000D01*
X126380323Y-129980000D02*
X126349677Y-129980000D01*
X126365000Y-129980000D02*
X126365000Y-131100000D01*
X126740000Y-135100000D02*
X126740000Y-131100000D01*
X127260000Y-135100000D02*
X126740000Y-135100000D01*
X127260000Y-131100000D02*
X127260000Y-135100000D01*
X127650323Y-129980000D02*
X127619677Y-129980000D01*
X127635000Y-129980000D02*
X127635000Y-131100000D01*
X128010000Y-135100000D02*
X128010000Y-131100000D01*
X128530000Y-135100000D02*
X128010000Y-135100000D01*
X128530000Y-131100000D02*
X128530000Y-135100000D01*
X128920323Y-129980000D02*
X128889677Y-129980000D01*
X128905000Y-129980000D02*
X128905000Y-131100000D01*
X129280000Y-135100000D02*
X129280000Y-131100000D01*
X129800000Y-135100000D02*
X129280000Y-135100000D01*
X129800000Y-131100000D02*
X129800000Y-135100000D01*
X130190323Y-129980000D02*
X130159677Y-129980000D01*
X130175000Y-129980000D02*
X130175000Y-131100000D01*
X130550000Y-135100000D02*
X130550000Y-131100000D01*
X131070000Y-135100000D02*
X130550000Y-135100000D01*
X131070000Y-131100000D02*
X131070000Y-135100000D01*
X131445000Y-130300000D02*
X131445000Y-131100000D01*
X131920000Y-131100000D02*
X131920000Y-135100000D01*
X132040000Y-131100000D02*
X132040000Y-135100000D01*
X132160000Y-131100000D02*
X132160000Y-135100000D01*
X132280000Y-131100000D02*
X132280000Y-135100000D01*
X131820000Y-135100000D02*
X131820000Y-131100000D01*
X132340000Y-135100000D02*
X131820000Y-135100000D01*
X132340000Y-131100000D02*
X132340000Y-135100000D01*
X122495000Y-129980000D02*
X122570323Y-129980000D01*
X122495000Y-131100000D02*
X122495000Y-129980000D01*
X132775000Y-131100000D02*
X122495000Y-131100000D01*
X132775000Y-130300000D02*
X132775000Y-131100000D01*
X170940000Y-128780000D02*
X170940000Y-129540000D01*
X170180000Y-128780000D02*
X170940000Y-128780000D01*
X161030000Y-135100000D02*
X161030000Y-131100000D01*
X161550000Y-135100000D02*
X161030000Y-135100000D01*
X161550000Y-131100000D02*
X161550000Y-135100000D01*
X161940323Y-129980000D02*
X161909677Y-129980000D01*
X161925000Y-129980000D02*
X161925000Y-131100000D01*
X162300000Y-135100000D02*
X162300000Y-131100000D01*
X162820000Y-135100000D02*
X162300000Y-135100000D01*
X162820000Y-131100000D02*
X162820000Y-135100000D01*
X163210323Y-129980000D02*
X163179677Y-129980000D01*
X163195000Y-129980000D02*
X163195000Y-131100000D01*
X163570000Y-135100000D02*
X163570000Y-131100000D01*
X164090000Y-135100000D02*
X163570000Y-135100000D01*
X164090000Y-131100000D02*
X164090000Y-135100000D01*
X164480323Y-129980000D02*
X164449677Y-129980000D01*
X164465000Y-129980000D02*
X164465000Y-131100000D01*
X164840000Y-135100000D02*
X164840000Y-131100000D01*
X165360000Y-135100000D02*
X164840000Y-135100000D01*
X165360000Y-131100000D02*
X165360000Y-135100000D01*
X165750323Y-129980000D02*
X165719677Y-129980000D01*
X165735000Y-129980000D02*
X165735000Y-131100000D01*
X166110000Y-135100000D02*
X166110000Y-131100000D01*
X166630000Y-135100000D02*
X166110000Y-135100000D01*
X166630000Y-131100000D02*
X166630000Y-135100000D01*
X167020323Y-129980000D02*
X166989677Y-129980000D01*
X167005000Y-129980000D02*
X167005000Y-131100000D01*
X167380000Y-135100000D02*
X167380000Y-131100000D01*
X167900000Y-135100000D02*
X167380000Y-135100000D01*
X167900000Y-131100000D02*
X167900000Y-135100000D01*
X168290323Y-129980000D02*
X168259677Y-129980000D01*
X168275000Y-129980000D02*
X168275000Y-131100000D01*
X168650000Y-135100000D02*
X168650000Y-131100000D01*
X169170000Y-135100000D02*
X168650000Y-135100000D01*
X169170000Y-131100000D02*
X169170000Y-135100000D01*
X169545000Y-130300000D02*
X169545000Y-131100000D01*
X170020000Y-131100000D02*
X170020000Y-135100000D01*
X170140000Y-131100000D02*
X170140000Y-135100000D01*
X170260000Y-131100000D02*
X170260000Y-135100000D01*
X170380000Y-131100000D02*
X170380000Y-135100000D01*
X169920000Y-135100000D02*
X169920000Y-131100000D01*
X170440000Y-135100000D02*
X169920000Y-135100000D01*
X170440000Y-131100000D02*
X170440000Y-135100000D01*
X160595000Y-129980000D02*
X160670323Y-129980000D01*
X160595000Y-131100000D02*
X160595000Y-129980000D01*
X170875000Y-131100000D02*
X160595000Y-131100000D01*
X170875000Y-130300000D02*
X170875000Y-131100000D01*
X117600000Y-128780000D02*
X117600000Y-129540000D01*
X116840000Y-128780000D02*
X117600000Y-128780000D01*
X107690000Y-135100000D02*
X107690000Y-131100000D01*
X108210000Y-135100000D02*
X107690000Y-135100000D01*
X108210000Y-131100000D02*
X108210000Y-135100000D01*
X108600323Y-129980000D02*
X108569677Y-129980000D01*
X108585000Y-129980000D02*
X108585000Y-131100000D01*
X108960000Y-135100000D02*
X108960000Y-131100000D01*
X109480000Y-135100000D02*
X108960000Y-135100000D01*
X109480000Y-131100000D02*
X109480000Y-135100000D01*
X109870323Y-129980000D02*
X109839677Y-129980000D01*
X109855000Y-129980000D02*
X109855000Y-131100000D01*
X110230000Y-135100000D02*
X110230000Y-131100000D01*
X110750000Y-135100000D02*
X110230000Y-135100000D01*
X110750000Y-131100000D02*
X110750000Y-135100000D01*
X111140323Y-129980000D02*
X111109677Y-129980000D01*
X111125000Y-129980000D02*
X111125000Y-131100000D01*
X111500000Y-135100000D02*
X111500000Y-131100000D01*
X112020000Y-135100000D02*
X111500000Y-135100000D01*
X112020000Y-131100000D02*
X112020000Y-135100000D01*
X112410323Y-129980000D02*
X112379677Y-129980000D01*
X112395000Y-129980000D02*
X112395000Y-131100000D01*
X112770000Y-135100000D02*
X112770000Y-131100000D01*
X113290000Y-135100000D02*
X112770000Y-135100000D01*
X113290000Y-131100000D02*
X113290000Y-135100000D01*
X113680323Y-129980000D02*
X113649677Y-129980000D01*
X113665000Y-129980000D02*
X113665000Y-131100000D01*
X114040000Y-135100000D02*
X114040000Y-131100000D01*
X114560000Y-135100000D02*
X114040000Y-135100000D01*
X114560000Y-131100000D02*
X114560000Y-135100000D01*
X114950323Y-129980000D02*
X114919677Y-129980000D01*
X114935000Y-129980000D02*
X114935000Y-131100000D01*
X115310000Y-135100000D02*
X115310000Y-131100000D01*
X115830000Y-135100000D02*
X115310000Y-135100000D01*
X115830000Y-131100000D02*
X115830000Y-135100000D01*
X116205000Y-130300000D02*
X116205000Y-131100000D01*
X116680000Y-131100000D02*
X116680000Y-135100000D01*
X116800000Y-131100000D02*
X116800000Y-135100000D01*
X116920000Y-131100000D02*
X116920000Y-135100000D01*
X117040000Y-131100000D02*
X117040000Y-135100000D01*
X116580000Y-135100000D02*
X116580000Y-131100000D01*
X117100000Y-135100000D02*
X116580000Y-135100000D01*
X117100000Y-131100000D02*
X117100000Y-135100000D01*
X107255000Y-129980000D02*
X107330323Y-129980000D01*
X107255000Y-131100000D02*
X107255000Y-129980000D01*
X117535000Y-131100000D02*
X107255000Y-131100000D01*
X117535000Y-130300000D02*
X117535000Y-131100000D01*
X146540000Y-98760000D02*
G75*
G02X147240000Y-98060000I700000J0D01*
G01*
X147240000Y-100060000D02*
G75*
G02X146540000Y-99360000I0J700000D01*
G01*
X150640000Y-99360000D02*
G75*
G02X149940000Y-100060000I-700000J0D01*
G01*
X149940000Y-98060000D02*
G75*
G02X150640000Y-98760000I0J-700000D01*
G01*
X147190000Y-98060000D02*
X149990000Y-98060000D01*
X150640000Y-98760000D02*
X150640000Y-99360000D01*
X149990000Y-100060000D02*
X147190000Y-100060000D01*
X146540000Y-99360000D02*
X146540000Y-98760000D01*
X152890000Y-98760000D02*
G75*
G02X153590000Y-98060000I700000J0D01*
G01*
X153590000Y-100060000D02*
G75*
G02X152890000Y-99360000I0J700000D01*
G01*
X156990000Y-99360000D02*
G75*
G02X156290000Y-100060000I-700000J0D01*
G01*
X156290000Y-98060000D02*
G75*
G02X156990000Y-98760000I0J-700000D01*
G01*
X153540000Y-98060000D02*
X156340000Y-98060000D01*
X156990000Y-98760000D02*
X156990000Y-99360000D01*
X156340000Y-100060000D02*
X153540000Y-100060000D01*
X152890000Y-99360000D02*
X152890000Y-98760000D01*
X159240000Y-98760000D02*
G75*
G02X159940000Y-98060000I700000J0D01*
G01*
X159940000Y-100060000D02*
G75*
G02X159240000Y-99360000I0J700000D01*
G01*
X163340000Y-99360000D02*
G75*
G02X162640000Y-100060000I-700000J0D01*
G01*
X162640000Y-98060000D02*
G75*
G02X163340000Y-98760000I0J-700000D01*
G01*
X159890000Y-98060000D02*
X162690000Y-98060000D01*
X163340000Y-98760000D02*
X163340000Y-99360000D01*
X162690000Y-100060000D02*
X159890000Y-100060000D01*
X159240000Y-99360000D02*
X159240000Y-98760000D01*
X121810000Y-87770000D02*
X127000000Y-87770000D01*
X121810000Y-92570000D02*
X121810000Y-87770000D01*
X127000000Y-92570000D02*
X121810000Y-92570000D01*
X127000000Y-87770000D02*
X127000000Y-92570000D01*
X129790000Y-91440000D02*
X127000000Y-91440000D01*
X131060000Y-90170000D02*
X127000000Y-90170000D01*
X129790000Y-88900000D02*
X127000000Y-88900000D01*
X128810000Y-95150000D02*
X128810000Y-95480000D01*
X135350000Y-95150000D02*
X128810000Y-95150000D01*
X135350000Y-95480000D02*
X135350000Y-95150000D01*
X128810000Y-97890000D02*
X128810000Y-97560000D01*
X135350000Y-97890000D02*
X128810000Y-97890000D01*
X135350000Y-97560000D02*
X135350000Y-97890000D01*
X149955000Y-92480000D02*
X149955000Y-92810000D01*
X149955000Y-92810000D02*
X143415000Y-92810000D01*
X143415000Y-92810000D02*
X143415000Y-92480000D01*
X149955000Y-90400000D02*
X149955000Y-90070000D01*
X149955000Y-90070000D02*
X143415000Y-90070000D01*
X143415000Y-90070000D02*
X143415000Y-90400000D01*
X129440000Y-84550000D02*
X129770000Y-84550000D01*
X129440000Y-78010000D02*
X129440000Y-84550000D01*
X129770000Y-78010000D02*
X129440000Y-78010000D01*
X132180000Y-84550000D02*
X131850000Y-84550000D01*
X132180000Y-78010000D02*
X132180000Y-84550000D01*
X131850000Y-78010000D02*
X132180000Y-78010000D01*
X172720000Y-122050000D02*
X172720000Y-119250000D01*
X152230000Y-122050000D02*
X175430000Y-122050000D01*
X152230000Y-119250000D02*
X152230000Y-122050000D01*
X175430000Y-119250000D02*
X152230000Y-119250000D01*
X175430000Y-122050000D02*
X175430000Y-119250000D01*
X187820000Y-100330000D02*
X187061000Y-100330000D01*
X186301000Y-101630000D02*
X186301000Y-99030000D01*
X187820000Y-101630000D02*
X187820000Y-99030000D01*
X187820000Y-99030000D02*
X186301000Y-99030000D01*
X187820000Y-101630000D02*
X186301000Y-101630000D01*
X167060000Y-102850000D02*
X167060000Y-97810000D01*
X186300000Y-102850000D02*
X186300000Y-97810000D01*
X186300000Y-97810000D02*
X167060000Y-97810000D01*
X186300000Y-102850000D02*
X167060000Y-102850000D01*
X153610000Y-86250000D02*
X153610000Y-87900000D01*
X174050000Y-86250000D02*
X153610000Y-86250000D01*
X174050000Y-91550000D02*
X174050000Y-86250000D01*
X153610000Y-91550000D02*
X174050000Y-91550000D01*
X153610000Y-89900000D02*
X153610000Y-91550000D01*
X153610000Y-87900000D02*
G75*
G02X153610000Y-89900000I0J-1000000D01*
G01*
X149645000Y-118070000D02*
X149960000Y-118070000D01*
X147220000Y-118070000D02*
X147535000Y-118070000D01*
X149645000Y-123310000D02*
X149960000Y-123310000D01*
X147220000Y-123310000D02*
X147535000Y-123310000D01*
X149960000Y-123310000D02*
X149960000Y-118070000D01*
X147220000Y-123310000D02*
X147220000Y-118070000D01*
X117970000Y-93220000D02*
X116770000Y-93220000D01*
X117970000Y-89220000D02*
X117970000Y-93220000D01*
X113170000Y-93220000D02*
X113170000Y-90520000D01*
X114370000Y-93220000D02*
X113170000Y-93220000D01*
D12*
X148987142Y-86546666D02*
X149034761Y-86594285D01*
X149082380Y-86737142D01*
X149082380Y-86832380D01*
X149034761Y-86975238D01*
X148939523Y-87070476D01*
X148844285Y-87118095D01*
X148653809Y-87165714D01*
X148510952Y-87165714D01*
X148320476Y-87118095D01*
X148225238Y-87070476D01*
X148130000Y-86975238D01*
X148082380Y-86832380D01*
X148082380Y-86737142D01*
X148130000Y-86594285D01*
X148177619Y-86546666D01*
X149082380Y-85594285D02*
X149082380Y-86165714D01*
X149082380Y-85880000D02*
X148082380Y-85880000D01*
X148225238Y-85975238D01*
X148320476Y-86070476D01*
X148368095Y-86165714D01*
X178883333Y-79407142D02*
X178835714Y-79454761D01*
X178692857Y-79502380D01*
X178597619Y-79502380D01*
X178454761Y-79454761D01*
X178359523Y-79359523D01*
X178311904Y-79264285D01*
X178264285Y-79073809D01*
X178264285Y-78930952D01*
X178311904Y-78740476D01*
X178359523Y-78645238D01*
X178454761Y-78550000D01*
X178597619Y-78502380D01*
X178692857Y-78502380D01*
X178835714Y-78550000D01*
X178883333Y-78597619D01*
X179264285Y-78597619D02*
X179311904Y-78550000D01*
X179407142Y-78502380D01*
X179645238Y-78502380D01*
X179740476Y-78550000D01*
X179788095Y-78597619D01*
X179835714Y-78692857D01*
X179835714Y-78788095D01*
X179788095Y-78930952D01*
X179216666Y-79502380D01*
X179835714Y-79502380D01*
X117963333Y-87947142D02*
X117915714Y-87994761D01*
X117772857Y-88042380D01*
X117677619Y-88042380D01*
X117534761Y-87994761D01*
X117439523Y-87899523D01*
X117391904Y-87804285D01*
X117344285Y-87613809D01*
X117344285Y-87470952D01*
X117391904Y-87280476D01*
X117439523Y-87185238D01*
X117534761Y-87090000D01*
X117677619Y-87042380D01*
X117772857Y-87042380D01*
X117915714Y-87090000D01*
X117963333Y-87137619D01*
X118296666Y-87042380D02*
X118915714Y-87042380D01*
X118582380Y-87423333D01*
X118725238Y-87423333D01*
X118820476Y-87470952D01*
X118868095Y-87518571D01*
X118915714Y-87613809D01*
X118915714Y-87851904D01*
X118868095Y-87947142D01*
X118820476Y-87994761D01*
X118725238Y-88042380D01*
X118439523Y-88042380D01*
X118344285Y-87994761D01*
X118296666Y-87947142D01*
X111573333Y-82947142D02*
X111525714Y-82994761D01*
X111382857Y-83042380D01*
X111287619Y-83042380D01*
X111144761Y-82994761D01*
X111049523Y-82899523D01*
X111001904Y-82804285D01*
X110954285Y-82613809D01*
X110954285Y-82470952D01*
X111001904Y-82280476D01*
X111049523Y-82185238D01*
X111144761Y-82090000D01*
X111287619Y-82042380D01*
X111382857Y-82042380D01*
X111525714Y-82090000D01*
X111573333Y-82137619D01*
X112430476Y-82375714D02*
X112430476Y-83042380D01*
X112192380Y-81994761D02*
X111954285Y-82709047D01*
X112573333Y-82709047D01*
X137691904Y-93852380D02*
X137691904Y-92852380D01*
X137930000Y-92852380D01*
X138072857Y-92900000D01*
X138168095Y-92995238D01*
X138215714Y-93090476D01*
X138263333Y-93280952D01*
X138263333Y-93423809D01*
X138215714Y-93614285D01*
X138168095Y-93709523D01*
X138072857Y-93804761D01*
X137930000Y-93852380D01*
X137691904Y-93852380D01*
X139215714Y-93852380D02*
X138644285Y-93852380D01*
X138930000Y-93852380D02*
X138930000Y-92852380D01*
X138834761Y-92995238D01*
X138739523Y-93090476D01*
X138644285Y-93138095D01*
X91214166Y-101417380D02*
X91214166Y-102131666D01*
X91166547Y-102274523D01*
X91071309Y-102369761D01*
X90928452Y-102417380D01*
X90833214Y-102417380D01*
X92214166Y-102417380D02*
X91642738Y-102417380D01*
X91928452Y-102417380D02*
X91928452Y-101417380D01*
X91833214Y-101560238D01*
X91737976Y-101655476D01*
X91642738Y-101703095D01*
X133167380Y-132305833D02*
X133881666Y-132305833D01*
X134024523Y-132353452D01*
X134119761Y-132448690D01*
X134167380Y-132591547D01*
X134167380Y-132686785D01*
X133262619Y-131877261D02*
X133215000Y-131829642D01*
X133167380Y-131734404D01*
X133167380Y-131496309D01*
X133215000Y-131401071D01*
X133262619Y-131353452D01*
X133357857Y-131305833D01*
X133453095Y-131305833D01*
X133595952Y-131353452D01*
X134167380Y-131924880D01*
X134167380Y-131305833D01*
X171267380Y-132305833D02*
X171981666Y-132305833D01*
X172124523Y-132353452D01*
X172219761Y-132448690D01*
X172267380Y-132591547D01*
X172267380Y-132686785D01*
X171267380Y-131924880D02*
X171267380Y-131305833D01*
X171648333Y-131639166D01*
X171648333Y-131496309D01*
X171695952Y-131401071D01*
X171743571Y-131353452D01*
X171838809Y-131305833D01*
X172076904Y-131305833D01*
X172172142Y-131353452D01*
X172219761Y-131401071D01*
X172267380Y-131496309D01*
X172267380Y-131782023D01*
X172219761Y-131877261D01*
X172172142Y-131924880D01*
X117927380Y-132305833D02*
X118641666Y-132305833D01*
X118784523Y-132353452D01*
X118879761Y-132448690D01*
X118927380Y-132591547D01*
X118927380Y-132686785D01*
X118260714Y-131401071D02*
X118927380Y-131401071D01*
X117879761Y-131639166D02*
X118594047Y-131877261D01*
X118594047Y-131258214D01*
X147756666Y-96712380D02*
X147756666Y-97426666D01*
X147709047Y-97569523D01*
X147613809Y-97664761D01*
X147470952Y-97712380D01*
X147375714Y-97712380D01*
X148232857Y-97712380D02*
X148232857Y-96712380D01*
X148613809Y-96712380D01*
X148709047Y-96760000D01*
X148756666Y-96807619D01*
X148804285Y-96902857D01*
X148804285Y-97045714D01*
X148756666Y-97140952D01*
X148709047Y-97188571D01*
X148613809Y-97236190D01*
X148232857Y-97236190D01*
X149756666Y-97712380D02*
X149185238Y-97712380D01*
X149470952Y-97712380D02*
X149470952Y-96712380D01*
X149375714Y-96855238D01*
X149280476Y-96950476D01*
X149185238Y-96998095D01*
X146275714Y-99512380D02*
X145704285Y-99512380D01*
X145990000Y-99512380D02*
X145990000Y-98512380D01*
X145894761Y-98655238D01*
X145799523Y-98750476D01*
X145704285Y-98798095D01*
X150856666Y-98512380D02*
X151475714Y-98512380D01*
X151142380Y-98893333D01*
X151285238Y-98893333D01*
X151380476Y-98940952D01*
X151428095Y-98988571D01*
X151475714Y-99083809D01*
X151475714Y-99321904D01*
X151428095Y-99417142D01*
X151380476Y-99464761D01*
X151285238Y-99512380D01*
X150999523Y-99512380D01*
X150904285Y-99464761D01*
X150856666Y-99417142D01*
X154106666Y-96712380D02*
X154106666Y-97426666D01*
X154059047Y-97569523D01*
X153963809Y-97664761D01*
X153820952Y-97712380D01*
X153725714Y-97712380D01*
X154582857Y-97712380D02*
X154582857Y-96712380D01*
X154963809Y-96712380D01*
X155059047Y-96760000D01*
X155106666Y-96807619D01*
X155154285Y-96902857D01*
X155154285Y-97045714D01*
X155106666Y-97140952D01*
X155059047Y-97188571D01*
X154963809Y-97236190D01*
X154582857Y-97236190D01*
X155535238Y-96807619D02*
X155582857Y-96760000D01*
X155678095Y-96712380D01*
X155916190Y-96712380D01*
X156011428Y-96760000D01*
X156059047Y-96807619D01*
X156106666Y-96902857D01*
X156106666Y-96998095D01*
X156059047Y-97140952D01*
X155487619Y-97712380D01*
X156106666Y-97712380D01*
X152625714Y-99512380D02*
X152054285Y-99512380D01*
X152340000Y-99512380D02*
X152340000Y-98512380D01*
X152244761Y-98655238D01*
X152149523Y-98750476D01*
X152054285Y-98798095D01*
X157206666Y-98512380D02*
X157825714Y-98512380D01*
X157492380Y-98893333D01*
X157635238Y-98893333D01*
X157730476Y-98940952D01*
X157778095Y-98988571D01*
X157825714Y-99083809D01*
X157825714Y-99321904D01*
X157778095Y-99417142D01*
X157730476Y-99464761D01*
X157635238Y-99512380D01*
X157349523Y-99512380D01*
X157254285Y-99464761D01*
X157206666Y-99417142D01*
X160456666Y-96712380D02*
X160456666Y-97426666D01*
X160409047Y-97569523D01*
X160313809Y-97664761D01*
X160170952Y-97712380D01*
X160075714Y-97712380D01*
X160932857Y-97712380D02*
X160932857Y-96712380D01*
X161313809Y-96712380D01*
X161409047Y-96760000D01*
X161456666Y-96807619D01*
X161504285Y-96902857D01*
X161504285Y-97045714D01*
X161456666Y-97140952D01*
X161409047Y-97188571D01*
X161313809Y-97236190D01*
X160932857Y-97236190D01*
X161837619Y-96712380D02*
X162456666Y-96712380D01*
X162123333Y-97093333D01*
X162266190Y-97093333D01*
X162361428Y-97140952D01*
X162409047Y-97188571D01*
X162456666Y-97283809D01*
X162456666Y-97521904D01*
X162409047Y-97617142D01*
X162361428Y-97664761D01*
X162266190Y-97712380D01*
X161980476Y-97712380D01*
X161885238Y-97664761D01*
X161837619Y-97617142D01*
X158975714Y-99512380D02*
X158404285Y-99512380D01*
X158690000Y-99512380D02*
X158690000Y-98512380D01*
X158594761Y-98655238D01*
X158499523Y-98750476D01*
X158404285Y-98798095D01*
X163556666Y-98512380D02*
X164175714Y-98512380D01*
X163842380Y-98893333D01*
X163985238Y-98893333D01*
X164080476Y-98940952D01*
X164128095Y-98988571D01*
X164175714Y-99083809D01*
X164175714Y-99321904D01*
X164128095Y-99417142D01*
X164080476Y-99464761D01*
X163985238Y-99512380D01*
X163699523Y-99512380D01*
X163604285Y-99464761D01*
X163556666Y-99417142D01*
X134027619Y-90741428D02*
X133980000Y-90836666D01*
X133884761Y-90931904D01*
X133741904Y-91074761D01*
X133694285Y-91170000D01*
X133694285Y-91265238D01*
X133932380Y-91217619D02*
X133884761Y-91312857D01*
X133789523Y-91408095D01*
X133599047Y-91455714D01*
X133265714Y-91455714D01*
X133075238Y-91408095D01*
X132980000Y-91312857D01*
X132932380Y-91217619D01*
X132932380Y-91027142D01*
X132980000Y-90931904D01*
X133075238Y-90836666D01*
X133265714Y-90789047D01*
X133599047Y-90789047D01*
X133789523Y-90836666D01*
X133884761Y-90931904D01*
X133932380Y-91027142D01*
X133932380Y-91217619D01*
X133027619Y-90408095D02*
X132980000Y-90360476D01*
X132932380Y-90265238D01*
X132932380Y-90027142D01*
X132980000Y-89931904D01*
X133027619Y-89884285D01*
X133122857Y-89836666D01*
X133218095Y-89836666D01*
X133360952Y-89884285D01*
X133932380Y-90455714D01*
X133932380Y-89836666D01*
X132932380Y-89217619D02*
X132932380Y-89122380D01*
X132980000Y-89027142D01*
X133027619Y-88979523D01*
X133122857Y-88931904D01*
X133313333Y-88884285D01*
X133551428Y-88884285D01*
X133741904Y-88931904D01*
X133837142Y-88979523D01*
X133884761Y-89027142D01*
X133932380Y-89122380D01*
X133932380Y-89217619D01*
X133884761Y-89312857D01*
X133837142Y-89360476D01*
X133741904Y-89408095D01*
X133551428Y-89455714D01*
X133313333Y-89455714D01*
X133122857Y-89408095D01*
X133027619Y-89360476D01*
X132980000Y-89312857D01*
X132932380Y-89217619D01*
X131913333Y-99342380D02*
X131580000Y-98866190D01*
X131341904Y-99342380D02*
X131341904Y-98342380D01*
X131722857Y-98342380D01*
X131818095Y-98390000D01*
X131865714Y-98437619D01*
X131913333Y-98532857D01*
X131913333Y-98675714D01*
X131865714Y-98770952D01*
X131818095Y-98818571D01*
X131722857Y-98866190D01*
X131341904Y-98866190D01*
X132865714Y-99342380D02*
X132294285Y-99342380D01*
X132580000Y-99342380D02*
X132580000Y-98342380D01*
X132484761Y-98485238D01*
X132389523Y-98580476D01*
X132294285Y-98628095D01*
X146518333Y-94262380D02*
X146185000Y-93786190D01*
X145946904Y-94262380D02*
X145946904Y-93262380D01*
X146327857Y-93262380D01*
X146423095Y-93310000D01*
X146470714Y-93357619D01*
X146518333Y-93452857D01*
X146518333Y-93595714D01*
X146470714Y-93690952D01*
X146423095Y-93738571D01*
X146327857Y-93786190D01*
X145946904Y-93786190D01*
X146899285Y-93357619D02*
X146946904Y-93310000D01*
X147042142Y-93262380D01*
X147280238Y-93262380D01*
X147375476Y-93310000D01*
X147423095Y-93357619D01*
X147470714Y-93452857D01*
X147470714Y-93548095D01*
X147423095Y-93690952D01*
X146851666Y-94262380D01*
X147470714Y-94262380D01*
X133632380Y-81446666D02*
X133156190Y-81780000D01*
X133632380Y-82018095D02*
X132632380Y-82018095D01*
X132632380Y-81637142D01*
X132680000Y-81541904D01*
X132727619Y-81494285D01*
X132822857Y-81446666D01*
X132965714Y-81446666D01*
X133060952Y-81494285D01*
X133108571Y-81541904D01*
X133156190Y-81637142D01*
X133156190Y-82018095D01*
X132632380Y-81113333D02*
X132632380Y-80494285D01*
X133013333Y-80827619D01*
X133013333Y-80684761D01*
X133060952Y-80589523D01*
X133108571Y-80541904D01*
X133203809Y-80494285D01*
X133441904Y-80494285D01*
X133537142Y-80541904D01*
X133584761Y-80589523D01*
X133632380Y-80684761D01*
X133632380Y-80970476D01*
X133584761Y-81065714D01*
X133537142Y-81113333D01*
X161869523Y-123502380D02*
X161536190Y-123026190D01*
X161298095Y-123502380D02*
X161298095Y-122502380D01*
X161679047Y-122502380D01*
X161774285Y-122550000D01*
X161821904Y-122597619D01*
X161869523Y-122692857D01*
X161869523Y-122835714D01*
X161821904Y-122930952D01*
X161774285Y-122978571D01*
X161679047Y-123026190D01*
X161298095Y-123026190D01*
X162298095Y-123502380D02*
X162298095Y-122502380D01*
X162869523Y-123502380D01*
X162869523Y-122502380D01*
X163869523Y-123502380D02*
X163298095Y-123502380D01*
X163583809Y-123502380D02*
X163583809Y-122502380D01*
X163488571Y-122645238D01*
X163393333Y-122740476D01*
X163298095Y-122788095D01*
X176844761Y-104432380D02*
X176511428Y-103956190D01*
X176273333Y-104432380D02*
X176273333Y-103432380D01*
X176654285Y-103432380D01*
X176749523Y-103480000D01*
X176797142Y-103527619D01*
X176844761Y-103622857D01*
X176844761Y-103765714D01*
X176797142Y-103860952D01*
X176749523Y-103908571D01*
X176654285Y-103956190D01*
X176273333Y-103956190D01*
X177130476Y-103432380D02*
X177463809Y-104432380D01*
X177797142Y-103432380D01*
X178654285Y-104432380D02*
X178082857Y-104432380D01*
X178368571Y-104432380D02*
X178368571Y-103432380D01*
X178273333Y-103575238D01*
X178178095Y-103670476D01*
X178082857Y-103718095D01*
X153701904Y-94702380D02*
X153701904Y-95511904D01*
X153749523Y-95607142D01*
X153797142Y-95654761D01*
X153892380Y-95702380D01*
X154082857Y-95702380D01*
X154178095Y-95654761D01*
X154225714Y-95607142D01*
X154273333Y-95511904D01*
X154273333Y-94702380D01*
X154701904Y-94797619D02*
X154749523Y-94750000D01*
X154844761Y-94702380D01*
X155082857Y-94702380D01*
X155178095Y-94750000D01*
X155225714Y-94797619D01*
X155273333Y-94892857D01*
X155273333Y-94988095D01*
X155225714Y-95130952D01*
X154654285Y-95702380D01*
X155273333Y-95702380D01*
X155892380Y-94702380D02*
X155987619Y-94702380D01*
X156082857Y-94750000D01*
X156130476Y-94797619D01*
X156178095Y-94892857D01*
X156225714Y-95083333D01*
X156225714Y-95321428D01*
X156178095Y-95511904D01*
X156130476Y-95607142D01*
X156082857Y-95654761D01*
X155987619Y-95702380D01*
X155892380Y-95702380D01*
X155797142Y-95654761D01*
X155749523Y-95607142D01*
X155701904Y-95511904D01*
X155654285Y-95321428D01*
X155654285Y-95083333D01*
X155701904Y-94892857D01*
X155749523Y-94797619D01*
X155797142Y-94750000D01*
X155892380Y-94702380D01*
X146447142Y-120856666D02*
X146494761Y-120904285D01*
X146542380Y-121047142D01*
X146542380Y-121142380D01*
X146494761Y-121285238D01*
X146399523Y-121380476D01*
X146304285Y-121428095D01*
X146113809Y-121475714D01*
X145970952Y-121475714D01*
X145780476Y-121428095D01*
X145685238Y-121380476D01*
X145590000Y-121285238D01*
X145542380Y-121142380D01*
X145542380Y-121047142D01*
X145590000Y-120904285D01*
X145637619Y-120856666D01*
X145542380Y-119951904D02*
X145542380Y-120428095D01*
X146018571Y-120475714D01*
X145970952Y-120428095D01*
X145923333Y-120332857D01*
X145923333Y-120094761D01*
X145970952Y-119999523D01*
X146018571Y-119951904D01*
X146113809Y-119904285D01*
X146351904Y-119904285D01*
X146447142Y-119951904D01*
X146494761Y-119999523D01*
X146542380Y-120094761D01*
X146542380Y-120332857D01*
X146494761Y-120428095D01*
X146447142Y-120475714D01*
X118222380Y-92651904D02*
X119031904Y-92651904D01*
X119127142Y-92604285D01*
X119174761Y-92556666D01*
X119222380Y-92461428D01*
X119222380Y-92270952D01*
X119174761Y-92175714D01*
X119127142Y-92128095D01*
X119031904Y-92080476D01*
X118222380Y-92080476D01*
X118222380Y-91699523D02*
X118222380Y-91080476D01*
X118603333Y-91413809D01*
X118603333Y-91270952D01*
X118650952Y-91175714D01*
X118698571Y-91128095D01*
X118793809Y-91080476D01*
X119031904Y-91080476D01*
X119127142Y-91128095D01*
X119174761Y-91175714D01*
X119222380Y-91270952D01*
X119222380Y-91556666D01*
X119174761Y-91651904D01*
X119127142Y-91699523D01*
M02*
