G04 #@! TF.GenerationSoftware,KiCad,Pcbnew,5.1.3-ffb9f22~84~ubuntu16.04.1*
G04 #@! TF.CreationDate,2019-07-26T22:48:03+02:00*
G04 #@! TF.ProjectId,Raspberry-I2C-LCD-and-Keypad,52617370-6265-4727-9279-2d4932432d4c,rev?*
G04 #@! TF.SameCoordinates,Original*
G04 #@! TF.FileFunction,Copper,L1,Top*
G04 #@! TF.FilePolarity,Positive*
%FSLAX46Y46*%
G04 Gerber Fmt 4.6, Leading zero omitted, Abs format (unit mm)*
G04 Created by KiCad (PCBNEW 5.1.3-ffb9f22~84~ubuntu16.04.1) date 2019-07-26 22:48:03*
%MOMM*%
%LPD*%
G04 APERTURE LIST*
%ADD10C,3.500000*%
%ADD11O,1.700000X1.700000*%
%ADD12R,1.700000X1.700000*%
%ADD13C,1.600000*%
%ADD14R,1.600000X1.600000*%
%ADD15C,1.800000*%
%ADD16R,1.800000X1.800000*%
%ADD17O,1.000000X1.000000*%
%ADD18R,1.000000X1.000000*%
%ADD19R,1.000000X1.500000*%
%ADD20C,0.500000*%
%ADD21C,0.100000*%
%ADD22R,1.300000X1.300000*%
%ADD23C,1.300000*%
%ADD24O,1.600000X1.600000*%
%ADD25C,1.000000*%
%ADD26R,2.200000X1.840000*%
%ADD27R,1.000000X1.800000*%
%ADD28C,0.850000*%
%ADD29C,0.800000*%
%ADD30C,0.250000*%
%ADD31C,0.499872*%
%ADD32C,0.990600*%
%ADD33C,1.498600*%
G04 APERTURE END LIST*
D10*
X94840000Y-128660000D03*
X187840000Y-128660000D03*
X94840000Y-73660000D03*
X187840000Y-73660000D03*
D11*
X167640000Y-73660000D03*
X165100000Y-73660000D03*
D12*
X180340000Y-73660000D03*
D11*
X162560000Y-73660000D03*
X160020000Y-73660000D03*
X142240000Y-73660000D03*
X172720000Y-73660000D03*
X170180000Y-73660000D03*
X177800000Y-73660000D03*
X175260000Y-73660000D03*
X147320000Y-73660000D03*
X144780000Y-73660000D03*
X152400000Y-73660000D03*
X149860000Y-73660000D03*
X157480000Y-73660000D03*
X154940000Y-73660000D03*
D13*
X151130000Y-85130000D03*
X151130000Y-87630000D03*
X180300000Y-82550000D03*
D14*
X177800000Y-82550000D03*
D13*
X116880000Y-85090000D03*
X119380000Y-85090000D03*
X112990000Y-85090000D03*
X110490000Y-85090000D03*
D15*
X137160000Y-91440000D03*
D16*
X139700000Y-91440000D03*
D17*
X93980000Y-93980000D03*
X93980000Y-95250000D03*
X93980000Y-96520000D03*
X93980000Y-97790000D03*
X93980000Y-99060000D03*
D18*
X93980000Y-100330000D03*
D17*
X123190000Y-129540000D03*
X124460000Y-129540000D03*
X125730000Y-129540000D03*
X127000000Y-129540000D03*
X128270000Y-129540000D03*
X129540000Y-129540000D03*
X130810000Y-129540000D03*
D18*
X132080000Y-129540000D03*
D17*
X161290000Y-129540000D03*
X162560000Y-129540000D03*
X163830000Y-129540000D03*
X165100000Y-129540000D03*
X166370000Y-129540000D03*
X167640000Y-129540000D03*
X168910000Y-129540000D03*
D18*
X170180000Y-129540000D03*
D17*
X107950000Y-129540000D03*
X109220000Y-129540000D03*
X110490000Y-129540000D03*
X111760000Y-129540000D03*
X113030000Y-129540000D03*
X114300000Y-129540000D03*
X115570000Y-129540000D03*
D18*
X116840000Y-129540000D03*
D19*
X148590000Y-99060000D03*
D20*
X149890000Y-99060000D03*
D21*
G36*
X149890000Y-98310602D02*
G01*
X149914534Y-98310602D01*
X149963365Y-98315412D01*
X150011490Y-98324984D01*
X150058445Y-98339228D01*
X150103778Y-98358005D01*
X150147051Y-98381136D01*
X150187850Y-98408396D01*
X150225779Y-98439524D01*
X150260476Y-98474221D01*
X150291604Y-98512150D01*
X150318864Y-98552949D01*
X150341995Y-98596222D01*
X150360772Y-98641555D01*
X150375016Y-98688510D01*
X150384588Y-98736635D01*
X150389398Y-98785466D01*
X150389398Y-98810000D01*
X150390000Y-98810000D01*
X150390000Y-99310000D01*
X150389398Y-99310000D01*
X150389398Y-99334534D01*
X150384588Y-99383365D01*
X150375016Y-99431490D01*
X150360772Y-99478445D01*
X150341995Y-99523778D01*
X150318864Y-99567051D01*
X150291604Y-99607850D01*
X150260476Y-99645779D01*
X150225779Y-99680476D01*
X150187850Y-99711604D01*
X150147051Y-99738864D01*
X150103778Y-99761995D01*
X150058445Y-99780772D01*
X150011490Y-99795016D01*
X149963365Y-99804588D01*
X149914534Y-99809398D01*
X149890000Y-99809398D01*
X149890000Y-99810000D01*
X149340000Y-99810000D01*
X149340000Y-98310000D01*
X149890000Y-98310000D01*
X149890000Y-98310602D01*
X149890000Y-98310602D01*
G37*
D20*
X147290000Y-99060000D03*
D21*
G36*
X147840000Y-99810000D02*
G01*
X147290000Y-99810000D01*
X147290000Y-99809398D01*
X147265466Y-99809398D01*
X147216635Y-99804588D01*
X147168510Y-99795016D01*
X147121555Y-99780772D01*
X147076222Y-99761995D01*
X147032949Y-99738864D01*
X146992150Y-99711604D01*
X146954221Y-99680476D01*
X146919524Y-99645779D01*
X146888396Y-99607850D01*
X146861136Y-99567051D01*
X146838005Y-99523778D01*
X146819228Y-99478445D01*
X146804984Y-99431490D01*
X146795412Y-99383365D01*
X146790602Y-99334534D01*
X146790602Y-99310000D01*
X146790000Y-99310000D01*
X146790000Y-98810000D01*
X146790602Y-98810000D01*
X146790602Y-98785466D01*
X146795412Y-98736635D01*
X146804984Y-98688510D01*
X146819228Y-98641555D01*
X146838005Y-98596222D01*
X146861136Y-98552949D01*
X146888396Y-98512150D01*
X146919524Y-98474221D01*
X146954221Y-98439524D01*
X146992150Y-98408396D01*
X147032949Y-98381136D01*
X147076222Y-98358005D01*
X147121555Y-98339228D01*
X147168510Y-98324984D01*
X147216635Y-98315412D01*
X147265466Y-98310602D01*
X147290000Y-98310602D01*
X147290000Y-98310000D01*
X147840000Y-98310000D01*
X147840000Y-99810000D01*
X147840000Y-99810000D01*
G37*
D19*
X154940000Y-99060000D03*
D20*
X156240000Y-99060000D03*
D21*
G36*
X156240000Y-98310602D02*
G01*
X156264534Y-98310602D01*
X156313365Y-98315412D01*
X156361490Y-98324984D01*
X156408445Y-98339228D01*
X156453778Y-98358005D01*
X156497051Y-98381136D01*
X156537850Y-98408396D01*
X156575779Y-98439524D01*
X156610476Y-98474221D01*
X156641604Y-98512150D01*
X156668864Y-98552949D01*
X156691995Y-98596222D01*
X156710772Y-98641555D01*
X156725016Y-98688510D01*
X156734588Y-98736635D01*
X156739398Y-98785466D01*
X156739398Y-98810000D01*
X156740000Y-98810000D01*
X156740000Y-99310000D01*
X156739398Y-99310000D01*
X156739398Y-99334534D01*
X156734588Y-99383365D01*
X156725016Y-99431490D01*
X156710772Y-99478445D01*
X156691995Y-99523778D01*
X156668864Y-99567051D01*
X156641604Y-99607850D01*
X156610476Y-99645779D01*
X156575779Y-99680476D01*
X156537850Y-99711604D01*
X156497051Y-99738864D01*
X156453778Y-99761995D01*
X156408445Y-99780772D01*
X156361490Y-99795016D01*
X156313365Y-99804588D01*
X156264534Y-99809398D01*
X156240000Y-99809398D01*
X156240000Y-99810000D01*
X155690000Y-99810000D01*
X155690000Y-98310000D01*
X156240000Y-98310000D01*
X156240000Y-98310602D01*
X156240000Y-98310602D01*
G37*
D20*
X153640000Y-99060000D03*
D21*
G36*
X154190000Y-99810000D02*
G01*
X153640000Y-99810000D01*
X153640000Y-99809398D01*
X153615466Y-99809398D01*
X153566635Y-99804588D01*
X153518510Y-99795016D01*
X153471555Y-99780772D01*
X153426222Y-99761995D01*
X153382949Y-99738864D01*
X153342150Y-99711604D01*
X153304221Y-99680476D01*
X153269524Y-99645779D01*
X153238396Y-99607850D01*
X153211136Y-99567051D01*
X153188005Y-99523778D01*
X153169228Y-99478445D01*
X153154984Y-99431490D01*
X153145412Y-99383365D01*
X153140602Y-99334534D01*
X153140602Y-99310000D01*
X153140000Y-99310000D01*
X153140000Y-98810000D01*
X153140602Y-98810000D01*
X153140602Y-98785466D01*
X153145412Y-98736635D01*
X153154984Y-98688510D01*
X153169228Y-98641555D01*
X153188005Y-98596222D01*
X153211136Y-98552949D01*
X153238396Y-98512150D01*
X153269524Y-98474221D01*
X153304221Y-98439524D01*
X153342150Y-98408396D01*
X153382949Y-98381136D01*
X153426222Y-98358005D01*
X153471555Y-98339228D01*
X153518510Y-98324984D01*
X153566635Y-98315412D01*
X153615466Y-98310602D01*
X153640000Y-98310602D01*
X153640000Y-98310000D01*
X154190000Y-98310000D01*
X154190000Y-99810000D01*
X154190000Y-99810000D01*
G37*
D19*
X161290000Y-99060000D03*
D20*
X162590000Y-99060000D03*
D21*
G36*
X162590000Y-98310602D02*
G01*
X162614534Y-98310602D01*
X162663365Y-98315412D01*
X162711490Y-98324984D01*
X162758445Y-98339228D01*
X162803778Y-98358005D01*
X162847051Y-98381136D01*
X162887850Y-98408396D01*
X162925779Y-98439524D01*
X162960476Y-98474221D01*
X162991604Y-98512150D01*
X163018864Y-98552949D01*
X163041995Y-98596222D01*
X163060772Y-98641555D01*
X163075016Y-98688510D01*
X163084588Y-98736635D01*
X163089398Y-98785466D01*
X163089398Y-98810000D01*
X163090000Y-98810000D01*
X163090000Y-99310000D01*
X163089398Y-99310000D01*
X163089398Y-99334534D01*
X163084588Y-99383365D01*
X163075016Y-99431490D01*
X163060772Y-99478445D01*
X163041995Y-99523778D01*
X163018864Y-99567051D01*
X162991604Y-99607850D01*
X162960476Y-99645779D01*
X162925779Y-99680476D01*
X162887850Y-99711604D01*
X162847051Y-99738864D01*
X162803778Y-99761995D01*
X162758445Y-99780772D01*
X162711490Y-99795016D01*
X162663365Y-99804588D01*
X162614534Y-99809398D01*
X162590000Y-99809398D01*
X162590000Y-99810000D01*
X162040000Y-99810000D01*
X162040000Y-98310000D01*
X162590000Y-98310000D01*
X162590000Y-98310602D01*
X162590000Y-98310602D01*
G37*
D20*
X159990000Y-99060000D03*
D21*
G36*
X160540000Y-99810000D02*
G01*
X159990000Y-99810000D01*
X159990000Y-99809398D01*
X159965466Y-99809398D01*
X159916635Y-99804588D01*
X159868510Y-99795016D01*
X159821555Y-99780772D01*
X159776222Y-99761995D01*
X159732949Y-99738864D01*
X159692150Y-99711604D01*
X159654221Y-99680476D01*
X159619524Y-99645779D01*
X159588396Y-99607850D01*
X159561136Y-99567051D01*
X159538005Y-99523778D01*
X159519228Y-99478445D01*
X159504984Y-99431490D01*
X159495412Y-99383365D01*
X159490602Y-99334534D01*
X159490602Y-99310000D01*
X159490000Y-99310000D01*
X159490000Y-98810000D01*
X159490602Y-98810000D01*
X159490602Y-98785466D01*
X159495412Y-98736635D01*
X159504984Y-98688510D01*
X159519228Y-98641555D01*
X159538005Y-98596222D01*
X159561136Y-98552949D01*
X159588396Y-98512150D01*
X159619524Y-98474221D01*
X159654221Y-98439524D01*
X159692150Y-98408396D01*
X159732949Y-98381136D01*
X159776222Y-98358005D01*
X159821555Y-98339228D01*
X159868510Y-98324984D01*
X159916635Y-98315412D01*
X159965466Y-98310602D01*
X159990000Y-98310602D01*
X159990000Y-98310000D01*
X160540000Y-98310000D01*
X160540000Y-99810000D01*
X160540000Y-99810000D01*
G37*
D22*
X130810000Y-88900000D03*
D23*
X130810000Y-91440000D03*
X132080000Y-90170000D03*
D24*
X128270000Y-96520000D03*
D13*
X135890000Y-96520000D03*
X150495000Y-91440000D03*
D24*
X142875000Y-91440000D03*
X130810000Y-85090000D03*
D13*
X130810000Y-77470000D03*
D24*
X153670000Y-120650000D03*
X156210000Y-120650000D03*
X158750000Y-120650000D03*
X161290000Y-120650000D03*
X163830000Y-120650000D03*
X166370000Y-120650000D03*
X168910000Y-120650000D03*
X171450000Y-120650000D03*
D14*
X173990000Y-120650000D03*
D15*
X182880000Y-99060000D03*
X177800000Y-101600000D03*
X170180000Y-99060000D03*
D24*
X154940000Y-85090000D03*
X172720000Y-92710000D03*
X157480000Y-85090000D03*
X170180000Y-92710000D03*
X160020000Y-85090000D03*
X167640000Y-92710000D03*
X162560000Y-85090000D03*
X165100000Y-92710000D03*
X165100000Y-85090000D03*
X162560000Y-92710000D03*
X167640000Y-85090000D03*
X160020000Y-92710000D03*
X170180000Y-85090000D03*
X157480000Y-92710000D03*
X172720000Y-85090000D03*
D14*
X154940000Y-92710000D03*
D13*
X148590000Y-118190000D03*
X148590000Y-123190000D03*
D25*
X115570000Y-91363800D03*
D21*
G36*
X114470000Y-91863800D02*
G01*
X115170000Y-90863800D01*
X115970000Y-90863800D01*
X116670000Y-91863800D01*
X114470000Y-91863800D01*
X114470000Y-91863800D01*
G37*
D26*
X115570000Y-92773500D03*
D19*
X114070000Y-89960000D03*
D27*
X115570000Y-90106500D03*
D19*
X117070000Y-89960000D03*
D28*
X115570000Y-94107000D03*
D21*
G36*
X116670000Y-93682000D02*
G01*
X116070000Y-94532000D01*
X115070000Y-94532000D01*
X114470000Y-93682000D01*
X116670000Y-93682000D01*
X116670000Y-93682000D01*
G37*
D29*
X143510000Y-123825000D03*
X111760000Y-111760000D03*
X162590000Y-102840000D03*
X149890000Y-102840000D03*
X156210000Y-102870000D03*
X127000000Y-102870000D03*
X116840000Y-82550000D03*
X147320000Y-101600000D03*
X153670000Y-101600000D03*
X160020000Y-101600000D03*
X116840000Y-105410000D03*
X116840000Y-105410000D03*
X146050000Y-124460000D03*
X119380000Y-101600000D03*
X128270000Y-127584200D03*
X129708878Y-125561122D03*
X115738878Y-125561122D03*
X132080000Y-124460000D03*
X118110000Y-124460000D03*
X143510000Y-125730000D03*
X166340417Y-124460000D03*
X146050000Y-127000000D03*
X153670000Y-128270000D03*
X167640000Y-127000000D03*
X167640000Y-127000000D03*
X158750000Y-129540000D03*
X168910000Y-128270000D03*
X168910000Y-128270000D03*
X168910000Y-128270000D03*
X144780000Y-122809000D03*
X99031524Y-103826684D03*
X143538658Y-121891342D03*
X102870000Y-105410000D03*
X133118462Y-122901538D03*
X120938462Y-122901538D03*
D30*
X111760000Y-111760000D02*
X111760000Y-111760000D01*
X140970000Y-121285000D02*
X143510000Y-123825000D01*
X137160000Y-111760000D02*
X140970000Y-115570000D01*
X140970000Y-115570000D02*
X140970000Y-121285000D01*
X111760000Y-111760000D02*
X137160000Y-111760000D01*
D31*
X114070000Y-89960000D02*
X114070000Y-88670000D01*
D32*
X114070000Y-88670000D02*
X113030000Y-87630000D01*
X113030000Y-87630000D02*
X111760000Y-87630000D01*
X111760000Y-87630000D02*
X110490000Y-86360000D01*
X110490000Y-86360000D02*
X110490000Y-85090000D01*
X151170000Y-83860000D02*
X147320000Y-80010000D01*
X111760000Y-80010000D02*
X147280000Y-80010000D01*
X110490000Y-81280000D02*
X111760000Y-80010000D01*
X110490000Y-85090000D02*
X110490000Y-81280000D01*
X151130000Y-83900000D02*
X151130000Y-85130000D01*
D31*
X151170000Y-83860000D02*
X151130000Y-83900000D01*
X162590000Y-99060000D02*
X162590000Y-102840000D01*
X156240000Y-99060000D02*
X156240000Y-102840000D01*
X149890000Y-99060000D02*
X149890000Y-102840000D01*
X162590000Y-102840000D02*
X162590000Y-102840000D01*
D32*
X173990000Y-114300000D02*
X165100000Y-105410000D01*
X165100000Y-105410000D02*
X139700000Y-105410000D01*
X139700000Y-105410000D02*
X129540000Y-105410000D01*
X129540000Y-105410000D02*
X127000000Y-102870000D01*
X127000000Y-102870000D02*
X127000000Y-102870000D01*
D31*
X148590000Y-123190000D02*
X149860000Y-123190000D01*
X149860000Y-123190000D02*
X151130000Y-121920000D01*
X151130000Y-121920000D02*
X151130000Y-116840000D01*
X151130000Y-116840000D02*
X152400000Y-115570000D01*
X152400000Y-115570000D02*
X173990000Y-115570000D01*
D32*
X173990000Y-115570000D02*
X173990000Y-114300000D01*
X173990000Y-120650000D02*
X173990000Y-115570000D01*
D31*
X115570000Y-85090000D02*
X116880000Y-85090000D01*
D32*
X116880000Y-85090000D02*
X112990000Y-85090000D01*
D33*
X172720000Y-92710000D02*
X177800000Y-92710000D01*
X180300000Y-90210000D02*
X180300000Y-82550000D01*
X177800000Y-92710000D02*
X180300000Y-90210000D01*
X172720000Y-90170000D02*
X172720000Y-92710000D01*
X170180000Y-87630000D02*
X172720000Y-90170000D01*
X152400000Y-87630000D02*
X170180000Y-87630000D01*
X152400000Y-87630000D02*
X151130000Y-87630000D01*
X151130000Y-87630000D02*
X140970000Y-87630000D01*
X140970000Y-87630000D02*
X135890000Y-82550000D01*
X135890000Y-82550000D02*
X123190000Y-82550000D01*
X123190000Y-82550000D02*
X116840000Y-82550000D01*
X116840000Y-82550000D02*
X116840000Y-82550000D01*
D31*
X159990000Y-99060000D02*
X159990000Y-101570000D01*
X153640000Y-99060000D02*
X153640000Y-101570000D01*
X147290000Y-99060000D02*
X147290000Y-101570000D01*
D32*
X116840000Y-105410000D02*
X116840000Y-105410000D01*
X116840000Y-105410000D02*
X116840000Y-105410000D01*
X148590000Y-109220000D02*
X148590000Y-118150000D01*
X118762718Y-107332718D02*
X146702718Y-107332718D01*
X146702718Y-107332718D02*
X148590000Y-109220000D01*
X116840000Y-105410000D02*
X118762718Y-107332718D01*
D31*
X147240000Y-118190000D02*
X146050000Y-119380000D01*
X146050000Y-119380000D02*
X146050000Y-124460000D01*
X148590000Y-118190000D02*
X147240000Y-118190000D01*
D30*
X115570000Y-94107000D02*
X115570000Y-92773500D01*
X115570000Y-91363800D02*
X115570000Y-90106500D01*
D32*
X115570000Y-90106500D02*
X115570000Y-85090000D01*
X115570000Y-92773500D02*
X115570000Y-91363800D01*
D31*
X117070000Y-89960000D02*
X117070000Y-88670000D01*
D32*
X117070000Y-88670000D02*
X119380000Y-86360000D01*
D31*
X119380000Y-86360000D02*
X119380000Y-85090000D01*
D32*
X119380000Y-86360000D02*
X119380000Y-85090000D01*
X117070000Y-89960000D02*
X118069872Y-89960000D01*
X118069872Y-89960000D02*
X119380000Y-91270128D01*
D33*
X128270000Y-96520000D02*
X119380000Y-96520000D01*
X119380000Y-91270128D02*
X119380000Y-96520000D01*
X128270000Y-96520000D02*
X130810000Y-93980000D01*
D32*
X130810000Y-93980000D02*
X130810000Y-91440000D01*
D33*
X118110000Y-101600000D02*
X96520000Y-101600000D01*
X119380000Y-100330000D02*
X119380000Y-100330000D01*
X119380000Y-96520000D02*
X119380000Y-100330000D01*
X119380000Y-101600000D02*
X118110000Y-101600000D01*
X119380000Y-100330000D02*
X119380000Y-101600000D01*
D32*
X93980000Y-100330000D02*
X93980000Y-101600000D01*
X93980000Y-101600000D02*
X96520000Y-101600000D01*
D30*
X128270000Y-127585061D02*
X128268366Y-127583427D01*
X128270000Y-129540000D02*
X128270000Y-127585061D01*
X128270000Y-127584200D02*
X113715800Y-127584200D01*
X113030000Y-128270000D02*
X113030000Y-129540000D01*
X113715800Y-127584200D02*
X113030000Y-128270000D01*
X129540000Y-125730000D02*
X129708878Y-125561122D01*
X129540000Y-129540000D02*
X129540000Y-125730000D01*
X129708878Y-125561122D02*
X115738878Y-125561122D01*
X115738878Y-125561122D02*
X115738878Y-125561122D01*
X130810000Y-125730000D02*
X132080000Y-124460000D01*
X130810000Y-129540000D02*
X130810000Y-125730000D01*
X132080000Y-124460000D02*
X118110000Y-124460000D01*
X118110000Y-124460000D02*
X118110000Y-124460000D01*
X160470010Y-125279990D02*
X163830000Y-121920000D01*
X163830000Y-121920000D02*
X163830000Y-120650000D01*
X160470010Y-125279990D02*
X152850010Y-125279990D01*
X152850010Y-125279990D02*
X152400000Y-125730000D01*
X152400000Y-125730000D02*
X143510000Y-125730000D01*
X143510000Y-125730000D02*
X143510000Y-125730000D01*
X154120010Y-126549990D02*
X153670000Y-127000000D01*
X166340417Y-124460000D02*
X165100000Y-125700417D01*
X165100000Y-125700417D02*
X165100000Y-125730000D01*
X153670000Y-127000000D02*
X146050000Y-127000000D01*
X165100000Y-125730000D02*
X164280010Y-126549990D01*
X164280010Y-126549990D02*
X154120010Y-126549990D01*
X155478372Y-128270000D02*
X156209131Y-127539241D01*
X153670000Y-128270000D02*
X155478372Y-128270000D01*
X156209131Y-127539241D02*
X167100759Y-127539241D01*
X167100759Y-127539241D02*
X167640000Y-127000000D01*
X167640000Y-127000000D02*
X167640000Y-127000000D01*
X167640000Y-127000000D02*
X167640000Y-127000000D01*
X158750000Y-129540000D02*
X160020000Y-128270000D01*
X160020000Y-128270000D02*
X168910000Y-128270000D01*
X168910000Y-128270000D02*
X168910000Y-128270000D01*
X168910000Y-128270000D02*
X168910000Y-128270000D01*
X168910000Y-128270000D02*
X168910000Y-128270000D01*
D31*
X152400000Y-92710000D02*
X154940000Y-92710000D01*
X148590000Y-96520000D02*
X152400000Y-92710000D01*
X148590000Y-96520000D02*
X148590000Y-99060000D01*
X154940000Y-99060000D02*
X154940000Y-96520000D01*
X154940000Y-96520000D02*
X157480000Y-93980000D01*
X157480000Y-93980000D02*
X157480000Y-92710000D01*
X161290000Y-96520000D02*
X160020000Y-95250000D01*
X160020000Y-95250000D02*
X160020000Y-92710000D01*
X161290000Y-96520000D02*
X161290000Y-99060000D01*
X157480000Y-85090000D02*
X157480000Y-83820000D01*
X157480000Y-83820000D02*
X152400000Y-78740000D01*
X152400000Y-78740000D02*
X135890000Y-78740000D01*
X135890000Y-78740000D02*
X133350000Y-76200000D01*
X133350000Y-76200000D02*
X133326135Y-76200000D01*
X132820353Y-75694218D02*
X132812927Y-75694218D01*
X133326135Y-76200000D02*
X132820353Y-75694218D01*
X128775782Y-75694218D02*
X132820353Y-75694218D01*
X111760000Y-77470000D02*
X127000000Y-77470000D01*
X104140000Y-93980000D02*
X104140000Y-85090000D01*
X93980000Y-99060000D02*
X99060000Y-99060000D01*
X99060000Y-99060000D02*
X104140000Y-93980000D01*
X127000000Y-77470000D02*
X128775782Y-75694218D01*
X104140000Y-85090000D02*
X111760000Y-77470000D01*
D30*
X105096684Y-103826684D02*
X99031524Y-103826684D01*
X144780000Y-122504773D02*
X144780000Y-111760000D01*
X110490000Y-109220000D02*
X105096684Y-103826684D01*
X144780000Y-111760000D02*
X142240000Y-109220000D01*
X142240000Y-109220000D02*
X110490000Y-109220000D01*
X99031524Y-103826684D02*
X99031524Y-103826684D01*
D31*
X160020000Y-85090000D02*
X160020000Y-82550000D01*
X160020000Y-82550000D02*
X153670000Y-76200000D01*
X153670000Y-76200000D02*
X143510000Y-76200000D01*
X143510000Y-76200000D02*
X140970000Y-76200000D01*
X140970000Y-76200000D02*
X138430000Y-73660000D01*
X138430000Y-73660000D02*
X124460000Y-73660000D01*
X124460000Y-73660000D02*
X106680000Y-73660000D01*
X106680000Y-73660000D02*
X99060000Y-81280000D01*
X93980000Y-96520000D02*
X96520000Y-96520000D01*
X96520000Y-96520000D02*
X99060000Y-93980000D01*
X99060000Y-93980000D02*
X99060000Y-81280000D01*
D30*
X143538658Y-114328658D02*
X139700000Y-110490000D01*
X143538658Y-121891342D02*
X143538658Y-114328658D01*
X139700000Y-110490000D02*
X107950000Y-110490000D01*
X107950000Y-110490000D02*
X102870000Y-105410000D01*
X132830000Y-129540000D02*
X132080000Y-129540000D01*
X133118462Y-129251538D02*
X132830000Y-129540000D01*
X133118462Y-122901538D02*
X133118462Y-129251538D01*
X133118462Y-122901538D02*
X120938462Y-122901538D01*
X120938462Y-122901538D02*
X120938462Y-122901538D01*
D31*
X109220000Y-76190622D02*
X109862854Y-75547768D01*
X109220000Y-76200000D02*
X109220000Y-76190622D01*
X93980000Y-97790000D02*
X97790000Y-97790000D01*
X97790000Y-97790000D02*
X101600000Y-93980000D01*
X101600000Y-93980000D02*
X101600000Y-83820000D01*
X101600000Y-83820000D02*
X109220000Y-76200000D01*
X109862854Y-75547768D02*
X126347768Y-75547768D01*
M02*
