%TF.GenerationSoftware,KiCad,Pcbnew,5.1.3-ffb9f22~84~ubuntu16.04.1*%
%TF.CreationDate,2019-07-26T23:44:31+02:00*%
%TF.ProjectId,Raspberry-I2C-LCD-and-Keypad,52617370-6265-4727-9279-2d4932432d4c,rev?*%
%TF.SameCoordinates,Original*%
%TF.FileFunction,Soldermask,Top*%
%TF.FilePolarity,Negative*%
%FSLAX46Y46*%
G04 Gerber Fmt 4.6, Leading zero omitted, Abs format (unit mm)*
G04 Created by KiCad (PCBNEW 5.1.3-ffb9f22~84~ubuntu16.04.1) date 2019-07-26 23:44:31*
%MOMM*%
%LPD*%
G04 APERTURE LIST*
%ADD10C,0.050000*%
%ADD11C,0.100000*%
G04 APERTURE END LIST*
D10*
X191439800Y-69850000D02*
X91440000Y-69850000D01*
X191439800Y-132080000D02*
X191439800Y-69850000D01*
X91440000Y-132080000D02*
X191439800Y-132080000D01*
X91440000Y-69850000D02*
X91440000Y-132080000D01*
D11*
G36*
X188408793Y-126784937D02*
G01*
X188763670Y-126931932D01*
X189083052Y-127145336D01*
X189354664Y-127416948D01*
X189568068Y-127736330D01*
X189715063Y-128091207D01*
X189790000Y-128467940D01*
X189790000Y-128852060D01*
X189715063Y-129228793D01*
X189568068Y-129583670D01*
X189354664Y-129903052D01*
X189083052Y-130174664D01*
X188763670Y-130388068D01*
X188408793Y-130535063D01*
X188032060Y-130610000D01*
X187647940Y-130610000D01*
X187271207Y-130535063D01*
X186916330Y-130388068D01*
X186596948Y-130174664D01*
X186325336Y-129903052D01*
X186111932Y-129583670D01*
X185964937Y-129228793D01*
X185890000Y-128852060D01*
X185890000Y-128467940D01*
X185964937Y-128091207D01*
X186111932Y-127736330D01*
X186325336Y-127416948D01*
X186596948Y-127145336D01*
X186916330Y-126931932D01*
X187271207Y-126784937D01*
X187647940Y-126710000D01*
X188032060Y-126710000D01*
X188408793Y-126784937D01*
X188408793Y-126784937D01*
G37*
G36*
X95408793Y-126784937D02*
G01*
X95763670Y-126931932D01*
X96083052Y-127145336D01*
X96354664Y-127416948D01*
X96568068Y-127736330D01*
X96715063Y-128091207D01*
X96790000Y-128467940D01*
X96790000Y-128852060D01*
X96715063Y-129228793D01*
X96568068Y-129583670D01*
X96354664Y-129903052D01*
X96083052Y-130174664D01*
X95763670Y-130388068D01*
X95408793Y-130535063D01*
X95032060Y-130610000D01*
X94647940Y-130610000D01*
X94271207Y-130535063D01*
X93916330Y-130388068D01*
X93596948Y-130174664D01*
X93325336Y-129903052D01*
X93111932Y-129583670D01*
X92964937Y-129228793D01*
X92890000Y-128852060D01*
X92890000Y-128467940D01*
X92964937Y-128091207D01*
X93111932Y-127736330D01*
X93325336Y-127416948D01*
X93596948Y-127145336D01*
X93916330Y-126931932D01*
X94271207Y-126784937D01*
X94647940Y-126710000D01*
X95032060Y-126710000D01*
X95408793Y-126784937D01*
X95408793Y-126784937D01*
G37*
G36*
X108058015Y-128996973D02*
G01*
X108161879Y-129028479D01*
X108189055Y-129043005D01*
X108257600Y-129079643D01*
X108341501Y-129148499D01*
X108410357Y-129232400D01*
X108421662Y-129253551D01*
X108461521Y-129328121D01*
X108465388Y-129340869D01*
X108474760Y-129363496D01*
X108488374Y-129383870D01*
X108505701Y-129401197D01*
X108526075Y-129414811D01*
X108548714Y-129424188D01*
X108572747Y-129428969D01*
X108597251Y-129428969D01*
X108621285Y-129424189D01*
X108643924Y-129414812D01*
X108664298Y-129401198D01*
X108681625Y-129383871D01*
X108695239Y-129363497D01*
X108704612Y-129340869D01*
X108708479Y-129328121D01*
X108748338Y-129253551D01*
X108759643Y-129232400D01*
X108828499Y-129148499D01*
X108912400Y-129079643D01*
X108980945Y-129043005D01*
X109008121Y-129028479D01*
X109111985Y-128996973D01*
X109192933Y-128989000D01*
X109247067Y-128989000D01*
X109328015Y-128996973D01*
X109431879Y-129028479D01*
X109459055Y-129043005D01*
X109527600Y-129079643D01*
X109611501Y-129148499D01*
X109680357Y-129232400D01*
X109691662Y-129253551D01*
X109731521Y-129328121D01*
X109735388Y-129340869D01*
X109744760Y-129363496D01*
X109758374Y-129383870D01*
X109775701Y-129401197D01*
X109796075Y-129414811D01*
X109818714Y-129424188D01*
X109842747Y-129428969D01*
X109867251Y-129428969D01*
X109891285Y-129424189D01*
X109913924Y-129414812D01*
X109934298Y-129401198D01*
X109951625Y-129383871D01*
X109965239Y-129363497D01*
X109974612Y-129340869D01*
X109978479Y-129328121D01*
X110018338Y-129253551D01*
X110029643Y-129232400D01*
X110098499Y-129148499D01*
X110182400Y-129079643D01*
X110250945Y-129043005D01*
X110278121Y-129028479D01*
X110381985Y-128996973D01*
X110462933Y-128989000D01*
X110517067Y-128989000D01*
X110598015Y-128996973D01*
X110701879Y-129028479D01*
X110729055Y-129043005D01*
X110797600Y-129079643D01*
X110881501Y-129148499D01*
X110950357Y-129232400D01*
X110961662Y-129253551D01*
X111001521Y-129328121D01*
X111005388Y-129340869D01*
X111014760Y-129363496D01*
X111028374Y-129383870D01*
X111045701Y-129401197D01*
X111066075Y-129414811D01*
X111088714Y-129424188D01*
X111112747Y-129428969D01*
X111137251Y-129428969D01*
X111161285Y-129424189D01*
X111183924Y-129414812D01*
X111204298Y-129401198D01*
X111221625Y-129383871D01*
X111235239Y-129363497D01*
X111244612Y-129340869D01*
X111248479Y-129328121D01*
X111288338Y-129253551D01*
X111299643Y-129232400D01*
X111368499Y-129148499D01*
X111452400Y-129079643D01*
X111520945Y-129043005D01*
X111548121Y-129028479D01*
X111651985Y-128996973D01*
X111732933Y-128989000D01*
X111787067Y-128989000D01*
X111868015Y-128996973D01*
X111971879Y-129028479D01*
X111999055Y-129043005D01*
X112067600Y-129079643D01*
X112151501Y-129148499D01*
X112220357Y-129232400D01*
X112231662Y-129253551D01*
X112271521Y-129328121D01*
X112275388Y-129340869D01*
X112284760Y-129363496D01*
X112298374Y-129383870D01*
X112315701Y-129401197D01*
X112336075Y-129414811D01*
X112358714Y-129424188D01*
X112382747Y-129428969D01*
X112407251Y-129428969D01*
X112431285Y-129424189D01*
X112453924Y-129414812D01*
X112474298Y-129401198D01*
X112491625Y-129383871D01*
X112505239Y-129363497D01*
X112514612Y-129340869D01*
X112518479Y-129328121D01*
X112558338Y-129253551D01*
X112569643Y-129232400D01*
X112638499Y-129148499D01*
X112722400Y-129079643D01*
X112790945Y-129043005D01*
X112818121Y-129028479D01*
X112921985Y-128996973D01*
X113002933Y-128989000D01*
X113057067Y-128989000D01*
X113138015Y-128996973D01*
X113241879Y-129028479D01*
X113269055Y-129043005D01*
X113337600Y-129079643D01*
X113421501Y-129148499D01*
X113490357Y-129232400D01*
X113501662Y-129253551D01*
X113541521Y-129328121D01*
X113545388Y-129340869D01*
X113554760Y-129363496D01*
X113568374Y-129383870D01*
X113585701Y-129401197D01*
X113606075Y-129414811D01*
X113628714Y-129424188D01*
X113652747Y-129428969D01*
X113677251Y-129428969D01*
X113701285Y-129424189D01*
X113723924Y-129414812D01*
X113744298Y-129401198D01*
X113761625Y-129383871D01*
X113775239Y-129363497D01*
X113784612Y-129340869D01*
X113788479Y-129328121D01*
X113828338Y-129253551D01*
X113839643Y-129232400D01*
X113908499Y-129148499D01*
X113992400Y-129079643D01*
X114060945Y-129043005D01*
X114088121Y-129028479D01*
X114191985Y-128996973D01*
X114272933Y-128989000D01*
X114327067Y-128989000D01*
X114408015Y-128996973D01*
X114511879Y-129028479D01*
X114539055Y-129043005D01*
X114607600Y-129079643D01*
X114691501Y-129148499D01*
X114760357Y-129232400D01*
X114771662Y-129253551D01*
X114811521Y-129328121D01*
X114815388Y-129340869D01*
X114824760Y-129363496D01*
X114838374Y-129383870D01*
X114855701Y-129401197D01*
X114876075Y-129414811D01*
X114898714Y-129424188D01*
X114922747Y-129428969D01*
X114947251Y-129428969D01*
X114971285Y-129424189D01*
X114993924Y-129414812D01*
X115014298Y-129401198D01*
X115031625Y-129383871D01*
X115045239Y-129363497D01*
X115054612Y-129340869D01*
X115058479Y-129328121D01*
X115098338Y-129253551D01*
X115109643Y-129232400D01*
X115178499Y-129148499D01*
X115262400Y-129079643D01*
X115330945Y-129043005D01*
X115358121Y-129028479D01*
X115461985Y-128996973D01*
X115542933Y-128989000D01*
X115597067Y-128989000D01*
X115678015Y-128996973D01*
X115781879Y-129028479D01*
X115809055Y-129043005D01*
X115877600Y-129079643D01*
X115961501Y-129148499D01*
X116030356Y-129232400D01*
X116053764Y-129276193D01*
X116067375Y-129296563D01*
X116084702Y-129313890D01*
X116105076Y-129327504D01*
X116127715Y-129336881D01*
X116151748Y-129341662D01*
X116176252Y-129341662D01*
X116200286Y-129336882D01*
X116222924Y-129327505D01*
X116243299Y-129313891D01*
X116260626Y-129296564D01*
X116274240Y-129276190D01*
X116283617Y-129253551D01*
X116288398Y-129229518D01*
X116289000Y-129217265D01*
X116289000Y-128989000D01*
X117391000Y-128989000D01*
X117391000Y-130091000D01*
X116289000Y-130091000D01*
X116289000Y-129862735D01*
X116286598Y-129838349D01*
X116279485Y-129814900D01*
X116267934Y-129793289D01*
X116252389Y-129774347D01*
X116233447Y-129758802D01*
X116211836Y-129747251D01*
X116188387Y-129740138D01*
X116164001Y-129737736D01*
X116139615Y-129740138D01*
X116116166Y-129747251D01*
X116094555Y-129758802D01*
X116075613Y-129774347D01*
X116060068Y-129793289D01*
X116053767Y-129803802D01*
X116030356Y-129847600D01*
X116030355Y-129847601D01*
X115961501Y-129931501D01*
X115877600Y-130000357D01*
X115809055Y-130036995D01*
X115781879Y-130051521D01*
X115678015Y-130083027D01*
X115597067Y-130091000D01*
X115542933Y-130091000D01*
X115461985Y-130083027D01*
X115358121Y-130051521D01*
X115330945Y-130036995D01*
X115262400Y-130000357D01*
X115178499Y-129931501D01*
X115109643Y-129847600D01*
X115070489Y-129774347D01*
X115058479Y-129751879D01*
X115054612Y-129739131D01*
X115045240Y-129716504D01*
X115031626Y-129696130D01*
X115014299Y-129678803D01*
X114993925Y-129665189D01*
X114971286Y-129655812D01*
X114947253Y-129651031D01*
X114922749Y-129651031D01*
X114898715Y-129655811D01*
X114876076Y-129665188D01*
X114855702Y-129678802D01*
X114838375Y-129696129D01*
X114824761Y-129716503D01*
X114815388Y-129739131D01*
X114811521Y-129751879D01*
X114799511Y-129774347D01*
X114760357Y-129847600D01*
X114691501Y-129931501D01*
X114607600Y-130000357D01*
X114539055Y-130036995D01*
X114511879Y-130051521D01*
X114408015Y-130083027D01*
X114327067Y-130091000D01*
X114272933Y-130091000D01*
X114191985Y-130083027D01*
X114088121Y-130051521D01*
X114060945Y-130036995D01*
X113992400Y-130000357D01*
X113908499Y-129931501D01*
X113839643Y-129847600D01*
X113800489Y-129774347D01*
X113788479Y-129751879D01*
X113784612Y-129739131D01*
X113775240Y-129716504D01*
X113761626Y-129696130D01*
X113744299Y-129678803D01*
X113723925Y-129665189D01*
X113701286Y-129655812D01*
X113677253Y-129651031D01*
X113652749Y-129651031D01*
X113628715Y-129655811D01*
X113606076Y-129665188D01*
X113585702Y-129678802D01*
X113568375Y-129696129D01*
X113554761Y-129716503D01*
X113545388Y-129739131D01*
X113541521Y-129751879D01*
X113529511Y-129774347D01*
X113490357Y-129847600D01*
X113421501Y-129931501D01*
X113337600Y-130000357D01*
X113269055Y-130036995D01*
X113241879Y-130051521D01*
X113138015Y-130083027D01*
X113057067Y-130091000D01*
X113002933Y-130091000D01*
X112921985Y-130083027D01*
X112818121Y-130051521D01*
X112790945Y-130036995D01*
X112722400Y-130000357D01*
X112638499Y-129931501D01*
X112569643Y-129847600D01*
X112530489Y-129774347D01*
X112518479Y-129751879D01*
X112514612Y-129739131D01*
X112505240Y-129716504D01*
X112491626Y-129696130D01*
X112474299Y-129678803D01*
X112453925Y-129665189D01*
X112431286Y-129655812D01*
X112407253Y-129651031D01*
X112382749Y-129651031D01*
X112358715Y-129655811D01*
X112336076Y-129665188D01*
X112315702Y-129678802D01*
X112298375Y-129696129D01*
X112284761Y-129716503D01*
X112275388Y-129739131D01*
X112271521Y-129751879D01*
X112259511Y-129774347D01*
X112220357Y-129847600D01*
X112151501Y-129931501D01*
X112067600Y-130000357D01*
X111999055Y-130036995D01*
X111971879Y-130051521D01*
X111868015Y-130083027D01*
X111787067Y-130091000D01*
X111732933Y-130091000D01*
X111651985Y-130083027D01*
X111548121Y-130051521D01*
X111520945Y-130036995D01*
X111452400Y-130000357D01*
X111368499Y-129931501D01*
X111299643Y-129847600D01*
X111260489Y-129774347D01*
X111248479Y-129751879D01*
X111244612Y-129739131D01*
X111235240Y-129716504D01*
X111221626Y-129696130D01*
X111204299Y-129678803D01*
X111183925Y-129665189D01*
X111161286Y-129655812D01*
X111137253Y-129651031D01*
X111112749Y-129651031D01*
X111088715Y-129655811D01*
X111066076Y-129665188D01*
X111045702Y-129678802D01*
X111028375Y-129696129D01*
X111014761Y-129716503D01*
X111005388Y-129739131D01*
X111001521Y-129751879D01*
X110989511Y-129774347D01*
X110950357Y-129847600D01*
X110881501Y-129931501D01*
X110797600Y-130000357D01*
X110729055Y-130036995D01*
X110701879Y-130051521D01*
X110598015Y-130083027D01*
X110517067Y-130091000D01*
X110462933Y-130091000D01*
X110381985Y-130083027D01*
X110278121Y-130051521D01*
X110250945Y-130036995D01*
X110182400Y-130000357D01*
X110098499Y-129931501D01*
X110029643Y-129847600D01*
X109990489Y-129774347D01*
X109978479Y-129751879D01*
X109974612Y-129739131D01*
X109965240Y-129716504D01*
X109951626Y-129696130D01*
X109934299Y-129678803D01*
X109913925Y-129665189D01*
X109891286Y-129655812D01*
X109867253Y-129651031D01*
X109842749Y-129651031D01*
X109818715Y-129655811D01*
X109796076Y-129665188D01*
X109775702Y-129678802D01*
X109758375Y-129696129D01*
X109744761Y-129716503D01*
X109735388Y-129739131D01*
X109731521Y-129751879D01*
X109719511Y-129774347D01*
X109680357Y-129847600D01*
X109611501Y-129931501D01*
X109527600Y-130000357D01*
X109459055Y-130036995D01*
X109431879Y-130051521D01*
X109328015Y-130083027D01*
X109247067Y-130091000D01*
X109192933Y-130091000D01*
X109111985Y-130083027D01*
X109008121Y-130051521D01*
X108980945Y-130036995D01*
X108912400Y-130000357D01*
X108828499Y-129931501D01*
X108759643Y-129847600D01*
X108720489Y-129774347D01*
X108708479Y-129751879D01*
X108704612Y-129739131D01*
X108695240Y-129716504D01*
X108681626Y-129696130D01*
X108664299Y-129678803D01*
X108643925Y-129665189D01*
X108621286Y-129655812D01*
X108597253Y-129651031D01*
X108572749Y-129651031D01*
X108548715Y-129655811D01*
X108526076Y-129665188D01*
X108505702Y-129678802D01*
X108488375Y-129696129D01*
X108474761Y-129716503D01*
X108465388Y-129739131D01*
X108461521Y-129751879D01*
X108449511Y-129774347D01*
X108410357Y-129847600D01*
X108341501Y-129931501D01*
X108257600Y-130000357D01*
X108189055Y-130036995D01*
X108161879Y-130051521D01*
X108058015Y-130083027D01*
X107977067Y-130091000D01*
X107922933Y-130091000D01*
X107841985Y-130083027D01*
X107738121Y-130051521D01*
X107710945Y-130036995D01*
X107642400Y-130000357D01*
X107558499Y-129931501D01*
X107489643Y-129847600D01*
X107450489Y-129774347D01*
X107438479Y-129751879D01*
X107406973Y-129648015D01*
X107396334Y-129540000D01*
X107406973Y-129431985D01*
X107438479Y-129328121D01*
X107478338Y-129253551D01*
X107489643Y-129232400D01*
X107558499Y-129148499D01*
X107642400Y-129079643D01*
X107710945Y-129043005D01*
X107738121Y-129028479D01*
X107841985Y-128996973D01*
X107922933Y-128989000D01*
X107977067Y-128989000D01*
X108058015Y-128996973D01*
X108058015Y-128996973D01*
G37*
G36*
X161398015Y-128996973D02*
G01*
X161501879Y-129028479D01*
X161529055Y-129043005D01*
X161597600Y-129079643D01*
X161681501Y-129148499D01*
X161750357Y-129232400D01*
X161761662Y-129253551D01*
X161801521Y-129328121D01*
X161805388Y-129340869D01*
X161814760Y-129363496D01*
X161828374Y-129383870D01*
X161845701Y-129401197D01*
X161866075Y-129414811D01*
X161888714Y-129424188D01*
X161912747Y-129428969D01*
X161937251Y-129428969D01*
X161961285Y-129424189D01*
X161983924Y-129414812D01*
X162004298Y-129401198D01*
X162021625Y-129383871D01*
X162035239Y-129363497D01*
X162044612Y-129340869D01*
X162048479Y-129328121D01*
X162088338Y-129253551D01*
X162099643Y-129232400D01*
X162168499Y-129148499D01*
X162252400Y-129079643D01*
X162320945Y-129043005D01*
X162348121Y-129028479D01*
X162451985Y-128996973D01*
X162532933Y-128989000D01*
X162587067Y-128989000D01*
X162668015Y-128996973D01*
X162771879Y-129028479D01*
X162799055Y-129043005D01*
X162867600Y-129079643D01*
X162951501Y-129148499D01*
X163020357Y-129232400D01*
X163031662Y-129253551D01*
X163071521Y-129328121D01*
X163075388Y-129340869D01*
X163084760Y-129363496D01*
X163098374Y-129383870D01*
X163115701Y-129401197D01*
X163136075Y-129414811D01*
X163158714Y-129424188D01*
X163182747Y-129428969D01*
X163207251Y-129428969D01*
X163231285Y-129424189D01*
X163253924Y-129414812D01*
X163274298Y-129401198D01*
X163291625Y-129383871D01*
X163305239Y-129363497D01*
X163314612Y-129340869D01*
X163318479Y-129328121D01*
X163358338Y-129253551D01*
X163369643Y-129232400D01*
X163438499Y-129148499D01*
X163522400Y-129079643D01*
X163590945Y-129043005D01*
X163618121Y-129028479D01*
X163721985Y-128996973D01*
X163802933Y-128989000D01*
X163857067Y-128989000D01*
X163938015Y-128996973D01*
X164041879Y-129028479D01*
X164069055Y-129043005D01*
X164137600Y-129079643D01*
X164221501Y-129148499D01*
X164290357Y-129232400D01*
X164301662Y-129253551D01*
X164341521Y-129328121D01*
X164345388Y-129340869D01*
X164354760Y-129363496D01*
X164368374Y-129383870D01*
X164385701Y-129401197D01*
X164406075Y-129414811D01*
X164428714Y-129424188D01*
X164452747Y-129428969D01*
X164477251Y-129428969D01*
X164501285Y-129424189D01*
X164523924Y-129414812D01*
X164544298Y-129401198D01*
X164561625Y-129383871D01*
X164575239Y-129363497D01*
X164584612Y-129340869D01*
X164588479Y-129328121D01*
X164628338Y-129253551D01*
X164639643Y-129232400D01*
X164708499Y-129148499D01*
X164792400Y-129079643D01*
X164860945Y-129043005D01*
X164888121Y-129028479D01*
X164991985Y-128996973D01*
X165072933Y-128989000D01*
X165127067Y-128989000D01*
X165208015Y-128996973D01*
X165311879Y-129028479D01*
X165339055Y-129043005D01*
X165407600Y-129079643D01*
X165491501Y-129148499D01*
X165560357Y-129232400D01*
X165571662Y-129253551D01*
X165611521Y-129328121D01*
X165615388Y-129340869D01*
X165624760Y-129363496D01*
X165638374Y-129383870D01*
X165655701Y-129401197D01*
X165676075Y-129414811D01*
X165698714Y-129424188D01*
X165722747Y-129428969D01*
X165747251Y-129428969D01*
X165771285Y-129424189D01*
X165793924Y-129414812D01*
X165814298Y-129401198D01*
X165831625Y-129383871D01*
X165845239Y-129363497D01*
X165854612Y-129340869D01*
X165858479Y-129328121D01*
X165898338Y-129253551D01*
X165909643Y-129232400D01*
X165978499Y-129148499D01*
X166062400Y-129079643D01*
X166130945Y-129043005D01*
X166158121Y-129028479D01*
X166261985Y-128996973D01*
X166342933Y-128989000D01*
X166397067Y-128989000D01*
X166478015Y-128996973D01*
X166581879Y-129028479D01*
X166609055Y-129043005D01*
X166677600Y-129079643D01*
X166761501Y-129148499D01*
X166830357Y-129232400D01*
X166841662Y-129253551D01*
X166881521Y-129328121D01*
X166885388Y-129340869D01*
X166894760Y-129363496D01*
X166908374Y-129383870D01*
X166925701Y-129401197D01*
X166946075Y-129414811D01*
X166968714Y-129424188D01*
X166992747Y-129428969D01*
X167017251Y-129428969D01*
X167041285Y-129424189D01*
X167063924Y-129414812D01*
X167084298Y-129401198D01*
X167101625Y-129383871D01*
X167115239Y-129363497D01*
X167124612Y-129340869D01*
X167128479Y-129328121D01*
X167168338Y-129253551D01*
X167179643Y-129232400D01*
X167248499Y-129148499D01*
X167332400Y-129079643D01*
X167400945Y-129043005D01*
X167428121Y-129028479D01*
X167531985Y-128996973D01*
X167612933Y-128989000D01*
X167667067Y-128989000D01*
X167748015Y-128996973D01*
X167851879Y-129028479D01*
X167879055Y-129043005D01*
X167947600Y-129079643D01*
X168031501Y-129148499D01*
X168100357Y-129232400D01*
X168111662Y-129253551D01*
X168151521Y-129328121D01*
X168155388Y-129340869D01*
X168164760Y-129363496D01*
X168178374Y-129383870D01*
X168195701Y-129401197D01*
X168216075Y-129414811D01*
X168238714Y-129424188D01*
X168262747Y-129428969D01*
X168287251Y-129428969D01*
X168311285Y-129424189D01*
X168333924Y-129414812D01*
X168354298Y-129401198D01*
X168371625Y-129383871D01*
X168385239Y-129363497D01*
X168394612Y-129340869D01*
X168398479Y-129328121D01*
X168438338Y-129253551D01*
X168449643Y-129232400D01*
X168518499Y-129148499D01*
X168602400Y-129079643D01*
X168670945Y-129043005D01*
X168698121Y-129028479D01*
X168801985Y-128996973D01*
X168882933Y-128989000D01*
X168937067Y-128989000D01*
X169018015Y-128996973D01*
X169121879Y-129028479D01*
X169149055Y-129043005D01*
X169217600Y-129079643D01*
X169301501Y-129148499D01*
X169370356Y-129232400D01*
X169393764Y-129276193D01*
X169407375Y-129296563D01*
X169424702Y-129313890D01*
X169445076Y-129327504D01*
X169467715Y-129336881D01*
X169491748Y-129341662D01*
X169516252Y-129341662D01*
X169540286Y-129336882D01*
X169562924Y-129327505D01*
X169583299Y-129313891D01*
X169600626Y-129296564D01*
X169614240Y-129276190D01*
X169623617Y-129253551D01*
X169628398Y-129229518D01*
X169629000Y-129217265D01*
X169629000Y-128989000D01*
X170731000Y-128989000D01*
X170731000Y-130091000D01*
X169629000Y-130091000D01*
X169629000Y-129862735D01*
X169626598Y-129838349D01*
X169619485Y-129814900D01*
X169607934Y-129793289D01*
X169592389Y-129774347D01*
X169573447Y-129758802D01*
X169551836Y-129747251D01*
X169528387Y-129740138D01*
X169504001Y-129737736D01*
X169479615Y-129740138D01*
X169456166Y-129747251D01*
X169434555Y-129758802D01*
X169415613Y-129774347D01*
X169400068Y-129793289D01*
X169393767Y-129803802D01*
X169370356Y-129847600D01*
X169370355Y-129847601D01*
X169301501Y-129931501D01*
X169217600Y-130000357D01*
X169149055Y-130036995D01*
X169121879Y-130051521D01*
X169018015Y-130083027D01*
X168937067Y-130091000D01*
X168882933Y-130091000D01*
X168801985Y-130083027D01*
X168698121Y-130051521D01*
X168670945Y-130036995D01*
X168602400Y-130000357D01*
X168518499Y-129931501D01*
X168449643Y-129847600D01*
X168410489Y-129774347D01*
X168398479Y-129751879D01*
X168394612Y-129739131D01*
X168385240Y-129716504D01*
X168371626Y-129696130D01*
X168354299Y-129678803D01*
X168333925Y-129665189D01*
X168311286Y-129655812D01*
X168287253Y-129651031D01*
X168262749Y-129651031D01*
X168238715Y-129655811D01*
X168216076Y-129665188D01*
X168195702Y-129678802D01*
X168178375Y-129696129D01*
X168164761Y-129716503D01*
X168155388Y-129739131D01*
X168151521Y-129751879D01*
X168139511Y-129774347D01*
X168100357Y-129847600D01*
X168031501Y-129931501D01*
X167947600Y-130000357D01*
X167879055Y-130036995D01*
X167851879Y-130051521D01*
X167748015Y-130083027D01*
X167667067Y-130091000D01*
X167612933Y-130091000D01*
X167531985Y-130083027D01*
X167428121Y-130051521D01*
X167400945Y-130036995D01*
X167332400Y-130000357D01*
X167248499Y-129931501D01*
X167179643Y-129847600D01*
X167140489Y-129774347D01*
X167128479Y-129751879D01*
X167124612Y-129739131D01*
X167115240Y-129716504D01*
X167101626Y-129696130D01*
X167084299Y-129678803D01*
X167063925Y-129665189D01*
X167041286Y-129655812D01*
X167017253Y-129651031D01*
X166992749Y-129651031D01*
X166968715Y-129655811D01*
X166946076Y-129665188D01*
X166925702Y-129678802D01*
X166908375Y-129696129D01*
X166894761Y-129716503D01*
X166885388Y-129739131D01*
X166881521Y-129751879D01*
X166869511Y-129774347D01*
X166830357Y-129847600D01*
X166761501Y-129931501D01*
X166677600Y-130000357D01*
X166609055Y-130036995D01*
X166581879Y-130051521D01*
X166478015Y-130083027D01*
X166397067Y-130091000D01*
X166342933Y-130091000D01*
X166261985Y-130083027D01*
X166158121Y-130051521D01*
X166130945Y-130036995D01*
X166062400Y-130000357D01*
X165978499Y-129931501D01*
X165909643Y-129847600D01*
X165870489Y-129774347D01*
X165858479Y-129751879D01*
X165854612Y-129739131D01*
X165845240Y-129716504D01*
X165831626Y-129696130D01*
X165814299Y-129678803D01*
X165793925Y-129665189D01*
X165771286Y-129655812D01*
X165747253Y-129651031D01*
X165722749Y-129651031D01*
X165698715Y-129655811D01*
X165676076Y-129665188D01*
X165655702Y-129678802D01*
X165638375Y-129696129D01*
X165624761Y-129716503D01*
X165615388Y-129739131D01*
X165611521Y-129751879D01*
X165599511Y-129774347D01*
X165560357Y-129847600D01*
X165491501Y-129931501D01*
X165407600Y-130000357D01*
X165339055Y-130036995D01*
X165311879Y-130051521D01*
X165208015Y-130083027D01*
X165127067Y-130091000D01*
X165072933Y-130091000D01*
X164991985Y-130083027D01*
X164888121Y-130051521D01*
X164860945Y-130036995D01*
X164792400Y-130000357D01*
X164708499Y-129931501D01*
X164639643Y-129847600D01*
X164600489Y-129774347D01*
X164588479Y-129751879D01*
X164584612Y-129739131D01*
X164575240Y-129716504D01*
X164561626Y-129696130D01*
X164544299Y-129678803D01*
X164523925Y-129665189D01*
X164501286Y-129655812D01*
X164477253Y-129651031D01*
X164452749Y-129651031D01*
X164428715Y-129655811D01*
X164406076Y-129665188D01*
X164385702Y-129678802D01*
X164368375Y-129696129D01*
X164354761Y-129716503D01*
X164345388Y-129739131D01*
X164341521Y-129751879D01*
X164329511Y-129774347D01*
X164290357Y-129847600D01*
X164221501Y-129931501D01*
X164137600Y-130000357D01*
X164069055Y-130036995D01*
X164041879Y-130051521D01*
X163938015Y-130083027D01*
X163857067Y-130091000D01*
X163802933Y-130091000D01*
X163721985Y-130083027D01*
X163618121Y-130051521D01*
X163590945Y-130036995D01*
X163522400Y-130000357D01*
X163438499Y-129931501D01*
X163369643Y-129847600D01*
X163330489Y-129774347D01*
X163318479Y-129751879D01*
X163314612Y-129739131D01*
X163305240Y-129716504D01*
X163291626Y-129696130D01*
X163274299Y-129678803D01*
X163253925Y-129665189D01*
X163231286Y-129655812D01*
X163207253Y-129651031D01*
X163182749Y-129651031D01*
X163158715Y-129655811D01*
X163136076Y-129665188D01*
X163115702Y-129678802D01*
X163098375Y-129696129D01*
X163084761Y-129716503D01*
X163075388Y-129739131D01*
X163071521Y-129751879D01*
X163059511Y-129774347D01*
X163020357Y-129847600D01*
X162951501Y-129931501D01*
X162867600Y-130000357D01*
X162799055Y-130036995D01*
X162771879Y-130051521D01*
X162668015Y-130083027D01*
X162587067Y-130091000D01*
X162532933Y-130091000D01*
X162451985Y-130083027D01*
X162348121Y-130051521D01*
X162320945Y-130036995D01*
X162252400Y-130000357D01*
X162168499Y-129931501D01*
X162099643Y-129847600D01*
X162060489Y-129774347D01*
X162048479Y-129751879D01*
X162044612Y-129739131D01*
X162035240Y-129716504D01*
X162021626Y-129696130D01*
X162004299Y-129678803D01*
X161983925Y-129665189D01*
X161961286Y-129655812D01*
X161937253Y-129651031D01*
X161912749Y-129651031D01*
X161888715Y-129655811D01*
X161866076Y-129665188D01*
X161845702Y-129678802D01*
X161828375Y-129696129D01*
X161814761Y-129716503D01*
X161805388Y-129739131D01*
X161801521Y-129751879D01*
X161789511Y-129774347D01*
X161750357Y-129847600D01*
X161681501Y-129931501D01*
X161597600Y-130000357D01*
X161529055Y-130036995D01*
X161501879Y-130051521D01*
X161398015Y-130083027D01*
X161317067Y-130091000D01*
X161262933Y-130091000D01*
X161181985Y-130083027D01*
X161078121Y-130051521D01*
X161050945Y-130036995D01*
X160982400Y-130000357D01*
X160898499Y-129931501D01*
X160829643Y-129847600D01*
X160790489Y-129774347D01*
X160778479Y-129751879D01*
X160746973Y-129648015D01*
X160736334Y-129540000D01*
X160746973Y-129431985D01*
X160778479Y-129328121D01*
X160818338Y-129253551D01*
X160829643Y-129232400D01*
X160898499Y-129148499D01*
X160982400Y-129079643D01*
X161050945Y-129043005D01*
X161078121Y-129028479D01*
X161181985Y-128996973D01*
X161262933Y-128989000D01*
X161317067Y-128989000D01*
X161398015Y-128996973D01*
X161398015Y-128996973D01*
G37*
G36*
X123298015Y-128996973D02*
G01*
X123401879Y-129028479D01*
X123429055Y-129043005D01*
X123497600Y-129079643D01*
X123581501Y-129148499D01*
X123650357Y-129232400D01*
X123661662Y-129253551D01*
X123701521Y-129328121D01*
X123705388Y-129340869D01*
X123714760Y-129363496D01*
X123728374Y-129383870D01*
X123745701Y-129401197D01*
X123766075Y-129414811D01*
X123788714Y-129424188D01*
X123812747Y-129428969D01*
X123837251Y-129428969D01*
X123861285Y-129424189D01*
X123883924Y-129414812D01*
X123904298Y-129401198D01*
X123921625Y-129383871D01*
X123935239Y-129363497D01*
X123944612Y-129340869D01*
X123948479Y-129328121D01*
X123988338Y-129253551D01*
X123999643Y-129232400D01*
X124068499Y-129148499D01*
X124152400Y-129079643D01*
X124220945Y-129043005D01*
X124248121Y-129028479D01*
X124351985Y-128996973D01*
X124432933Y-128989000D01*
X124487067Y-128989000D01*
X124568015Y-128996973D01*
X124671879Y-129028479D01*
X124699055Y-129043005D01*
X124767600Y-129079643D01*
X124851501Y-129148499D01*
X124920357Y-129232400D01*
X124931662Y-129253551D01*
X124971521Y-129328121D01*
X124975388Y-129340869D01*
X124984760Y-129363496D01*
X124998374Y-129383870D01*
X125015701Y-129401197D01*
X125036075Y-129414811D01*
X125058714Y-129424188D01*
X125082747Y-129428969D01*
X125107251Y-129428969D01*
X125131285Y-129424189D01*
X125153924Y-129414812D01*
X125174298Y-129401198D01*
X125191625Y-129383871D01*
X125205239Y-129363497D01*
X125214612Y-129340869D01*
X125218479Y-129328121D01*
X125258338Y-129253551D01*
X125269643Y-129232400D01*
X125338499Y-129148499D01*
X125422400Y-129079643D01*
X125490945Y-129043005D01*
X125518121Y-129028479D01*
X125621985Y-128996973D01*
X125702933Y-128989000D01*
X125757067Y-128989000D01*
X125838015Y-128996973D01*
X125941879Y-129028479D01*
X125969055Y-129043005D01*
X126037600Y-129079643D01*
X126121501Y-129148499D01*
X126190357Y-129232400D01*
X126201662Y-129253551D01*
X126241521Y-129328121D01*
X126245388Y-129340869D01*
X126254760Y-129363496D01*
X126268374Y-129383870D01*
X126285701Y-129401197D01*
X126306075Y-129414811D01*
X126328714Y-129424188D01*
X126352747Y-129428969D01*
X126377251Y-129428969D01*
X126401285Y-129424189D01*
X126423924Y-129414812D01*
X126444298Y-129401198D01*
X126461625Y-129383871D01*
X126475239Y-129363497D01*
X126484612Y-129340869D01*
X126488479Y-129328121D01*
X126528338Y-129253551D01*
X126539643Y-129232400D01*
X126608499Y-129148499D01*
X126692400Y-129079643D01*
X126760945Y-129043005D01*
X126788121Y-129028479D01*
X126891985Y-128996973D01*
X126972933Y-128989000D01*
X127027067Y-128989000D01*
X127108015Y-128996973D01*
X127211879Y-129028479D01*
X127239055Y-129043005D01*
X127307600Y-129079643D01*
X127391501Y-129148499D01*
X127460357Y-129232400D01*
X127471662Y-129253551D01*
X127511521Y-129328121D01*
X127515388Y-129340869D01*
X127524760Y-129363496D01*
X127538374Y-129383870D01*
X127555701Y-129401197D01*
X127576075Y-129414811D01*
X127598714Y-129424188D01*
X127622747Y-129428969D01*
X127647251Y-129428969D01*
X127671285Y-129424189D01*
X127693924Y-129414812D01*
X127714298Y-129401198D01*
X127731625Y-129383871D01*
X127745239Y-129363497D01*
X127754612Y-129340869D01*
X127758479Y-129328121D01*
X127798338Y-129253551D01*
X127809643Y-129232400D01*
X127878499Y-129148499D01*
X127962400Y-129079643D01*
X128030945Y-129043005D01*
X128058121Y-129028479D01*
X128161985Y-128996973D01*
X128242933Y-128989000D01*
X128297067Y-128989000D01*
X128378015Y-128996973D01*
X128481879Y-129028479D01*
X128509055Y-129043005D01*
X128577600Y-129079643D01*
X128661501Y-129148499D01*
X128730357Y-129232400D01*
X128741662Y-129253551D01*
X128781521Y-129328121D01*
X128785388Y-129340869D01*
X128794760Y-129363496D01*
X128808374Y-129383870D01*
X128825701Y-129401197D01*
X128846075Y-129414811D01*
X128868714Y-129424188D01*
X128892747Y-129428969D01*
X128917251Y-129428969D01*
X128941285Y-129424189D01*
X128963924Y-129414812D01*
X128984298Y-129401198D01*
X129001625Y-129383871D01*
X129015239Y-129363497D01*
X129024612Y-129340869D01*
X129028479Y-129328121D01*
X129068338Y-129253551D01*
X129079643Y-129232400D01*
X129148499Y-129148499D01*
X129232400Y-129079643D01*
X129300945Y-129043005D01*
X129328121Y-129028479D01*
X129431985Y-128996973D01*
X129512933Y-128989000D01*
X129567067Y-128989000D01*
X129648015Y-128996973D01*
X129751879Y-129028479D01*
X129779055Y-129043005D01*
X129847600Y-129079643D01*
X129931501Y-129148499D01*
X130000357Y-129232400D01*
X130011662Y-129253551D01*
X130051521Y-129328121D01*
X130055388Y-129340869D01*
X130064760Y-129363496D01*
X130078374Y-129383870D01*
X130095701Y-129401197D01*
X130116075Y-129414811D01*
X130138714Y-129424188D01*
X130162747Y-129428969D01*
X130187251Y-129428969D01*
X130211285Y-129424189D01*
X130233924Y-129414812D01*
X130254298Y-129401198D01*
X130271625Y-129383871D01*
X130285239Y-129363497D01*
X130294612Y-129340869D01*
X130298479Y-129328121D01*
X130338338Y-129253551D01*
X130349643Y-129232400D01*
X130418499Y-129148499D01*
X130502400Y-129079643D01*
X130570945Y-129043005D01*
X130598121Y-129028479D01*
X130701985Y-128996973D01*
X130782933Y-128989000D01*
X130837067Y-128989000D01*
X130918015Y-128996973D01*
X131021879Y-129028479D01*
X131049055Y-129043005D01*
X131117600Y-129079643D01*
X131201501Y-129148499D01*
X131270356Y-129232400D01*
X131293764Y-129276193D01*
X131307375Y-129296563D01*
X131324702Y-129313890D01*
X131345076Y-129327504D01*
X131367715Y-129336881D01*
X131391748Y-129341662D01*
X131416252Y-129341662D01*
X131440286Y-129336882D01*
X131462924Y-129327505D01*
X131483299Y-129313891D01*
X131500626Y-129296564D01*
X131514240Y-129276190D01*
X131523617Y-129253551D01*
X131528398Y-129229518D01*
X131529000Y-129217265D01*
X131529000Y-128989000D01*
X132631000Y-128989000D01*
X132631000Y-130091000D01*
X131529000Y-130091000D01*
X131529000Y-129862735D01*
X131526598Y-129838349D01*
X131519485Y-129814900D01*
X131507934Y-129793289D01*
X131492389Y-129774347D01*
X131473447Y-129758802D01*
X131451836Y-129747251D01*
X131428387Y-129740138D01*
X131404001Y-129737736D01*
X131379615Y-129740138D01*
X131356166Y-129747251D01*
X131334555Y-129758802D01*
X131315613Y-129774347D01*
X131300068Y-129793289D01*
X131293767Y-129803802D01*
X131270356Y-129847600D01*
X131270355Y-129847601D01*
X131201501Y-129931501D01*
X131117600Y-130000357D01*
X131049055Y-130036995D01*
X131021879Y-130051521D01*
X130918015Y-130083027D01*
X130837067Y-130091000D01*
X130782933Y-130091000D01*
X130701985Y-130083027D01*
X130598121Y-130051521D01*
X130570945Y-130036995D01*
X130502400Y-130000357D01*
X130418499Y-129931501D01*
X130349643Y-129847600D01*
X130310489Y-129774347D01*
X130298479Y-129751879D01*
X130294612Y-129739131D01*
X130285240Y-129716504D01*
X130271626Y-129696130D01*
X130254299Y-129678803D01*
X130233925Y-129665189D01*
X130211286Y-129655812D01*
X130187253Y-129651031D01*
X130162749Y-129651031D01*
X130138715Y-129655811D01*
X130116076Y-129665188D01*
X130095702Y-129678802D01*
X130078375Y-129696129D01*
X130064761Y-129716503D01*
X130055388Y-129739131D01*
X130051521Y-129751879D01*
X130039511Y-129774347D01*
X130000357Y-129847600D01*
X129931501Y-129931501D01*
X129847600Y-130000357D01*
X129779055Y-130036995D01*
X129751879Y-130051521D01*
X129648015Y-130083027D01*
X129567067Y-130091000D01*
X129512933Y-130091000D01*
X129431985Y-130083027D01*
X129328121Y-130051521D01*
X129300945Y-130036995D01*
X129232400Y-130000357D01*
X129148499Y-129931501D01*
X129079643Y-129847600D01*
X129040489Y-129774347D01*
X129028479Y-129751879D01*
X129024612Y-129739131D01*
X129015240Y-129716504D01*
X129001626Y-129696130D01*
X128984299Y-129678803D01*
X128963925Y-129665189D01*
X128941286Y-129655812D01*
X128917253Y-129651031D01*
X128892749Y-129651031D01*
X128868715Y-129655811D01*
X128846076Y-129665188D01*
X128825702Y-129678802D01*
X128808375Y-129696129D01*
X128794761Y-129716503D01*
X128785388Y-129739131D01*
X128781521Y-129751879D01*
X128769511Y-129774347D01*
X128730357Y-129847600D01*
X128661501Y-129931501D01*
X128577600Y-130000357D01*
X128509055Y-130036995D01*
X128481879Y-130051521D01*
X128378015Y-130083027D01*
X128297067Y-130091000D01*
X128242933Y-130091000D01*
X128161985Y-130083027D01*
X128058121Y-130051521D01*
X128030945Y-130036995D01*
X127962400Y-130000357D01*
X127878499Y-129931501D01*
X127809643Y-129847600D01*
X127770489Y-129774347D01*
X127758479Y-129751879D01*
X127754612Y-129739131D01*
X127745240Y-129716504D01*
X127731626Y-129696130D01*
X127714299Y-129678803D01*
X127693925Y-129665189D01*
X127671286Y-129655812D01*
X127647253Y-129651031D01*
X127622749Y-129651031D01*
X127598715Y-129655811D01*
X127576076Y-129665188D01*
X127555702Y-129678802D01*
X127538375Y-129696129D01*
X127524761Y-129716503D01*
X127515388Y-129739131D01*
X127511521Y-129751879D01*
X127499511Y-129774347D01*
X127460357Y-129847600D01*
X127391501Y-129931501D01*
X127307600Y-130000357D01*
X127239055Y-130036995D01*
X127211879Y-130051521D01*
X127108015Y-130083027D01*
X127027067Y-130091000D01*
X126972933Y-130091000D01*
X126891985Y-130083027D01*
X126788121Y-130051521D01*
X126760945Y-130036995D01*
X126692400Y-130000357D01*
X126608499Y-129931501D01*
X126539643Y-129847600D01*
X126500489Y-129774347D01*
X126488479Y-129751879D01*
X126484612Y-129739131D01*
X126475240Y-129716504D01*
X126461626Y-129696130D01*
X126444299Y-129678803D01*
X126423925Y-129665189D01*
X126401286Y-129655812D01*
X126377253Y-129651031D01*
X126352749Y-129651031D01*
X126328715Y-129655811D01*
X126306076Y-129665188D01*
X126285702Y-129678802D01*
X126268375Y-129696129D01*
X126254761Y-129716503D01*
X126245388Y-129739131D01*
X126241521Y-129751879D01*
X126229511Y-129774347D01*
X126190357Y-129847600D01*
X126121501Y-129931501D01*
X126037600Y-130000357D01*
X125969055Y-130036995D01*
X125941879Y-130051521D01*
X125838015Y-130083027D01*
X125757067Y-130091000D01*
X125702933Y-130091000D01*
X125621985Y-130083027D01*
X125518121Y-130051521D01*
X125490945Y-130036995D01*
X125422400Y-130000357D01*
X125338499Y-129931501D01*
X125269643Y-129847600D01*
X125230489Y-129774347D01*
X125218479Y-129751879D01*
X125214612Y-129739131D01*
X125205240Y-129716504D01*
X125191626Y-129696130D01*
X125174299Y-129678803D01*
X125153925Y-129665189D01*
X125131286Y-129655812D01*
X125107253Y-129651031D01*
X125082749Y-129651031D01*
X125058715Y-129655811D01*
X125036076Y-129665188D01*
X125015702Y-129678802D01*
X124998375Y-129696129D01*
X124984761Y-129716503D01*
X124975388Y-129739131D01*
X124971521Y-129751879D01*
X124959511Y-129774347D01*
X124920357Y-129847600D01*
X124851501Y-129931501D01*
X124767600Y-130000357D01*
X124699055Y-130036995D01*
X124671879Y-130051521D01*
X124568015Y-130083027D01*
X124487067Y-130091000D01*
X124432933Y-130091000D01*
X124351985Y-130083027D01*
X124248121Y-130051521D01*
X124220945Y-130036995D01*
X124152400Y-130000357D01*
X124068499Y-129931501D01*
X123999643Y-129847600D01*
X123960489Y-129774347D01*
X123948479Y-129751879D01*
X123944612Y-129739131D01*
X123935240Y-129716504D01*
X123921626Y-129696130D01*
X123904299Y-129678803D01*
X123883925Y-129665189D01*
X123861286Y-129655812D01*
X123837253Y-129651031D01*
X123812749Y-129651031D01*
X123788715Y-129655811D01*
X123766076Y-129665188D01*
X123745702Y-129678802D01*
X123728375Y-129696129D01*
X123714761Y-129716503D01*
X123705388Y-129739131D01*
X123701521Y-129751879D01*
X123689511Y-129774347D01*
X123650357Y-129847600D01*
X123581501Y-129931501D01*
X123497600Y-130000357D01*
X123429055Y-130036995D01*
X123401879Y-130051521D01*
X123298015Y-130083027D01*
X123217067Y-130091000D01*
X123162933Y-130091000D01*
X123081985Y-130083027D01*
X122978121Y-130051521D01*
X122950945Y-130036995D01*
X122882400Y-130000357D01*
X122798499Y-129931501D01*
X122729643Y-129847600D01*
X122690489Y-129774347D01*
X122678479Y-129751879D01*
X122646973Y-129648015D01*
X122636334Y-129540000D01*
X122646973Y-129431985D01*
X122678479Y-129328121D01*
X122718338Y-129253551D01*
X122729643Y-129232400D01*
X122798499Y-129148499D01*
X122882400Y-129079643D01*
X122950945Y-129043005D01*
X122978121Y-129028479D01*
X123081985Y-128996973D01*
X123162933Y-128989000D01*
X123217067Y-128989000D01*
X123298015Y-128996973D01*
X123298015Y-128996973D01*
G37*
G36*
X148838228Y-122371703D02*
G01*
X148993100Y-122435853D01*
X149132481Y-122528985D01*
X149251015Y-122647519D01*
X149344147Y-122786900D01*
X149408297Y-122941772D01*
X149441000Y-123106184D01*
X149441000Y-123273816D01*
X149408297Y-123438228D01*
X149344147Y-123593100D01*
X149251015Y-123732481D01*
X149132481Y-123851015D01*
X148993100Y-123944147D01*
X148838228Y-124008297D01*
X148673816Y-124041000D01*
X148506184Y-124041000D01*
X148341772Y-124008297D01*
X148186900Y-123944147D01*
X148047519Y-123851015D01*
X147928985Y-123732481D01*
X147835853Y-123593100D01*
X147771703Y-123438228D01*
X147739000Y-123273816D01*
X147739000Y-123106184D01*
X147771703Y-122941772D01*
X147835853Y-122786900D01*
X147928985Y-122647519D01*
X148047519Y-122528985D01*
X148186900Y-122435853D01*
X148341772Y-122371703D01*
X148506184Y-122339000D01*
X148673816Y-122339000D01*
X148838228Y-122371703D01*
X148838228Y-122371703D01*
G37*
G36*
X171616823Y-119811313D02*
G01*
X171777242Y-119859976D01*
X171909906Y-119930886D01*
X171925078Y-119938996D01*
X172054659Y-120045341D01*
X172161004Y-120174922D01*
X172161005Y-120174924D01*
X172240024Y-120322758D01*
X172288687Y-120483177D01*
X172305117Y-120650000D01*
X172288687Y-120816823D01*
X172240024Y-120977242D01*
X172169114Y-121109906D01*
X172161004Y-121125078D01*
X172054659Y-121254659D01*
X171925078Y-121361004D01*
X171925076Y-121361005D01*
X171777242Y-121440024D01*
X171616823Y-121488687D01*
X171491804Y-121501000D01*
X171408196Y-121501000D01*
X171283177Y-121488687D01*
X171122758Y-121440024D01*
X170974924Y-121361005D01*
X170974922Y-121361004D01*
X170845341Y-121254659D01*
X170738996Y-121125078D01*
X170730886Y-121109906D01*
X170659976Y-120977242D01*
X170611313Y-120816823D01*
X170594883Y-120650000D01*
X170611313Y-120483177D01*
X170659976Y-120322758D01*
X170738995Y-120174924D01*
X170738996Y-120174922D01*
X170845341Y-120045341D01*
X170974922Y-119938996D01*
X170990094Y-119930886D01*
X171122758Y-119859976D01*
X171283177Y-119811313D01*
X171408196Y-119799000D01*
X171491804Y-119799000D01*
X171616823Y-119811313D01*
X171616823Y-119811313D01*
G37*
G36*
X174841000Y-121501000D02*
G01*
X173139000Y-121501000D01*
X173139000Y-119799000D01*
X174841000Y-119799000D01*
X174841000Y-121501000D01*
X174841000Y-121501000D01*
G37*
G36*
X169076823Y-119811313D02*
G01*
X169237242Y-119859976D01*
X169369906Y-119930886D01*
X169385078Y-119938996D01*
X169514659Y-120045341D01*
X169621004Y-120174922D01*
X169621005Y-120174924D01*
X169700024Y-120322758D01*
X169748687Y-120483177D01*
X169765117Y-120650000D01*
X169748687Y-120816823D01*
X169700024Y-120977242D01*
X169629114Y-121109906D01*
X169621004Y-121125078D01*
X169514659Y-121254659D01*
X169385078Y-121361004D01*
X169385076Y-121361005D01*
X169237242Y-121440024D01*
X169076823Y-121488687D01*
X168951804Y-121501000D01*
X168868196Y-121501000D01*
X168743177Y-121488687D01*
X168582758Y-121440024D01*
X168434924Y-121361005D01*
X168434922Y-121361004D01*
X168305341Y-121254659D01*
X168198996Y-121125078D01*
X168190886Y-121109906D01*
X168119976Y-120977242D01*
X168071313Y-120816823D01*
X168054883Y-120650000D01*
X168071313Y-120483177D01*
X168119976Y-120322758D01*
X168198995Y-120174924D01*
X168198996Y-120174922D01*
X168305341Y-120045341D01*
X168434922Y-119938996D01*
X168450094Y-119930886D01*
X168582758Y-119859976D01*
X168743177Y-119811313D01*
X168868196Y-119799000D01*
X168951804Y-119799000D01*
X169076823Y-119811313D01*
X169076823Y-119811313D01*
G37*
G36*
X161456823Y-119811313D02*
G01*
X161617242Y-119859976D01*
X161749906Y-119930886D01*
X161765078Y-119938996D01*
X161894659Y-120045341D01*
X162001004Y-120174922D01*
X162001005Y-120174924D01*
X162080024Y-120322758D01*
X162128687Y-120483177D01*
X162145117Y-120650000D01*
X162128687Y-120816823D01*
X162080024Y-120977242D01*
X162009114Y-121109906D01*
X162001004Y-121125078D01*
X161894659Y-121254659D01*
X161765078Y-121361004D01*
X161765076Y-121361005D01*
X161617242Y-121440024D01*
X161456823Y-121488687D01*
X161331804Y-121501000D01*
X161248196Y-121501000D01*
X161123177Y-121488687D01*
X160962758Y-121440024D01*
X160814924Y-121361005D01*
X160814922Y-121361004D01*
X160685341Y-121254659D01*
X160578996Y-121125078D01*
X160570886Y-121109906D01*
X160499976Y-120977242D01*
X160451313Y-120816823D01*
X160434883Y-120650000D01*
X160451313Y-120483177D01*
X160499976Y-120322758D01*
X160578995Y-120174924D01*
X160578996Y-120174922D01*
X160685341Y-120045341D01*
X160814922Y-119938996D01*
X160830094Y-119930886D01*
X160962758Y-119859976D01*
X161123177Y-119811313D01*
X161248196Y-119799000D01*
X161331804Y-119799000D01*
X161456823Y-119811313D01*
X161456823Y-119811313D01*
G37*
G36*
X166536823Y-119811313D02*
G01*
X166697242Y-119859976D01*
X166829906Y-119930886D01*
X166845078Y-119938996D01*
X166974659Y-120045341D01*
X167081004Y-120174922D01*
X167081005Y-120174924D01*
X167160024Y-120322758D01*
X167208687Y-120483177D01*
X167225117Y-120650000D01*
X167208687Y-120816823D01*
X167160024Y-120977242D01*
X167089114Y-121109906D01*
X167081004Y-121125078D01*
X166974659Y-121254659D01*
X166845078Y-121361004D01*
X166845076Y-121361005D01*
X166697242Y-121440024D01*
X166536823Y-121488687D01*
X166411804Y-121501000D01*
X166328196Y-121501000D01*
X166203177Y-121488687D01*
X166042758Y-121440024D01*
X165894924Y-121361005D01*
X165894922Y-121361004D01*
X165765341Y-121254659D01*
X165658996Y-121125078D01*
X165650886Y-121109906D01*
X165579976Y-120977242D01*
X165531313Y-120816823D01*
X165514883Y-120650000D01*
X165531313Y-120483177D01*
X165579976Y-120322758D01*
X165658995Y-120174924D01*
X165658996Y-120174922D01*
X165765341Y-120045341D01*
X165894922Y-119938996D01*
X165910094Y-119930886D01*
X166042758Y-119859976D01*
X166203177Y-119811313D01*
X166328196Y-119799000D01*
X166411804Y-119799000D01*
X166536823Y-119811313D01*
X166536823Y-119811313D01*
G37*
G36*
X158916823Y-119811313D02*
G01*
X159077242Y-119859976D01*
X159209906Y-119930886D01*
X159225078Y-119938996D01*
X159354659Y-120045341D01*
X159461004Y-120174922D01*
X159461005Y-120174924D01*
X159540024Y-120322758D01*
X159588687Y-120483177D01*
X159605117Y-120650000D01*
X159588687Y-120816823D01*
X159540024Y-120977242D01*
X159469114Y-121109906D01*
X159461004Y-121125078D01*
X159354659Y-121254659D01*
X159225078Y-121361004D01*
X159225076Y-121361005D01*
X159077242Y-121440024D01*
X158916823Y-121488687D01*
X158791804Y-121501000D01*
X158708196Y-121501000D01*
X158583177Y-121488687D01*
X158422758Y-121440024D01*
X158274924Y-121361005D01*
X158274922Y-121361004D01*
X158145341Y-121254659D01*
X158038996Y-121125078D01*
X158030886Y-121109906D01*
X157959976Y-120977242D01*
X157911313Y-120816823D01*
X157894883Y-120650000D01*
X157911313Y-120483177D01*
X157959976Y-120322758D01*
X158038995Y-120174924D01*
X158038996Y-120174922D01*
X158145341Y-120045341D01*
X158274922Y-119938996D01*
X158290094Y-119930886D01*
X158422758Y-119859976D01*
X158583177Y-119811313D01*
X158708196Y-119799000D01*
X158791804Y-119799000D01*
X158916823Y-119811313D01*
X158916823Y-119811313D01*
G37*
G36*
X156376823Y-119811313D02*
G01*
X156537242Y-119859976D01*
X156669906Y-119930886D01*
X156685078Y-119938996D01*
X156814659Y-120045341D01*
X156921004Y-120174922D01*
X156921005Y-120174924D01*
X157000024Y-120322758D01*
X157048687Y-120483177D01*
X157065117Y-120650000D01*
X157048687Y-120816823D01*
X157000024Y-120977242D01*
X156929114Y-121109906D01*
X156921004Y-121125078D01*
X156814659Y-121254659D01*
X156685078Y-121361004D01*
X156685076Y-121361005D01*
X156537242Y-121440024D01*
X156376823Y-121488687D01*
X156251804Y-121501000D01*
X156168196Y-121501000D01*
X156043177Y-121488687D01*
X155882758Y-121440024D01*
X155734924Y-121361005D01*
X155734922Y-121361004D01*
X155605341Y-121254659D01*
X155498996Y-121125078D01*
X155490886Y-121109906D01*
X155419976Y-120977242D01*
X155371313Y-120816823D01*
X155354883Y-120650000D01*
X155371313Y-120483177D01*
X155419976Y-120322758D01*
X155498995Y-120174924D01*
X155498996Y-120174922D01*
X155605341Y-120045341D01*
X155734922Y-119938996D01*
X155750094Y-119930886D01*
X155882758Y-119859976D01*
X156043177Y-119811313D01*
X156168196Y-119799000D01*
X156251804Y-119799000D01*
X156376823Y-119811313D01*
X156376823Y-119811313D01*
G37*
G36*
X153836823Y-119811313D02*
G01*
X153997242Y-119859976D01*
X154129906Y-119930886D01*
X154145078Y-119938996D01*
X154274659Y-120045341D01*
X154381004Y-120174922D01*
X154381005Y-120174924D01*
X154460024Y-120322758D01*
X154508687Y-120483177D01*
X154525117Y-120650000D01*
X154508687Y-120816823D01*
X154460024Y-120977242D01*
X154389114Y-121109906D01*
X154381004Y-121125078D01*
X154274659Y-121254659D01*
X154145078Y-121361004D01*
X154145076Y-121361005D01*
X153997242Y-121440024D01*
X153836823Y-121488687D01*
X153711804Y-121501000D01*
X153628196Y-121501000D01*
X153503177Y-121488687D01*
X153342758Y-121440024D01*
X153194924Y-121361005D01*
X153194922Y-121361004D01*
X153065341Y-121254659D01*
X152958996Y-121125078D01*
X152950886Y-121109906D01*
X152879976Y-120977242D01*
X152831313Y-120816823D01*
X152814883Y-120650000D01*
X152831313Y-120483177D01*
X152879976Y-120322758D01*
X152958995Y-120174924D01*
X152958996Y-120174922D01*
X153065341Y-120045341D01*
X153194922Y-119938996D01*
X153210094Y-119930886D01*
X153342758Y-119859976D01*
X153503177Y-119811313D01*
X153628196Y-119799000D01*
X153711804Y-119799000D01*
X153836823Y-119811313D01*
X153836823Y-119811313D01*
G37*
G36*
X163996823Y-119811313D02*
G01*
X164157242Y-119859976D01*
X164289906Y-119930886D01*
X164305078Y-119938996D01*
X164434659Y-120045341D01*
X164541004Y-120174922D01*
X164541005Y-120174924D01*
X164620024Y-120322758D01*
X164668687Y-120483177D01*
X164685117Y-120650000D01*
X164668687Y-120816823D01*
X164620024Y-120977242D01*
X164549114Y-121109906D01*
X164541004Y-121125078D01*
X164434659Y-121254659D01*
X164305078Y-121361004D01*
X164305076Y-121361005D01*
X164157242Y-121440024D01*
X163996823Y-121488687D01*
X163871804Y-121501000D01*
X163788196Y-121501000D01*
X163663177Y-121488687D01*
X163502758Y-121440024D01*
X163354924Y-121361005D01*
X163354922Y-121361004D01*
X163225341Y-121254659D01*
X163118996Y-121125078D01*
X163110886Y-121109906D01*
X163039976Y-120977242D01*
X162991313Y-120816823D01*
X162974883Y-120650000D01*
X162991313Y-120483177D01*
X163039976Y-120322758D01*
X163118995Y-120174924D01*
X163118996Y-120174922D01*
X163225341Y-120045341D01*
X163354922Y-119938996D01*
X163370094Y-119930886D01*
X163502758Y-119859976D01*
X163663177Y-119811313D01*
X163788196Y-119799000D01*
X163871804Y-119799000D01*
X163996823Y-119811313D01*
X163996823Y-119811313D01*
G37*
G36*
X148838228Y-117371703D02*
G01*
X148993100Y-117435853D01*
X149132481Y-117528985D01*
X149251015Y-117647519D01*
X149344147Y-117786900D01*
X149408297Y-117941772D01*
X149441000Y-118106184D01*
X149441000Y-118273816D01*
X149408297Y-118438228D01*
X149344147Y-118593100D01*
X149251015Y-118732481D01*
X149132481Y-118851015D01*
X148993100Y-118944147D01*
X148838228Y-119008297D01*
X148673816Y-119041000D01*
X148506184Y-119041000D01*
X148341772Y-119008297D01*
X148186900Y-118944147D01*
X148047519Y-118851015D01*
X147928985Y-118732481D01*
X147835853Y-118593100D01*
X147771703Y-118438228D01*
X147739000Y-118273816D01*
X147739000Y-118106184D01*
X147771703Y-117941772D01*
X147835853Y-117786900D01*
X147928985Y-117647519D01*
X148047519Y-117528985D01*
X148186900Y-117435853D01*
X148341772Y-117371703D01*
X148506184Y-117339000D01*
X148673816Y-117339000D01*
X148838228Y-117371703D01*
X148838228Y-117371703D01*
G37*
G36*
X178077395Y-100685546D02*
G01*
X178250466Y-100757234D01*
X178250467Y-100757235D01*
X178406227Y-100861310D01*
X178538690Y-100993773D01*
X178538691Y-100993775D01*
X178642766Y-101149534D01*
X178714454Y-101322605D01*
X178751000Y-101506333D01*
X178751000Y-101693667D01*
X178714454Y-101877395D01*
X178642766Y-102050466D01*
X178642765Y-102050467D01*
X178538690Y-102206227D01*
X178406227Y-102338690D01*
X178327818Y-102391081D01*
X178250466Y-102442766D01*
X178077395Y-102514454D01*
X177893667Y-102551000D01*
X177706333Y-102551000D01*
X177522605Y-102514454D01*
X177349534Y-102442766D01*
X177272182Y-102391081D01*
X177193773Y-102338690D01*
X177061310Y-102206227D01*
X176957235Y-102050467D01*
X176957234Y-102050466D01*
X176885546Y-101877395D01*
X176849000Y-101693667D01*
X176849000Y-101506333D01*
X176885546Y-101322605D01*
X176957234Y-101149534D01*
X177061309Y-100993775D01*
X177061310Y-100993773D01*
X177193773Y-100861310D01*
X177349533Y-100757235D01*
X177349534Y-100757234D01*
X177522605Y-100685546D01*
X177706333Y-100649000D01*
X177893667Y-100649000D01*
X178077395Y-100685546D01*
X178077395Y-100685546D01*
G37*
G36*
X94088015Y-93436973D02*
G01*
X94191879Y-93468479D01*
X94219055Y-93483005D01*
X94287600Y-93519643D01*
X94371501Y-93588499D01*
X94440357Y-93672400D01*
X94475346Y-93737861D01*
X94491521Y-93768121D01*
X94523027Y-93871985D01*
X94533666Y-93980000D01*
X94523027Y-94088015D01*
X94491521Y-94191879D01*
X94491519Y-94191882D01*
X94440357Y-94287600D01*
X94371501Y-94371501D01*
X94287600Y-94440357D01*
X94219055Y-94476995D01*
X94191879Y-94491521D01*
X94179131Y-94495388D01*
X94156504Y-94504760D01*
X94136130Y-94518374D01*
X94118803Y-94535701D01*
X94105189Y-94556075D01*
X94095812Y-94578714D01*
X94091031Y-94602747D01*
X94091031Y-94627251D01*
X94095811Y-94651285D01*
X94105188Y-94673924D01*
X94118802Y-94694298D01*
X94136129Y-94711625D01*
X94156503Y-94725239D01*
X94179131Y-94734612D01*
X94191879Y-94738479D01*
X94219055Y-94753005D01*
X94287600Y-94789643D01*
X94371501Y-94858499D01*
X94440357Y-94942400D01*
X94476995Y-95010945D01*
X94491521Y-95038121D01*
X94523027Y-95141985D01*
X94533666Y-95250000D01*
X94523027Y-95358015D01*
X94491521Y-95461879D01*
X94491519Y-95461882D01*
X94440357Y-95557600D01*
X94371501Y-95641501D01*
X94287600Y-95710357D01*
X94219055Y-95746995D01*
X94191879Y-95761521D01*
X94179131Y-95765388D01*
X94156504Y-95774760D01*
X94136130Y-95788374D01*
X94118803Y-95805701D01*
X94105189Y-95826075D01*
X94095812Y-95848714D01*
X94091031Y-95872747D01*
X94091031Y-95897251D01*
X94095811Y-95921285D01*
X94105188Y-95943924D01*
X94118802Y-95964298D01*
X94136129Y-95981625D01*
X94156503Y-95995239D01*
X94179131Y-96004612D01*
X94191879Y-96008479D01*
X94219055Y-96023005D01*
X94287600Y-96059643D01*
X94371501Y-96128499D01*
X94440357Y-96212400D01*
X94472091Y-96271771D01*
X94491521Y-96308121D01*
X94523027Y-96411985D01*
X94533666Y-96520000D01*
X94523027Y-96628015D01*
X94491521Y-96731879D01*
X94491519Y-96731882D01*
X94440357Y-96827600D01*
X94371501Y-96911501D01*
X94287600Y-96980357D01*
X94219055Y-97016995D01*
X94191879Y-97031521D01*
X94179131Y-97035388D01*
X94156504Y-97044760D01*
X94136130Y-97058374D01*
X94118803Y-97075701D01*
X94105189Y-97096075D01*
X94095812Y-97118714D01*
X94091031Y-97142747D01*
X94091031Y-97167251D01*
X94095811Y-97191285D01*
X94105188Y-97213924D01*
X94118802Y-97234298D01*
X94136129Y-97251625D01*
X94156503Y-97265239D01*
X94179131Y-97274612D01*
X94191879Y-97278479D01*
X94219055Y-97293005D01*
X94287600Y-97329643D01*
X94371501Y-97398499D01*
X94440357Y-97482400D01*
X94476995Y-97550945D01*
X94491521Y-97578121D01*
X94523027Y-97681985D01*
X94533666Y-97790000D01*
X94523027Y-97898015D01*
X94491521Y-98001879D01*
X94491519Y-98001882D01*
X94440357Y-98097600D01*
X94371501Y-98181501D01*
X94287600Y-98250357D01*
X94229769Y-98281268D01*
X94191879Y-98301521D01*
X94179131Y-98305388D01*
X94156504Y-98314760D01*
X94136130Y-98328374D01*
X94118803Y-98345701D01*
X94105189Y-98366075D01*
X94095812Y-98388714D01*
X94091031Y-98412747D01*
X94091031Y-98437251D01*
X94095811Y-98461285D01*
X94105188Y-98483924D01*
X94118802Y-98504298D01*
X94136129Y-98521625D01*
X94156503Y-98535239D01*
X94179131Y-98544612D01*
X94191879Y-98548479D01*
X94213698Y-98560142D01*
X94287600Y-98599643D01*
X94371501Y-98668499D01*
X94440357Y-98752400D01*
X94474426Y-98816139D01*
X94491521Y-98848121D01*
X94523027Y-98951985D01*
X94533666Y-99060000D01*
X94523027Y-99168015D01*
X94491521Y-99271879D01*
X94491519Y-99271882D01*
X94440357Y-99367600D01*
X94371501Y-99451501D01*
X94287600Y-99520356D01*
X94243807Y-99543764D01*
X94223437Y-99557375D01*
X94206110Y-99574702D01*
X94192496Y-99595076D01*
X94183119Y-99617715D01*
X94178338Y-99641748D01*
X94178338Y-99666252D01*
X94183118Y-99690286D01*
X94192495Y-99712924D01*
X94206109Y-99733299D01*
X94223436Y-99750626D01*
X94243810Y-99764240D01*
X94266449Y-99773617D01*
X94290482Y-99778398D01*
X94302735Y-99779000D01*
X94531000Y-99779000D01*
X94531000Y-100881000D01*
X93429000Y-100881000D01*
X93429000Y-99779000D01*
X93657265Y-99779000D01*
X93681651Y-99776598D01*
X93705100Y-99769485D01*
X93726711Y-99757934D01*
X93745653Y-99742389D01*
X93761198Y-99723447D01*
X93772749Y-99701836D01*
X93779862Y-99678387D01*
X93782264Y-99654001D01*
X93779862Y-99629615D01*
X93772749Y-99606166D01*
X93761198Y-99584555D01*
X93745653Y-99565613D01*
X93726711Y-99550068D01*
X93716198Y-99543767D01*
X93672400Y-99520356D01*
X93588499Y-99451501D01*
X93519643Y-99367600D01*
X93468481Y-99271882D01*
X93468479Y-99271879D01*
X93436973Y-99168015D01*
X93426334Y-99060000D01*
X93436973Y-98951985D01*
X93468479Y-98848121D01*
X93485574Y-98816139D01*
X93519643Y-98752400D01*
X93588499Y-98668499D01*
X93672400Y-98599643D01*
X93746302Y-98560142D01*
X93768121Y-98548479D01*
X93780869Y-98544612D01*
X93803496Y-98535240D01*
X93823870Y-98521626D01*
X93841197Y-98504299D01*
X93854811Y-98483925D01*
X93864188Y-98461286D01*
X93868969Y-98437253D01*
X93868969Y-98412749D01*
X93864189Y-98388715D01*
X93854812Y-98366076D01*
X93841198Y-98345702D01*
X93823871Y-98328375D01*
X93803497Y-98314761D01*
X93780869Y-98305388D01*
X93768121Y-98301521D01*
X93730231Y-98281268D01*
X93672400Y-98250357D01*
X93588499Y-98181501D01*
X93519643Y-98097600D01*
X93468481Y-98001882D01*
X93468479Y-98001879D01*
X93436973Y-97898015D01*
X93426334Y-97790000D01*
X93436973Y-97681985D01*
X93468479Y-97578121D01*
X93483005Y-97550945D01*
X93519643Y-97482400D01*
X93588499Y-97398499D01*
X93672400Y-97329643D01*
X93740945Y-97293005D01*
X93768121Y-97278479D01*
X93780869Y-97274612D01*
X93803496Y-97265240D01*
X93823870Y-97251626D01*
X93841197Y-97234299D01*
X93854811Y-97213925D01*
X93864188Y-97191286D01*
X93868969Y-97167253D01*
X93868969Y-97142749D01*
X93864189Y-97118715D01*
X93854812Y-97096076D01*
X93841198Y-97075702D01*
X93823871Y-97058375D01*
X93803497Y-97044761D01*
X93780869Y-97035388D01*
X93768121Y-97031521D01*
X93740945Y-97016995D01*
X93672400Y-96980357D01*
X93588499Y-96911501D01*
X93519643Y-96827600D01*
X93468481Y-96731882D01*
X93468479Y-96731879D01*
X93436973Y-96628015D01*
X93426334Y-96520000D01*
X93436973Y-96411985D01*
X93468479Y-96308121D01*
X93487909Y-96271771D01*
X93519643Y-96212400D01*
X93588499Y-96128499D01*
X93672400Y-96059643D01*
X93740945Y-96023005D01*
X93768121Y-96008479D01*
X93780869Y-96004612D01*
X93803496Y-95995240D01*
X93823870Y-95981626D01*
X93841197Y-95964299D01*
X93854811Y-95943925D01*
X93864188Y-95921286D01*
X93868969Y-95897253D01*
X93868969Y-95872749D01*
X93864189Y-95848715D01*
X93854812Y-95826076D01*
X93841198Y-95805702D01*
X93823871Y-95788375D01*
X93803497Y-95774761D01*
X93780869Y-95765388D01*
X93768121Y-95761521D01*
X93740945Y-95746995D01*
X93672400Y-95710357D01*
X93588499Y-95641501D01*
X93519643Y-95557600D01*
X93468481Y-95461882D01*
X93468479Y-95461879D01*
X93436973Y-95358015D01*
X93426334Y-95250000D01*
X93436973Y-95141985D01*
X93468479Y-95038121D01*
X93483005Y-95010945D01*
X93519643Y-94942400D01*
X93588499Y-94858499D01*
X93672400Y-94789643D01*
X93740945Y-94753005D01*
X93768121Y-94738479D01*
X93780869Y-94734612D01*
X93803496Y-94725240D01*
X93823870Y-94711626D01*
X93841197Y-94694299D01*
X93854811Y-94673925D01*
X93864188Y-94651286D01*
X93868969Y-94627253D01*
X93868969Y-94602749D01*
X93864189Y-94578715D01*
X93854812Y-94556076D01*
X93841198Y-94535702D01*
X93823871Y-94518375D01*
X93803497Y-94504761D01*
X93780869Y-94495388D01*
X93768121Y-94491521D01*
X93740945Y-94476995D01*
X93672400Y-94440357D01*
X93588499Y-94371501D01*
X93519643Y-94287600D01*
X93468481Y-94191882D01*
X93468479Y-94191879D01*
X93436973Y-94088015D01*
X93426334Y-93980000D01*
X93436973Y-93871985D01*
X93468479Y-93768121D01*
X93484654Y-93737861D01*
X93519643Y-93672400D01*
X93588499Y-93588499D01*
X93672400Y-93519643D01*
X93740945Y-93483005D01*
X93768121Y-93468479D01*
X93871985Y-93436973D01*
X93952933Y-93429000D01*
X94007067Y-93429000D01*
X94088015Y-93436973D01*
X94088015Y-93436973D01*
G37*
G36*
X183157395Y-98145546D02*
G01*
X183330466Y-98217234D01*
X183330467Y-98217235D01*
X183486227Y-98321310D01*
X183618690Y-98453773D01*
X183652450Y-98504299D01*
X183722766Y-98609534D01*
X183794454Y-98782605D01*
X183831000Y-98966333D01*
X183831000Y-99153667D01*
X183794454Y-99337395D01*
X183722766Y-99510466D01*
X183700519Y-99543761D01*
X183618690Y-99666227D01*
X183486227Y-99798690D01*
X183413309Y-99847412D01*
X183330466Y-99902766D01*
X183157395Y-99974454D01*
X182973667Y-100011000D01*
X182786333Y-100011000D01*
X182602605Y-99974454D01*
X182429534Y-99902766D01*
X182346691Y-99847412D01*
X182273773Y-99798690D01*
X182141310Y-99666227D01*
X182059481Y-99543761D01*
X182037234Y-99510466D01*
X181965546Y-99337395D01*
X181929000Y-99153667D01*
X181929000Y-98966333D01*
X181965546Y-98782605D01*
X182037234Y-98609534D01*
X182107550Y-98504299D01*
X182141310Y-98453773D01*
X182273773Y-98321310D01*
X182429533Y-98217235D01*
X182429534Y-98217234D01*
X182602605Y-98145546D01*
X182786333Y-98109000D01*
X182973667Y-98109000D01*
X183157395Y-98145546D01*
X183157395Y-98145546D01*
G37*
G36*
X170457395Y-98145546D02*
G01*
X170630466Y-98217234D01*
X170630467Y-98217235D01*
X170786227Y-98321310D01*
X170918690Y-98453773D01*
X170952450Y-98504299D01*
X171022766Y-98609534D01*
X171094454Y-98782605D01*
X171131000Y-98966333D01*
X171131000Y-99153667D01*
X171094454Y-99337395D01*
X171022766Y-99510466D01*
X171000519Y-99543761D01*
X170918690Y-99666227D01*
X170786227Y-99798690D01*
X170713309Y-99847412D01*
X170630466Y-99902766D01*
X170457395Y-99974454D01*
X170273667Y-100011000D01*
X170086333Y-100011000D01*
X169902605Y-99974454D01*
X169729534Y-99902766D01*
X169646691Y-99847412D01*
X169573773Y-99798690D01*
X169441310Y-99666227D01*
X169359481Y-99543761D01*
X169337234Y-99510466D01*
X169265546Y-99337395D01*
X169229000Y-99153667D01*
X169229000Y-98966333D01*
X169265546Y-98782605D01*
X169337234Y-98609534D01*
X169407550Y-98504299D01*
X169441310Y-98453773D01*
X169573773Y-98321310D01*
X169729533Y-98217235D01*
X169729534Y-98217234D01*
X169902605Y-98145546D01*
X170086333Y-98109000D01*
X170273667Y-98109000D01*
X170457395Y-98145546D01*
X170457395Y-98145546D01*
G37*
G36*
X154199999Y-98259737D02*
G01*
X154214528Y-98264145D01*
X154227711Y-98269606D01*
X154251745Y-98274388D01*
X154276249Y-98274389D01*
X154300282Y-98269609D01*
X154322921Y-98260232D01*
X154324765Y-98259000D01*
X155556050Y-98259000D01*
X155568164Y-98265475D01*
X155591613Y-98272588D01*
X155615999Y-98274990D01*
X155640385Y-98272588D01*
X155663834Y-98265475D01*
X155668746Y-98263152D01*
X155680001Y-98259737D01*
X155696140Y-98258148D01*
X156233861Y-98258148D01*
X156252199Y-98259954D01*
X156264450Y-98260556D01*
X156282869Y-98260556D01*
X156305149Y-98262750D01*
X156389233Y-98279476D01*
X156410660Y-98285976D01*
X156489858Y-98318780D01*
X156495303Y-98321691D01*
X156495309Y-98321693D01*
X156504169Y-98326429D01*
X156504173Y-98326432D01*
X156509614Y-98329340D01*
X156580899Y-98376971D01*
X156598204Y-98391172D01*
X156658828Y-98451796D01*
X156673029Y-98469101D01*
X156720660Y-98540386D01*
X156723568Y-98545827D01*
X156723571Y-98545831D01*
X156728307Y-98554691D01*
X156728309Y-98554697D01*
X156731220Y-98560142D01*
X156764024Y-98639340D01*
X156770524Y-98660767D01*
X156787250Y-98744851D01*
X156789444Y-98767131D01*
X156789444Y-98785550D01*
X156790046Y-98797801D01*
X156791852Y-98816139D01*
X156791852Y-99303862D01*
X156790046Y-99322199D01*
X156789444Y-99334450D01*
X156789444Y-99352869D01*
X156787250Y-99375149D01*
X156770524Y-99459233D01*
X156764024Y-99480660D01*
X156731220Y-99559858D01*
X156728309Y-99565303D01*
X156728307Y-99565309D01*
X156723571Y-99574169D01*
X156723568Y-99574173D01*
X156720660Y-99579614D01*
X156673029Y-99650899D01*
X156658828Y-99668204D01*
X156598204Y-99728828D01*
X156580899Y-99743029D01*
X156509614Y-99790660D01*
X156504173Y-99793568D01*
X156504169Y-99793571D01*
X156495309Y-99798307D01*
X156495303Y-99798309D01*
X156489858Y-99801220D01*
X156410660Y-99834024D01*
X156389233Y-99840524D01*
X156305149Y-99857250D01*
X156282869Y-99859444D01*
X156264450Y-99859444D01*
X156252199Y-99860046D01*
X156233862Y-99861852D01*
X155696140Y-99861852D01*
X155680001Y-99860263D01*
X155665472Y-99855855D01*
X155652289Y-99850394D01*
X155628255Y-99845612D01*
X155603751Y-99845611D01*
X155579718Y-99850391D01*
X155557079Y-99859768D01*
X155555235Y-99861000D01*
X154323950Y-99861000D01*
X154311836Y-99854525D01*
X154288387Y-99847412D01*
X154264001Y-99845010D01*
X154239615Y-99847412D01*
X154216166Y-99854525D01*
X154211254Y-99856848D01*
X154199999Y-99860263D01*
X154183860Y-99861852D01*
X153646138Y-99861852D01*
X153627801Y-99860046D01*
X153615550Y-99859444D01*
X153597131Y-99859444D01*
X153574851Y-99857250D01*
X153490767Y-99840524D01*
X153469340Y-99834024D01*
X153390142Y-99801220D01*
X153384697Y-99798309D01*
X153384691Y-99798307D01*
X153375831Y-99793571D01*
X153375827Y-99793568D01*
X153370386Y-99790660D01*
X153299101Y-99743029D01*
X153281796Y-99728828D01*
X153221172Y-99668204D01*
X153206971Y-99650899D01*
X153159340Y-99579614D01*
X153156432Y-99574173D01*
X153156429Y-99574169D01*
X153151693Y-99565309D01*
X153151691Y-99565303D01*
X153148780Y-99559858D01*
X153115976Y-99480660D01*
X153109476Y-99459233D01*
X153092750Y-99375149D01*
X153090556Y-99352869D01*
X153090556Y-99334450D01*
X153089954Y-99322199D01*
X153088148Y-99303862D01*
X153088148Y-98816139D01*
X153089954Y-98797801D01*
X153090556Y-98785550D01*
X153090556Y-98767131D01*
X153092750Y-98744851D01*
X153109476Y-98660767D01*
X153115976Y-98639340D01*
X153148780Y-98560142D01*
X153151691Y-98554697D01*
X153151693Y-98554691D01*
X153156429Y-98545831D01*
X153156432Y-98545827D01*
X153159340Y-98540386D01*
X153206971Y-98469101D01*
X153221172Y-98451796D01*
X153281796Y-98391172D01*
X153299101Y-98376971D01*
X153370386Y-98329340D01*
X153375827Y-98326432D01*
X153375831Y-98326429D01*
X153384691Y-98321693D01*
X153384697Y-98321691D01*
X153390142Y-98318780D01*
X153469340Y-98285976D01*
X153490767Y-98279476D01*
X153574851Y-98262750D01*
X153597131Y-98260556D01*
X153615550Y-98260556D01*
X153627801Y-98259954D01*
X153646139Y-98258148D01*
X154183860Y-98258148D01*
X154199999Y-98259737D01*
X154199999Y-98259737D01*
G37*
G36*
X160549999Y-98259737D02*
G01*
X160564528Y-98264145D01*
X160577711Y-98269606D01*
X160601745Y-98274388D01*
X160626249Y-98274389D01*
X160650282Y-98269609D01*
X160672921Y-98260232D01*
X160674765Y-98259000D01*
X161906050Y-98259000D01*
X161918164Y-98265475D01*
X161941613Y-98272588D01*
X161965999Y-98274990D01*
X161990385Y-98272588D01*
X162013834Y-98265475D01*
X162018746Y-98263152D01*
X162030001Y-98259737D01*
X162046140Y-98258148D01*
X162583861Y-98258148D01*
X162602199Y-98259954D01*
X162614450Y-98260556D01*
X162632869Y-98260556D01*
X162655149Y-98262750D01*
X162739233Y-98279476D01*
X162760660Y-98285976D01*
X162839858Y-98318780D01*
X162845303Y-98321691D01*
X162845309Y-98321693D01*
X162854169Y-98326429D01*
X162854173Y-98326432D01*
X162859614Y-98329340D01*
X162930899Y-98376971D01*
X162948204Y-98391172D01*
X163008828Y-98451796D01*
X163023029Y-98469101D01*
X163070660Y-98540386D01*
X163073568Y-98545827D01*
X163073571Y-98545831D01*
X163078307Y-98554691D01*
X163078309Y-98554697D01*
X163081220Y-98560142D01*
X163114024Y-98639340D01*
X163120524Y-98660767D01*
X163137250Y-98744851D01*
X163139444Y-98767131D01*
X163139444Y-98785550D01*
X163140046Y-98797801D01*
X163141852Y-98816139D01*
X163141852Y-99303862D01*
X163140046Y-99322199D01*
X163139444Y-99334450D01*
X163139444Y-99352869D01*
X163137250Y-99375149D01*
X163120524Y-99459233D01*
X163114024Y-99480660D01*
X163081220Y-99559858D01*
X163078309Y-99565303D01*
X163078307Y-99565309D01*
X163073571Y-99574169D01*
X163073568Y-99574173D01*
X163070660Y-99579614D01*
X163023029Y-99650899D01*
X163008828Y-99668204D01*
X162948204Y-99728828D01*
X162930899Y-99743029D01*
X162859614Y-99790660D01*
X162854173Y-99793568D01*
X162854169Y-99793571D01*
X162845309Y-99798307D01*
X162845303Y-99798309D01*
X162839858Y-99801220D01*
X162760660Y-99834024D01*
X162739233Y-99840524D01*
X162655149Y-99857250D01*
X162632869Y-99859444D01*
X162614450Y-99859444D01*
X162602199Y-99860046D01*
X162583862Y-99861852D01*
X162046140Y-99861852D01*
X162030001Y-99860263D01*
X162015472Y-99855855D01*
X162002289Y-99850394D01*
X161978255Y-99845612D01*
X161953751Y-99845611D01*
X161929718Y-99850391D01*
X161907079Y-99859768D01*
X161905235Y-99861000D01*
X160673950Y-99861000D01*
X160661836Y-99854525D01*
X160638387Y-99847412D01*
X160614001Y-99845010D01*
X160589615Y-99847412D01*
X160566166Y-99854525D01*
X160561254Y-99856848D01*
X160549999Y-99860263D01*
X160533860Y-99861852D01*
X159996138Y-99861852D01*
X159977801Y-99860046D01*
X159965550Y-99859444D01*
X159947131Y-99859444D01*
X159924851Y-99857250D01*
X159840767Y-99840524D01*
X159819340Y-99834024D01*
X159740142Y-99801220D01*
X159734697Y-99798309D01*
X159734691Y-99798307D01*
X159725831Y-99793571D01*
X159725827Y-99793568D01*
X159720386Y-99790660D01*
X159649101Y-99743029D01*
X159631796Y-99728828D01*
X159571172Y-99668204D01*
X159556971Y-99650899D01*
X159509340Y-99579614D01*
X159506432Y-99574173D01*
X159506429Y-99574169D01*
X159501693Y-99565309D01*
X159501691Y-99565303D01*
X159498780Y-99559858D01*
X159465976Y-99480660D01*
X159459476Y-99459233D01*
X159442750Y-99375149D01*
X159440556Y-99352869D01*
X159440556Y-99334450D01*
X159439954Y-99322199D01*
X159438148Y-99303862D01*
X159438148Y-98816139D01*
X159439954Y-98797801D01*
X159440556Y-98785550D01*
X159440556Y-98767131D01*
X159442750Y-98744851D01*
X159459476Y-98660767D01*
X159465976Y-98639340D01*
X159498780Y-98560142D01*
X159501691Y-98554697D01*
X159501693Y-98554691D01*
X159506429Y-98545831D01*
X159506432Y-98545827D01*
X159509340Y-98540386D01*
X159556971Y-98469101D01*
X159571172Y-98451796D01*
X159631796Y-98391172D01*
X159649101Y-98376971D01*
X159720386Y-98329340D01*
X159725827Y-98326432D01*
X159725831Y-98326429D01*
X159734691Y-98321693D01*
X159734697Y-98321691D01*
X159740142Y-98318780D01*
X159819340Y-98285976D01*
X159840767Y-98279476D01*
X159924851Y-98262750D01*
X159947131Y-98260556D01*
X159965550Y-98260556D01*
X159977801Y-98259954D01*
X159996139Y-98258148D01*
X160533860Y-98258148D01*
X160549999Y-98259737D01*
X160549999Y-98259737D01*
G37*
G36*
X147849999Y-98259737D02*
G01*
X147864528Y-98264145D01*
X147877711Y-98269606D01*
X147901745Y-98274388D01*
X147926249Y-98274389D01*
X147950282Y-98269609D01*
X147972921Y-98260232D01*
X147974765Y-98259000D01*
X149206050Y-98259000D01*
X149218164Y-98265475D01*
X149241613Y-98272588D01*
X149265999Y-98274990D01*
X149290385Y-98272588D01*
X149313834Y-98265475D01*
X149318746Y-98263152D01*
X149330001Y-98259737D01*
X149346140Y-98258148D01*
X149883861Y-98258148D01*
X149902199Y-98259954D01*
X149914450Y-98260556D01*
X149932869Y-98260556D01*
X149955149Y-98262750D01*
X150039233Y-98279476D01*
X150060660Y-98285976D01*
X150139858Y-98318780D01*
X150145303Y-98321691D01*
X150145309Y-98321693D01*
X150154169Y-98326429D01*
X150154173Y-98326432D01*
X150159614Y-98329340D01*
X150230899Y-98376971D01*
X150248204Y-98391172D01*
X150308828Y-98451796D01*
X150323029Y-98469101D01*
X150370660Y-98540386D01*
X150373568Y-98545827D01*
X150373571Y-98545831D01*
X150378307Y-98554691D01*
X150378309Y-98554697D01*
X150381220Y-98560142D01*
X150414024Y-98639340D01*
X150420524Y-98660767D01*
X150437250Y-98744851D01*
X150439444Y-98767131D01*
X150439444Y-98785550D01*
X150440046Y-98797801D01*
X150441852Y-98816139D01*
X150441852Y-99303862D01*
X150440046Y-99322199D01*
X150439444Y-99334450D01*
X150439444Y-99352869D01*
X150437250Y-99375149D01*
X150420524Y-99459233D01*
X150414024Y-99480660D01*
X150381220Y-99559858D01*
X150378309Y-99565303D01*
X150378307Y-99565309D01*
X150373571Y-99574169D01*
X150373568Y-99574173D01*
X150370660Y-99579614D01*
X150323029Y-99650899D01*
X150308828Y-99668204D01*
X150248204Y-99728828D01*
X150230899Y-99743029D01*
X150159614Y-99790660D01*
X150154173Y-99793568D01*
X150154169Y-99793571D01*
X150145309Y-99798307D01*
X150145303Y-99798309D01*
X150139858Y-99801220D01*
X150060660Y-99834024D01*
X150039233Y-99840524D01*
X149955149Y-99857250D01*
X149932869Y-99859444D01*
X149914450Y-99859444D01*
X149902199Y-99860046D01*
X149883862Y-99861852D01*
X149346140Y-99861852D01*
X149330001Y-99860263D01*
X149315472Y-99855855D01*
X149302289Y-99850394D01*
X149278255Y-99845612D01*
X149253751Y-99845611D01*
X149229718Y-99850391D01*
X149207079Y-99859768D01*
X149205235Y-99861000D01*
X147973950Y-99861000D01*
X147961836Y-99854525D01*
X147938387Y-99847412D01*
X147914001Y-99845010D01*
X147889615Y-99847412D01*
X147866166Y-99854525D01*
X147861254Y-99856848D01*
X147849999Y-99860263D01*
X147833860Y-99861852D01*
X147296138Y-99861852D01*
X147277801Y-99860046D01*
X147265550Y-99859444D01*
X147247131Y-99859444D01*
X147224851Y-99857250D01*
X147140767Y-99840524D01*
X147119340Y-99834024D01*
X147040142Y-99801220D01*
X147034697Y-99798309D01*
X147034691Y-99798307D01*
X147025831Y-99793571D01*
X147025827Y-99793568D01*
X147020386Y-99790660D01*
X146949101Y-99743029D01*
X146931796Y-99728828D01*
X146871172Y-99668204D01*
X146856971Y-99650899D01*
X146809340Y-99579614D01*
X146806432Y-99574173D01*
X146806429Y-99574169D01*
X146801693Y-99565309D01*
X146801691Y-99565303D01*
X146798780Y-99559858D01*
X146765976Y-99480660D01*
X146759476Y-99459233D01*
X146742750Y-99375149D01*
X146740556Y-99352869D01*
X146740556Y-99334450D01*
X146739954Y-99322199D01*
X146738148Y-99303862D01*
X146738148Y-98816139D01*
X146739954Y-98797801D01*
X146740556Y-98785550D01*
X146740556Y-98767131D01*
X146742750Y-98744851D01*
X146759476Y-98660767D01*
X146765976Y-98639340D01*
X146798780Y-98560142D01*
X146801691Y-98554697D01*
X146801693Y-98554691D01*
X146806429Y-98545831D01*
X146806432Y-98545827D01*
X146809340Y-98540386D01*
X146856971Y-98469101D01*
X146871172Y-98451796D01*
X146931796Y-98391172D01*
X146949101Y-98376971D01*
X147020386Y-98329340D01*
X147025827Y-98326432D01*
X147025831Y-98326429D01*
X147034691Y-98321693D01*
X147034697Y-98321691D01*
X147040142Y-98318780D01*
X147119340Y-98285976D01*
X147140767Y-98279476D01*
X147224851Y-98262750D01*
X147247131Y-98260556D01*
X147265550Y-98260556D01*
X147277801Y-98259954D01*
X147296139Y-98258148D01*
X147833860Y-98258148D01*
X147849999Y-98259737D01*
X147849999Y-98259737D01*
G37*
G36*
X136138228Y-95701703D02*
G01*
X136293100Y-95765853D01*
X136432481Y-95858985D01*
X136551015Y-95977519D01*
X136644147Y-96116900D01*
X136708297Y-96271772D01*
X136741000Y-96436184D01*
X136741000Y-96603816D01*
X136708297Y-96768228D01*
X136644147Y-96923100D01*
X136551015Y-97062481D01*
X136432481Y-97181015D01*
X136293100Y-97274147D01*
X136138228Y-97338297D01*
X135973816Y-97371000D01*
X135806184Y-97371000D01*
X135641772Y-97338297D01*
X135486900Y-97274147D01*
X135347519Y-97181015D01*
X135228985Y-97062481D01*
X135135853Y-96923100D01*
X135071703Y-96768228D01*
X135039000Y-96603816D01*
X135039000Y-96436184D01*
X135071703Y-96271772D01*
X135135853Y-96116900D01*
X135228985Y-95977519D01*
X135347519Y-95858985D01*
X135486900Y-95765853D01*
X135641772Y-95701703D01*
X135806184Y-95669000D01*
X135973816Y-95669000D01*
X136138228Y-95701703D01*
X136138228Y-95701703D01*
G37*
G36*
X128436823Y-95681313D02*
G01*
X128597242Y-95729976D01*
X128706497Y-95788374D01*
X128745078Y-95808996D01*
X128874659Y-95915341D01*
X128981004Y-96044922D01*
X128981005Y-96044924D01*
X129060024Y-96192758D01*
X129108687Y-96353177D01*
X129125117Y-96520000D01*
X129108687Y-96686823D01*
X129060024Y-96847242D01*
X129019477Y-96923100D01*
X128981004Y-96995078D01*
X128874659Y-97124659D01*
X128745078Y-97231004D01*
X128745076Y-97231005D01*
X128597242Y-97310024D01*
X128436823Y-97358687D01*
X128311804Y-97371000D01*
X128228196Y-97371000D01*
X128103177Y-97358687D01*
X127942758Y-97310024D01*
X127794924Y-97231005D01*
X127794922Y-97231004D01*
X127665341Y-97124659D01*
X127558996Y-96995078D01*
X127520523Y-96923100D01*
X127479976Y-96847242D01*
X127431313Y-96686823D01*
X127414883Y-96520000D01*
X127431313Y-96353177D01*
X127479976Y-96192758D01*
X127558995Y-96044924D01*
X127558996Y-96044922D01*
X127665341Y-95915341D01*
X127794922Y-95808996D01*
X127833503Y-95788374D01*
X127942758Y-95729976D01*
X128103177Y-95681313D01*
X128228196Y-95669000D01*
X128311804Y-95669000D01*
X128436823Y-95681313D01*
X128436823Y-95681313D01*
G37*
G36*
X116121000Y-90951178D02*
G01*
X116123402Y-90975564D01*
X116130515Y-90999013D01*
X116143596Y-91022860D01*
X116652022Y-91749183D01*
X116667974Y-91767784D01*
X116687248Y-91782915D01*
X116709104Y-91793995D01*
X116721000Y-91797324D01*
X116721000Y-91808322D01*
X116723402Y-91832708D01*
X116730515Y-91856157D01*
X116743596Y-91880004D01*
X116748397Y-91886862D01*
X116767953Y-91914800D01*
X116781026Y-91933475D01*
X116776553Y-91935866D01*
X116757611Y-91951411D01*
X116742066Y-91970353D01*
X116730515Y-91991964D01*
X116723402Y-92015413D01*
X116721000Y-92039799D01*
X116721000Y-93506001D01*
X116723402Y-93530387D01*
X116730515Y-93553836D01*
X116742066Y-93575447D01*
X116757611Y-93594389D01*
X116776553Y-93609934D01*
X116781450Y-93612551D01*
X116743879Y-93665776D01*
X116731778Y-93687084D01*
X116724067Y-93710343D01*
X116721000Y-93737861D01*
X116721000Y-93749235D01*
X116705243Y-93754015D01*
X116683632Y-93765566D01*
X116664690Y-93781111D01*
X116650958Y-93797414D01*
X116096426Y-94583000D01*
X115043574Y-94583000D01*
X114489042Y-93797414D01*
X114473017Y-93778877D01*
X114453683Y-93763822D01*
X114431784Y-93752828D01*
X114419000Y-93749305D01*
X114419000Y-93737861D01*
X114416598Y-93713475D01*
X114409485Y-93690026D01*
X114396121Y-93665776D01*
X114358550Y-93612551D01*
X114363447Y-93609934D01*
X114382389Y-93594389D01*
X114397934Y-93575447D01*
X114409485Y-93553836D01*
X114416598Y-93530387D01*
X114419000Y-93506001D01*
X114419000Y-92039799D01*
X114416598Y-92015413D01*
X114409485Y-91991964D01*
X114397934Y-91970353D01*
X114382389Y-91951411D01*
X114363447Y-91935866D01*
X114358974Y-91933475D01*
X114396404Y-91880004D01*
X114408421Y-91858649D01*
X114416041Y-91835360D01*
X114419000Y-91808322D01*
X114419000Y-91797356D01*
X114433410Y-91792985D01*
X114455021Y-91781434D01*
X114473963Y-91765889D01*
X114487978Y-91749183D01*
X114996404Y-91022860D01*
X115008421Y-91001505D01*
X115016041Y-90978216D01*
X115019000Y-90951178D01*
X115019000Y-89155500D01*
X116121000Y-89155500D01*
X116121000Y-90951178D01*
X116121000Y-90951178D01*
G37*
G36*
X172886823Y-91871313D02*
G01*
X173047242Y-91919976D01*
X173167967Y-91984505D01*
X173195078Y-91998996D01*
X173324659Y-92105341D01*
X173431004Y-92234922D01*
X173431005Y-92234924D01*
X173510024Y-92382758D01*
X173558687Y-92543177D01*
X173575117Y-92710000D01*
X173558687Y-92876823D01*
X173510024Y-93037242D01*
X173439114Y-93169906D01*
X173431004Y-93185078D01*
X173324659Y-93314659D01*
X173195078Y-93421004D01*
X173195076Y-93421005D01*
X173047242Y-93500024D01*
X172886823Y-93548687D01*
X172761804Y-93561000D01*
X172678196Y-93561000D01*
X172553177Y-93548687D01*
X172392758Y-93500024D01*
X172244924Y-93421005D01*
X172244922Y-93421004D01*
X172115341Y-93314659D01*
X172008996Y-93185078D01*
X172000886Y-93169906D01*
X171929976Y-93037242D01*
X171881313Y-92876823D01*
X171864883Y-92710000D01*
X171881313Y-92543177D01*
X171929976Y-92382758D01*
X172008995Y-92234924D01*
X172008996Y-92234922D01*
X172115341Y-92105341D01*
X172244922Y-91998996D01*
X172272033Y-91984505D01*
X172392758Y-91919976D01*
X172553177Y-91871313D01*
X172678196Y-91859000D01*
X172761804Y-91859000D01*
X172886823Y-91871313D01*
X172886823Y-91871313D01*
G37*
G36*
X167806823Y-91871313D02*
G01*
X167967242Y-91919976D01*
X168087967Y-91984505D01*
X168115078Y-91998996D01*
X168244659Y-92105341D01*
X168351004Y-92234922D01*
X168351005Y-92234924D01*
X168430024Y-92382758D01*
X168478687Y-92543177D01*
X168495117Y-92710000D01*
X168478687Y-92876823D01*
X168430024Y-93037242D01*
X168359114Y-93169906D01*
X168351004Y-93185078D01*
X168244659Y-93314659D01*
X168115078Y-93421004D01*
X168115076Y-93421005D01*
X167967242Y-93500024D01*
X167806823Y-93548687D01*
X167681804Y-93561000D01*
X167598196Y-93561000D01*
X167473177Y-93548687D01*
X167312758Y-93500024D01*
X167164924Y-93421005D01*
X167164922Y-93421004D01*
X167035341Y-93314659D01*
X166928996Y-93185078D01*
X166920886Y-93169906D01*
X166849976Y-93037242D01*
X166801313Y-92876823D01*
X166784883Y-92710000D01*
X166801313Y-92543177D01*
X166849976Y-92382758D01*
X166928995Y-92234924D01*
X166928996Y-92234922D01*
X167035341Y-92105341D01*
X167164922Y-91998996D01*
X167192033Y-91984505D01*
X167312758Y-91919976D01*
X167473177Y-91871313D01*
X167598196Y-91859000D01*
X167681804Y-91859000D01*
X167806823Y-91871313D01*
X167806823Y-91871313D01*
G37*
G36*
X170346823Y-91871313D02*
G01*
X170507242Y-91919976D01*
X170627967Y-91984505D01*
X170655078Y-91998996D01*
X170784659Y-92105341D01*
X170891004Y-92234922D01*
X170891005Y-92234924D01*
X170970024Y-92382758D01*
X171018687Y-92543177D01*
X171035117Y-92710000D01*
X171018687Y-92876823D01*
X170970024Y-93037242D01*
X170899114Y-93169906D01*
X170891004Y-93185078D01*
X170784659Y-93314659D01*
X170655078Y-93421004D01*
X170655076Y-93421005D01*
X170507242Y-93500024D01*
X170346823Y-93548687D01*
X170221804Y-93561000D01*
X170138196Y-93561000D01*
X170013177Y-93548687D01*
X169852758Y-93500024D01*
X169704924Y-93421005D01*
X169704922Y-93421004D01*
X169575341Y-93314659D01*
X169468996Y-93185078D01*
X169460886Y-93169906D01*
X169389976Y-93037242D01*
X169341313Y-92876823D01*
X169324883Y-92710000D01*
X169341313Y-92543177D01*
X169389976Y-92382758D01*
X169468995Y-92234924D01*
X169468996Y-92234922D01*
X169575341Y-92105341D01*
X169704922Y-91998996D01*
X169732033Y-91984505D01*
X169852758Y-91919976D01*
X170013177Y-91871313D01*
X170138196Y-91859000D01*
X170221804Y-91859000D01*
X170346823Y-91871313D01*
X170346823Y-91871313D01*
G37*
G36*
X165266823Y-91871313D02*
G01*
X165427242Y-91919976D01*
X165547967Y-91984505D01*
X165575078Y-91998996D01*
X165704659Y-92105341D01*
X165811004Y-92234922D01*
X165811005Y-92234924D01*
X165890024Y-92382758D01*
X165938687Y-92543177D01*
X165955117Y-92710000D01*
X165938687Y-92876823D01*
X165890024Y-93037242D01*
X165819114Y-93169906D01*
X165811004Y-93185078D01*
X165704659Y-93314659D01*
X165575078Y-93421004D01*
X165575076Y-93421005D01*
X165427242Y-93500024D01*
X165266823Y-93548687D01*
X165141804Y-93561000D01*
X165058196Y-93561000D01*
X164933177Y-93548687D01*
X164772758Y-93500024D01*
X164624924Y-93421005D01*
X164624922Y-93421004D01*
X164495341Y-93314659D01*
X164388996Y-93185078D01*
X164380886Y-93169906D01*
X164309976Y-93037242D01*
X164261313Y-92876823D01*
X164244883Y-92710000D01*
X164261313Y-92543177D01*
X164309976Y-92382758D01*
X164388995Y-92234924D01*
X164388996Y-92234922D01*
X164495341Y-92105341D01*
X164624922Y-91998996D01*
X164652033Y-91984505D01*
X164772758Y-91919976D01*
X164933177Y-91871313D01*
X165058196Y-91859000D01*
X165141804Y-91859000D01*
X165266823Y-91871313D01*
X165266823Y-91871313D01*
G37*
G36*
X162726823Y-91871313D02*
G01*
X162887242Y-91919976D01*
X163007967Y-91984505D01*
X163035078Y-91998996D01*
X163164659Y-92105341D01*
X163271004Y-92234922D01*
X163271005Y-92234924D01*
X163350024Y-92382758D01*
X163398687Y-92543177D01*
X163415117Y-92710000D01*
X163398687Y-92876823D01*
X163350024Y-93037242D01*
X163279114Y-93169906D01*
X163271004Y-93185078D01*
X163164659Y-93314659D01*
X163035078Y-93421004D01*
X163035076Y-93421005D01*
X162887242Y-93500024D01*
X162726823Y-93548687D01*
X162601804Y-93561000D01*
X162518196Y-93561000D01*
X162393177Y-93548687D01*
X162232758Y-93500024D01*
X162084924Y-93421005D01*
X162084922Y-93421004D01*
X161955341Y-93314659D01*
X161848996Y-93185078D01*
X161840886Y-93169906D01*
X161769976Y-93037242D01*
X161721313Y-92876823D01*
X161704883Y-92710000D01*
X161721313Y-92543177D01*
X161769976Y-92382758D01*
X161848995Y-92234924D01*
X161848996Y-92234922D01*
X161955341Y-92105341D01*
X162084922Y-91998996D01*
X162112033Y-91984505D01*
X162232758Y-91919976D01*
X162393177Y-91871313D01*
X162518196Y-91859000D01*
X162601804Y-91859000D01*
X162726823Y-91871313D01*
X162726823Y-91871313D01*
G37*
G36*
X160186823Y-91871313D02*
G01*
X160347242Y-91919976D01*
X160467967Y-91984505D01*
X160495078Y-91998996D01*
X160624659Y-92105341D01*
X160731004Y-92234922D01*
X160731005Y-92234924D01*
X160810024Y-92382758D01*
X160858687Y-92543177D01*
X160875117Y-92710000D01*
X160858687Y-92876823D01*
X160810024Y-93037242D01*
X160739114Y-93169906D01*
X160731004Y-93185078D01*
X160624659Y-93314659D01*
X160495078Y-93421004D01*
X160495076Y-93421005D01*
X160347242Y-93500024D01*
X160186823Y-93548687D01*
X160061804Y-93561000D01*
X159978196Y-93561000D01*
X159853177Y-93548687D01*
X159692758Y-93500024D01*
X159544924Y-93421005D01*
X159544922Y-93421004D01*
X159415341Y-93314659D01*
X159308996Y-93185078D01*
X159300886Y-93169906D01*
X159229976Y-93037242D01*
X159181313Y-92876823D01*
X159164883Y-92710000D01*
X159181313Y-92543177D01*
X159229976Y-92382758D01*
X159308995Y-92234924D01*
X159308996Y-92234922D01*
X159415341Y-92105341D01*
X159544922Y-91998996D01*
X159572033Y-91984505D01*
X159692758Y-91919976D01*
X159853177Y-91871313D01*
X159978196Y-91859000D01*
X160061804Y-91859000D01*
X160186823Y-91871313D01*
X160186823Y-91871313D01*
G37*
G36*
X157646823Y-91871313D02*
G01*
X157807242Y-91919976D01*
X157927967Y-91984505D01*
X157955078Y-91998996D01*
X158084659Y-92105341D01*
X158191004Y-92234922D01*
X158191005Y-92234924D01*
X158270024Y-92382758D01*
X158318687Y-92543177D01*
X158335117Y-92710000D01*
X158318687Y-92876823D01*
X158270024Y-93037242D01*
X158199114Y-93169906D01*
X158191004Y-93185078D01*
X158084659Y-93314659D01*
X157955078Y-93421004D01*
X157955076Y-93421005D01*
X157807242Y-93500024D01*
X157646823Y-93548687D01*
X157521804Y-93561000D01*
X157438196Y-93561000D01*
X157313177Y-93548687D01*
X157152758Y-93500024D01*
X157004924Y-93421005D01*
X157004922Y-93421004D01*
X156875341Y-93314659D01*
X156768996Y-93185078D01*
X156760886Y-93169906D01*
X156689976Y-93037242D01*
X156641313Y-92876823D01*
X156624883Y-92710000D01*
X156641313Y-92543177D01*
X156689976Y-92382758D01*
X156768995Y-92234924D01*
X156768996Y-92234922D01*
X156875341Y-92105341D01*
X157004922Y-91998996D01*
X157032033Y-91984505D01*
X157152758Y-91919976D01*
X157313177Y-91871313D01*
X157438196Y-91859000D01*
X157521804Y-91859000D01*
X157646823Y-91871313D01*
X157646823Y-91871313D01*
G37*
G36*
X155791000Y-93561000D02*
G01*
X154089000Y-93561000D01*
X154089000Y-91859000D01*
X155791000Y-91859000D01*
X155791000Y-93561000D01*
X155791000Y-93561000D01*
G37*
G36*
X140651000Y-92391000D02*
G01*
X138749000Y-92391000D01*
X138749000Y-90489000D01*
X140651000Y-90489000D01*
X140651000Y-92391000D01*
X140651000Y-92391000D01*
G37*
G36*
X137437395Y-90525546D02*
G01*
X137610466Y-90597234D01*
X137616572Y-90601314D01*
X137766227Y-90701310D01*
X137898690Y-90833773D01*
X137941284Y-90897520D01*
X138002766Y-90989534D01*
X138074454Y-91162605D01*
X138111000Y-91346333D01*
X138111000Y-91533667D01*
X138074454Y-91717395D01*
X138002766Y-91890466D01*
X137983048Y-91919976D01*
X137898690Y-92046227D01*
X137766227Y-92178690D01*
X137743092Y-92194148D01*
X137610466Y-92282766D01*
X137437395Y-92354454D01*
X137253667Y-92391000D01*
X137066333Y-92391000D01*
X136882605Y-92354454D01*
X136709534Y-92282766D01*
X136576908Y-92194148D01*
X136553773Y-92178690D01*
X136421310Y-92046227D01*
X136336952Y-91919976D01*
X136317234Y-91890466D01*
X136245546Y-91717395D01*
X136209000Y-91533667D01*
X136209000Y-91346333D01*
X136245546Y-91162605D01*
X136317234Y-90989534D01*
X136378716Y-90897520D01*
X136421310Y-90833773D01*
X136553773Y-90701310D01*
X136703428Y-90601314D01*
X136709534Y-90597234D01*
X136882605Y-90525546D01*
X137066333Y-90489000D01*
X137253667Y-90489000D01*
X137437395Y-90525546D01*
X137437395Y-90525546D01*
G37*
G36*
X150743228Y-90621703D02*
G01*
X150898100Y-90685853D01*
X151037481Y-90778985D01*
X151156015Y-90897519D01*
X151249147Y-91036900D01*
X151313297Y-91191772D01*
X151346000Y-91356184D01*
X151346000Y-91523816D01*
X151313297Y-91688228D01*
X151249147Y-91843100D01*
X151156015Y-91982481D01*
X151037481Y-92101015D01*
X150898100Y-92194147D01*
X150743228Y-92258297D01*
X150578816Y-92291000D01*
X150411184Y-92291000D01*
X150246772Y-92258297D01*
X150091900Y-92194147D01*
X149952519Y-92101015D01*
X149833985Y-91982481D01*
X149740853Y-91843100D01*
X149676703Y-91688228D01*
X149644000Y-91523816D01*
X149644000Y-91356184D01*
X149676703Y-91191772D01*
X149740853Y-91036900D01*
X149833985Y-90897519D01*
X149952519Y-90778985D01*
X150091900Y-90685853D01*
X150246772Y-90621703D01*
X150411184Y-90589000D01*
X150578816Y-90589000D01*
X150743228Y-90621703D01*
X150743228Y-90621703D01*
G37*
G36*
X143041823Y-90601313D02*
G01*
X143202242Y-90649976D01*
X143322967Y-90714505D01*
X143350078Y-90728996D01*
X143479659Y-90835341D01*
X143586004Y-90964922D01*
X143586005Y-90964924D01*
X143665024Y-91112758D01*
X143713687Y-91273177D01*
X143730117Y-91440000D01*
X143713687Y-91606823D01*
X143680145Y-91717395D01*
X143665435Y-91765889D01*
X143665024Y-91767242D01*
X143624477Y-91843100D01*
X143586004Y-91915078D01*
X143479659Y-92044659D01*
X143350078Y-92151004D01*
X143350076Y-92151005D01*
X143202242Y-92230024D01*
X143041823Y-92278687D01*
X142916804Y-92291000D01*
X142833196Y-92291000D01*
X142708177Y-92278687D01*
X142547758Y-92230024D01*
X142399924Y-92151005D01*
X142399922Y-92151004D01*
X142270341Y-92044659D01*
X142163996Y-91915078D01*
X142125523Y-91843100D01*
X142084976Y-91767242D01*
X142084566Y-91765889D01*
X142069855Y-91717395D01*
X142036313Y-91606823D01*
X142019883Y-91440000D01*
X142036313Y-91273177D01*
X142084976Y-91112758D01*
X142163995Y-90964924D01*
X142163996Y-90964922D01*
X142270341Y-90835341D01*
X142399922Y-90728996D01*
X142427033Y-90714505D01*
X142547758Y-90649976D01*
X142708177Y-90601313D01*
X142833196Y-90589000D01*
X142916804Y-90589000D01*
X143041823Y-90601313D01*
X143041823Y-90601313D01*
G37*
G36*
X131014473Y-90765938D02*
G01*
X131142049Y-90818782D01*
X131256859Y-90895495D01*
X131354505Y-90993141D01*
X131431218Y-91107951D01*
X131484062Y-91235527D01*
X131511000Y-91370956D01*
X131511000Y-91509044D01*
X131484062Y-91644473D01*
X131431218Y-91772049D01*
X131354505Y-91886859D01*
X131256859Y-91984505D01*
X131142049Y-92061218D01*
X131014473Y-92114062D01*
X130879044Y-92141000D01*
X130740956Y-92141000D01*
X130605527Y-92114062D01*
X130477951Y-92061218D01*
X130363141Y-91984505D01*
X130265495Y-91886859D01*
X130188782Y-91772049D01*
X130135938Y-91644473D01*
X130109000Y-91509044D01*
X130109000Y-91370956D01*
X130135938Y-91235527D01*
X130188782Y-91107951D01*
X130265495Y-90993141D01*
X130363141Y-90895495D01*
X130477951Y-90818782D01*
X130605527Y-90765938D01*
X130740956Y-90739000D01*
X130879044Y-90739000D01*
X131014473Y-90765938D01*
X131014473Y-90765938D01*
G37*
G36*
X131511000Y-89473251D02*
G01*
X131513402Y-89497637D01*
X131520515Y-89521086D01*
X131532066Y-89542697D01*
X131547611Y-89561639D01*
X131566553Y-89577184D01*
X131588164Y-89588735D01*
X131611613Y-89595848D01*
X131635999Y-89598250D01*
X131660385Y-89595848D01*
X131683834Y-89588735D01*
X131705444Y-89577184D01*
X131747951Y-89548782D01*
X131875527Y-89495938D01*
X132010956Y-89469000D01*
X132149044Y-89469000D01*
X132284473Y-89495938D01*
X132412049Y-89548782D01*
X132526859Y-89625495D01*
X132624505Y-89723141D01*
X132701218Y-89837951D01*
X132754062Y-89965527D01*
X132781000Y-90100956D01*
X132781000Y-90239044D01*
X132754062Y-90374473D01*
X132701218Y-90502049D01*
X132624505Y-90616859D01*
X132526859Y-90714505D01*
X132412049Y-90791218D01*
X132284473Y-90844062D01*
X132149044Y-90871000D01*
X132010956Y-90871000D01*
X131875527Y-90844062D01*
X131747951Y-90791218D01*
X131633141Y-90714505D01*
X131535495Y-90616859D01*
X131458782Y-90502049D01*
X131405938Y-90374473D01*
X131379000Y-90239044D01*
X131379000Y-90100956D01*
X131405938Y-89965527D01*
X131458782Y-89837951D01*
X131487184Y-89795444D01*
X131498735Y-89773833D01*
X131505848Y-89750384D01*
X131508250Y-89725998D01*
X131505848Y-89701612D01*
X131498735Y-89678163D01*
X131487183Y-89656553D01*
X131471638Y-89637611D01*
X131452696Y-89622066D01*
X131431085Y-89610515D01*
X131407636Y-89603402D01*
X131383251Y-89601000D01*
X130109000Y-89601000D01*
X130109000Y-88199000D01*
X131511000Y-88199000D01*
X131511000Y-89473251D01*
X131511000Y-89473251D01*
G37*
G36*
X114621000Y-90761000D02*
G01*
X113519000Y-90761000D01*
X113519000Y-89159000D01*
X114621000Y-89159000D01*
X114621000Y-90761000D01*
X114621000Y-90761000D01*
G37*
G36*
X117621000Y-90761000D02*
G01*
X116519000Y-90761000D01*
X116519000Y-89159000D01*
X117621000Y-89159000D01*
X117621000Y-90761000D01*
X117621000Y-90761000D01*
G37*
G36*
X151378228Y-86811703D02*
G01*
X151533100Y-86875853D01*
X151672481Y-86968985D01*
X151791015Y-87087519D01*
X151884147Y-87226900D01*
X151948297Y-87381772D01*
X151981000Y-87546184D01*
X151981000Y-87713816D01*
X151948297Y-87878228D01*
X151884147Y-88033100D01*
X151791015Y-88172481D01*
X151672481Y-88291015D01*
X151533100Y-88384147D01*
X151378228Y-88448297D01*
X151213816Y-88481000D01*
X151046184Y-88481000D01*
X150881772Y-88448297D01*
X150726900Y-88384147D01*
X150587519Y-88291015D01*
X150468985Y-88172481D01*
X150375853Y-88033100D01*
X150311703Y-87878228D01*
X150279000Y-87713816D01*
X150279000Y-87546184D01*
X150311703Y-87381772D01*
X150375853Y-87226900D01*
X150468985Y-87087519D01*
X150587519Y-86968985D01*
X150726900Y-86875853D01*
X150881772Y-86811703D01*
X151046184Y-86779000D01*
X151213816Y-86779000D01*
X151378228Y-86811703D01*
X151378228Y-86811703D01*
G37*
G36*
X151378228Y-84311703D02*
G01*
X151533100Y-84375853D01*
X151672481Y-84468985D01*
X151791015Y-84587519D01*
X151884147Y-84726900D01*
X151948297Y-84881772D01*
X151981000Y-85046184D01*
X151981000Y-85213816D01*
X151948297Y-85378228D01*
X151884147Y-85533100D01*
X151791015Y-85672481D01*
X151672481Y-85791015D01*
X151533100Y-85884147D01*
X151378228Y-85948297D01*
X151213816Y-85981000D01*
X151046184Y-85981000D01*
X150881772Y-85948297D01*
X150726900Y-85884147D01*
X150587519Y-85791015D01*
X150468985Y-85672481D01*
X150375853Y-85533100D01*
X150311703Y-85378228D01*
X150279000Y-85213816D01*
X150279000Y-85046184D01*
X150311703Y-84881772D01*
X150375853Y-84726900D01*
X150468985Y-84587519D01*
X150587519Y-84468985D01*
X150726900Y-84375853D01*
X150881772Y-84311703D01*
X151046184Y-84279000D01*
X151213816Y-84279000D01*
X151378228Y-84311703D01*
X151378228Y-84311703D01*
G37*
G36*
X110738228Y-84271703D02*
G01*
X110893100Y-84335853D01*
X111032481Y-84428985D01*
X111151015Y-84547519D01*
X111244147Y-84686900D01*
X111308297Y-84841772D01*
X111341000Y-85006184D01*
X111341000Y-85173816D01*
X111308297Y-85338228D01*
X111244147Y-85493100D01*
X111151015Y-85632481D01*
X111032481Y-85751015D01*
X110893100Y-85844147D01*
X110738228Y-85908297D01*
X110573816Y-85941000D01*
X110406184Y-85941000D01*
X110241772Y-85908297D01*
X110086900Y-85844147D01*
X109947519Y-85751015D01*
X109828985Y-85632481D01*
X109735853Y-85493100D01*
X109671703Y-85338228D01*
X109639000Y-85173816D01*
X109639000Y-85006184D01*
X109671703Y-84841772D01*
X109735853Y-84686900D01*
X109828985Y-84547519D01*
X109947519Y-84428985D01*
X110086900Y-84335853D01*
X110241772Y-84271703D01*
X110406184Y-84239000D01*
X110573816Y-84239000D01*
X110738228Y-84271703D01*
X110738228Y-84271703D01*
G37*
G36*
X113238228Y-84271703D02*
G01*
X113393100Y-84335853D01*
X113532481Y-84428985D01*
X113651015Y-84547519D01*
X113744147Y-84686900D01*
X113808297Y-84841772D01*
X113841000Y-85006184D01*
X113841000Y-85173816D01*
X113808297Y-85338228D01*
X113744147Y-85493100D01*
X113651015Y-85632481D01*
X113532481Y-85751015D01*
X113393100Y-85844147D01*
X113238228Y-85908297D01*
X113073816Y-85941000D01*
X112906184Y-85941000D01*
X112741772Y-85908297D01*
X112586900Y-85844147D01*
X112447519Y-85751015D01*
X112328985Y-85632481D01*
X112235853Y-85493100D01*
X112171703Y-85338228D01*
X112139000Y-85173816D01*
X112139000Y-85006184D01*
X112171703Y-84841772D01*
X112235853Y-84686900D01*
X112328985Y-84547519D01*
X112447519Y-84428985D01*
X112586900Y-84335853D01*
X112741772Y-84271703D01*
X112906184Y-84239000D01*
X113073816Y-84239000D01*
X113238228Y-84271703D01*
X113238228Y-84271703D01*
G37*
G36*
X117128228Y-84271703D02*
G01*
X117283100Y-84335853D01*
X117422481Y-84428985D01*
X117541015Y-84547519D01*
X117634147Y-84686900D01*
X117698297Y-84841772D01*
X117731000Y-85006184D01*
X117731000Y-85173816D01*
X117698297Y-85338228D01*
X117634147Y-85493100D01*
X117541015Y-85632481D01*
X117422481Y-85751015D01*
X117283100Y-85844147D01*
X117128228Y-85908297D01*
X116963816Y-85941000D01*
X116796184Y-85941000D01*
X116631772Y-85908297D01*
X116476900Y-85844147D01*
X116337519Y-85751015D01*
X116218985Y-85632481D01*
X116125853Y-85493100D01*
X116061703Y-85338228D01*
X116029000Y-85173816D01*
X116029000Y-85006184D01*
X116061703Y-84841772D01*
X116125853Y-84686900D01*
X116218985Y-84547519D01*
X116337519Y-84428985D01*
X116476900Y-84335853D01*
X116631772Y-84271703D01*
X116796184Y-84239000D01*
X116963816Y-84239000D01*
X117128228Y-84271703D01*
X117128228Y-84271703D01*
G37*
G36*
X170346823Y-84251313D02*
G01*
X170507242Y-84299976D01*
X170574361Y-84335852D01*
X170655078Y-84378996D01*
X170784659Y-84485341D01*
X170891004Y-84614922D01*
X170891005Y-84614924D01*
X170970024Y-84762758D01*
X171018687Y-84923177D01*
X171035117Y-85090000D01*
X171018687Y-85256823D01*
X170970024Y-85417242D01*
X170899114Y-85549906D01*
X170891004Y-85565078D01*
X170784659Y-85694659D01*
X170655078Y-85801004D01*
X170655076Y-85801005D01*
X170507242Y-85880024D01*
X170507239Y-85880025D01*
X170493647Y-85884148D01*
X170346823Y-85928687D01*
X170221804Y-85941000D01*
X170138196Y-85941000D01*
X170013177Y-85928687D01*
X169866353Y-85884148D01*
X169852761Y-85880025D01*
X169852758Y-85880024D01*
X169704924Y-85801005D01*
X169704922Y-85801004D01*
X169575341Y-85694659D01*
X169468996Y-85565078D01*
X169460886Y-85549906D01*
X169389976Y-85417242D01*
X169341313Y-85256823D01*
X169324883Y-85090000D01*
X169341313Y-84923177D01*
X169389976Y-84762758D01*
X169468995Y-84614924D01*
X169468996Y-84614922D01*
X169575341Y-84485341D01*
X169704922Y-84378996D01*
X169785639Y-84335852D01*
X169852758Y-84299976D01*
X170013177Y-84251313D01*
X170138196Y-84239000D01*
X170221804Y-84239000D01*
X170346823Y-84251313D01*
X170346823Y-84251313D01*
G37*
G36*
X119628228Y-84271703D02*
G01*
X119783100Y-84335853D01*
X119922481Y-84428985D01*
X120041015Y-84547519D01*
X120134147Y-84686900D01*
X120198297Y-84841772D01*
X120231000Y-85006184D01*
X120231000Y-85173816D01*
X120198297Y-85338228D01*
X120134147Y-85493100D01*
X120041015Y-85632481D01*
X119922481Y-85751015D01*
X119783100Y-85844147D01*
X119628228Y-85908297D01*
X119463816Y-85941000D01*
X119296184Y-85941000D01*
X119131772Y-85908297D01*
X118976900Y-85844147D01*
X118837519Y-85751015D01*
X118718985Y-85632481D01*
X118625853Y-85493100D01*
X118561703Y-85338228D01*
X118529000Y-85173816D01*
X118529000Y-85006184D01*
X118561703Y-84841772D01*
X118625853Y-84686900D01*
X118718985Y-84547519D01*
X118837519Y-84428985D01*
X118976900Y-84335853D01*
X119131772Y-84271703D01*
X119296184Y-84239000D01*
X119463816Y-84239000D01*
X119628228Y-84271703D01*
X119628228Y-84271703D01*
G37*
G36*
X160186823Y-84251313D02*
G01*
X160347242Y-84299976D01*
X160414361Y-84335852D01*
X160495078Y-84378996D01*
X160624659Y-84485341D01*
X160731004Y-84614922D01*
X160731005Y-84614924D01*
X160810024Y-84762758D01*
X160858687Y-84923177D01*
X160875117Y-85090000D01*
X160858687Y-85256823D01*
X160810024Y-85417242D01*
X160739114Y-85549906D01*
X160731004Y-85565078D01*
X160624659Y-85694659D01*
X160495078Y-85801004D01*
X160495076Y-85801005D01*
X160347242Y-85880024D01*
X160347239Y-85880025D01*
X160333647Y-85884148D01*
X160186823Y-85928687D01*
X160061804Y-85941000D01*
X159978196Y-85941000D01*
X159853177Y-85928687D01*
X159706353Y-85884148D01*
X159692761Y-85880025D01*
X159692758Y-85880024D01*
X159544924Y-85801005D01*
X159544922Y-85801004D01*
X159415341Y-85694659D01*
X159308996Y-85565078D01*
X159300886Y-85549906D01*
X159229976Y-85417242D01*
X159181313Y-85256823D01*
X159164883Y-85090000D01*
X159181313Y-84923177D01*
X159229976Y-84762758D01*
X159308995Y-84614924D01*
X159308996Y-84614922D01*
X159415341Y-84485341D01*
X159544922Y-84378996D01*
X159625639Y-84335852D01*
X159692758Y-84299976D01*
X159853177Y-84251313D01*
X159978196Y-84239000D01*
X160061804Y-84239000D01*
X160186823Y-84251313D01*
X160186823Y-84251313D01*
G37*
G36*
X157646823Y-84251313D02*
G01*
X157807242Y-84299976D01*
X157874361Y-84335852D01*
X157955078Y-84378996D01*
X158084659Y-84485341D01*
X158191004Y-84614922D01*
X158191005Y-84614924D01*
X158270024Y-84762758D01*
X158318687Y-84923177D01*
X158335117Y-85090000D01*
X158318687Y-85256823D01*
X158270024Y-85417242D01*
X158199114Y-85549906D01*
X158191004Y-85565078D01*
X158084659Y-85694659D01*
X157955078Y-85801004D01*
X157955076Y-85801005D01*
X157807242Y-85880024D01*
X157807239Y-85880025D01*
X157793647Y-85884148D01*
X157646823Y-85928687D01*
X157521804Y-85941000D01*
X157438196Y-85941000D01*
X157313177Y-85928687D01*
X157166353Y-85884148D01*
X157152761Y-85880025D01*
X157152758Y-85880024D01*
X157004924Y-85801005D01*
X157004922Y-85801004D01*
X156875341Y-85694659D01*
X156768996Y-85565078D01*
X156760886Y-85549906D01*
X156689976Y-85417242D01*
X156641313Y-85256823D01*
X156624883Y-85090000D01*
X156641313Y-84923177D01*
X156689976Y-84762758D01*
X156768995Y-84614924D01*
X156768996Y-84614922D01*
X156875341Y-84485341D01*
X157004922Y-84378996D01*
X157085639Y-84335852D01*
X157152758Y-84299976D01*
X157313177Y-84251313D01*
X157438196Y-84239000D01*
X157521804Y-84239000D01*
X157646823Y-84251313D01*
X157646823Y-84251313D01*
G37*
G36*
X162726823Y-84251313D02*
G01*
X162887242Y-84299976D01*
X162954361Y-84335852D01*
X163035078Y-84378996D01*
X163164659Y-84485341D01*
X163271004Y-84614922D01*
X163271005Y-84614924D01*
X163350024Y-84762758D01*
X163398687Y-84923177D01*
X163415117Y-85090000D01*
X163398687Y-85256823D01*
X163350024Y-85417242D01*
X163279114Y-85549906D01*
X163271004Y-85565078D01*
X163164659Y-85694659D01*
X163035078Y-85801004D01*
X163035076Y-85801005D01*
X162887242Y-85880024D01*
X162887239Y-85880025D01*
X162873647Y-85884148D01*
X162726823Y-85928687D01*
X162601804Y-85941000D01*
X162518196Y-85941000D01*
X162393177Y-85928687D01*
X162246353Y-85884148D01*
X162232761Y-85880025D01*
X162232758Y-85880024D01*
X162084924Y-85801005D01*
X162084922Y-85801004D01*
X161955341Y-85694659D01*
X161848996Y-85565078D01*
X161840886Y-85549906D01*
X161769976Y-85417242D01*
X161721313Y-85256823D01*
X161704883Y-85090000D01*
X161721313Y-84923177D01*
X161769976Y-84762758D01*
X161848995Y-84614924D01*
X161848996Y-84614922D01*
X161955341Y-84485341D01*
X162084922Y-84378996D01*
X162165639Y-84335852D01*
X162232758Y-84299976D01*
X162393177Y-84251313D01*
X162518196Y-84239000D01*
X162601804Y-84239000D01*
X162726823Y-84251313D01*
X162726823Y-84251313D01*
G37*
G36*
X172886823Y-84251313D02*
G01*
X173047242Y-84299976D01*
X173114361Y-84335852D01*
X173195078Y-84378996D01*
X173324659Y-84485341D01*
X173431004Y-84614922D01*
X173431005Y-84614924D01*
X173510024Y-84762758D01*
X173558687Y-84923177D01*
X173575117Y-85090000D01*
X173558687Y-85256823D01*
X173510024Y-85417242D01*
X173439114Y-85549906D01*
X173431004Y-85565078D01*
X173324659Y-85694659D01*
X173195078Y-85801004D01*
X173195076Y-85801005D01*
X173047242Y-85880024D01*
X173047239Y-85880025D01*
X173033647Y-85884148D01*
X172886823Y-85928687D01*
X172761804Y-85941000D01*
X172678196Y-85941000D01*
X172553177Y-85928687D01*
X172406353Y-85884148D01*
X172392761Y-85880025D01*
X172392758Y-85880024D01*
X172244924Y-85801005D01*
X172244922Y-85801004D01*
X172115341Y-85694659D01*
X172008996Y-85565078D01*
X172000886Y-85549906D01*
X171929976Y-85417242D01*
X171881313Y-85256823D01*
X171864883Y-85090000D01*
X171881313Y-84923177D01*
X171929976Y-84762758D01*
X172008995Y-84614924D01*
X172008996Y-84614922D01*
X172115341Y-84485341D01*
X172244922Y-84378996D01*
X172325639Y-84335852D01*
X172392758Y-84299976D01*
X172553177Y-84251313D01*
X172678196Y-84239000D01*
X172761804Y-84239000D01*
X172886823Y-84251313D01*
X172886823Y-84251313D01*
G37*
G36*
X167806823Y-84251313D02*
G01*
X167967242Y-84299976D01*
X168034361Y-84335852D01*
X168115078Y-84378996D01*
X168244659Y-84485341D01*
X168351004Y-84614922D01*
X168351005Y-84614924D01*
X168430024Y-84762758D01*
X168478687Y-84923177D01*
X168495117Y-85090000D01*
X168478687Y-85256823D01*
X168430024Y-85417242D01*
X168359114Y-85549906D01*
X168351004Y-85565078D01*
X168244659Y-85694659D01*
X168115078Y-85801004D01*
X168115076Y-85801005D01*
X167967242Y-85880024D01*
X167967239Y-85880025D01*
X167953647Y-85884148D01*
X167806823Y-85928687D01*
X167681804Y-85941000D01*
X167598196Y-85941000D01*
X167473177Y-85928687D01*
X167326353Y-85884148D01*
X167312761Y-85880025D01*
X167312758Y-85880024D01*
X167164924Y-85801005D01*
X167164922Y-85801004D01*
X167035341Y-85694659D01*
X166928996Y-85565078D01*
X166920886Y-85549906D01*
X166849976Y-85417242D01*
X166801313Y-85256823D01*
X166784883Y-85090000D01*
X166801313Y-84923177D01*
X166849976Y-84762758D01*
X166928995Y-84614924D01*
X166928996Y-84614922D01*
X167035341Y-84485341D01*
X167164922Y-84378996D01*
X167245639Y-84335852D01*
X167312758Y-84299976D01*
X167473177Y-84251313D01*
X167598196Y-84239000D01*
X167681804Y-84239000D01*
X167806823Y-84251313D01*
X167806823Y-84251313D01*
G37*
G36*
X165266823Y-84251313D02*
G01*
X165427242Y-84299976D01*
X165494361Y-84335852D01*
X165575078Y-84378996D01*
X165704659Y-84485341D01*
X165811004Y-84614922D01*
X165811005Y-84614924D01*
X165890024Y-84762758D01*
X165938687Y-84923177D01*
X165955117Y-85090000D01*
X165938687Y-85256823D01*
X165890024Y-85417242D01*
X165819114Y-85549906D01*
X165811004Y-85565078D01*
X165704659Y-85694659D01*
X165575078Y-85801004D01*
X165575076Y-85801005D01*
X165427242Y-85880024D01*
X165427239Y-85880025D01*
X165413647Y-85884148D01*
X165266823Y-85928687D01*
X165141804Y-85941000D01*
X165058196Y-85941000D01*
X164933177Y-85928687D01*
X164786353Y-85884148D01*
X164772761Y-85880025D01*
X164772758Y-85880024D01*
X164624924Y-85801005D01*
X164624922Y-85801004D01*
X164495341Y-85694659D01*
X164388996Y-85565078D01*
X164380886Y-85549906D01*
X164309976Y-85417242D01*
X164261313Y-85256823D01*
X164244883Y-85090000D01*
X164261313Y-84923177D01*
X164309976Y-84762758D01*
X164388995Y-84614924D01*
X164388996Y-84614922D01*
X164495341Y-84485341D01*
X164624922Y-84378996D01*
X164705639Y-84335852D01*
X164772758Y-84299976D01*
X164933177Y-84251313D01*
X165058196Y-84239000D01*
X165141804Y-84239000D01*
X165266823Y-84251313D01*
X165266823Y-84251313D01*
G37*
G36*
X155106823Y-84251313D02*
G01*
X155267242Y-84299976D01*
X155334361Y-84335852D01*
X155415078Y-84378996D01*
X155544659Y-84485341D01*
X155651004Y-84614922D01*
X155651005Y-84614924D01*
X155730024Y-84762758D01*
X155778687Y-84923177D01*
X155795117Y-85090000D01*
X155778687Y-85256823D01*
X155730024Y-85417242D01*
X155659114Y-85549906D01*
X155651004Y-85565078D01*
X155544659Y-85694659D01*
X155415078Y-85801004D01*
X155415076Y-85801005D01*
X155267242Y-85880024D01*
X155267239Y-85880025D01*
X155253647Y-85884148D01*
X155106823Y-85928687D01*
X154981804Y-85941000D01*
X154898196Y-85941000D01*
X154773177Y-85928687D01*
X154626353Y-85884148D01*
X154612761Y-85880025D01*
X154612758Y-85880024D01*
X154464924Y-85801005D01*
X154464922Y-85801004D01*
X154335341Y-85694659D01*
X154228996Y-85565078D01*
X154220886Y-85549906D01*
X154149976Y-85417242D01*
X154101313Y-85256823D01*
X154084883Y-85090000D01*
X154101313Y-84923177D01*
X154149976Y-84762758D01*
X154228995Y-84614924D01*
X154228996Y-84614922D01*
X154335341Y-84485341D01*
X154464922Y-84378996D01*
X154545639Y-84335852D01*
X154612758Y-84299976D01*
X154773177Y-84251313D01*
X154898196Y-84239000D01*
X154981804Y-84239000D01*
X155106823Y-84251313D01*
X155106823Y-84251313D01*
G37*
G36*
X130976823Y-84251313D02*
G01*
X131137242Y-84299976D01*
X131204361Y-84335852D01*
X131285078Y-84378996D01*
X131414659Y-84485341D01*
X131521004Y-84614922D01*
X131521005Y-84614924D01*
X131600024Y-84762758D01*
X131648687Y-84923177D01*
X131665117Y-85090000D01*
X131648687Y-85256823D01*
X131600024Y-85417242D01*
X131529114Y-85549906D01*
X131521004Y-85565078D01*
X131414659Y-85694659D01*
X131285078Y-85801004D01*
X131285076Y-85801005D01*
X131137242Y-85880024D01*
X131137239Y-85880025D01*
X131123647Y-85884148D01*
X130976823Y-85928687D01*
X130851804Y-85941000D01*
X130768196Y-85941000D01*
X130643177Y-85928687D01*
X130496353Y-85884148D01*
X130482761Y-85880025D01*
X130482758Y-85880024D01*
X130334924Y-85801005D01*
X130334922Y-85801004D01*
X130205341Y-85694659D01*
X130098996Y-85565078D01*
X130090886Y-85549906D01*
X130019976Y-85417242D01*
X129971313Y-85256823D01*
X129954883Y-85090000D01*
X129971313Y-84923177D01*
X130019976Y-84762758D01*
X130098995Y-84614924D01*
X130098996Y-84614922D01*
X130205341Y-84485341D01*
X130334922Y-84378996D01*
X130415639Y-84335852D01*
X130482758Y-84299976D01*
X130643177Y-84251313D01*
X130768196Y-84239000D01*
X130851804Y-84239000D01*
X130976823Y-84251313D01*
X130976823Y-84251313D01*
G37*
G36*
X180548228Y-81731703D02*
G01*
X180703100Y-81795853D01*
X180842481Y-81888985D01*
X180961015Y-82007519D01*
X181054147Y-82146900D01*
X181118297Y-82301772D01*
X181151000Y-82466184D01*
X181151000Y-82633816D01*
X181118297Y-82798228D01*
X181054147Y-82953100D01*
X180961015Y-83092481D01*
X180842481Y-83211015D01*
X180703100Y-83304147D01*
X180548228Y-83368297D01*
X180383816Y-83401000D01*
X180216184Y-83401000D01*
X180051772Y-83368297D01*
X179896900Y-83304147D01*
X179757519Y-83211015D01*
X179638985Y-83092481D01*
X179545853Y-82953100D01*
X179481703Y-82798228D01*
X179449000Y-82633816D01*
X179449000Y-82466184D01*
X179481703Y-82301772D01*
X179545853Y-82146900D01*
X179638985Y-82007519D01*
X179757519Y-81888985D01*
X179896900Y-81795853D01*
X180051772Y-81731703D01*
X180216184Y-81699000D01*
X180383816Y-81699000D01*
X180548228Y-81731703D01*
X180548228Y-81731703D01*
G37*
G36*
X178651000Y-83401000D02*
G01*
X176949000Y-83401000D01*
X176949000Y-81699000D01*
X178651000Y-81699000D01*
X178651000Y-83401000D01*
X178651000Y-83401000D01*
G37*
G36*
X131058228Y-76651703D02*
G01*
X131213100Y-76715853D01*
X131352481Y-76808985D01*
X131471015Y-76927519D01*
X131564147Y-77066900D01*
X131628297Y-77221772D01*
X131661000Y-77386184D01*
X131661000Y-77553816D01*
X131628297Y-77718228D01*
X131564147Y-77873100D01*
X131471015Y-78012481D01*
X131352481Y-78131015D01*
X131213100Y-78224147D01*
X131058228Y-78288297D01*
X130893816Y-78321000D01*
X130726184Y-78321000D01*
X130561772Y-78288297D01*
X130406900Y-78224147D01*
X130267519Y-78131015D01*
X130148985Y-78012481D01*
X130055853Y-77873100D01*
X129991703Y-77718228D01*
X129959000Y-77553816D01*
X129959000Y-77386184D01*
X129991703Y-77221772D01*
X130055853Y-77066900D01*
X130148985Y-76927519D01*
X130267519Y-76808985D01*
X130406900Y-76715853D01*
X130561772Y-76651703D01*
X130726184Y-76619000D01*
X130893816Y-76619000D01*
X131058228Y-76651703D01*
X131058228Y-76651703D01*
G37*
G36*
X188408793Y-71784937D02*
G01*
X188763670Y-71931932D01*
X189083052Y-72145336D01*
X189354664Y-72416948D01*
X189568068Y-72736330D01*
X189715063Y-73091207D01*
X189790000Y-73467940D01*
X189790000Y-73852060D01*
X189715063Y-74228793D01*
X189568068Y-74583670D01*
X189354664Y-74903052D01*
X189083052Y-75174664D01*
X188763670Y-75388068D01*
X188408793Y-75535063D01*
X188032060Y-75610000D01*
X187647940Y-75610000D01*
X187271207Y-75535063D01*
X186916330Y-75388068D01*
X186596948Y-75174664D01*
X186325336Y-74903052D01*
X186111932Y-74583670D01*
X185964937Y-74228793D01*
X185890000Y-73852060D01*
X185890000Y-73467940D01*
X185964937Y-73091207D01*
X186111932Y-72736330D01*
X186325336Y-72416948D01*
X186596948Y-72145336D01*
X186916330Y-71931932D01*
X187271207Y-71784937D01*
X187647940Y-71710000D01*
X188032060Y-71710000D01*
X188408793Y-71784937D01*
X188408793Y-71784937D01*
G37*
G36*
X95408793Y-71784937D02*
G01*
X95763670Y-71931932D01*
X96083052Y-72145336D01*
X96354664Y-72416948D01*
X96568068Y-72736330D01*
X96715063Y-73091207D01*
X96790000Y-73467940D01*
X96790000Y-73852060D01*
X96715063Y-74228793D01*
X96568068Y-74583670D01*
X96354664Y-74903052D01*
X96083052Y-75174664D01*
X95763670Y-75388068D01*
X95408793Y-75535063D01*
X95032060Y-75610000D01*
X94647940Y-75610000D01*
X94271207Y-75535063D01*
X93916330Y-75388068D01*
X93596948Y-75174664D01*
X93325336Y-74903052D01*
X93111932Y-74583670D01*
X92964937Y-74228793D01*
X92890000Y-73852060D01*
X92890000Y-73467940D01*
X92964937Y-73091207D01*
X93111932Y-72736330D01*
X93325336Y-72416948D01*
X93596948Y-72145336D01*
X93916330Y-71931932D01*
X94271207Y-71784937D01*
X94647940Y-71710000D01*
X95032060Y-71710000D01*
X95408793Y-71784937D01*
X95408793Y-71784937D01*
G37*
G36*
X165210442Y-72765518D02*
G01*
X165276627Y-72772037D01*
X165446466Y-72823557D01*
X165602991Y-72907222D01*
X165638729Y-72936552D01*
X165740186Y-73019814D01*
X165823448Y-73121271D01*
X165852778Y-73157009D01*
X165936443Y-73313534D01*
X165987963Y-73483373D01*
X166005359Y-73660000D01*
X165987963Y-73836627D01*
X165936443Y-74006466D01*
X165852778Y-74162991D01*
X165823448Y-74198729D01*
X165740186Y-74300186D01*
X165638729Y-74383448D01*
X165602991Y-74412778D01*
X165446466Y-74496443D01*
X165276627Y-74547963D01*
X165210442Y-74554482D01*
X165144260Y-74561000D01*
X165055740Y-74561000D01*
X164989558Y-74554482D01*
X164923373Y-74547963D01*
X164753534Y-74496443D01*
X164597009Y-74412778D01*
X164561271Y-74383448D01*
X164459814Y-74300186D01*
X164376552Y-74198729D01*
X164347222Y-74162991D01*
X164263557Y-74006466D01*
X164212037Y-73836627D01*
X164194641Y-73660000D01*
X164212037Y-73483373D01*
X164263557Y-73313534D01*
X164347222Y-73157009D01*
X164376552Y-73121271D01*
X164459814Y-73019814D01*
X164561271Y-72936552D01*
X164597009Y-72907222D01*
X164753534Y-72823557D01*
X164923373Y-72772037D01*
X164989558Y-72765518D01*
X165055740Y-72759000D01*
X165144260Y-72759000D01*
X165210442Y-72765518D01*
X165210442Y-72765518D01*
G37*
G36*
X181241000Y-74561000D02*
G01*
X179439000Y-74561000D01*
X179439000Y-72759000D01*
X181241000Y-72759000D01*
X181241000Y-74561000D01*
X181241000Y-74561000D01*
G37*
G36*
X162670442Y-72765518D02*
G01*
X162736627Y-72772037D01*
X162906466Y-72823557D01*
X163062991Y-72907222D01*
X163098729Y-72936552D01*
X163200186Y-73019814D01*
X163283448Y-73121271D01*
X163312778Y-73157009D01*
X163396443Y-73313534D01*
X163447963Y-73483373D01*
X163465359Y-73660000D01*
X163447963Y-73836627D01*
X163396443Y-74006466D01*
X163312778Y-74162991D01*
X163283448Y-74198729D01*
X163200186Y-74300186D01*
X163098729Y-74383448D01*
X163062991Y-74412778D01*
X162906466Y-74496443D01*
X162736627Y-74547963D01*
X162670442Y-74554482D01*
X162604260Y-74561000D01*
X162515740Y-74561000D01*
X162449558Y-74554482D01*
X162383373Y-74547963D01*
X162213534Y-74496443D01*
X162057009Y-74412778D01*
X162021271Y-74383448D01*
X161919814Y-74300186D01*
X161836552Y-74198729D01*
X161807222Y-74162991D01*
X161723557Y-74006466D01*
X161672037Y-73836627D01*
X161654641Y-73660000D01*
X161672037Y-73483373D01*
X161723557Y-73313534D01*
X161807222Y-73157009D01*
X161836552Y-73121271D01*
X161919814Y-73019814D01*
X162021271Y-72936552D01*
X162057009Y-72907222D01*
X162213534Y-72823557D01*
X162383373Y-72772037D01*
X162449558Y-72765518D01*
X162515740Y-72759000D01*
X162604260Y-72759000D01*
X162670442Y-72765518D01*
X162670442Y-72765518D01*
G37*
G36*
X160130442Y-72765518D02*
G01*
X160196627Y-72772037D01*
X160366466Y-72823557D01*
X160522991Y-72907222D01*
X160558729Y-72936552D01*
X160660186Y-73019814D01*
X160743448Y-73121271D01*
X160772778Y-73157009D01*
X160856443Y-73313534D01*
X160907963Y-73483373D01*
X160925359Y-73660000D01*
X160907963Y-73836627D01*
X160856443Y-74006466D01*
X160772778Y-74162991D01*
X160743448Y-74198729D01*
X160660186Y-74300186D01*
X160558729Y-74383448D01*
X160522991Y-74412778D01*
X160366466Y-74496443D01*
X160196627Y-74547963D01*
X160130442Y-74554482D01*
X160064260Y-74561000D01*
X159975740Y-74561000D01*
X159909558Y-74554482D01*
X159843373Y-74547963D01*
X159673534Y-74496443D01*
X159517009Y-74412778D01*
X159481271Y-74383448D01*
X159379814Y-74300186D01*
X159296552Y-74198729D01*
X159267222Y-74162991D01*
X159183557Y-74006466D01*
X159132037Y-73836627D01*
X159114641Y-73660000D01*
X159132037Y-73483373D01*
X159183557Y-73313534D01*
X159267222Y-73157009D01*
X159296552Y-73121271D01*
X159379814Y-73019814D01*
X159481271Y-72936552D01*
X159517009Y-72907222D01*
X159673534Y-72823557D01*
X159843373Y-72772037D01*
X159909558Y-72765518D01*
X159975740Y-72759000D01*
X160064260Y-72759000D01*
X160130442Y-72765518D01*
X160130442Y-72765518D01*
G37*
G36*
X142350442Y-72765518D02*
G01*
X142416627Y-72772037D01*
X142586466Y-72823557D01*
X142742991Y-72907222D01*
X142778729Y-72936552D01*
X142880186Y-73019814D01*
X142963448Y-73121271D01*
X142992778Y-73157009D01*
X143076443Y-73313534D01*
X143127963Y-73483373D01*
X143145359Y-73660000D01*
X143127963Y-73836627D01*
X143076443Y-74006466D01*
X142992778Y-74162991D01*
X142963448Y-74198729D01*
X142880186Y-74300186D01*
X142778729Y-74383448D01*
X142742991Y-74412778D01*
X142586466Y-74496443D01*
X142416627Y-74547963D01*
X142350442Y-74554482D01*
X142284260Y-74561000D01*
X142195740Y-74561000D01*
X142129558Y-74554482D01*
X142063373Y-74547963D01*
X141893534Y-74496443D01*
X141737009Y-74412778D01*
X141701271Y-74383448D01*
X141599814Y-74300186D01*
X141516552Y-74198729D01*
X141487222Y-74162991D01*
X141403557Y-74006466D01*
X141352037Y-73836627D01*
X141334641Y-73660000D01*
X141352037Y-73483373D01*
X141403557Y-73313534D01*
X141487222Y-73157009D01*
X141516552Y-73121271D01*
X141599814Y-73019814D01*
X141701271Y-72936552D01*
X141737009Y-72907222D01*
X141893534Y-72823557D01*
X142063373Y-72772037D01*
X142129558Y-72765518D01*
X142195740Y-72759000D01*
X142284260Y-72759000D01*
X142350442Y-72765518D01*
X142350442Y-72765518D01*
G37*
G36*
X172830442Y-72765518D02*
G01*
X172896627Y-72772037D01*
X173066466Y-72823557D01*
X173222991Y-72907222D01*
X173258729Y-72936552D01*
X173360186Y-73019814D01*
X173443448Y-73121271D01*
X173472778Y-73157009D01*
X173556443Y-73313534D01*
X173607963Y-73483373D01*
X173625359Y-73660000D01*
X173607963Y-73836627D01*
X173556443Y-74006466D01*
X173472778Y-74162991D01*
X173443448Y-74198729D01*
X173360186Y-74300186D01*
X173258729Y-74383448D01*
X173222991Y-74412778D01*
X173066466Y-74496443D01*
X172896627Y-74547963D01*
X172830442Y-74554482D01*
X172764260Y-74561000D01*
X172675740Y-74561000D01*
X172609558Y-74554482D01*
X172543373Y-74547963D01*
X172373534Y-74496443D01*
X172217009Y-74412778D01*
X172181271Y-74383448D01*
X172079814Y-74300186D01*
X171996552Y-74198729D01*
X171967222Y-74162991D01*
X171883557Y-74006466D01*
X171832037Y-73836627D01*
X171814641Y-73660000D01*
X171832037Y-73483373D01*
X171883557Y-73313534D01*
X171967222Y-73157009D01*
X171996552Y-73121271D01*
X172079814Y-73019814D01*
X172181271Y-72936552D01*
X172217009Y-72907222D01*
X172373534Y-72823557D01*
X172543373Y-72772037D01*
X172609558Y-72765518D01*
X172675740Y-72759000D01*
X172764260Y-72759000D01*
X172830442Y-72765518D01*
X172830442Y-72765518D01*
G37*
G36*
X170290442Y-72765518D02*
G01*
X170356627Y-72772037D01*
X170526466Y-72823557D01*
X170682991Y-72907222D01*
X170718729Y-72936552D01*
X170820186Y-73019814D01*
X170903448Y-73121271D01*
X170932778Y-73157009D01*
X171016443Y-73313534D01*
X171067963Y-73483373D01*
X171085359Y-73660000D01*
X171067963Y-73836627D01*
X171016443Y-74006466D01*
X170932778Y-74162991D01*
X170903448Y-74198729D01*
X170820186Y-74300186D01*
X170718729Y-74383448D01*
X170682991Y-74412778D01*
X170526466Y-74496443D01*
X170356627Y-74547963D01*
X170290442Y-74554482D01*
X170224260Y-74561000D01*
X170135740Y-74561000D01*
X170069558Y-74554482D01*
X170003373Y-74547963D01*
X169833534Y-74496443D01*
X169677009Y-74412778D01*
X169641271Y-74383448D01*
X169539814Y-74300186D01*
X169456552Y-74198729D01*
X169427222Y-74162991D01*
X169343557Y-74006466D01*
X169292037Y-73836627D01*
X169274641Y-73660000D01*
X169292037Y-73483373D01*
X169343557Y-73313534D01*
X169427222Y-73157009D01*
X169456552Y-73121271D01*
X169539814Y-73019814D01*
X169641271Y-72936552D01*
X169677009Y-72907222D01*
X169833534Y-72823557D01*
X170003373Y-72772037D01*
X170069558Y-72765518D01*
X170135740Y-72759000D01*
X170224260Y-72759000D01*
X170290442Y-72765518D01*
X170290442Y-72765518D01*
G37*
G36*
X177910442Y-72765518D02*
G01*
X177976627Y-72772037D01*
X178146466Y-72823557D01*
X178302991Y-72907222D01*
X178338729Y-72936552D01*
X178440186Y-73019814D01*
X178523448Y-73121271D01*
X178552778Y-73157009D01*
X178636443Y-73313534D01*
X178687963Y-73483373D01*
X178705359Y-73660000D01*
X178687963Y-73836627D01*
X178636443Y-74006466D01*
X178552778Y-74162991D01*
X178523448Y-74198729D01*
X178440186Y-74300186D01*
X178338729Y-74383448D01*
X178302991Y-74412778D01*
X178146466Y-74496443D01*
X177976627Y-74547963D01*
X177910442Y-74554482D01*
X177844260Y-74561000D01*
X177755740Y-74561000D01*
X177689558Y-74554482D01*
X177623373Y-74547963D01*
X177453534Y-74496443D01*
X177297009Y-74412778D01*
X177261271Y-74383448D01*
X177159814Y-74300186D01*
X177076552Y-74198729D01*
X177047222Y-74162991D01*
X176963557Y-74006466D01*
X176912037Y-73836627D01*
X176894641Y-73660000D01*
X176912037Y-73483373D01*
X176963557Y-73313534D01*
X177047222Y-73157009D01*
X177076552Y-73121271D01*
X177159814Y-73019814D01*
X177261271Y-72936552D01*
X177297009Y-72907222D01*
X177453534Y-72823557D01*
X177623373Y-72772037D01*
X177689558Y-72765518D01*
X177755740Y-72759000D01*
X177844260Y-72759000D01*
X177910442Y-72765518D01*
X177910442Y-72765518D01*
G37*
G36*
X175370442Y-72765518D02*
G01*
X175436627Y-72772037D01*
X175606466Y-72823557D01*
X175762991Y-72907222D01*
X175798729Y-72936552D01*
X175900186Y-73019814D01*
X175983448Y-73121271D01*
X176012778Y-73157009D01*
X176096443Y-73313534D01*
X176147963Y-73483373D01*
X176165359Y-73660000D01*
X176147963Y-73836627D01*
X176096443Y-74006466D01*
X176012778Y-74162991D01*
X175983448Y-74198729D01*
X175900186Y-74300186D01*
X175798729Y-74383448D01*
X175762991Y-74412778D01*
X175606466Y-74496443D01*
X175436627Y-74547963D01*
X175370442Y-74554482D01*
X175304260Y-74561000D01*
X175215740Y-74561000D01*
X175149558Y-74554482D01*
X175083373Y-74547963D01*
X174913534Y-74496443D01*
X174757009Y-74412778D01*
X174721271Y-74383448D01*
X174619814Y-74300186D01*
X174536552Y-74198729D01*
X174507222Y-74162991D01*
X174423557Y-74006466D01*
X174372037Y-73836627D01*
X174354641Y-73660000D01*
X174372037Y-73483373D01*
X174423557Y-73313534D01*
X174507222Y-73157009D01*
X174536552Y-73121271D01*
X174619814Y-73019814D01*
X174721271Y-72936552D01*
X174757009Y-72907222D01*
X174913534Y-72823557D01*
X175083373Y-72772037D01*
X175149558Y-72765518D01*
X175215740Y-72759000D01*
X175304260Y-72759000D01*
X175370442Y-72765518D01*
X175370442Y-72765518D01*
G37*
G36*
X147430442Y-72765518D02*
G01*
X147496627Y-72772037D01*
X147666466Y-72823557D01*
X147822991Y-72907222D01*
X147858729Y-72936552D01*
X147960186Y-73019814D01*
X148043448Y-73121271D01*
X148072778Y-73157009D01*
X148156443Y-73313534D01*
X148207963Y-73483373D01*
X148225359Y-73660000D01*
X148207963Y-73836627D01*
X148156443Y-74006466D01*
X148072778Y-74162991D01*
X148043448Y-74198729D01*
X147960186Y-74300186D01*
X147858729Y-74383448D01*
X147822991Y-74412778D01*
X147666466Y-74496443D01*
X147496627Y-74547963D01*
X147430442Y-74554482D01*
X147364260Y-74561000D01*
X147275740Y-74561000D01*
X147209558Y-74554482D01*
X147143373Y-74547963D01*
X146973534Y-74496443D01*
X146817009Y-74412778D01*
X146781271Y-74383448D01*
X146679814Y-74300186D01*
X146596552Y-74198729D01*
X146567222Y-74162991D01*
X146483557Y-74006466D01*
X146432037Y-73836627D01*
X146414641Y-73660000D01*
X146432037Y-73483373D01*
X146483557Y-73313534D01*
X146567222Y-73157009D01*
X146596552Y-73121271D01*
X146679814Y-73019814D01*
X146781271Y-72936552D01*
X146817009Y-72907222D01*
X146973534Y-72823557D01*
X147143373Y-72772037D01*
X147209558Y-72765518D01*
X147275740Y-72759000D01*
X147364260Y-72759000D01*
X147430442Y-72765518D01*
X147430442Y-72765518D01*
G37*
G36*
X152510442Y-72765518D02*
G01*
X152576627Y-72772037D01*
X152746466Y-72823557D01*
X152902991Y-72907222D01*
X152938729Y-72936552D01*
X153040186Y-73019814D01*
X153123448Y-73121271D01*
X153152778Y-73157009D01*
X153236443Y-73313534D01*
X153287963Y-73483373D01*
X153305359Y-73660000D01*
X153287963Y-73836627D01*
X153236443Y-74006466D01*
X153152778Y-74162991D01*
X153123448Y-74198729D01*
X153040186Y-74300186D01*
X152938729Y-74383448D01*
X152902991Y-74412778D01*
X152746466Y-74496443D01*
X152576627Y-74547963D01*
X152510442Y-74554482D01*
X152444260Y-74561000D01*
X152355740Y-74561000D01*
X152289558Y-74554482D01*
X152223373Y-74547963D01*
X152053534Y-74496443D01*
X151897009Y-74412778D01*
X151861271Y-74383448D01*
X151759814Y-74300186D01*
X151676552Y-74198729D01*
X151647222Y-74162991D01*
X151563557Y-74006466D01*
X151512037Y-73836627D01*
X151494641Y-73660000D01*
X151512037Y-73483373D01*
X151563557Y-73313534D01*
X151647222Y-73157009D01*
X151676552Y-73121271D01*
X151759814Y-73019814D01*
X151861271Y-72936552D01*
X151897009Y-72907222D01*
X152053534Y-72823557D01*
X152223373Y-72772037D01*
X152289558Y-72765518D01*
X152355740Y-72759000D01*
X152444260Y-72759000D01*
X152510442Y-72765518D01*
X152510442Y-72765518D01*
G37*
G36*
X149970442Y-72765518D02*
G01*
X150036627Y-72772037D01*
X150206466Y-72823557D01*
X150362991Y-72907222D01*
X150398729Y-72936552D01*
X150500186Y-73019814D01*
X150583448Y-73121271D01*
X150612778Y-73157009D01*
X150696443Y-73313534D01*
X150747963Y-73483373D01*
X150765359Y-73660000D01*
X150747963Y-73836627D01*
X150696443Y-74006466D01*
X150612778Y-74162991D01*
X150583448Y-74198729D01*
X150500186Y-74300186D01*
X150398729Y-74383448D01*
X150362991Y-74412778D01*
X150206466Y-74496443D01*
X150036627Y-74547963D01*
X149970442Y-74554482D01*
X149904260Y-74561000D01*
X149815740Y-74561000D01*
X149749558Y-74554482D01*
X149683373Y-74547963D01*
X149513534Y-74496443D01*
X149357009Y-74412778D01*
X149321271Y-74383448D01*
X149219814Y-74300186D01*
X149136552Y-74198729D01*
X149107222Y-74162991D01*
X149023557Y-74006466D01*
X148972037Y-73836627D01*
X148954641Y-73660000D01*
X148972037Y-73483373D01*
X149023557Y-73313534D01*
X149107222Y-73157009D01*
X149136552Y-73121271D01*
X149219814Y-73019814D01*
X149321271Y-72936552D01*
X149357009Y-72907222D01*
X149513534Y-72823557D01*
X149683373Y-72772037D01*
X149749558Y-72765518D01*
X149815740Y-72759000D01*
X149904260Y-72759000D01*
X149970442Y-72765518D01*
X149970442Y-72765518D01*
G37*
G36*
X157590442Y-72765518D02*
G01*
X157656627Y-72772037D01*
X157826466Y-72823557D01*
X157982991Y-72907222D01*
X158018729Y-72936552D01*
X158120186Y-73019814D01*
X158203448Y-73121271D01*
X158232778Y-73157009D01*
X158316443Y-73313534D01*
X158367963Y-73483373D01*
X158385359Y-73660000D01*
X158367963Y-73836627D01*
X158316443Y-74006466D01*
X158232778Y-74162991D01*
X158203448Y-74198729D01*
X158120186Y-74300186D01*
X158018729Y-74383448D01*
X157982991Y-74412778D01*
X157826466Y-74496443D01*
X157656627Y-74547963D01*
X157590442Y-74554482D01*
X157524260Y-74561000D01*
X157435740Y-74561000D01*
X157369558Y-74554482D01*
X157303373Y-74547963D01*
X157133534Y-74496443D01*
X156977009Y-74412778D01*
X156941271Y-74383448D01*
X156839814Y-74300186D01*
X156756552Y-74198729D01*
X156727222Y-74162991D01*
X156643557Y-74006466D01*
X156592037Y-73836627D01*
X156574641Y-73660000D01*
X156592037Y-73483373D01*
X156643557Y-73313534D01*
X156727222Y-73157009D01*
X156756552Y-73121271D01*
X156839814Y-73019814D01*
X156941271Y-72936552D01*
X156977009Y-72907222D01*
X157133534Y-72823557D01*
X157303373Y-72772037D01*
X157369558Y-72765518D01*
X157435740Y-72759000D01*
X157524260Y-72759000D01*
X157590442Y-72765518D01*
X157590442Y-72765518D01*
G37*
G36*
X155050442Y-72765518D02*
G01*
X155116627Y-72772037D01*
X155286466Y-72823557D01*
X155442991Y-72907222D01*
X155478729Y-72936552D01*
X155580186Y-73019814D01*
X155663448Y-73121271D01*
X155692778Y-73157009D01*
X155776443Y-73313534D01*
X155827963Y-73483373D01*
X155845359Y-73660000D01*
X155827963Y-73836627D01*
X155776443Y-74006466D01*
X155692778Y-74162991D01*
X155663448Y-74198729D01*
X155580186Y-74300186D01*
X155478729Y-74383448D01*
X155442991Y-74412778D01*
X155286466Y-74496443D01*
X155116627Y-74547963D01*
X155050442Y-74554482D01*
X154984260Y-74561000D01*
X154895740Y-74561000D01*
X154829558Y-74554482D01*
X154763373Y-74547963D01*
X154593534Y-74496443D01*
X154437009Y-74412778D01*
X154401271Y-74383448D01*
X154299814Y-74300186D01*
X154216552Y-74198729D01*
X154187222Y-74162991D01*
X154103557Y-74006466D01*
X154052037Y-73836627D01*
X154034641Y-73660000D01*
X154052037Y-73483373D01*
X154103557Y-73313534D01*
X154187222Y-73157009D01*
X154216552Y-73121271D01*
X154299814Y-73019814D01*
X154401271Y-72936552D01*
X154437009Y-72907222D01*
X154593534Y-72823557D01*
X154763373Y-72772037D01*
X154829558Y-72765518D01*
X154895740Y-72759000D01*
X154984260Y-72759000D01*
X155050442Y-72765518D01*
X155050442Y-72765518D01*
G37*
G36*
X167750442Y-72765518D02*
G01*
X167816627Y-72772037D01*
X167986466Y-72823557D01*
X168142991Y-72907222D01*
X168178729Y-72936552D01*
X168280186Y-73019814D01*
X168363448Y-73121271D01*
X168392778Y-73157009D01*
X168476443Y-73313534D01*
X168527963Y-73483373D01*
X168545359Y-73660000D01*
X168527963Y-73836627D01*
X168476443Y-74006466D01*
X168392778Y-74162991D01*
X168363448Y-74198729D01*
X168280186Y-74300186D01*
X168178729Y-74383448D01*
X168142991Y-74412778D01*
X167986466Y-74496443D01*
X167816627Y-74547963D01*
X167750442Y-74554482D01*
X167684260Y-74561000D01*
X167595740Y-74561000D01*
X167529558Y-74554482D01*
X167463373Y-74547963D01*
X167293534Y-74496443D01*
X167137009Y-74412778D01*
X167101271Y-74383448D01*
X166999814Y-74300186D01*
X166916552Y-74198729D01*
X166887222Y-74162991D01*
X166803557Y-74006466D01*
X166752037Y-73836627D01*
X166734641Y-73660000D01*
X166752037Y-73483373D01*
X166803557Y-73313534D01*
X166887222Y-73157009D01*
X166916552Y-73121271D01*
X166999814Y-73019814D01*
X167101271Y-72936552D01*
X167137009Y-72907222D01*
X167293534Y-72823557D01*
X167463373Y-72772037D01*
X167529558Y-72765518D01*
X167595740Y-72759000D01*
X167684260Y-72759000D01*
X167750442Y-72765518D01*
X167750442Y-72765518D01*
G37*
G36*
X144890442Y-72765518D02*
G01*
X144956627Y-72772037D01*
X145126466Y-72823557D01*
X145282991Y-72907222D01*
X145318729Y-72936552D01*
X145420186Y-73019814D01*
X145503448Y-73121271D01*
X145532778Y-73157009D01*
X145616443Y-73313534D01*
X145667963Y-73483373D01*
X145685359Y-73660000D01*
X145667963Y-73836627D01*
X145616443Y-74006466D01*
X145532778Y-74162991D01*
X145503448Y-74198729D01*
X145420186Y-74300186D01*
X145318729Y-74383448D01*
X145282991Y-74412778D01*
X145126466Y-74496443D01*
X144956627Y-74547963D01*
X144890442Y-74554482D01*
X144824260Y-74561000D01*
X144735740Y-74561000D01*
X144669558Y-74554482D01*
X144603373Y-74547963D01*
X144433534Y-74496443D01*
X144277009Y-74412778D01*
X144241271Y-74383448D01*
X144139814Y-74300186D01*
X144056552Y-74198729D01*
X144027222Y-74162991D01*
X143943557Y-74006466D01*
X143892037Y-73836627D01*
X143874641Y-73660000D01*
X143892037Y-73483373D01*
X143943557Y-73313534D01*
X144027222Y-73157009D01*
X144056552Y-73121271D01*
X144139814Y-73019814D01*
X144241271Y-72936552D01*
X144277009Y-72907222D01*
X144433534Y-72823557D01*
X144603373Y-72772037D01*
X144669558Y-72765518D01*
X144735740Y-72759000D01*
X144824260Y-72759000D01*
X144890442Y-72765518D01*
X144890442Y-72765518D01*
G37*
M02*
