M48
; DRILL file {KiCad 5.1.3-ffb9f22~84~ubuntu16.04.1} date Fri 26 Jul 2019 23:44:26 CEST
; FORMAT={-:-/ absolute / inch / decimal}
; #@! TF.CreationDate,2019-07-26T23:44:26+02:00
; #@! TF.GenerationSoftware,Kicad,Pcbnew,5.1.3-ffb9f22~84~ubuntu16.04.1
; #@! TF.FileFunction,Plated,1,2,PTH
FMAT,2
INCH
T1C0.0157
T2C0.0256
T3C0.0295
T4C0.0315
T5C0.0354
T6C0.0394
T7C0.1260
%
G90
G05
T1
X3.8989Y-4.0877
X4.05Y-4.15
X4.4Y-4.4
X4.5566Y-4.9434
X4.6Y-3.25
X4.6Y-4.15
X4.6Y-4.15
X4.65Y-4.9
X4.7Y-4.0
X4.7614Y-4.8386
X5.0Y-4.05
X5.05Y-5.023
X5.1066Y-4.9434
X5.2Y-4.9
X5.2409Y-4.8386
X5.65Y-4.875
X5.65Y-4.95
X5.6511Y-4.7989
X5.7Y-4.835
X5.75Y-4.9
X5.75Y-5.0
X5.8Y-4.0
X5.9012Y-4.0488
X6.05Y-4.0
X6.05Y-5.05
X6.15Y-4.05
X6.25Y-5.1
X6.3Y-4.0
X6.4012Y-4.0488
X6.5488Y-4.9
X6.6Y-5.0
X6.6Y-5.0
X6.65Y-5.05
X6.65Y-5.05
X6.65Y-5.05
T2
X4.85Y-5.1
X4.9Y-5.1
X4.95Y-5.1
X5.0Y-5.1
X5.05Y-5.1
X5.1Y-5.1
X5.15Y-5.1
X5.2Y-5.1
X4.25Y-5.1
X4.3Y-5.1
X4.35Y-5.1
X4.4Y-5.1
X4.45Y-5.1
X4.5Y-5.1
X4.55Y-5.1
X4.6Y-5.1
X6.35Y-5.1
X6.4Y-5.1
X6.45Y-5.1
X6.5Y-5.1
X6.55Y-5.1
X6.6Y-5.1
X6.65Y-5.1
X6.7Y-5.1
X3.7Y-3.7
X3.7Y-3.75
X3.7Y-3.8
X3.7Y-3.85
X3.7Y-3.9
X3.7Y-3.95
T3
X5.15Y-3.5
X5.15Y-3.6
X5.2Y-3.55
T4
X5.05Y-3.8
X5.35Y-3.8
X6.05Y-4.75
X6.15Y-4.75
X6.25Y-4.75
X6.35Y-4.75
X6.45Y-4.75
X6.55Y-4.75
X6.65Y-4.75
X6.75Y-4.75
X6.85Y-4.75
X5.625Y-3.6
X5.925Y-3.6
X6.1Y-3.35
X6.1Y-3.65
X6.2Y-3.35
X6.2Y-3.65
X6.3Y-3.35
X6.3Y-3.65
X6.4Y-3.35
X6.4Y-3.65
X6.5Y-3.35
X6.5Y-3.65
X6.6Y-3.35
X6.6Y-3.65
X6.7Y-3.35
X6.7Y-3.65
X6.8Y-3.35
X6.8Y-3.65
X7.0Y-3.25
X7.0984Y-3.25
X5.85Y-4.6531
X5.85Y-4.85
X4.6016Y-3.35
X4.7Y-3.35
X4.35Y-3.35
X4.4484Y-3.35
X5.95Y-3.3516
X5.95Y-3.45
X5.15Y-3.05
X5.15Y-3.35
T5
X5.4Y-3.6
X5.5Y-3.6
T6
X6.7Y-3.9
X7.0Y-4.0
X7.2Y-3.9
X5.6Y-2.9
X5.7Y-2.9
X5.8Y-2.9
X5.9Y-2.9
X6.0Y-2.9
X6.1Y-2.9
X6.2Y-2.9
X6.3Y-2.9
X6.4Y-2.9
X6.5Y-2.9
X6.6Y-2.9
X6.7Y-2.9
X6.8Y-2.9
X6.9Y-2.9
X7.0Y-2.9
X7.1Y-2.9
T7
X3.7339Y-2.9
X3.7339Y-5.0654
X7.3953Y-2.9
X7.3953Y-5.0654
T0
M30
