%TF.GenerationSoftware,KiCad,Pcbnew,5.1.3-ffb9f22~84~ubuntu16.04.1*%
%TF.CreationDate,2019-07-26T23:44:31+02:00*%
%TF.ProjectId,Raspberry-I2C-LCD-and-Keypad,52617370-6265-4727-9279-2d4932432d4c,rev?*%
%TF.SameCoordinates,Original*%
%TF.FileFunction,Paste,Bot*%
%TF.FilePolarity,Positive*%
%FSLAX46Y46*%
G04 Gerber Fmt 4.6, Leading zero omitted, Abs format (unit mm)*
G04 Created by KiCad (PCBNEW 5.1.3-ffb9f22~84~ubuntu16.04.1) date 2019-07-26 23:44:31*
%MOMM*%
%LPD*%
G04 APERTURE LIST*
%ADD10C,0.050000*%
%ADD11C,0.100000*%
%ADD12C,0.300000*%
%ADD13C,1.070000*%
G04 APERTURE END LIST*
D10*
X191439800Y-69850000D02*
X91440000Y-69850000D01*
X191439800Y-132080000D02*
X191439800Y-69850000D01*
X91440000Y-132080000D02*
X191439800Y-132080000D01*
X91440000Y-69850000D02*
X91440000Y-132080000D01*
D11*
G36*
X141982351Y-121750361D02*
G01*
X141989632Y-121751441D01*
X141996771Y-121753229D01*
X142003701Y-121755709D01*
X142010355Y-121758856D01*
X142016668Y-121762640D01*
X142022579Y-121767024D01*
X142028033Y-121771967D01*
X142032976Y-121777421D01*
X142037360Y-121783332D01*
X142041144Y-121789645D01*
X142044291Y-121796299D01*
X142046771Y-121803229D01*
X142048559Y-121810368D01*
X142049639Y-121817649D01*
X142050000Y-121825000D01*
X142050000Y-121975000D01*
X142049639Y-121982351D01*
X142048559Y-121989632D01*
X142046771Y-121996771D01*
X142044291Y-122003701D01*
X142041144Y-122010355D01*
X142037360Y-122016668D01*
X142032976Y-122022579D01*
X142028033Y-122028033D01*
X142022579Y-122032976D01*
X142016668Y-122037360D01*
X142010355Y-122041144D01*
X142003701Y-122044291D01*
X141996771Y-122046771D01*
X141989632Y-122048559D01*
X141982351Y-122049639D01*
X141975000Y-122050000D01*
X141300000Y-122050000D01*
X141292649Y-122049639D01*
X141285368Y-122048559D01*
X141278229Y-122046771D01*
X141271299Y-122044291D01*
X141264645Y-122041144D01*
X141258332Y-122037360D01*
X141252421Y-122032976D01*
X141246967Y-122028033D01*
X141242024Y-122022579D01*
X141237640Y-122016668D01*
X141233856Y-122010355D01*
X141230709Y-122003701D01*
X141228229Y-121996771D01*
X141226441Y-121989632D01*
X141225361Y-121982351D01*
X141225000Y-121975000D01*
X141225000Y-121825000D01*
X141225361Y-121817649D01*
X141226441Y-121810368D01*
X141228229Y-121803229D01*
X141230709Y-121796299D01*
X141233856Y-121789645D01*
X141237640Y-121783332D01*
X141242024Y-121777421D01*
X141246967Y-121771967D01*
X141252421Y-121767024D01*
X141258332Y-121762640D01*
X141264645Y-121758856D01*
X141271299Y-121755709D01*
X141278229Y-121753229D01*
X141285368Y-121751441D01*
X141292649Y-121750361D01*
X141300000Y-121750000D01*
X141975000Y-121750000D01*
X141982351Y-121750361D01*
X141982351Y-121750361D01*
G37*
D12*
X141637500Y-121900000D03*
D11*
G36*
X141982351Y-121250361D02*
G01*
X141989632Y-121251441D01*
X141996771Y-121253229D01*
X142003701Y-121255709D01*
X142010355Y-121258856D01*
X142016668Y-121262640D01*
X142022579Y-121267024D01*
X142028033Y-121271967D01*
X142032976Y-121277421D01*
X142037360Y-121283332D01*
X142041144Y-121289645D01*
X142044291Y-121296299D01*
X142046771Y-121303229D01*
X142048559Y-121310368D01*
X142049639Y-121317649D01*
X142050000Y-121325000D01*
X142050000Y-121475000D01*
X142049639Y-121482351D01*
X142048559Y-121489632D01*
X142046771Y-121496771D01*
X142044291Y-121503701D01*
X142041144Y-121510355D01*
X142037360Y-121516668D01*
X142032976Y-121522579D01*
X142028033Y-121528033D01*
X142022579Y-121532976D01*
X142016668Y-121537360D01*
X142010355Y-121541144D01*
X142003701Y-121544291D01*
X141996771Y-121546771D01*
X141989632Y-121548559D01*
X141982351Y-121549639D01*
X141975000Y-121550000D01*
X141300000Y-121550000D01*
X141292649Y-121549639D01*
X141285368Y-121548559D01*
X141278229Y-121546771D01*
X141271299Y-121544291D01*
X141264645Y-121541144D01*
X141258332Y-121537360D01*
X141252421Y-121532976D01*
X141246967Y-121528033D01*
X141242024Y-121522579D01*
X141237640Y-121516668D01*
X141233856Y-121510355D01*
X141230709Y-121503701D01*
X141228229Y-121496771D01*
X141226441Y-121489632D01*
X141225361Y-121482351D01*
X141225000Y-121475000D01*
X141225000Y-121325000D01*
X141225361Y-121317649D01*
X141226441Y-121310368D01*
X141228229Y-121303229D01*
X141230709Y-121296299D01*
X141233856Y-121289645D01*
X141237640Y-121283332D01*
X141242024Y-121277421D01*
X141246967Y-121271967D01*
X141252421Y-121267024D01*
X141258332Y-121262640D01*
X141264645Y-121258856D01*
X141271299Y-121255709D01*
X141278229Y-121253229D01*
X141285368Y-121251441D01*
X141292649Y-121250361D01*
X141300000Y-121250000D01*
X141975000Y-121250000D01*
X141982351Y-121250361D01*
X141982351Y-121250361D01*
G37*
D12*
X141637500Y-121400000D03*
D11*
G36*
X141982351Y-120750361D02*
G01*
X141989632Y-120751441D01*
X141996771Y-120753229D01*
X142003701Y-120755709D01*
X142010355Y-120758856D01*
X142016668Y-120762640D01*
X142022579Y-120767024D01*
X142028033Y-120771967D01*
X142032976Y-120777421D01*
X142037360Y-120783332D01*
X142041144Y-120789645D01*
X142044291Y-120796299D01*
X142046771Y-120803229D01*
X142048559Y-120810368D01*
X142049639Y-120817649D01*
X142050000Y-120825000D01*
X142050000Y-120975000D01*
X142049639Y-120982351D01*
X142048559Y-120989632D01*
X142046771Y-120996771D01*
X142044291Y-121003701D01*
X142041144Y-121010355D01*
X142037360Y-121016668D01*
X142032976Y-121022579D01*
X142028033Y-121028033D01*
X142022579Y-121032976D01*
X142016668Y-121037360D01*
X142010355Y-121041144D01*
X142003701Y-121044291D01*
X141996771Y-121046771D01*
X141989632Y-121048559D01*
X141982351Y-121049639D01*
X141975000Y-121050000D01*
X141300000Y-121050000D01*
X141292649Y-121049639D01*
X141285368Y-121048559D01*
X141278229Y-121046771D01*
X141271299Y-121044291D01*
X141264645Y-121041144D01*
X141258332Y-121037360D01*
X141252421Y-121032976D01*
X141246967Y-121028033D01*
X141242024Y-121022579D01*
X141237640Y-121016668D01*
X141233856Y-121010355D01*
X141230709Y-121003701D01*
X141228229Y-120996771D01*
X141226441Y-120989632D01*
X141225361Y-120982351D01*
X141225000Y-120975000D01*
X141225000Y-120825000D01*
X141225361Y-120817649D01*
X141226441Y-120810368D01*
X141228229Y-120803229D01*
X141230709Y-120796299D01*
X141233856Y-120789645D01*
X141237640Y-120783332D01*
X141242024Y-120777421D01*
X141246967Y-120771967D01*
X141252421Y-120767024D01*
X141258332Y-120762640D01*
X141264645Y-120758856D01*
X141271299Y-120755709D01*
X141278229Y-120753229D01*
X141285368Y-120751441D01*
X141292649Y-120750361D01*
X141300000Y-120750000D01*
X141975000Y-120750000D01*
X141982351Y-120750361D01*
X141982351Y-120750361D01*
G37*
D12*
X141637500Y-120900000D03*
D11*
G36*
X141982351Y-120250361D02*
G01*
X141989632Y-120251441D01*
X141996771Y-120253229D01*
X142003701Y-120255709D01*
X142010355Y-120258856D01*
X142016668Y-120262640D01*
X142022579Y-120267024D01*
X142028033Y-120271967D01*
X142032976Y-120277421D01*
X142037360Y-120283332D01*
X142041144Y-120289645D01*
X142044291Y-120296299D01*
X142046771Y-120303229D01*
X142048559Y-120310368D01*
X142049639Y-120317649D01*
X142050000Y-120325000D01*
X142050000Y-120475000D01*
X142049639Y-120482351D01*
X142048559Y-120489632D01*
X142046771Y-120496771D01*
X142044291Y-120503701D01*
X142041144Y-120510355D01*
X142037360Y-120516668D01*
X142032976Y-120522579D01*
X142028033Y-120528033D01*
X142022579Y-120532976D01*
X142016668Y-120537360D01*
X142010355Y-120541144D01*
X142003701Y-120544291D01*
X141996771Y-120546771D01*
X141989632Y-120548559D01*
X141982351Y-120549639D01*
X141975000Y-120550000D01*
X141300000Y-120550000D01*
X141292649Y-120549639D01*
X141285368Y-120548559D01*
X141278229Y-120546771D01*
X141271299Y-120544291D01*
X141264645Y-120541144D01*
X141258332Y-120537360D01*
X141252421Y-120532976D01*
X141246967Y-120528033D01*
X141242024Y-120522579D01*
X141237640Y-120516668D01*
X141233856Y-120510355D01*
X141230709Y-120503701D01*
X141228229Y-120496771D01*
X141226441Y-120489632D01*
X141225361Y-120482351D01*
X141225000Y-120475000D01*
X141225000Y-120325000D01*
X141225361Y-120317649D01*
X141226441Y-120310368D01*
X141228229Y-120303229D01*
X141230709Y-120296299D01*
X141233856Y-120289645D01*
X141237640Y-120283332D01*
X141242024Y-120277421D01*
X141246967Y-120271967D01*
X141252421Y-120267024D01*
X141258332Y-120262640D01*
X141264645Y-120258856D01*
X141271299Y-120255709D01*
X141278229Y-120253229D01*
X141285368Y-120251441D01*
X141292649Y-120250361D01*
X141300000Y-120250000D01*
X141975000Y-120250000D01*
X141982351Y-120250361D01*
X141982351Y-120250361D01*
G37*
D12*
X141637500Y-120400000D03*
D11*
G36*
X141982351Y-119750361D02*
G01*
X141989632Y-119751441D01*
X141996771Y-119753229D01*
X142003701Y-119755709D01*
X142010355Y-119758856D01*
X142016668Y-119762640D01*
X142022579Y-119767024D01*
X142028033Y-119771967D01*
X142032976Y-119777421D01*
X142037360Y-119783332D01*
X142041144Y-119789645D01*
X142044291Y-119796299D01*
X142046771Y-119803229D01*
X142048559Y-119810368D01*
X142049639Y-119817649D01*
X142050000Y-119825000D01*
X142050000Y-119975000D01*
X142049639Y-119982351D01*
X142048559Y-119989632D01*
X142046771Y-119996771D01*
X142044291Y-120003701D01*
X142041144Y-120010355D01*
X142037360Y-120016668D01*
X142032976Y-120022579D01*
X142028033Y-120028033D01*
X142022579Y-120032976D01*
X142016668Y-120037360D01*
X142010355Y-120041144D01*
X142003701Y-120044291D01*
X141996771Y-120046771D01*
X141989632Y-120048559D01*
X141982351Y-120049639D01*
X141975000Y-120050000D01*
X141300000Y-120050000D01*
X141292649Y-120049639D01*
X141285368Y-120048559D01*
X141278229Y-120046771D01*
X141271299Y-120044291D01*
X141264645Y-120041144D01*
X141258332Y-120037360D01*
X141252421Y-120032976D01*
X141246967Y-120028033D01*
X141242024Y-120022579D01*
X141237640Y-120016668D01*
X141233856Y-120010355D01*
X141230709Y-120003701D01*
X141228229Y-119996771D01*
X141226441Y-119989632D01*
X141225361Y-119982351D01*
X141225000Y-119975000D01*
X141225000Y-119825000D01*
X141225361Y-119817649D01*
X141226441Y-119810368D01*
X141228229Y-119803229D01*
X141230709Y-119796299D01*
X141233856Y-119789645D01*
X141237640Y-119783332D01*
X141242024Y-119777421D01*
X141246967Y-119771967D01*
X141252421Y-119767024D01*
X141258332Y-119762640D01*
X141264645Y-119758856D01*
X141271299Y-119755709D01*
X141278229Y-119753229D01*
X141285368Y-119751441D01*
X141292649Y-119750361D01*
X141300000Y-119750000D01*
X141975000Y-119750000D01*
X141982351Y-119750361D01*
X141982351Y-119750361D01*
G37*
D12*
X141637500Y-119900000D03*
D11*
G36*
X141982351Y-119250361D02*
G01*
X141989632Y-119251441D01*
X141996771Y-119253229D01*
X142003701Y-119255709D01*
X142010355Y-119258856D01*
X142016668Y-119262640D01*
X142022579Y-119267024D01*
X142028033Y-119271967D01*
X142032976Y-119277421D01*
X142037360Y-119283332D01*
X142041144Y-119289645D01*
X142044291Y-119296299D01*
X142046771Y-119303229D01*
X142048559Y-119310368D01*
X142049639Y-119317649D01*
X142050000Y-119325000D01*
X142050000Y-119475000D01*
X142049639Y-119482351D01*
X142048559Y-119489632D01*
X142046771Y-119496771D01*
X142044291Y-119503701D01*
X142041144Y-119510355D01*
X142037360Y-119516668D01*
X142032976Y-119522579D01*
X142028033Y-119528033D01*
X142022579Y-119532976D01*
X142016668Y-119537360D01*
X142010355Y-119541144D01*
X142003701Y-119544291D01*
X141996771Y-119546771D01*
X141989632Y-119548559D01*
X141982351Y-119549639D01*
X141975000Y-119550000D01*
X141300000Y-119550000D01*
X141292649Y-119549639D01*
X141285368Y-119548559D01*
X141278229Y-119546771D01*
X141271299Y-119544291D01*
X141264645Y-119541144D01*
X141258332Y-119537360D01*
X141252421Y-119532976D01*
X141246967Y-119528033D01*
X141242024Y-119522579D01*
X141237640Y-119516668D01*
X141233856Y-119510355D01*
X141230709Y-119503701D01*
X141228229Y-119496771D01*
X141226441Y-119489632D01*
X141225361Y-119482351D01*
X141225000Y-119475000D01*
X141225000Y-119325000D01*
X141225361Y-119317649D01*
X141226441Y-119310368D01*
X141228229Y-119303229D01*
X141230709Y-119296299D01*
X141233856Y-119289645D01*
X141237640Y-119283332D01*
X141242024Y-119277421D01*
X141246967Y-119271967D01*
X141252421Y-119267024D01*
X141258332Y-119262640D01*
X141264645Y-119258856D01*
X141271299Y-119255709D01*
X141278229Y-119253229D01*
X141285368Y-119251441D01*
X141292649Y-119250361D01*
X141300000Y-119250000D01*
X141975000Y-119250000D01*
X141982351Y-119250361D01*
X141982351Y-119250361D01*
G37*
D12*
X141637500Y-119400000D03*
D11*
G36*
X141032351Y-118300361D02*
G01*
X141039632Y-118301441D01*
X141046771Y-118303229D01*
X141053701Y-118305709D01*
X141060355Y-118308856D01*
X141066668Y-118312640D01*
X141072579Y-118317024D01*
X141078033Y-118321967D01*
X141082976Y-118327421D01*
X141087360Y-118333332D01*
X141091144Y-118339645D01*
X141094291Y-118346299D01*
X141096771Y-118353229D01*
X141098559Y-118360368D01*
X141099639Y-118367649D01*
X141100000Y-118375000D01*
X141100000Y-119050000D01*
X141099639Y-119057351D01*
X141098559Y-119064632D01*
X141096771Y-119071771D01*
X141094291Y-119078701D01*
X141091144Y-119085355D01*
X141087360Y-119091668D01*
X141082976Y-119097579D01*
X141078033Y-119103033D01*
X141072579Y-119107976D01*
X141066668Y-119112360D01*
X141060355Y-119116144D01*
X141053701Y-119119291D01*
X141046771Y-119121771D01*
X141039632Y-119123559D01*
X141032351Y-119124639D01*
X141025000Y-119125000D01*
X140875000Y-119125000D01*
X140867649Y-119124639D01*
X140860368Y-119123559D01*
X140853229Y-119121771D01*
X140846299Y-119119291D01*
X140839645Y-119116144D01*
X140833332Y-119112360D01*
X140827421Y-119107976D01*
X140821967Y-119103033D01*
X140817024Y-119097579D01*
X140812640Y-119091668D01*
X140808856Y-119085355D01*
X140805709Y-119078701D01*
X140803229Y-119071771D01*
X140801441Y-119064632D01*
X140800361Y-119057351D01*
X140800000Y-119050000D01*
X140800000Y-118375000D01*
X140800361Y-118367649D01*
X140801441Y-118360368D01*
X140803229Y-118353229D01*
X140805709Y-118346299D01*
X140808856Y-118339645D01*
X140812640Y-118333332D01*
X140817024Y-118327421D01*
X140821967Y-118321967D01*
X140827421Y-118317024D01*
X140833332Y-118312640D01*
X140839645Y-118308856D01*
X140846299Y-118305709D01*
X140853229Y-118303229D01*
X140860368Y-118301441D01*
X140867649Y-118300361D01*
X140875000Y-118300000D01*
X141025000Y-118300000D01*
X141032351Y-118300361D01*
X141032351Y-118300361D01*
G37*
D12*
X140950000Y-118712500D03*
D11*
G36*
X140532351Y-118300361D02*
G01*
X140539632Y-118301441D01*
X140546771Y-118303229D01*
X140553701Y-118305709D01*
X140560355Y-118308856D01*
X140566668Y-118312640D01*
X140572579Y-118317024D01*
X140578033Y-118321967D01*
X140582976Y-118327421D01*
X140587360Y-118333332D01*
X140591144Y-118339645D01*
X140594291Y-118346299D01*
X140596771Y-118353229D01*
X140598559Y-118360368D01*
X140599639Y-118367649D01*
X140600000Y-118375000D01*
X140600000Y-119050000D01*
X140599639Y-119057351D01*
X140598559Y-119064632D01*
X140596771Y-119071771D01*
X140594291Y-119078701D01*
X140591144Y-119085355D01*
X140587360Y-119091668D01*
X140582976Y-119097579D01*
X140578033Y-119103033D01*
X140572579Y-119107976D01*
X140566668Y-119112360D01*
X140560355Y-119116144D01*
X140553701Y-119119291D01*
X140546771Y-119121771D01*
X140539632Y-119123559D01*
X140532351Y-119124639D01*
X140525000Y-119125000D01*
X140375000Y-119125000D01*
X140367649Y-119124639D01*
X140360368Y-119123559D01*
X140353229Y-119121771D01*
X140346299Y-119119291D01*
X140339645Y-119116144D01*
X140333332Y-119112360D01*
X140327421Y-119107976D01*
X140321967Y-119103033D01*
X140317024Y-119097579D01*
X140312640Y-119091668D01*
X140308856Y-119085355D01*
X140305709Y-119078701D01*
X140303229Y-119071771D01*
X140301441Y-119064632D01*
X140300361Y-119057351D01*
X140300000Y-119050000D01*
X140300000Y-118375000D01*
X140300361Y-118367649D01*
X140301441Y-118360368D01*
X140303229Y-118353229D01*
X140305709Y-118346299D01*
X140308856Y-118339645D01*
X140312640Y-118333332D01*
X140317024Y-118327421D01*
X140321967Y-118321967D01*
X140327421Y-118317024D01*
X140333332Y-118312640D01*
X140339645Y-118308856D01*
X140346299Y-118305709D01*
X140353229Y-118303229D01*
X140360368Y-118301441D01*
X140367649Y-118300361D01*
X140375000Y-118300000D01*
X140525000Y-118300000D01*
X140532351Y-118300361D01*
X140532351Y-118300361D01*
G37*
D12*
X140450000Y-118712500D03*
D11*
G36*
X140032351Y-118300361D02*
G01*
X140039632Y-118301441D01*
X140046771Y-118303229D01*
X140053701Y-118305709D01*
X140060355Y-118308856D01*
X140066668Y-118312640D01*
X140072579Y-118317024D01*
X140078033Y-118321967D01*
X140082976Y-118327421D01*
X140087360Y-118333332D01*
X140091144Y-118339645D01*
X140094291Y-118346299D01*
X140096771Y-118353229D01*
X140098559Y-118360368D01*
X140099639Y-118367649D01*
X140100000Y-118375000D01*
X140100000Y-119050000D01*
X140099639Y-119057351D01*
X140098559Y-119064632D01*
X140096771Y-119071771D01*
X140094291Y-119078701D01*
X140091144Y-119085355D01*
X140087360Y-119091668D01*
X140082976Y-119097579D01*
X140078033Y-119103033D01*
X140072579Y-119107976D01*
X140066668Y-119112360D01*
X140060355Y-119116144D01*
X140053701Y-119119291D01*
X140046771Y-119121771D01*
X140039632Y-119123559D01*
X140032351Y-119124639D01*
X140025000Y-119125000D01*
X139875000Y-119125000D01*
X139867649Y-119124639D01*
X139860368Y-119123559D01*
X139853229Y-119121771D01*
X139846299Y-119119291D01*
X139839645Y-119116144D01*
X139833332Y-119112360D01*
X139827421Y-119107976D01*
X139821967Y-119103033D01*
X139817024Y-119097579D01*
X139812640Y-119091668D01*
X139808856Y-119085355D01*
X139805709Y-119078701D01*
X139803229Y-119071771D01*
X139801441Y-119064632D01*
X139800361Y-119057351D01*
X139800000Y-119050000D01*
X139800000Y-118375000D01*
X139800361Y-118367649D01*
X139801441Y-118360368D01*
X139803229Y-118353229D01*
X139805709Y-118346299D01*
X139808856Y-118339645D01*
X139812640Y-118333332D01*
X139817024Y-118327421D01*
X139821967Y-118321967D01*
X139827421Y-118317024D01*
X139833332Y-118312640D01*
X139839645Y-118308856D01*
X139846299Y-118305709D01*
X139853229Y-118303229D01*
X139860368Y-118301441D01*
X139867649Y-118300361D01*
X139875000Y-118300000D01*
X140025000Y-118300000D01*
X140032351Y-118300361D01*
X140032351Y-118300361D01*
G37*
D12*
X139950000Y-118712500D03*
D11*
G36*
X139532351Y-118300361D02*
G01*
X139539632Y-118301441D01*
X139546771Y-118303229D01*
X139553701Y-118305709D01*
X139560355Y-118308856D01*
X139566668Y-118312640D01*
X139572579Y-118317024D01*
X139578033Y-118321967D01*
X139582976Y-118327421D01*
X139587360Y-118333332D01*
X139591144Y-118339645D01*
X139594291Y-118346299D01*
X139596771Y-118353229D01*
X139598559Y-118360368D01*
X139599639Y-118367649D01*
X139600000Y-118375000D01*
X139600000Y-119050000D01*
X139599639Y-119057351D01*
X139598559Y-119064632D01*
X139596771Y-119071771D01*
X139594291Y-119078701D01*
X139591144Y-119085355D01*
X139587360Y-119091668D01*
X139582976Y-119097579D01*
X139578033Y-119103033D01*
X139572579Y-119107976D01*
X139566668Y-119112360D01*
X139560355Y-119116144D01*
X139553701Y-119119291D01*
X139546771Y-119121771D01*
X139539632Y-119123559D01*
X139532351Y-119124639D01*
X139525000Y-119125000D01*
X139375000Y-119125000D01*
X139367649Y-119124639D01*
X139360368Y-119123559D01*
X139353229Y-119121771D01*
X139346299Y-119119291D01*
X139339645Y-119116144D01*
X139333332Y-119112360D01*
X139327421Y-119107976D01*
X139321967Y-119103033D01*
X139317024Y-119097579D01*
X139312640Y-119091668D01*
X139308856Y-119085355D01*
X139305709Y-119078701D01*
X139303229Y-119071771D01*
X139301441Y-119064632D01*
X139300361Y-119057351D01*
X139300000Y-119050000D01*
X139300000Y-118375000D01*
X139300361Y-118367649D01*
X139301441Y-118360368D01*
X139303229Y-118353229D01*
X139305709Y-118346299D01*
X139308856Y-118339645D01*
X139312640Y-118333332D01*
X139317024Y-118327421D01*
X139321967Y-118321967D01*
X139327421Y-118317024D01*
X139333332Y-118312640D01*
X139339645Y-118308856D01*
X139346299Y-118305709D01*
X139353229Y-118303229D01*
X139360368Y-118301441D01*
X139367649Y-118300361D01*
X139375000Y-118300000D01*
X139525000Y-118300000D01*
X139532351Y-118300361D01*
X139532351Y-118300361D01*
G37*
D12*
X139450000Y-118712500D03*
D11*
G36*
X139032351Y-118300361D02*
G01*
X139039632Y-118301441D01*
X139046771Y-118303229D01*
X139053701Y-118305709D01*
X139060355Y-118308856D01*
X139066668Y-118312640D01*
X139072579Y-118317024D01*
X139078033Y-118321967D01*
X139082976Y-118327421D01*
X139087360Y-118333332D01*
X139091144Y-118339645D01*
X139094291Y-118346299D01*
X139096771Y-118353229D01*
X139098559Y-118360368D01*
X139099639Y-118367649D01*
X139100000Y-118375000D01*
X139100000Y-119050000D01*
X139099639Y-119057351D01*
X139098559Y-119064632D01*
X139096771Y-119071771D01*
X139094291Y-119078701D01*
X139091144Y-119085355D01*
X139087360Y-119091668D01*
X139082976Y-119097579D01*
X139078033Y-119103033D01*
X139072579Y-119107976D01*
X139066668Y-119112360D01*
X139060355Y-119116144D01*
X139053701Y-119119291D01*
X139046771Y-119121771D01*
X139039632Y-119123559D01*
X139032351Y-119124639D01*
X139025000Y-119125000D01*
X138875000Y-119125000D01*
X138867649Y-119124639D01*
X138860368Y-119123559D01*
X138853229Y-119121771D01*
X138846299Y-119119291D01*
X138839645Y-119116144D01*
X138833332Y-119112360D01*
X138827421Y-119107976D01*
X138821967Y-119103033D01*
X138817024Y-119097579D01*
X138812640Y-119091668D01*
X138808856Y-119085355D01*
X138805709Y-119078701D01*
X138803229Y-119071771D01*
X138801441Y-119064632D01*
X138800361Y-119057351D01*
X138800000Y-119050000D01*
X138800000Y-118375000D01*
X138800361Y-118367649D01*
X138801441Y-118360368D01*
X138803229Y-118353229D01*
X138805709Y-118346299D01*
X138808856Y-118339645D01*
X138812640Y-118333332D01*
X138817024Y-118327421D01*
X138821967Y-118321967D01*
X138827421Y-118317024D01*
X138833332Y-118312640D01*
X138839645Y-118308856D01*
X138846299Y-118305709D01*
X138853229Y-118303229D01*
X138860368Y-118301441D01*
X138867649Y-118300361D01*
X138875000Y-118300000D01*
X139025000Y-118300000D01*
X139032351Y-118300361D01*
X139032351Y-118300361D01*
G37*
D12*
X138950000Y-118712500D03*
D11*
G36*
X138532351Y-118300361D02*
G01*
X138539632Y-118301441D01*
X138546771Y-118303229D01*
X138553701Y-118305709D01*
X138560355Y-118308856D01*
X138566668Y-118312640D01*
X138572579Y-118317024D01*
X138578033Y-118321967D01*
X138582976Y-118327421D01*
X138587360Y-118333332D01*
X138591144Y-118339645D01*
X138594291Y-118346299D01*
X138596771Y-118353229D01*
X138598559Y-118360368D01*
X138599639Y-118367649D01*
X138600000Y-118375000D01*
X138600000Y-119050000D01*
X138599639Y-119057351D01*
X138598559Y-119064632D01*
X138596771Y-119071771D01*
X138594291Y-119078701D01*
X138591144Y-119085355D01*
X138587360Y-119091668D01*
X138582976Y-119097579D01*
X138578033Y-119103033D01*
X138572579Y-119107976D01*
X138566668Y-119112360D01*
X138560355Y-119116144D01*
X138553701Y-119119291D01*
X138546771Y-119121771D01*
X138539632Y-119123559D01*
X138532351Y-119124639D01*
X138525000Y-119125000D01*
X138375000Y-119125000D01*
X138367649Y-119124639D01*
X138360368Y-119123559D01*
X138353229Y-119121771D01*
X138346299Y-119119291D01*
X138339645Y-119116144D01*
X138333332Y-119112360D01*
X138327421Y-119107976D01*
X138321967Y-119103033D01*
X138317024Y-119097579D01*
X138312640Y-119091668D01*
X138308856Y-119085355D01*
X138305709Y-119078701D01*
X138303229Y-119071771D01*
X138301441Y-119064632D01*
X138300361Y-119057351D01*
X138300000Y-119050000D01*
X138300000Y-118375000D01*
X138300361Y-118367649D01*
X138301441Y-118360368D01*
X138303229Y-118353229D01*
X138305709Y-118346299D01*
X138308856Y-118339645D01*
X138312640Y-118333332D01*
X138317024Y-118327421D01*
X138321967Y-118321967D01*
X138327421Y-118317024D01*
X138333332Y-118312640D01*
X138339645Y-118308856D01*
X138346299Y-118305709D01*
X138353229Y-118303229D01*
X138360368Y-118301441D01*
X138367649Y-118300361D01*
X138375000Y-118300000D01*
X138525000Y-118300000D01*
X138532351Y-118300361D01*
X138532351Y-118300361D01*
G37*
D12*
X138450000Y-118712500D03*
D11*
G36*
X138107351Y-119250361D02*
G01*
X138114632Y-119251441D01*
X138121771Y-119253229D01*
X138128701Y-119255709D01*
X138135355Y-119258856D01*
X138141668Y-119262640D01*
X138147579Y-119267024D01*
X138153033Y-119271967D01*
X138157976Y-119277421D01*
X138162360Y-119283332D01*
X138166144Y-119289645D01*
X138169291Y-119296299D01*
X138171771Y-119303229D01*
X138173559Y-119310368D01*
X138174639Y-119317649D01*
X138175000Y-119325000D01*
X138175000Y-119475000D01*
X138174639Y-119482351D01*
X138173559Y-119489632D01*
X138171771Y-119496771D01*
X138169291Y-119503701D01*
X138166144Y-119510355D01*
X138162360Y-119516668D01*
X138157976Y-119522579D01*
X138153033Y-119528033D01*
X138147579Y-119532976D01*
X138141668Y-119537360D01*
X138135355Y-119541144D01*
X138128701Y-119544291D01*
X138121771Y-119546771D01*
X138114632Y-119548559D01*
X138107351Y-119549639D01*
X138100000Y-119550000D01*
X137425000Y-119550000D01*
X137417649Y-119549639D01*
X137410368Y-119548559D01*
X137403229Y-119546771D01*
X137396299Y-119544291D01*
X137389645Y-119541144D01*
X137383332Y-119537360D01*
X137377421Y-119532976D01*
X137371967Y-119528033D01*
X137367024Y-119522579D01*
X137362640Y-119516668D01*
X137358856Y-119510355D01*
X137355709Y-119503701D01*
X137353229Y-119496771D01*
X137351441Y-119489632D01*
X137350361Y-119482351D01*
X137350000Y-119475000D01*
X137350000Y-119325000D01*
X137350361Y-119317649D01*
X137351441Y-119310368D01*
X137353229Y-119303229D01*
X137355709Y-119296299D01*
X137358856Y-119289645D01*
X137362640Y-119283332D01*
X137367024Y-119277421D01*
X137371967Y-119271967D01*
X137377421Y-119267024D01*
X137383332Y-119262640D01*
X137389645Y-119258856D01*
X137396299Y-119255709D01*
X137403229Y-119253229D01*
X137410368Y-119251441D01*
X137417649Y-119250361D01*
X137425000Y-119250000D01*
X138100000Y-119250000D01*
X138107351Y-119250361D01*
X138107351Y-119250361D01*
G37*
D12*
X137762500Y-119400000D03*
D11*
G36*
X138107351Y-119750361D02*
G01*
X138114632Y-119751441D01*
X138121771Y-119753229D01*
X138128701Y-119755709D01*
X138135355Y-119758856D01*
X138141668Y-119762640D01*
X138147579Y-119767024D01*
X138153033Y-119771967D01*
X138157976Y-119777421D01*
X138162360Y-119783332D01*
X138166144Y-119789645D01*
X138169291Y-119796299D01*
X138171771Y-119803229D01*
X138173559Y-119810368D01*
X138174639Y-119817649D01*
X138175000Y-119825000D01*
X138175000Y-119975000D01*
X138174639Y-119982351D01*
X138173559Y-119989632D01*
X138171771Y-119996771D01*
X138169291Y-120003701D01*
X138166144Y-120010355D01*
X138162360Y-120016668D01*
X138157976Y-120022579D01*
X138153033Y-120028033D01*
X138147579Y-120032976D01*
X138141668Y-120037360D01*
X138135355Y-120041144D01*
X138128701Y-120044291D01*
X138121771Y-120046771D01*
X138114632Y-120048559D01*
X138107351Y-120049639D01*
X138100000Y-120050000D01*
X137425000Y-120050000D01*
X137417649Y-120049639D01*
X137410368Y-120048559D01*
X137403229Y-120046771D01*
X137396299Y-120044291D01*
X137389645Y-120041144D01*
X137383332Y-120037360D01*
X137377421Y-120032976D01*
X137371967Y-120028033D01*
X137367024Y-120022579D01*
X137362640Y-120016668D01*
X137358856Y-120010355D01*
X137355709Y-120003701D01*
X137353229Y-119996771D01*
X137351441Y-119989632D01*
X137350361Y-119982351D01*
X137350000Y-119975000D01*
X137350000Y-119825000D01*
X137350361Y-119817649D01*
X137351441Y-119810368D01*
X137353229Y-119803229D01*
X137355709Y-119796299D01*
X137358856Y-119789645D01*
X137362640Y-119783332D01*
X137367024Y-119777421D01*
X137371967Y-119771967D01*
X137377421Y-119767024D01*
X137383332Y-119762640D01*
X137389645Y-119758856D01*
X137396299Y-119755709D01*
X137403229Y-119753229D01*
X137410368Y-119751441D01*
X137417649Y-119750361D01*
X137425000Y-119750000D01*
X138100000Y-119750000D01*
X138107351Y-119750361D01*
X138107351Y-119750361D01*
G37*
D12*
X137762500Y-119900000D03*
D11*
G36*
X138107351Y-120250361D02*
G01*
X138114632Y-120251441D01*
X138121771Y-120253229D01*
X138128701Y-120255709D01*
X138135355Y-120258856D01*
X138141668Y-120262640D01*
X138147579Y-120267024D01*
X138153033Y-120271967D01*
X138157976Y-120277421D01*
X138162360Y-120283332D01*
X138166144Y-120289645D01*
X138169291Y-120296299D01*
X138171771Y-120303229D01*
X138173559Y-120310368D01*
X138174639Y-120317649D01*
X138175000Y-120325000D01*
X138175000Y-120475000D01*
X138174639Y-120482351D01*
X138173559Y-120489632D01*
X138171771Y-120496771D01*
X138169291Y-120503701D01*
X138166144Y-120510355D01*
X138162360Y-120516668D01*
X138157976Y-120522579D01*
X138153033Y-120528033D01*
X138147579Y-120532976D01*
X138141668Y-120537360D01*
X138135355Y-120541144D01*
X138128701Y-120544291D01*
X138121771Y-120546771D01*
X138114632Y-120548559D01*
X138107351Y-120549639D01*
X138100000Y-120550000D01*
X137425000Y-120550000D01*
X137417649Y-120549639D01*
X137410368Y-120548559D01*
X137403229Y-120546771D01*
X137396299Y-120544291D01*
X137389645Y-120541144D01*
X137383332Y-120537360D01*
X137377421Y-120532976D01*
X137371967Y-120528033D01*
X137367024Y-120522579D01*
X137362640Y-120516668D01*
X137358856Y-120510355D01*
X137355709Y-120503701D01*
X137353229Y-120496771D01*
X137351441Y-120489632D01*
X137350361Y-120482351D01*
X137350000Y-120475000D01*
X137350000Y-120325000D01*
X137350361Y-120317649D01*
X137351441Y-120310368D01*
X137353229Y-120303229D01*
X137355709Y-120296299D01*
X137358856Y-120289645D01*
X137362640Y-120283332D01*
X137367024Y-120277421D01*
X137371967Y-120271967D01*
X137377421Y-120267024D01*
X137383332Y-120262640D01*
X137389645Y-120258856D01*
X137396299Y-120255709D01*
X137403229Y-120253229D01*
X137410368Y-120251441D01*
X137417649Y-120250361D01*
X137425000Y-120250000D01*
X138100000Y-120250000D01*
X138107351Y-120250361D01*
X138107351Y-120250361D01*
G37*
D12*
X137762500Y-120400000D03*
D11*
G36*
X138107351Y-120750361D02*
G01*
X138114632Y-120751441D01*
X138121771Y-120753229D01*
X138128701Y-120755709D01*
X138135355Y-120758856D01*
X138141668Y-120762640D01*
X138147579Y-120767024D01*
X138153033Y-120771967D01*
X138157976Y-120777421D01*
X138162360Y-120783332D01*
X138166144Y-120789645D01*
X138169291Y-120796299D01*
X138171771Y-120803229D01*
X138173559Y-120810368D01*
X138174639Y-120817649D01*
X138175000Y-120825000D01*
X138175000Y-120975000D01*
X138174639Y-120982351D01*
X138173559Y-120989632D01*
X138171771Y-120996771D01*
X138169291Y-121003701D01*
X138166144Y-121010355D01*
X138162360Y-121016668D01*
X138157976Y-121022579D01*
X138153033Y-121028033D01*
X138147579Y-121032976D01*
X138141668Y-121037360D01*
X138135355Y-121041144D01*
X138128701Y-121044291D01*
X138121771Y-121046771D01*
X138114632Y-121048559D01*
X138107351Y-121049639D01*
X138100000Y-121050000D01*
X137425000Y-121050000D01*
X137417649Y-121049639D01*
X137410368Y-121048559D01*
X137403229Y-121046771D01*
X137396299Y-121044291D01*
X137389645Y-121041144D01*
X137383332Y-121037360D01*
X137377421Y-121032976D01*
X137371967Y-121028033D01*
X137367024Y-121022579D01*
X137362640Y-121016668D01*
X137358856Y-121010355D01*
X137355709Y-121003701D01*
X137353229Y-120996771D01*
X137351441Y-120989632D01*
X137350361Y-120982351D01*
X137350000Y-120975000D01*
X137350000Y-120825000D01*
X137350361Y-120817649D01*
X137351441Y-120810368D01*
X137353229Y-120803229D01*
X137355709Y-120796299D01*
X137358856Y-120789645D01*
X137362640Y-120783332D01*
X137367024Y-120777421D01*
X137371967Y-120771967D01*
X137377421Y-120767024D01*
X137383332Y-120762640D01*
X137389645Y-120758856D01*
X137396299Y-120755709D01*
X137403229Y-120753229D01*
X137410368Y-120751441D01*
X137417649Y-120750361D01*
X137425000Y-120750000D01*
X138100000Y-120750000D01*
X138107351Y-120750361D01*
X138107351Y-120750361D01*
G37*
D12*
X137762500Y-120900000D03*
D11*
G36*
X138107351Y-121250361D02*
G01*
X138114632Y-121251441D01*
X138121771Y-121253229D01*
X138128701Y-121255709D01*
X138135355Y-121258856D01*
X138141668Y-121262640D01*
X138147579Y-121267024D01*
X138153033Y-121271967D01*
X138157976Y-121277421D01*
X138162360Y-121283332D01*
X138166144Y-121289645D01*
X138169291Y-121296299D01*
X138171771Y-121303229D01*
X138173559Y-121310368D01*
X138174639Y-121317649D01*
X138175000Y-121325000D01*
X138175000Y-121475000D01*
X138174639Y-121482351D01*
X138173559Y-121489632D01*
X138171771Y-121496771D01*
X138169291Y-121503701D01*
X138166144Y-121510355D01*
X138162360Y-121516668D01*
X138157976Y-121522579D01*
X138153033Y-121528033D01*
X138147579Y-121532976D01*
X138141668Y-121537360D01*
X138135355Y-121541144D01*
X138128701Y-121544291D01*
X138121771Y-121546771D01*
X138114632Y-121548559D01*
X138107351Y-121549639D01*
X138100000Y-121550000D01*
X137425000Y-121550000D01*
X137417649Y-121549639D01*
X137410368Y-121548559D01*
X137403229Y-121546771D01*
X137396299Y-121544291D01*
X137389645Y-121541144D01*
X137383332Y-121537360D01*
X137377421Y-121532976D01*
X137371967Y-121528033D01*
X137367024Y-121522579D01*
X137362640Y-121516668D01*
X137358856Y-121510355D01*
X137355709Y-121503701D01*
X137353229Y-121496771D01*
X137351441Y-121489632D01*
X137350361Y-121482351D01*
X137350000Y-121475000D01*
X137350000Y-121325000D01*
X137350361Y-121317649D01*
X137351441Y-121310368D01*
X137353229Y-121303229D01*
X137355709Y-121296299D01*
X137358856Y-121289645D01*
X137362640Y-121283332D01*
X137367024Y-121277421D01*
X137371967Y-121271967D01*
X137377421Y-121267024D01*
X137383332Y-121262640D01*
X137389645Y-121258856D01*
X137396299Y-121255709D01*
X137403229Y-121253229D01*
X137410368Y-121251441D01*
X137417649Y-121250361D01*
X137425000Y-121250000D01*
X138100000Y-121250000D01*
X138107351Y-121250361D01*
X138107351Y-121250361D01*
G37*
D12*
X137762500Y-121400000D03*
D11*
G36*
X138107351Y-121750361D02*
G01*
X138114632Y-121751441D01*
X138121771Y-121753229D01*
X138128701Y-121755709D01*
X138135355Y-121758856D01*
X138141668Y-121762640D01*
X138147579Y-121767024D01*
X138153033Y-121771967D01*
X138157976Y-121777421D01*
X138162360Y-121783332D01*
X138166144Y-121789645D01*
X138169291Y-121796299D01*
X138171771Y-121803229D01*
X138173559Y-121810368D01*
X138174639Y-121817649D01*
X138175000Y-121825000D01*
X138175000Y-121975000D01*
X138174639Y-121982351D01*
X138173559Y-121989632D01*
X138171771Y-121996771D01*
X138169291Y-122003701D01*
X138166144Y-122010355D01*
X138162360Y-122016668D01*
X138157976Y-122022579D01*
X138153033Y-122028033D01*
X138147579Y-122032976D01*
X138141668Y-122037360D01*
X138135355Y-122041144D01*
X138128701Y-122044291D01*
X138121771Y-122046771D01*
X138114632Y-122048559D01*
X138107351Y-122049639D01*
X138100000Y-122050000D01*
X137425000Y-122050000D01*
X137417649Y-122049639D01*
X137410368Y-122048559D01*
X137403229Y-122046771D01*
X137396299Y-122044291D01*
X137389645Y-122041144D01*
X137383332Y-122037360D01*
X137377421Y-122032976D01*
X137371967Y-122028033D01*
X137367024Y-122022579D01*
X137362640Y-122016668D01*
X137358856Y-122010355D01*
X137355709Y-122003701D01*
X137353229Y-121996771D01*
X137351441Y-121989632D01*
X137350361Y-121982351D01*
X137350000Y-121975000D01*
X137350000Y-121825000D01*
X137350361Y-121817649D01*
X137351441Y-121810368D01*
X137353229Y-121803229D01*
X137355709Y-121796299D01*
X137358856Y-121789645D01*
X137362640Y-121783332D01*
X137367024Y-121777421D01*
X137371967Y-121771967D01*
X137377421Y-121767024D01*
X137383332Y-121762640D01*
X137389645Y-121758856D01*
X137396299Y-121755709D01*
X137403229Y-121753229D01*
X137410368Y-121751441D01*
X137417649Y-121750361D01*
X137425000Y-121750000D01*
X138100000Y-121750000D01*
X138107351Y-121750361D01*
X138107351Y-121750361D01*
G37*
D12*
X137762500Y-121900000D03*
D11*
G36*
X138532351Y-122175361D02*
G01*
X138539632Y-122176441D01*
X138546771Y-122178229D01*
X138553701Y-122180709D01*
X138560355Y-122183856D01*
X138566668Y-122187640D01*
X138572579Y-122192024D01*
X138578033Y-122196967D01*
X138582976Y-122202421D01*
X138587360Y-122208332D01*
X138591144Y-122214645D01*
X138594291Y-122221299D01*
X138596771Y-122228229D01*
X138598559Y-122235368D01*
X138599639Y-122242649D01*
X138600000Y-122250000D01*
X138600000Y-122925000D01*
X138599639Y-122932351D01*
X138598559Y-122939632D01*
X138596771Y-122946771D01*
X138594291Y-122953701D01*
X138591144Y-122960355D01*
X138587360Y-122966668D01*
X138582976Y-122972579D01*
X138578033Y-122978033D01*
X138572579Y-122982976D01*
X138566668Y-122987360D01*
X138560355Y-122991144D01*
X138553701Y-122994291D01*
X138546771Y-122996771D01*
X138539632Y-122998559D01*
X138532351Y-122999639D01*
X138525000Y-123000000D01*
X138375000Y-123000000D01*
X138367649Y-122999639D01*
X138360368Y-122998559D01*
X138353229Y-122996771D01*
X138346299Y-122994291D01*
X138339645Y-122991144D01*
X138333332Y-122987360D01*
X138327421Y-122982976D01*
X138321967Y-122978033D01*
X138317024Y-122972579D01*
X138312640Y-122966668D01*
X138308856Y-122960355D01*
X138305709Y-122953701D01*
X138303229Y-122946771D01*
X138301441Y-122939632D01*
X138300361Y-122932351D01*
X138300000Y-122925000D01*
X138300000Y-122250000D01*
X138300361Y-122242649D01*
X138301441Y-122235368D01*
X138303229Y-122228229D01*
X138305709Y-122221299D01*
X138308856Y-122214645D01*
X138312640Y-122208332D01*
X138317024Y-122202421D01*
X138321967Y-122196967D01*
X138327421Y-122192024D01*
X138333332Y-122187640D01*
X138339645Y-122183856D01*
X138346299Y-122180709D01*
X138353229Y-122178229D01*
X138360368Y-122176441D01*
X138367649Y-122175361D01*
X138375000Y-122175000D01*
X138525000Y-122175000D01*
X138532351Y-122175361D01*
X138532351Y-122175361D01*
G37*
D12*
X138450000Y-122587500D03*
D11*
G36*
X139032351Y-122175361D02*
G01*
X139039632Y-122176441D01*
X139046771Y-122178229D01*
X139053701Y-122180709D01*
X139060355Y-122183856D01*
X139066668Y-122187640D01*
X139072579Y-122192024D01*
X139078033Y-122196967D01*
X139082976Y-122202421D01*
X139087360Y-122208332D01*
X139091144Y-122214645D01*
X139094291Y-122221299D01*
X139096771Y-122228229D01*
X139098559Y-122235368D01*
X139099639Y-122242649D01*
X139100000Y-122250000D01*
X139100000Y-122925000D01*
X139099639Y-122932351D01*
X139098559Y-122939632D01*
X139096771Y-122946771D01*
X139094291Y-122953701D01*
X139091144Y-122960355D01*
X139087360Y-122966668D01*
X139082976Y-122972579D01*
X139078033Y-122978033D01*
X139072579Y-122982976D01*
X139066668Y-122987360D01*
X139060355Y-122991144D01*
X139053701Y-122994291D01*
X139046771Y-122996771D01*
X139039632Y-122998559D01*
X139032351Y-122999639D01*
X139025000Y-123000000D01*
X138875000Y-123000000D01*
X138867649Y-122999639D01*
X138860368Y-122998559D01*
X138853229Y-122996771D01*
X138846299Y-122994291D01*
X138839645Y-122991144D01*
X138833332Y-122987360D01*
X138827421Y-122982976D01*
X138821967Y-122978033D01*
X138817024Y-122972579D01*
X138812640Y-122966668D01*
X138808856Y-122960355D01*
X138805709Y-122953701D01*
X138803229Y-122946771D01*
X138801441Y-122939632D01*
X138800361Y-122932351D01*
X138800000Y-122925000D01*
X138800000Y-122250000D01*
X138800361Y-122242649D01*
X138801441Y-122235368D01*
X138803229Y-122228229D01*
X138805709Y-122221299D01*
X138808856Y-122214645D01*
X138812640Y-122208332D01*
X138817024Y-122202421D01*
X138821967Y-122196967D01*
X138827421Y-122192024D01*
X138833332Y-122187640D01*
X138839645Y-122183856D01*
X138846299Y-122180709D01*
X138853229Y-122178229D01*
X138860368Y-122176441D01*
X138867649Y-122175361D01*
X138875000Y-122175000D01*
X139025000Y-122175000D01*
X139032351Y-122175361D01*
X139032351Y-122175361D01*
G37*
D12*
X138950000Y-122587500D03*
D11*
G36*
X139532351Y-122175361D02*
G01*
X139539632Y-122176441D01*
X139546771Y-122178229D01*
X139553701Y-122180709D01*
X139560355Y-122183856D01*
X139566668Y-122187640D01*
X139572579Y-122192024D01*
X139578033Y-122196967D01*
X139582976Y-122202421D01*
X139587360Y-122208332D01*
X139591144Y-122214645D01*
X139594291Y-122221299D01*
X139596771Y-122228229D01*
X139598559Y-122235368D01*
X139599639Y-122242649D01*
X139600000Y-122250000D01*
X139600000Y-122925000D01*
X139599639Y-122932351D01*
X139598559Y-122939632D01*
X139596771Y-122946771D01*
X139594291Y-122953701D01*
X139591144Y-122960355D01*
X139587360Y-122966668D01*
X139582976Y-122972579D01*
X139578033Y-122978033D01*
X139572579Y-122982976D01*
X139566668Y-122987360D01*
X139560355Y-122991144D01*
X139553701Y-122994291D01*
X139546771Y-122996771D01*
X139539632Y-122998559D01*
X139532351Y-122999639D01*
X139525000Y-123000000D01*
X139375000Y-123000000D01*
X139367649Y-122999639D01*
X139360368Y-122998559D01*
X139353229Y-122996771D01*
X139346299Y-122994291D01*
X139339645Y-122991144D01*
X139333332Y-122987360D01*
X139327421Y-122982976D01*
X139321967Y-122978033D01*
X139317024Y-122972579D01*
X139312640Y-122966668D01*
X139308856Y-122960355D01*
X139305709Y-122953701D01*
X139303229Y-122946771D01*
X139301441Y-122939632D01*
X139300361Y-122932351D01*
X139300000Y-122925000D01*
X139300000Y-122250000D01*
X139300361Y-122242649D01*
X139301441Y-122235368D01*
X139303229Y-122228229D01*
X139305709Y-122221299D01*
X139308856Y-122214645D01*
X139312640Y-122208332D01*
X139317024Y-122202421D01*
X139321967Y-122196967D01*
X139327421Y-122192024D01*
X139333332Y-122187640D01*
X139339645Y-122183856D01*
X139346299Y-122180709D01*
X139353229Y-122178229D01*
X139360368Y-122176441D01*
X139367649Y-122175361D01*
X139375000Y-122175000D01*
X139525000Y-122175000D01*
X139532351Y-122175361D01*
X139532351Y-122175361D01*
G37*
D12*
X139450000Y-122587500D03*
D11*
G36*
X140032351Y-122175361D02*
G01*
X140039632Y-122176441D01*
X140046771Y-122178229D01*
X140053701Y-122180709D01*
X140060355Y-122183856D01*
X140066668Y-122187640D01*
X140072579Y-122192024D01*
X140078033Y-122196967D01*
X140082976Y-122202421D01*
X140087360Y-122208332D01*
X140091144Y-122214645D01*
X140094291Y-122221299D01*
X140096771Y-122228229D01*
X140098559Y-122235368D01*
X140099639Y-122242649D01*
X140100000Y-122250000D01*
X140100000Y-122925000D01*
X140099639Y-122932351D01*
X140098559Y-122939632D01*
X140096771Y-122946771D01*
X140094291Y-122953701D01*
X140091144Y-122960355D01*
X140087360Y-122966668D01*
X140082976Y-122972579D01*
X140078033Y-122978033D01*
X140072579Y-122982976D01*
X140066668Y-122987360D01*
X140060355Y-122991144D01*
X140053701Y-122994291D01*
X140046771Y-122996771D01*
X140039632Y-122998559D01*
X140032351Y-122999639D01*
X140025000Y-123000000D01*
X139875000Y-123000000D01*
X139867649Y-122999639D01*
X139860368Y-122998559D01*
X139853229Y-122996771D01*
X139846299Y-122994291D01*
X139839645Y-122991144D01*
X139833332Y-122987360D01*
X139827421Y-122982976D01*
X139821967Y-122978033D01*
X139817024Y-122972579D01*
X139812640Y-122966668D01*
X139808856Y-122960355D01*
X139805709Y-122953701D01*
X139803229Y-122946771D01*
X139801441Y-122939632D01*
X139800361Y-122932351D01*
X139800000Y-122925000D01*
X139800000Y-122250000D01*
X139800361Y-122242649D01*
X139801441Y-122235368D01*
X139803229Y-122228229D01*
X139805709Y-122221299D01*
X139808856Y-122214645D01*
X139812640Y-122208332D01*
X139817024Y-122202421D01*
X139821967Y-122196967D01*
X139827421Y-122192024D01*
X139833332Y-122187640D01*
X139839645Y-122183856D01*
X139846299Y-122180709D01*
X139853229Y-122178229D01*
X139860368Y-122176441D01*
X139867649Y-122175361D01*
X139875000Y-122175000D01*
X140025000Y-122175000D01*
X140032351Y-122175361D01*
X140032351Y-122175361D01*
G37*
D12*
X139950000Y-122587500D03*
D11*
G36*
X140532351Y-122175361D02*
G01*
X140539632Y-122176441D01*
X140546771Y-122178229D01*
X140553701Y-122180709D01*
X140560355Y-122183856D01*
X140566668Y-122187640D01*
X140572579Y-122192024D01*
X140578033Y-122196967D01*
X140582976Y-122202421D01*
X140587360Y-122208332D01*
X140591144Y-122214645D01*
X140594291Y-122221299D01*
X140596771Y-122228229D01*
X140598559Y-122235368D01*
X140599639Y-122242649D01*
X140600000Y-122250000D01*
X140600000Y-122925000D01*
X140599639Y-122932351D01*
X140598559Y-122939632D01*
X140596771Y-122946771D01*
X140594291Y-122953701D01*
X140591144Y-122960355D01*
X140587360Y-122966668D01*
X140582976Y-122972579D01*
X140578033Y-122978033D01*
X140572579Y-122982976D01*
X140566668Y-122987360D01*
X140560355Y-122991144D01*
X140553701Y-122994291D01*
X140546771Y-122996771D01*
X140539632Y-122998559D01*
X140532351Y-122999639D01*
X140525000Y-123000000D01*
X140375000Y-123000000D01*
X140367649Y-122999639D01*
X140360368Y-122998559D01*
X140353229Y-122996771D01*
X140346299Y-122994291D01*
X140339645Y-122991144D01*
X140333332Y-122987360D01*
X140327421Y-122982976D01*
X140321967Y-122978033D01*
X140317024Y-122972579D01*
X140312640Y-122966668D01*
X140308856Y-122960355D01*
X140305709Y-122953701D01*
X140303229Y-122946771D01*
X140301441Y-122939632D01*
X140300361Y-122932351D01*
X140300000Y-122925000D01*
X140300000Y-122250000D01*
X140300361Y-122242649D01*
X140301441Y-122235368D01*
X140303229Y-122228229D01*
X140305709Y-122221299D01*
X140308856Y-122214645D01*
X140312640Y-122208332D01*
X140317024Y-122202421D01*
X140321967Y-122196967D01*
X140327421Y-122192024D01*
X140333332Y-122187640D01*
X140339645Y-122183856D01*
X140346299Y-122180709D01*
X140353229Y-122178229D01*
X140360368Y-122176441D01*
X140367649Y-122175361D01*
X140375000Y-122175000D01*
X140525000Y-122175000D01*
X140532351Y-122175361D01*
X140532351Y-122175361D01*
G37*
D12*
X140450000Y-122587500D03*
D11*
G36*
X141032351Y-122175361D02*
G01*
X141039632Y-122176441D01*
X141046771Y-122178229D01*
X141053701Y-122180709D01*
X141060355Y-122183856D01*
X141066668Y-122187640D01*
X141072579Y-122192024D01*
X141078033Y-122196967D01*
X141082976Y-122202421D01*
X141087360Y-122208332D01*
X141091144Y-122214645D01*
X141094291Y-122221299D01*
X141096771Y-122228229D01*
X141098559Y-122235368D01*
X141099639Y-122242649D01*
X141100000Y-122250000D01*
X141100000Y-122925000D01*
X141099639Y-122932351D01*
X141098559Y-122939632D01*
X141096771Y-122946771D01*
X141094291Y-122953701D01*
X141091144Y-122960355D01*
X141087360Y-122966668D01*
X141082976Y-122972579D01*
X141078033Y-122978033D01*
X141072579Y-122982976D01*
X141066668Y-122987360D01*
X141060355Y-122991144D01*
X141053701Y-122994291D01*
X141046771Y-122996771D01*
X141039632Y-122998559D01*
X141032351Y-122999639D01*
X141025000Y-123000000D01*
X140875000Y-123000000D01*
X140867649Y-122999639D01*
X140860368Y-122998559D01*
X140853229Y-122996771D01*
X140846299Y-122994291D01*
X140839645Y-122991144D01*
X140833332Y-122987360D01*
X140827421Y-122982976D01*
X140821967Y-122978033D01*
X140817024Y-122972579D01*
X140812640Y-122966668D01*
X140808856Y-122960355D01*
X140805709Y-122953701D01*
X140803229Y-122946771D01*
X140801441Y-122939632D01*
X140800361Y-122932351D01*
X140800000Y-122925000D01*
X140800000Y-122250000D01*
X140800361Y-122242649D01*
X140801441Y-122235368D01*
X140803229Y-122228229D01*
X140805709Y-122221299D01*
X140808856Y-122214645D01*
X140812640Y-122208332D01*
X140817024Y-122202421D01*
X140821967Y-122196967D01*
X140827421Y-122192024D01*
X140833332Y-122187640D01*
X140839645Y-122183856D01*
X140846299Y-122180709D01*
X140853229Y-122178229D01*
X140860368Y-122176441D01*
X140867649Y-122175361D01*
X140875000Y-122175000D01*
X141025000Y-122175000D01*
X141032351Y-122175361D01*
X141032351Y-122175361D01*
G37*
D12*
X140950000Y-122587500D03*
D11*
G36*
X139349504Y-119456204D02*
G01*
X139373773Y-119459804D01*
X139397571Y-119465765D01*
X139420671Y-119474030D01*
X139442849Y-119484520D01*
X139463893Y-119497133D01*
X139483598Y-119511747D01*
X139501777Y-119528223D01*
X139518253Y-119546402D01*
X139532867Y-119566107D01*
X139545480Y-119587151D01*
X139555970Y-119609329D01*
X139564235Y-119632429D01*
X139570196Y-119656227D01*
X139573796Y-119680496D01*
X139575000Y-119705000D01*
X139575000Y-120275000D01*
X139573796Y-120299504D01*
X139570196Y-120323773D01*
X139564235Y-120347571D01*
X139555970Y-120370671D01*
X139545480Y-120392849D01*
X139532867Y-120413893D01*
X139518253Y-120433598D01*
X139501777Y-120451777D01*
X139483598Y-120468253D01*
X139463893Y-120482867D01*
X139442849Y-120495480D01*
X139420671Y-120505970D01*
X139397571Y-120514235D01*
X139373773Y-120520196D01*
X139349504Y-120523796D01*
X139325000Y-120525000D01*
X138755000Y-120525000D01*
X138730496Y-120523796D01*
X138706227Y-120520196D01*
X138682429Y-120514235D01*
X138659329Y-120505970D01*
X138637151Y-120495480D01*
X138616107Y-120482867D01*
X138596402Y-120468253D01*
X138578223Y-120451777D01*
X138561747Y-120433598D01*
X138547133Y-120413893D01*
X138534520Y-120392849D01*
X138524030Y-120370671D01*
X138515765Y-120347571D01*
X138509804Y-120323773D01*
X138506204Y-120299504D01*
X138505000Y-120275000D01*
X138505000Y-119705000D01*
X138506204Y-119680496D01*
X138509804Y-119656227D01*
X138515765Y-119632429D01*
X138524030Y-119609329D01*
X138534520Y-119587151D01*
X138547133Y-119566107D01*
X138561747Y-119546402D01*
X138578223Y-119528223D01*
X138596402Y-119511747D01*
X138616107Y-119497133D01*
X138637151Y-119484520D01*
X138659329Y-119474030D01*
X138682429Y-119465765D01*
X138706227Y-119459804D01*
X138730496Y-119456204D01*
X138755000Y-119455000D01*
X139325000Y-119455000D01*
X139349504Y-119456204D01*
X139349504Y-119456204D01*
G37*
D13*
X139040000Y-119990000D03*
D11*
G36*
X140669504Y-119456204D02*
G01*
X140693773Y-119459804D01*
X140717571Y-119465765D01*
X140740671Y-119474030D01*
X140762849Y-119484520D01*
X140783893Y-119497133D01*
X140803598Y-119511747D01*
X140821777Y-119528223D01*
X140838253Y-119546402D01*
X140852867Y-119566107D01*
X140865480Y-119587151D01*
X140875970Y-119609329D01*
X140884235Y-119632429D01*
X140890196Y-119656227D01*
X140893796Y-119680496D01*
X140895000Y-119705000D01*
X140895000Y-120275000D01*
X140893796Y-120299504D01*
X140890196Y-120323773D01*
X140884235Y-120347571D01*
X140875970Y-120370671D01*
X140865480Y-120392849D01*
X140852867Y-120413893D01*
X140838253Y-120433598D01*
X140821777Y-120451777D01*
X140803598Y-120468253D01*
X140783893Y-120482867D01*
X140762849Y-120495480D01*
X140740671Y-120505970D01*
X140717571Y-120514235D01*
X140693773Y-120520196D01*
X140669504Y-120523796D01*
X140645000Y-120525000D01*
X140075000Y-120525000D01*
X140050496Y-120523796D01*
X140026227Y-120520196D01*
X140002429Y-120514235D01*
X139979329Y-120505970D01*
X139957151Y-120495480D01*
X139936107Y-120482867D01*
X139916402Y-120468253D01*
X139898223Y-120451777D01*
X139881747Y-120433598D01*
X139867133Y-120413893D01*
X139854520Y-120392849D01*
X139844030Y-120370671D01*
X139835765Y-120347571D01*
X139829804Y-120323773D01*
X139826204Y-120299504D01*
X139825000Y-120275000D01*
X139825000Y-119705000D01*
X139826204Y-119680496D01*
X139829804Y-119656227D01*
X139835765Y-119632429D01*
X139844030Y-119609329D01*
X139854520Y-119587151D01*
X139867133Y-119566107D01*
X139881747Y-119546402D01*
X139898223Y-119528223D01*
X139916402Y-119511747D01*
X139936107Y-119497133D01*
X139957151Y-119484520D01*
X139979329Y-119474030D01*
X140002429Y-119465765D01*
X140026227Y-119459804D01*
X140050496Y-119456204D01*
X140075000Y-119455000D01*
X140645000Y-119455000D01*
X140669504Y-119456204D01*
X140669504Y-119456204D01*
G37*
D13*
X140360000Y-119990000D03*
D11*
G36*
X139349504Y-120776204D02*
G01*
X139373773Y-120779804D01*
X139397571Y-120785765D01*
X139420671Y-120794030D01*
X139442849Y-120804520D01*
X139463893Y-120817133D01*
X139483598Y-120831747D01*
X139501777Y-120848223D01*
X139518253Y-120866402D01*
X139532867Y-120886107D01*
X139545480Y-120907151D01*
X139555970Y-120929329D01*
X139564235Y-120952429D01*
X139570196Y-120976227D01*
X139573796Y-121000496D01*
X139575000Y-121025000D01*
X139575000Y-121595000D01*
X139573796Y-121619504D01*
X139570196Y-121643773D01*
X139564235Y-121667571D01*
X139555970Y-121690671D01*
X139545480Y-121712849D01*
X139532867Y-121733893D01*
X139518253Y-121753598D01*
X139501777Y-121771777D01*
X139483598Y-121788253D01*
X139463893Y-121802867D01*
X139442849Y-121815480D01*
X139420671Y-121825970D01*
X139397571Y-121834235D01*
X139373773Y-121840196D01*
X139349504Y-121843796D01*
X139325000Y-121845000D01*
X138755000Y-121845000D01*
X138730496Y-121843796D01*
X138706227Y-121840196D01*
X138682429Y-121834235D01*
X138659329Y-121825970D01*
X138637151Y-121815480D01*
X138616107Y-121802867D01*
X138596402Y-121788253D01*
X138578223Y-121771777D01*
X138561747Y-121753598D01*
X138547133Y-121733893D01*
X138534520Y-121712849D01*
X138524030Y-121690671D01*
X138515765Y-121667571D01*
X138509804Y-121643773D01*
X138506204Y-121619504D01*
X138505000Y-121595000D01*
X138505000Y-121025000D01*
X138506204Y-121000496D01*
X138509804Y-120976227D01*
X138515765Y-120952429D01*
X138524030Y-120929329D01*
X138534520Y-120907151D01*
X138547133Y-120886107D01*
X138561747Y-120866402D01*
X138578223Y-120848223D01*
X138596402Y-120831747D01*
X138616107Y-120817133D01*
X138637151Y-120804520D01*
X138659329Y-120794030D01*
X138682429Y-120785765D01*
X138706227Y-120779804D01*
X138730496Y-120776204D01*
X138755000Y-120775000D01*
X139325000Y-120775000D01*
X139349504Y-120776204D01*
X139349504Y-120776204D01*
G37*
D13*
X139040000Y-121310000D03*
D11*
G36*
X140669504Y-120776204D02*
G01*
X140693773Y-120779804D01*
X140717571Y-120785765D01*
X140740671Y-120794030D01*
X140762849Y-120804520D01*
X140783893Y-120817133D01*
X140803598Y-120831747D01*
X140821777Y-120848223D01*
X140838253Y-120866402D01*
X140852867Y-120886107D01*
X140865480Y-120907151D01*
X140875970Y-120929329D01*
X140884235Y-120952429D01*
X140890196Y-120976227D01*
X140893796Y-121000496D01*
X140895000Y-121025000D01*
X140895000Y-121595000D01*
X140893796Y-121619504D01*
X140890196Y-121643773D01*
X140884235Y-121667571D01*
X140875970Y-121690671D01*
X140865480Y-121712849D01*
X140852867Y-121733893D01*
X140838253Y-121753598D01*
X140821777Y-121771777D01*
X140803598Y-121788253D01*
X140783893Y-121802867D01*
X140762849Y-121815480D01*
X140740671Y-121825970D01*
X140717571Y-121834235D01*
X140693773Y-121840196D01*
X140669504Y-121843796D01*
X140645000Y-121845000D01*
X140075000Y-121845000D01*
X140050496Y-121843796D01*
X140026227Y-121840196D01*
X140002429Y-121834235D01*
X139979329Y-121825970D01*
X139957151Y-121815480D01*
X139936107Y-121802867D01*
X139916402Y-121788253D01*
X139898223Y-121771777D01*
X139881747Y-121753598D01*
X139867133Y-121733893D01*
X139854520Y-121712849D01*
X139844030Y-121690671D01*
X139835765Y-121667571D01*
X139829804Y-121643773D01*
X139826204Y-121619504D01*
X139825000Y-121595000D01*
X139825000Y-121025000D01*
X139826204Y-121000496D01*
X139829804Y-120976227D01*
X139835765Y-120952429D01*
X139844030Y-120929329D01*
X139854520Y-120907151D01*
X139867133Y-120886107D01*
X139881747Y-120866402D01*
X139898223Y-120848223D01*
X139916402Y-120831747D01*
X139936107Y-120817133D01*
X139957151Y-120804520D01*
X139979329Y-120794030D01*
X140002429Y-120785765D01*
X140026227Y-120779804D01*
X140050496Y-120776204D01*
X140075000Y-120775000D01*
X140645000Y-120775000D01*
X140669504Y-120776204D01*
X140669504Y-120776204D01*
G37*
D13*
X140360000Y-121310000D03*
M02*
